<svg width="24" height="24" viewBox="0 0 24 24" fill="none" xmlns="http://www.w3.org/2000/svg">
<path d="M15.9602 21.32C15.7702 21.32 15.5802 21.25 15.4302 21.1L13.9102 19.58C13.6202 19.29 13.6202 18.81 13.9102 18.52C14.2002 18.23 14.6802 18.23 14.9702 18.52L15.9602 19.51L18.4702 17C18.7602 16.71 19.2402 16.71 19.5302 17C19.8202 17.29 19.8202 17.77 19.5302 18.06L16.4902 21.1C16.3402 21.25 16.1502 21.32 15.9602 21.32Z" fill="#292D32"/>
<path d="M12.1601 11.62C12.1301 11.62 12.1101 11.62 12.0801 11.62C12.0301 11.61 11.9601 11.61 11.9001 11.62C9.00015 11.53 6.81015 9.25 6.81015 6.44C6.80015 5.06 7.34015 3.76 8.32015 2.78C9.30015 1.8 10.6001 1.25 11.9901 1.25C14.8501 1.25 17.1802 3.58 17.1802 6.44C17.1802 9.25 14.9901 11.52 12.1901 11.62C12.1801 11.62 12.1701 11.62 12.1601 11.62ZM11.9901 2.75C11.0001 2.75 10.0801 3.14 9.38015 3.83C8.69015 4.53 8.31015 5.45 8.31015 6.43C8.31015 8.43 9.87015 10.05 11.8601 10.11C11.9201 10.1 12.0501 10.1 12.1801 10.11C14.1501 10.02 15.6802 8.41 15.6802 6.43C15.6802 4.41 14.0201 2.75 11.9901 2.75Z" fill="#292D32"/>
<path d="M11.9902 22.5599C9.95016 22.5599 8.02016 22.0299 6.56016 21.0499C5.17016 20.1199 4.41016 18.8499 4.41016 17.4799C4.41016 16.1099 5.18016 14.8499 6.56016 13.9299C9.55016 11.9299 14.4102 11.9299 17.4002 13.9299C17.7402 14.1599 17.8402 14.6299 17.6102 14.9699C17.3802 15.3199 16.9102 15.4099 16.5702 15.1799C14.0802 13.5199 9.88016 13.5199 7.39016 15.1799C6.43016 15.8199 5.91016 16.6299 5.91016 17.4799C5.91016 18.3299 6.43016 19.1599 7.39016 19.7999C8.60016 20.6099 10.2302 21.0499 11.9802 21.0499C12.3902 21.0499 12.7302 21.3899 12.7302 21.7999C12.7302 22.2099 12.4002 22.5599 11.9902 22.5599Z" fill="#292D32"/>
</svg>
