<svg width="18" height="18" viewBox="0 0 18 18" fill="none" xmlns="http://www.w3.org/2000/svg">
<g id="Group">
<path id="Vector" d="M15.9448 7.61046H10.3892V2.0549C10.3892 1.68655 10.2429 1.33328 9.98242 1.07281C9.72195 0.812345 9.36868 0.666016 9.00033 0.666016C8.63197 0.666016 8.2787 0.812345 8.01823 1.07281C7.75777 1.33328 7.61144 1.68655 7.61144 2.0549V7.61046H2.05588C1.68752 7.61046 1.33426 7.75679 1.07379 8.01726C0.813321 8.27772 0.666992 8.63099 0.666992 8.99935C0.666992 9.36771 0.813321 9.72097 1.07379 9.98144C1.33426 10.2419 1.68752 10.3882 2.05588 10.3882H7.61144V15.9438C7.61144 16.3122 7.75777 16.6654 8.01823 16.9259C8.2787 17.1864 8.63197 17.3327 9.00033 17.3327C9.36868 17.3327 9.72195 17.1864 9.98242 16.9259C10.2429 16.6654 10.3892 16.3122 10.3892 15.9438V10.3882H15.9448C16.3131 10.3882 16.6664 10.2419 16.9269 9.98144C17.1873 9.72097 17.3337 9.36771 17.3337 8.99935C17.3337 8.63099 17.1873 8.27772 16.9269 8.01726C16.6664 7.75679 16.3131 7.61046 15.9448 7.61046Z" fill="white"/>
</g>
</svg>
