<svg width="24" height="25" viewBox="0 0 24 25" fill="none" xmlns="http://www.w3.org/2000/svg">
<rect x="0.5" y="1" width="23" height="23" rx="11.5" stroke="#C99383"/>
<g clip-path="url(#clip0_1_9386)">
<path d="M17.5 12H12.5V7C12.5 6.86739 12.4473 6.74021 12.3536 6.64645C12.2598 6.55268 12.1326 6.5 12 6.5C11.8674 6.5 11.7402 6.55268 11.6464 6.64645C11.5527 6.74021 11.5 6.86739 11.5 7V12H6.5C6.36739 12 6.24021 12.0527 6.14645 12.1464C6.05268 12.2402 6 12.3674 6 12.5C6 12.6326 6.05268 12.7598 6.14645 12.8536C6.24021 12.9473 6.36739 13 6.5 13H11.5V18C11.5 18.1326 11.5527 18.2598 11.6464 18.3536C11.7402 18.4473 11.8674 18.5 12 18.5C12.1326 18.5 12.2598 18.4473 12.3536 18.3536C12.4473 18.2598 12.5 18.1326 12.5 18V13H17.5C17.6326 13 17.7598 12.9473 17.8536 12.8536C17.9473 12.7598 18 12.6326 18 12.5C18 12.3674 17.9473 12.2402 17.8536 12.1464C17.7598 12.0527 17.6326 12 17.5 12Z" fill="#C99383"/>
</g>
<defs>
<clipPath id="clip0_1_9386">
<rect width="12" height="12" fill="white" transform="translate(6 6.5)"/>
</clipPath>
</defs>
</svg>
