<svg width="16" height="16" viewBox="0 0 16 16" fill="none" xmlns="http://www.w3.org/2000/svg">
<g id="Icon / map-marker-home" clip-path="url(#clip0_11230_8543)">
<path id="Vector" d="M8 0C6.54737 3.29195e-05 5.12749 0.431477 3.92041 1.23961C2.71334 2.04775 1.77347 3.19616 1.21999 4.53921C0.666522 5.88226 0.524386 7.35942 0.811615 8.78336C1.09884 10.2073 1.8025 11.5139 2.83333 12.5373L5.46199 14.9647C6.13765 15.626 7.04481 15.9975 7.99029 16C8.93576 16.0025 9.84486 15.6358 10.524 14.978L13.1853 12.5187C14.2109 11.4931 14.9093 10.1864 15.1922 8.76393C15.4751 7.34144 15.3299 5.86698 14.7749 4.52702C14.2199 3.18706 13.28 2.04176 12.0741 1.23596C10.8681 0.430163 9.45036 4.60393e-05 8 0ZM12.2613 11.558L9.60533 14.012C9.16861 14.4235 8.59062 14.6516 7.9906 14.6494C7.39058 14.6471 6.81431 14.4147 6.38066 14L3.75733 11.576C3.05963 10.8783 2.54477 10.0193 2.25835 9.07507C1.97192 8.13085 1.92279 7.13057 2.11529 6.16283C2.30778 5.19509 2.73598 4.28975 3.36193 3.52702C3.98789 2.76429 4.79229 2.16771 5.70389 1.79011C6.61548 1.41252 7.60613 1.26556 8.58808 1.36228C9.57003 1.45899 10.513 1.79637 11.3334 2.34455C12.1538 2.89273 12.8264 3.63478 13.2915 4.50497C13.7566 5.37516 14 6.34663 14 7.33333C14.0029 8.11736 13.8508 8.89422 13.5524 9.61925C13.2541 10.3443 12.8153 11.0032 12.2613 11.558ZM11.14 5.10867L9.14 3.72133C8.80492 3.4898 8.40729 3.36578 8 3.36578C7.59271 3.36578 7.19507 3.4898 6.85999 3.72133L4.85999 5.10867C4.5946 5.29278 4.37775 5.53843 4.22798 5.82461C4.07821 6.1108 3.99999 6.429 3.99999 6.752V9C3.99999 9.44203 4.17559 9.86595 4.48815 10.1785C4.80071 10.4911 5.22463 10.6667 5.66666 10.6667H10.3333C10.7754 10.6667 11.1993 10.4911 11.5118 10.1785C11.8244 9.86595 12 9.44203 12 9V6.752C12 6.429 11.9218 6.1108 11.772 5.82461C11.6222 5.53843 11.4054 5.29278 11.14 5.10867ZM10.6667 9C10.6667 9.08841 10.6315 9.17319 10.569 9.2357C10.5065 9.29821 10.4217 9.33333 10.3333 9.33333H9.33333V8C9.33333 7.82319 9.26309 7.65362 9.13807 7.5286C9.01304 7.40357 8.84347 7.33333 8.66666 7.33333H7.33333C7.15652 7.33333 6.98695 7.40357 6.86192 7.5286C6.7369 7.65362 6.66666 7.82319 6.66666 8V9.33333H5.66666C5.57826 9.33333 5.49347 9.29821 5.43096 9.2357C5.36845 9.17319 5.33333 9.08841 5.33333 9V6.752C5.33329 6.6443 5.35935 6.53818 5.40927 6.44275C5.4592 6.34731 5.5315 6.26539 5.62 6.204L7.62 4.81667C7.7318 4.73978 7.8643 4.69862 8 4.69862C8.13569 4.69862 8.26819 4.73978 8.37999 4.81667L10.38 6.204C10.4685 6.26539 10.5408 6.34731 10.5907 6.44275C10.6406 6.53818 10.6667 6.6443 10.6667 6.752V9Z" fill="#FEA972"/>
</g>
<defs>
<clipPath id="clip0_11230_8543">
<rect width="16" height="16" fill="white"/>
</clipPath>
</defs>
</svg>
