<svg width="16" height="16" viewBox="0 0 16 16" fill="none" xmlns="http://www.w3.org/2000/svg">
<path fill-rule="evenodd" clip-rule="evenodd" d="M7.99996 3.8335C6.61925 3.8335 5.49996 4.95278 5.49996 6.3335C5.49996 7.71421 6.61925 8.8335 7.99996 8.8335C9.38067 8.8335 10.5 7.71421 10.5 6.3335C10.5 4.95278 9.38067 3.8335 7.99996 3.8335ZM6.49996 6.3335C6.49996 5.50507 7.17153 4.8335 7.99996 4.8335C8.82839 4.8335 9.49996 5.50507 9.49996 6.3335C9.49996 7.16192 8.82839 7.8335 7.99996 7.8335C7.17153 7.8335 6.49996 7.16192 6.49996 6.3335Z" fill="#1F8C61"/>
<path fill-rule="evenodd" clip-rule="evenodd" d="M7.99996 0.833496C5.01479 0.833496 2.49996 3.34588 2.49996 6.39143C2.49996 9.51157 5.07164 11.5965 7.21801 12.9517L7.22663 12.9572L7.23547 12.9623C7.46807 13.0962 7.73155 13.1668 7.99996 13.1668C8.26837 13.1668 8.53185 13.0962 8.76445 12.9623L8.77215 12.9578L8.7797 12.9531C10.9345 11.6082 13.5 9.50103 13.5 6.39143C13.5 3.34588 10.9851 0.833496 7.99996 0.833496ZM3.49996 6.39143C3.49996 3.89182 5.5734 1.8335 7.99996 1.8335C10.4265 1.8335 12.5 3.89182 12.5 6.39143C12.5 8.91188 10.4082 10.7564 8.25896 12.0993C8.17932 12.1437 8.09024 12.1668 7.99996 12.1668C7.91004 12.1668 7.82132 12.1439 7.74192 12.0999C5.59278 10.7413 3.49996 8.92032 3.49996 6.39143Z" fill="#1F8C61"/>
<path d="M4.16132 12.4734C4.42269 12.3843 4.56232 12.1001 4.47321 11.8388C4.38409 11.5774 4.09997 11.4378 3.8386 11.5269C3.39687 11.6775 3.00552 11.8632 2.71452 12.0902C2.43027 12.312 2.16663 12.6358 2.16663 13.0618C2.16663 13.5251 2.47657 13.8667 2.79588 14.0939C3.12791 14.3302 3.57598 14.5224 4.08464 14.6755C5.10829 14.9836 6.49244 15.1668 7.99996 15.1668C9.50747 15.1668 10.8916 14.9836 11.9153 14.6755C12.4239 14.5224 12.872 14.3302 13.204 14.0939C13.5234 13.8667 13.8333 13.5251 13.8333 13.0618C13.8333 12.6358 13.5696 12.312 13.2854 12.0902C12.9944 11.8632 12.603 11.6775 12.1613 11.5269C11.9 11.4378 11.6158 11.5774 11.5267 11.8388C11.4376 12.1001 11.5772 12.3843 11.8386 12.4734C12.2267 12.6057 12.502 12.7474 12.6702 12.8786C12.8047 12.9836 12.8288 13.0466 12.8327 13.0615C12.8287 13.0767 12.801 13.1534 12.6243 13.2791C12.4166 13.4269 12.0836 13.5805 11.6271 13.7179C10.7205 13.9908 9.43796 14.1668 7.99996 14.1668C6.56196 14.1668 5.27944 13.9908 4.37281 13.7179C3.91633 13.5805 3.58334 13.4269 3.37561 13.2791C3.19895 13.1534 3.17122 13.0767 3.16718 13.0615C3.17112 13.0466 3.1952 12.9836 3.3297 12.8786C3.49791 12.7474 3.77323 12.6057 4.16132 12.4734Z" fill="#1F8C61"/>
</svg>
