<svg width="16" height="16" viewBox="0 0 16 16" fill="none" xmlns="http://www.w3.org/2000/svg">
<g id="Icon / alarm-clock" clip-path="url(#clip0_11095_2535)">
<path id="Vector" d="M8.66667 1.36733V0.666667C8.66667 0.489856 8.59643 0.320286 8.47141 0.195262C8.34639 0.0702379 8.17682 0 8.00001 0C7.82319 0 7.65363 0.0702379 7.5286 0.195262C7.40358 0.320286 7.33334 0.489856 7.33334 0.666667V1.36733C5.99118 1.48766 4.70829 1.97614 3.626 2.77895C2.54371 3.58176 1.70402 4.66774 1.19946 5.91725C0.694901 7.16676 0.545044 8.53131 0.766402 9.86054C0.98776 11.1898 1.57174 12.4321 2.45401 13.4507C2.10558 13.623 1.81443 13.8925 1.6156 14.2265C1.41677 14.5605 1.31874 14.9449 1.33334 15.3333C1.33334 15.5101 1.40358 15.6797 1.5286 15.8047C1.65363 15.9298 1.82319 16 2.00001 16C2.17682 16 2.34639 15.9298 2.47141 15.8047C2.59643 15.6797 2.66667 15.5101 2.66667 15.3333C2.66113 15.1278 2.7349 14.9281 2.87268 14.7756C3.01047 14.623 3.20168 14.5293 3.40667 14.514C3.45253 14.5053 3.49725 14.4914 3.54001 14.4727C4.81703 15.4631 6.38723 16.0007 8.00334 16.0007C9.61945 16.0007 11.1896 15.4631 12.4667 14.4727C12.5057 14.4906 12.5463 14.5049 12.588 14.5153C12.7937 14.5294 12.9861 14.6223 13.1249 14.7747C13.2638 14.9271 13.3385 15.1272 13.3333 15.3333C13.3333 15.5101 13.4036 15.6797 13.5286 15.8047C13.6536 15.9298 13.8232 16 14 16C14.1768 16 14.3464 15.9298 14.4714 15.8047C14.5964 15.6797 14.6667 15.5101 14.6667 15.3333C14.6813 14.9449 14.5832 14.5605 14.3844 14.2265C14.1856 13.8925 13.8944 13.623 13.546 13.4507C14.4283 12.4321 15.0123 11.1898 15.2336 9.86054C15.455 8.53131 15.3051 7.16676 14.8005 5.91725C14.296 4.66774 13.4563 3.58176 12.374 2.77895C11.2917 1.97614 10.0088 1.48766 8.66667 1.36733ZM2.00001 8.66667C2.00001 7.47998 2.3519 6.31994 3.01119 5.33325C3.67048 4.34655 4.60755 3.57752 5.70391 3.12339C6.80026 2.66926 8.00666 2.55044 9.17055 2.78196C10.3344 3.01347 11.4035 3.58491 12.2426 4.42403C13.0818 5.26314 13.6532 6.33224 13.8847 7.49613C14.1162 8.66001 13.9974 9.86641 13.5433 10.9628C13.0892 12.0591 12.3201 12.9962 11.3334 13.6555C10.3467 14.3148 9.18669 14.6667 8.00001 14.6667C6.4093 14.6647 4.88431 14.032 3.75951 12.9072C2.63471 11.7824 2.00195 10.2574 2.00001 8.66667Z" fill="#FEA972"/>
<path id="Vector_2" d="M12.81 0.000555166C12.6332 0.000555166 12.4636 0.0707931 12.3386 0.195817C12.2136 0.320842 12.1433 0.490411 12.1433 0.667222C12.1433 0.844033 12.2136 1.0136 12.3386 1.13863C12.4636 1.26365 12.6332 1.33389 12.81 1.33389C13.0425 1.31622 13.2761 1.34581 13.4968 1.42088C13.7176 1.49594 13.9208 1.61494 14.0943 1.77068C14.2678 1.92642 14.408 2.11568 14.5063 2.32705C14.6047 2.53843 14.6592 2.76753 14.6667 3.00056C14.6667 3.17737 14.7369 3.34694 14.8619 3.47196C14.987 3.59698 15.1565 3.66722 15.3333 3.66722C15.5102 3.66722 15.6797 3.59698 15.8047 3.47196C15.9298 3.34694 16 3.17737 16 3.00056C15.9915 2.59289 15.9017 2.19101 15.736 1.81844C15.5703 1.44587 15.332 1.11009 15.0349 0.830745C14.7379 0.551397 14.3881 0.334093 14.0061 0.191545C13.6241 0.0489963 13.2174 -0.0159331 12.81 0.000555166Z" fill="#FF7F00"/>
<path id="Vector_3" d="M1.33333 3.00056C1.34076 2.76753 1.39531 2.53843 1.49368 2.32705C1.59205 2.11568 1.73221 1.92642 1.9057 1.77068C2.0792 1.61494 2.28243 1.49594 2.50316 1.42088C2.72389 1.34581 2.95753 1.31622 3.19 1.33389C3.36681 1.33389 3.53638 1.26365 3.6614 1.13863C3.78643 1.0136 3.85667 0.844033 3.85667 0.667222C3.85667 0.490411 3.78643 0.320842 3.6614 0.195817C3.53638 0.0707931 3.36681 0.000555166 3.19 0.000555166C2.78257 -0.0159331 2.37595 0.0489963 1.99392 0.191545C1.61189 0.334093 1.26212 0.551397 0.965084 0.830745C0.668045 1.11009 0.429698 1.44587 0.263987 1.81844C0.0982768 2.19101 0.00853083 2.59289 0 3.00056C0 3.17737 0.0702379 3.34694 0.195262 3.47196C0.320286 3.59698 0.489856 3.66722 0.666667 3.66722C0.843478 3.66722 1.01305 3.59698 1.13807 3.47196C1.2631 3.34694 1.33333 3.17737 1.33333 3.00056Z" fill="#FF7F00"/>
<path id="Vector_4" d="M8.66666 7.724V4.66667C8.66666 4.48986 8.59642 4.32029 8.4714 4.19526C8.34637 4.07024 8.17681 4 7.99999 4C7.82318 4 7.65361 4.07024 7.52859 4.19526C7.40357 4.32029 7.33333 4.48986 7.33333 4.66667V8C7.33337 8.1768 7.40363 8.34634 7.52866 8.47133L9.52866 10.4713C9.6544 10.5928 9.8228 10.66 9.9976 10.6584C10.1724 10.6569 10.3396 10.5868 10.4632 10.4632C10.5868 10.3396 10.6569 10.1724 10.6584 9.9976C10.66 9.8228 10.5928 9.6544 10.4713 9.52867L8.66666 7.724Z" fill="#FF7F00"/>
</g>
<defs>
<clipPath id="clip0_11095_2535">
<rect width="16" height="16" fill="white"/>
</clipPath>
</defs>
</svg>
