<svg width="14" height="14" viewBox="0 0 14 14" fill="none" xmlns="http://www.w3.org/2000/svg">
<path d="M7.00004 2.33356C9.89956 2.33356 12.25 4.68406 12.25 7.58356C12.25 10.4831 9.89956 12.8336 7.00004 12.8336C4.10055 12.8336 1.75004 10.4831 1.75004 7.58356C1.75004 4.68406 4.10055 2.33356 7.00004 2.33356ZM7.00004 3.50022C4.74488 3.50022 2.91671 5.3284 2.91671 7.58356C2.91671 9.83872 4.74488 11.6669 7.00004 11.6669C9.25521 11.6669 11.0834 9.83872 11.0834 7.58356C11.0834 5.3284 9.25521 3.50022 7.00004 3.50022ZM7.00004 4.66689C7.2992 4.66689 7.54575 4.89208 7.57945 5.1822L7.58337 5.25022V7.342L8.64067 8.39923C8.86846 8.62708 8.86846 8.99639 8.64067 9.22418C8.43034 9.43451 8.09949 9.45068 7.87062 9.27272L7.81566 9.22418L6.58751 7.99603C6.49092 7.89944 6.43528 7.77737 6.4206 7.65143L6.41671 7.57557V5.25022C6.41671 4.92806 6.67787 4.66689 7.00004 4.66689ZM9.70344 1.73324C9.86479 1.45436 10.2216 1.35907 10.5005 1.52039C11.2304 1.94261 11.8766 2.49264 12.4089 3.13982C12.6136 3.38865 12.5778 3.75626 12.3289 3.96089C12.0801 4.16554 11.7125 4.12972 11.5079 3.8809C11.0637 3.34089 10.5246 2.88214 9.9163 2.53026C9.63741 2.36894 9.54215 2.01211 9.70344 1.73324ZM3.49963 1.52039C3.7785 1.35907 4.13534 1.45437 4.29666 1.73324C4.45798 2.01211 4.36269 2.36894 4.08381 2.53026C3.47553 2.88214 2.93638 3.34089 2.49226 3.8809C2.28762 4.12972 1.92001 4.16554 1.67119 3.96089C1.42236 3.75626 1.38655 3.38865 1.59119 3.13982C2.12346 2.49264 2.76974 1.94261 3.49963 1.52039Z" fill="black"/>
</svg>
