<svg width="5" height="10" viewBox="0 0 5 10" fill="none" xmlns="http://www.w3.org/2000/svg">
<path d="M4.66665 4.99998C4.66695 5.15575 4.6127 5.30671 4.51331 5.42665L1.17998 9.42665C1.06682 9.56279 0.904214 9.64841 0.72793 9.66466C0.551645 9.68091 0.376125 9.62647 0.23998 9.51331C0.103836 9.40015 0.0182197 9.23755 0.00196653 9.06126C-0.0142866 8.88498 0.0401543 8.70946 0.153313 8.57331L3.13998 4.99998L0.259981 1.42665C0.204603 1.35845 0.163249 1.27999 0.138294 1.19576C0.11334 1.11154 0.105277 1.02321 0.11457 0.935859C0.123863 0.848506 0.150327 0.763851 0.192443 0.68676C0.234559 0.609669 0.291496 0.541661 0.35998 0.486646C0.428528 0.425592 0.508946 0.379354 0.596195 0.350825C0.683444 0.322296 0.775644 0.312095 0.86702 0.320857C0.958396 0.329618 1.04698 0.357156 1.12721 0.401745C1.20745 0.446334 1.27762 0.507013 1.33331 0.57998L4.55331 4.57998C4.63699 4.70337 4.67689 4.85125 4.66665 4.99998Z" fill="#18A5F1"/>
</svg>
