<svg width="20" height="20" viewBox="0 0 20 20" fill="none" xmlns="http://www.w3.org/2000/svg">
<path d="M8.35058 10.846C8.239 10.7353 8.15044 10.6037 8.09 10.4586C8.02957 10.3135 7.99846 10.1579 7.99846 10.0008C7.99846 9.84364 8.02957 9.68805 8.09 9.54298C8.15044 9.39792 8.239 9.26626 8.35058 9.1556L13.8145 3.70353C13.9261 3.59287 14.0147 3.46121 14.0751 3.31615C14.1356 3.17108 14.1667 3.01549 14.1667 2.85834C14.1667 2.7012 14.1356 2.5456 14.0751 2.40054C14.0147 2.25548 13.9261 2.12382 13.8145 2.01315C13.5915 1.79144 13.2898 1.66699 12.9753 1.66699C12.6608 1.66699 12.3591 1.79144 12.1361 2.01315L6.6721 7.47712C6.00333 8.14673 5.62769 9.05441 5.62769 10.0008C5.62769 10.9472 6.00333 11.8548 6.6721 12.5245L12.1361 17.9884C12.3578 18.2083 12.6571 18.3323 12.9694 18.3336C13.126 18.3345 13.2813 18.3045 13.4264 18.2453C13.5714 18.186 13.7033 18.0987 13.8145 17.9884C13.9261 17.8778 14.0147 17.7461 14.0751 17.601C14.1356 17.456 14.1667 17.3004 14.1667 17.1432C14.1667 16.9861 14.1356 16.8305 14.0751 16.6854C14.0147 16.5404 13.9261 16.4087 13.8145 16.298L8.35058 10.846Z" fill="#7E8AA3"/>
</svg>
