<svg width="24" height="24" viewBox="0 0 24 24" fill="none" xmlns="http://www.w3.org/2000/svg">
<path fill-rule="evenodd" clip-rule="evenodd" d="M9.75 5C9.75 3.75736 10.7574 2.75 12 2.75C13.2426 2.75 14.25 3.75736 14.25 5C14.25 6.24264 13.2426 7.25 12 7.25C10.7574 7.25 9.75 6.24264 9.75 5ZM8.29788 5.60088C5.59236 6.91998 3.75 9.63435 3.75 12.7514C3.75 13.6572 3.905 14.5269 4.19055 15.3376C4.45123 15.2802 4.72208 15.25 5 15.25C7.07107 15.25 8.75 16.9289 8.75 19C8.75 19.362 8.69871 19.7119 8.60302 20.0431C9.63788 20.4971 10.7875 20.7503 12 20.7503C13.2125 20.7503 14.3621 20.4971 15.397 20.0431C15.3013 19.7119 15.25 19.362 15.25 19C15.25 16.9289 16.9289 15.25 19 15.25C19.2779 15.25 19.5488 15.2802 19.8095 15.3376C20.0949 14.5271 20.25 13.6575 20.25 12.7514C20.25 9.63435 18.4076 6.91998 15.7021 5.60088C15.4146 7.3863 13.8665 8.75 12 8.75C10.1335 8.75 8.58543 7.3863 8.29788 5.60088ZM21.0922 15.8874L21.1927 15.924C21.5537 14.9311 21.75 13.8629 21.75 12.7514C21.75 8.72941 19.1883 5.30722 15.5915 3.91789C15.1271 2.37437 13.6949 1.25 12 1.25C10.3051 1.25 8.8729 2.37437 8.40849 3.91789C4.81173 5.30722 2.25 8.72941 2.25 12.7514C2.25 13.8731 2.44987 14.9504 2.81697 15.9506C1.86815 16.631 1.25 17.7433 1.25 19C1.25 21.0711 2.92893 22.75 5 22.75C6.17047 22.75 7.2157 22.2137 7.90339 21.3735C9.15003 21.9366 10.5385 22.2503 12 22.2503C13.4615 22.2503 14.85 21.9366 16.0966 21.3735C16.7843 22.2137 17.8295 22.75 19 22.75C21.0711 22.75 22.75 21.0711 22.75 19C22.75 17.7037 22.0922 16.5609 21.0922 15.8874ZM5 16.75C3.75736 16.75 2.75 17.7574 2.75 19C2.75 20.2426 3.75736 21.25 5 21.25C6.24264 21.25 7.25 20.2426 7.25 19C7.25 17.7574 6.24264 16.75 5 16.75ZM16.75 19C16.75 17.7574 17.7574 16.75 19 16.75C20.2426 16.75 21.25 17.7574 21.25 19C21.25 20.2426 20.2426 21.25 19 21.25C17.7574 21.25 16.75 20.2426 16.75 19Z" fill="#161616"/>
</svg>
