<svg width="16" height="20" viewBox="0 0 16 20" fill="none" xmlns="http://www.w3.org/2000/svg">
<g clip-path="url(#clip0_37_6727)">
<mask id="mask0_37_6727" style="mask-type:luminance" maskUnits="userSpaceOnUse" x="0" y="0" width="16" height="20">
<path d="M13.2317 0H2.76833C1.23942 0 0 1.05661 0 2.36V17.64C0 18.9434 1.23942 20 2.76833 20H13.2317C14.7606 20 16 18.9434 16 17.64V2.36C16 1.05661 14.7606 0 13.2317 0Z" fill="white"/>
</mask>
<g mask="url(#mask0_37_6727)">
<mask id="mask1_37_6727" style="mask-type:luminance" maskUnits="userSpaceOnUse" x="-2" y="0" width="21" height="21">
<path d="M18.049 0H-1.9707V20.48H18.049V0Z" fill="white"/>
</mask>
<g mask="url(#mask1_37_6727)">
<path d="M5.03598 9.3868C5.03598 8.9156 5.48408 8.5336 6.0368 8.5336H10.0406C10.5933 8.5336 11.0414 8.9156 11.0414 9.3868C11.0414 9.858 10.5933 10.24 10.0406 10.24H6.0368C5.48408 10.24 5.03598 9.858 5.03598 9.3868ZM15.0456 20.48H1.03223C-1.73047 20.4772 -2.29727 11.5868 0.0314081 11.1788V10.24C0.0351617 7.7988 1.56713 5.5448 4.05018 4.3288C4.0483 4.3076 4.03516 4.2888 4.03516 4.2664V3.4132C4.03516 1.5284 5.82801 0 8.03891 0C10.2498 0 12.0427 1.5284 12.0427 3.4132V4.2664C12.0427 4.2884 12.0295 4.3072 12.0277 4.3288C14.5107 5.5448 16.0431 7.7988 16.0464 10.24V11.1788C18.3751 11.5872 17.8083 20.4772 15.0456 20.48ZM6.03727 3.6376C7.34871 3.3384 8.72959 3.3384 10.041 3.6376V3.4132C10.041 2.4708 9.14484 1.7064 8.03891 1.7064C6.93299 1.7064 6.0368 2.4704 6.0368 3.4132L6.03727 3.6376ZM2.03352 14.1096C5.25792 11.282 10.5609 11.218 13.8782 13.9672C13.9345 14.014 13.9904 14.0616 14.0452 14.1096V10.2396C14.0452 7.412 11.3562 5.1196 8.03938 5.1196C4.72255 5.1196 2.03352 7.412 2.03352 10.2396V14.1096ZM1.03223 20.48L1.0585 20.4796C0.395983 19.3104 0.0351617 17.8776 0.0314081 16.4028V11.2168C-1.16413 11.7912 -1.96554 13.3224 -1.9707 15.044V16.4028C-1.9707 18.6544 -0.626422 20.48 1.03223 20.48ZM11.0423 18.7728C12.3824 18.7676 13.5563 18.0056 13.919 16.9056C12.4706 14.1372 8.66343 12.8944 5.41651 14.1292C3.96666 14.6808 2.80677 15.6696 2.15974 16.9056C2.52243 18.0056 3.69639 18.7672 5.03645 18.7728H11.0423ZM18.049 15.01C18.0438 13.278 17.2424 11.7368 16.0469 11.1596V16.3776C16.0431 17.862 15.6823 19.3032 15.0198 20.4796L15.0456 20.48C16.7043 20.48 18.0485 18.6432 18.0485 16.3776L18.049 15.01Z" fill="#535763"/>
</g>
</g>
</g>
<defs>
<clipPath id="clip0_37_6727">
<rect width="16" height="20" fill="white"/>
</clipPath>
</defs>
</svg>
