<svg width="20" height="20" viewBox="0 0 20 20" fill="none" xmlns="http://www.w3.org/2000/svg">
<g clip-path="url(#clip0_303_6443)">
<path d="M17.86 1.19837C16.4775 0.713372 15.11 0.375039 13.7958 0.190038C12.4817 0.00503847 11.0733 -0.0441282 9.60666 0.0392051C8.0875 0.127538 6.82916 1.26837 6.6125 2.75171L6.375 4.38421C6.3175 4.39171 6.26083 4.39921 6.20333 4.40671C4.88916 4.59171 3.52166 4.93004 2.13916 5.41504C0.702496 5.92004 -0.183338 7.36504 0.0324957 8.85254L0.865829 14.5759C1.26416 17.3167 4.9125 19.0375 7.05166 19.82C7.3825 19.9417 7.725 20.0009 8.065 20.0009C8.66583 20.0009 9.25583 19.815 9.74916 19.4542C11.01 18.5342 12.7033 17.0934 13.6133 15.445C13.635 15.4059 13.6533 15.365 13.6683 15.3242C15.8192 14.4467 18.7783 12.8109 19.135 10.3575L19.9683 4.63421C20.1842 3.14671 19.2983 1.70171 17.8608 1.19671L17.86 1.19837ZM8.76666 18.1084C8.44416 18.3442 8.01666 18.3984 7.62333 18.2559C4.62166 17.1584 2.71166 15.6934 2.515 14.3367L1.68166 8.61337C1.57916 7.91337 2.00416 7.23004 2.69 6.98921C3.86083 6.57921 5.01416 6.28254 6.12416 6.10504L5.77916 8.47587C5.75333 8.65421 5.74166 8.83171 5.74333 9.00921C5.47833 8.82754 5.18416 8.74087 4.88583 8.78421C4.28416 8.87087 3.85 9.45171 3.68666 10.2142C3.6325 10.4675 3.84833 10.6967 4.10416 10.66L6.00583 10.3884C6.21833 10.9759 6.5475 11.5442 6.94083 12.0809C5.80416 12.4567 4.9925 13.4292 4.65833 14.6117C4.55 14.9959 4.98666 15.3025 5.31833 15.0809C6.42833 14.3384 7.44166 13.9559 8.5875 13.8842C9.15916 14.4092 9.735 14.8625 10.2258 15.2217C10.5775 15.4792 10.9758 15.65 11.3908 15.73C10.5442 16.7409 9.44916 17.6109 8.76583 18.11L8.76666 18.1084ZM18.3175 4.39504L17.4842 10.1184C17.2875 11.475 15.3775 12.94 12.3767 14.0367C11.9833 14.18 11.5483 14.12 11.2117 13.8742C8.64666 11.9975 7.23333 10.0692 7.43 8.71504L8.2625 2.99171C8.365 2.28754 8.97083 1.74587 9.70333 1.70337C10.1325 1.67837 10.555 1.66587 10.9717 1.66587C11.8717 1.66587 12.74 1.72421 13.5642 1.83921C14.77 2.00837 16.0292 2.32171 17.3092 2.77004C17.9958 3.01171 18.42 3.69421 18.3183 4.39421L18.3175 4.39504ZM15.4442 9.43421C14.65 10.4992 13.4217 11.1359 12.1108 10.95C10.8008 10.7642 9.80166 9.81004 9.3375 8.56754C9.19333 8.18171 9.62083 7.83254 9.98 8.03421C11.6658 8.98004 13.095 9.18421 14.9792 8.74587C15.3783 8.65337 15.6892 9.10504 15.4442 9.43421ZM16.1742 6.09254C16.2283 6.34587 16.0125 6.57504 15.7567 6.53837L13.7 6.24421C13.4442 6.20754 13.3008 5.92754 13.4242 5.69921C13.7942 5.01254 14.3733 4.57504 14.9758 4.66254C15.5775 4.74921 16.0108 5.33004 16.1742 6.09254ZM9.53416 5.14421C9.90416 4.45754 10.4833 4.02004 11.0858 4.10754C11.6875 4.19421 12.1217 4.77504 12.285 5.53754C12.3392 5.79087 12.1233 6.02004 11.8675 5.98337L9.81083 5.68921C9.555 5.65254 9.41166 5.37254 9.535 5.14421H9.53416Z" fill="#B3B3B3"/>
</g>
<defs>
<clipPath id="clip0_303_6443">
<rect width="20" height="20" fill="white"/>
</clipPath>
</defs>
</svg>
