<svg width="24" height="15" viewBox="0 0 24 15" fill="none" xmlns="http://www.w3.org/2000/svg">
<g id="Group">
<path id="Vector" d="M24.0005 7.1818L23.9955 7.88679L12.4407 14.6016L0.000976562 7.4218V6.71681L11.5557 0.00195312L24.0005 7.1818Z" fill="#AA6256"/>
<path id="Vector_2" d="M24.0001 7.18359L23.9971 7.88858L12.4424 14.6039L12.4449 13.899L24.0001 7.18359Z" fill="#BF7D5A"/>
<path id="Vector_3" d="M12.4422 14.6033L0 7.41992L12.4422 14.6033Z" fill="#AA6256"/>
<path id="Vector_4" d="M24.0004 7.18335L12.4452 13.8982L0.00292969 6.71486L11.5577 0L24.0004 7.18335Z" fill="#DBA660"/>
<path id="Vector_5" d="M5.39553 6.4961C5.19403 6.4961 4.97454 6.43061 4.75054 6.30111C4.01056 5.87462 3.41157 4.83714 3.41407 3.98866C3.41507 3.54417 3.57507 3.20767 3.86406 3.04118C4.15456 2.87418 4.52905 2.90618 4.91804 3.13017C5.65702 3.55717 6.25651 4.59514 6.25401 5.44513C6.25301 5.88812 6.09301 6.22361 5.80452 6.39011C5.67994 6.46093 5.53883 6.49751 5.39553 6.4961ZM4.27355 3.25467C4.18591 3.25333 4.09948 3.27524 4.02306 3.31817C3.83706 3.42467 3.73406 3.66316 3.73306 3.98966C3.73106 4.73614 4.25905 5.64912 4.91004 6.02461C5.19603 6.18961 5.45703 6.22111 5.64552 6.11311C5.83152 6.00611 5.93452 5.76862 5.93552 5.44413C5.93702 4.69664 5.40953 3.78266 4.75854 3.40667C4.58355 3.30567 4.41855 3.25467 4.27355 3.25467Z" fill="#4C5C75"/>
<path id="Vector_6" d="M20.9002 7.69136L12.3654 12.6213L5.09554 8.39635L3.10559 7.24137L3.10059 5.54141L5.09054 6.70138L13.6254 1.77148L20.8952 5.9964L20.9002 7.69136Z" fill="#DEDFFB"/>
<path id="Vector_7" d="M13.6252 1.77148L5.08887 6.69938L12.3617 10.9228L20.8975 5.9949L13.6252 1.77148Z" fill="#F3F1FC"/>
<path id="Vector_8" d="M12.3613 10.924L12.3663 12.6215L20.9017 7.69356L20.8967 5.99609L12.3613 10.924Z" fill="#DEDFFB"/>
<path id="Vector_9" d="M12.3619 10.9224L5.08904 6.69894L3.10059 5.54297L3.10559 7.24043L5.09454 8.39641L12.3674 12.6198L12.3619 10.9224Z" fill="#E9E7FC"/>
<path id="Vector_10" d="M5.02051 6.66077C6.73297 7.70425 8.24194 8.73123 10.9274 8.86373C11.6607 8.89634 12.395 8.82821 13.1098 8.66123C15.6223 8.08524 18.1407 6.64177 19.7727 5.58779L13.9113 2.50586L5.02051 6.66077Z" fill="#DEDFFB"/>
<path id="Vector_11" d="M4.48145 6.34441C6.04641 7.33539 8.24137 8.16337 10.9273 8.29587C11.6606 8.32848 12.395 8.26035 13.1098 8.09337C15.6222 7.51738 18.1407 6.07341 19.7726 5.01994L13.9112 1.9375L4.48145 6.34441Z" fill="#E9E7FC"/>
<path id="Vector_12" d="M7.1309 4.92654C6.39192 4.49955 5.79243 3.46157 5.79493 2.61409C5.79593 2.1691 5.95593 1.83261 6.24492 1.66611C6.53541 1.49911 6.90991 1.53111 7.2989 1.75511C8.03788 2.1821 8.63737 3.22008 8.63487 4.07006C8.63237 4.98504 7.93988 5.39303 7.1309 4.92654ZM6.65441 1.87961C6.56677 1.87827 6.48034 1.90018 6.40392 1.9431C6.21792 2.0501 6.11492 2.2886 6.11392 2.61459C6.11192 3.36107 6.63941 4.27406 7.2909 4.64955C7.57689 4.81454 7.83789 4.84654 8.02638 4.73805C8.21238 4.63155 8.31538 4.39355 8.31638 4.06906C8.31788 3.32158 7.79039 2.40759 7.1394 2.0316C6.9644 1.9311 6.79941 1.87961 6.65441 1.87961ZM10.1573 3.74607C9.95634 3.74607 9.73735 3.68057 9.51235 3.55107C8.77337 3.12458 8.17388 2.0871 8.17638 1.23912C8.17738 0.794129 8.33738 0.457636 8.62637 0.291139C8.91686 0.124143 9.29136 0.156142 9.68035 0.380637C10.4193 0.807128 11.0188 1.84561 11.0163 2.69559C11.0153 3.13808 10.8553 3.47357 10.5668 3.64007C10.4421 3.71098 10.3008 3.74756 10.1573 3.74607ZM9.03586 0.504635C8.94822 0.503295 8.86179 0.525205 8.78537 0.568133C8.59937 0.675131 8.49637 0.913626 8.49537 1.23962C8.49337 1.9861 9.02086 2.89958 9.67185 3.27458C9.95834 3.43957 10.2193 3.47157 10.4078 3.36358C10.5933 3.25658 10.6968 3.01858 10.6978 2.69409C10.6993 1.9466 10.1718 1.03262 9.52085 0.656632C9.34586 0.556134 9.18086 0.504635 9.03586 0.504635Z" fill="#4C5C75"/>
<path id="Vector_13" d="M3.10059 5.54313L5.90653 7.1731L14.4638 2.2322L11.6359 0.615234L3.10059 5.54313Z" fill="#F45170"/>
<path id="Vector_14" d="M6.36246 5.1306C6.32256 5.15287 6.28008 5.17017 6.23596 5.18209C6.13597 5.21009 6.02197 5.21609 5.91697 5.19909C5.8454 5.1897 5.77632 5.16661 5.71347 5.1311C5.53398 5.0276 5.53398 4.8591 5.71547 4.7546C5.73947 4.7406 5.76647 4.7286 5.79397 4.7181C5.89752 4.68255 6.00763 4.67026 6.11647 4.68211C6.20696 4.69061 6.29446 4.71461 6.36446 4.7556C6.54196 4.8586 6.54146 5.0276 6.36246 5.1306Z" fill="#E93565"/>
<path id="Vector_15" d="M6.2358 5.18254C6.1358 5.21054 6.02181 5.21654 5.91681 5.19954C5.89367 5.03517 5.85242 4.87386 5.79381 4.71855C5.69828 4.46242 5.5668 4.22117 5.40332 4.00207V3.51758C5.72198 3.85012 5.96517 4.24748 6.11631 4.68255C6.1738 4.85005 6.2143 5.01755 6.2358 5.18254Z" fill="#4C5C75"/>
<path id="Vector_16" d="M8.74467 3.7556C8.70477 3.77787 8.66229 3.79517 8.61817 3.80709C8.51818 3.83559 8.40418 3.84109 8.29918 3.82409C8.22761 3.8147 8.15853 3.79161 8.09569 3.7561C7.91569 3.6526 7.91569 3.4846 8.09769 3.3796C8.12169 3.3656 8.14868 3.3536 8.17618 3.3431C8.27973 3.30755 8.38984 3.29526 8.49868 3.30711C8.58918 3.31561 8.67667 3.33961 8.74667 3.3806C8.92417 3.4836 8.92317 3.6526 8.74467 3.7556Z" fill="#E93565"/>
<path id="Vector_17" d="M8.61764 3.80754C8.51764 3.83604 8.40364 3.84154 8.29865 3.82454C8.27551 3.66017 8.23426 3.49886 8.17565 3.34355C8.08007 3.08759 7.94859 2.84652 7.78516 2.62757V2.14258C8.10381 2.47512 8.347 2.87248 8.49814 3.30755C8.55564 3.47505 8.59614 3.64305 8.61764 3.80754Z" fill="#4C5C75"/>
<path id="Vector_18" d="M11.1255 2.3806C11.0856 2.40287 11.0431 2.42017 10.999 2.43209C10.899 2.46059 10.785 2.46609 10.68 2.44909C10.6085 2.43985 10.5394 2.41693 10.4765 2.3816C10.2965 2.2776 10.2965 2.1096 10.4785 2.0051C10.5025 1.9906 10.5295 1.9786 10.557 1.9681C10.6606 1.93255 10.7707 1.92026 10.8795 1.93211C10.97 1.94061 11.0575 1.9646 11.1275 2.0056C11.305 2.1086 11.304 2.2776 11.1255 2.3806Z" fill="#E93565"/>
<path id="Vector_19" d="M10.9995 2.43254C10.8995 2.46104 10.7855 2.46654 10.6805 2.44954C10.6573 2.28517 10.6161 2.12386 10.5575 1.96855C10.4619 1.71259 10.3304 1.47152 10.167 1.25257V0.767578C10.4857 1.10012 10.7288 1.49748 10.88 1.93255C10.9375 2.10005 10.9785 2.26805 11 2.43254H10.9995Z" fill="#4C5C75"/>
<path id="Vector_20" d="M7.5326 5.31648L7.03261 5.02598C6.96112 4.98448 6.85312 5.04598 6.92512 5.08798L7.43261 5.38297C7.5341 5.44197 7.5751 5.50097 7.46261 5.56597C7.42046 5.58908 7.37488 5.60528 7.32761 5.61397C7.31846 5.61589 7.30968 5.61926 7.30161 5.62397C7.28811 5.63147 7.28211 5.64047 7.28411 5.65097C7.28511 5.66097 7.29261 5.66997 7.30511 5.67747C7.3263 5.68856 7.35064 5.69209 7.37411 5.68747C7.44811 5.67597 7.5136 5.65347 7.5711 5.62047C7.7411 5.52197 7.7026 5.41547 7.5326 5.31648ZM9.86406 4.2275L9.36107 3.93501C9.34501 3.92614 9.3269 3.92166 9.30857 3.92201C9.29006 3.92157 9.27177 3.92605 9.25557 3.93501C9.24057 3.9435 9.23307 3.954 9.23207 3.966C9.23207 3.978 9.23907 3.9885 9.25407 3.997L9.60556 4.201C9.64206 4.3875 9.41606 4.46549 9.25207 4.37L8.93058 4.1835C8.91452 4.17463 8.89641 4.17015 8.87808 4.1705C8.85957 4.17006 8.84128 4.17455 8.82508 4.1835C8.81008 4.192 8.80258 4.2025 8.80208 4.2145C8.80158 4.2265 8.80858 4.237 8.82358 4.2455L9.15607 4.439C9.20022 4.46413 9.24818 4.48187 9.29807 4.49149C9.49406 4.53199 9.65206 4.4405 9.69056 4.3625C9.7057 4.33094 9.71192 4.29584 9.70856 4.261L9.75656 4.289C9.77156 4.2975 9.78956 4.302 9.81056 4.302C9.82955 4.30253 9.84835 4.29805 9.86506 4.289C9.88006 4.2805 9.88706 4.27 9.88706 4.258C9.88656 4.246 9.87905 4.2365 9.86406 4.2275ZM9.15757 4.63649L8.82508 4.44299C8.69808 4.3695 8.51708 4.3545 8.38409 4.431C8.34497 4.45053 8.31245 4.48113 8.29059 4.51899C8.27545 4.55055 8.26922 4.58565 8.27259 4.62049L8.22459 4.59249C8.15259 4.55099 8.04559 4.61299 8.11709 4.65449L8.62008 4.94698C8.69258 4.98898 8.79358 4.92349 8.72708 4.88499L8.37559 4.68049C8.36837 4.64774 8.37045 4.61362 8.38159 4.58199C8.41009 4.50349 8.56408 4.4155 8.72908 4.51199L9.05057 4.69849C9.09457 4.72349 9.17757 4.70699 9.17907 4.66749C9.17957 4.65549 9.17257 4.64499 9.15757 4.63649ZM8.43909 5.05098L8.10759 4.85849C8.01415 4.80676 7.90592 4.78825 7.8006 4.80599C7.66783 4.82813 7.54883 4.9009 7.46861 5.00898C7.45661 5.02548 7.46161 5.03998 7.48261 5.05248C7.49619 5.06006 7.51155 5.06386 7.5271 5.06348C7.54228 5.06391 7.55729 5.06028 7.5706 5.05298C7.57528 5.05012 7.57964 5.04677 7.5836 5.04298C7.6906 4.91799 7.8526 4.83449 8.01559 4.92898L8.02509 4.93448L7.8821 5.01698C7.7421 5.09748 7.6606 5.20198 7.8011 5.28398C7.9096 5.34698 8.06309 5.33598 8.16909 5.27498C8.25859 5.22348 8.30259 5.16348 8.30159 5.09498L8.33159 5.11298C8.34659 5.12148 8.36459 5.12598 8.38509 5.12598C8.40509 5.12598 8.42309 5.12148 8.43759 5.11298C8.46758 5.09598 8.46959 5.06848 8.43909 5.05098ZM8.11509 5.19748C8.04459 5.23848 7.9666 5.25598 7.8966 5.21498C7.8351 5.17948 7.8631 5.12698 7.98159 5.05848L8.11059 4.98448L8.20909 5.04148C8.21509 5.09298 8.18709 5.15598 8.11509 5.19748ZM11.6355 3.53651L11.189 2.90403C11.1846 2.89855 11.1792 2.89397 11.173 2.89053C11.1567 2.88145 11.1382 2.8768 11.1195 2.87703C11.1009 2.87632 11.0824 2.88064 11.066 2.88953C11.043 2.90303 11.0385 2.91953 11.0515 2.93853L11.3115 3.30452L10.6825 3.14952C10.6548 3.1427 10.6256 3.14589 10.6 3.15852C10.585 3.16752 10.578 3.17752 10.578 3.18952C10.5785 3.20152 10.5865 3.21202 10.601 3.22052C10.6095 3.2251 10.6186 3.22847 10.628 3.23052L11.3865 3.41452L11.5055 3.57251C11.509 3.57751 11.5145 3.58201 11.5205 3.58551C11.5361 3.59406 11.5537 3.59837 11.5715 3.59801C11.5915 3.59801 11.6085 3.59451 11.623 3.58651C11.645 3.57351 11.6485 3.55701 11.6355 3.53651ZM10.822 3.67551L10.4655 3.46852C10.4601 3.45404 10.4576 3.43862 10.4582 3.42316C10.4588 3.40771 10.4625 3.39253 10.469 3.37852C10.486 3.34625 10.5126 3.32005 10.545 3.30352L10.551 3.29952C10.567 3.29052 10.575 3.28002 10.576 3.26902C10.5765 3.25752 10.57 3.24752 10.555 3.23902C10.5392 3.23006 10.5213 3.22541 10.503 3.22552C10.4845 3.22496 10.4662 3.22945 10.45 3.23852L10.4445 3.24152C10.376 3.28152 10.351 3.33852 10.3695 3.41252L10.3195 3.38352C10.3029 3.3744 10.284 3.36991 10.265 3.37052C10.2462 3.37 10.2276 3.37448 10.211 3.38352C10.196 3.39202 10.1885 3.40252 10.189 3.41452C10.1895 3.42652 10.197 3.43652 10.2115 3.44552L10.7145 3.73751C10.7295 3.74601 10.747 3.75051 10.7675 3.75051C10.7875 3.75051 10.8055 3.74601 10.82 3.73751C10.835 3.72901 10.843 3.71851 10.8435 3.70651C10.8435 3.69451 10.8365 3.68401 10.822 3.67551ZM10.534 3.84151L10.2025 3.64901C10.1591 3.62448 10.1117 3.60757 10.0626 3.59901C9.94674 3.57775 9.82713 3.59831 9.72506 3.65701C9.66142 3.69208 9.60628 3.74073 9.56356 3.79951C9.55106 3.81601 9.55606 3.83101 9.57706 3.84301C9.59083 3.85058 9.60635 3.85438 9.62206 3.85401C9.63702 3.8545 9.65185 3.85105 9.66506 3.84401C9.66977 3.84101 9.67413 3.83748 9.67806 3.83351C9.71438 3.79049 9.75806 3.75426 9.80706 3.72651C9.85336 3.69761 9.90609 3.6806 9.96055 3.67701C10.0136 3.67664 10.0656 3.69138 10.1105 3.71951L10.1196 3.72501L9.97705 3.80751C9.88805 3.85901 9.83806 3.90751 9.82606 3.95451C9.81456 4.001 9.83756 4.041 9.89556 4.0745C9.93055 4.095 9.97055 4.108 10.0146 4.1135C10.181 4.1355 10.3985 4.0325 10.396 3.88601L10.427 3.90351C10.4415 3.91201 10.4595 3.91651 10.4795 3.91651C10.4995 3.91651 10.5175 3.91251 10.5325 3.90351C10.5475 3.89501 10.555 3.88451 10.5555 3.87251C10.556 3.86051 10.549 3.85001 10.534 3.84151ZM10.0881 4.0285C10.0542 4.03023 10.0205 4.02225 9.99105 4.0055C9.92955 3.97 9.95805 3.91751 10.0766 3.84901L10.205 3.77501L10.3035 3.83201C10.3155 3.93901 10.1865 4.0255 10.0881 4.0285Z" fill="white"/>
<path id="Vector_21" d="M14.5124 5.64901C14.463 5.62172 14.4072 5.60825 14.3509 5.61001C14.2943 5.60828 14.2384 5.62175 14.1889 5.64901L13.8139 5.86551L11.6909 4.63203C11.6358 4.60176 11.5737 4.58658 11.5109 4.58803C11.4476 4.58624 11.3849 4.60143 11.3294 4.63203L11.2504 4.67753C11.2175 4.69552 11.1899 4.72191 11.1704 4.75403L10.9234 5.20602C10.8899 5.26302 10.9084 5.31152 10.9784 5.35202C11.0279 5.38032 11.084 5.39482 11.1409 5.39402C11.2009 5.39402 11.2549 5.38002 11.3034 5.35202C11.3293 5.33601 11.3513 5.3145 11.3679 5.28902L11.5654 4.95703L13.4704 6.0645L13.0204 6.324C12.9754 6.35 12.9529 6.381 12.9539 6.417C12.9549 6.45199 12.9779 6.48349 13.0229 6.50949C13.0679 6.53549 13.1209 6.54899 13.1814 6.54949C13.2368 6.55034 13.2915 6.53654 13.3399 6.50949L14.5089 5.83451C14.5539 5.80851 14.5774 5.77751 14.5789 5.74251C14.5799 5.70651 14.5574 5.67551 14.5124 5.64901ZM15.3283 6.53799C15.3161 6.53113 15.3023 6.52768 15.2883 6.52799C15.2742 6.52764 15.2602 6.53109 15.2478 6.53799L14.9208 6.72699C14.8968 6.68799 14.9238 6.62149 14.9413 6.56999C14.9678 6.49899 14.9938 6.431 14.9713 6.3615C14.9358 6.2495 14.6914 6.1855 14.4964 6.298C14.4306 6.33258 14.3751 6.38378 14.3354 6.44649C14.3289 6.45849 14.3334 6.46949 14.3489 6.47849C14.36 6.48445 14.3725 6.48756 14.3851 6.48756C14.3978 6.48756 14.4102 6.48445 14.4214 6.47849C14.4267 6.47553 14.4312 6.47122 14.4344 6.46599C14.4675 6.41926 14.511 6.38077 14.5614 6.3535C14.7098 6.268 14.9013 6.305 14.8653 6.4495C14.8571 6.47955 14.8471 6.5091 14.8353 6.53799C14.8221 6.57226 14.8111 6.60733 14.8023 6.64299C14.7743 6.76449 14.8888 6.83749 14.9643 6.79349L15.3273 6.58399C15.3383 6.57749 15.3443 6.56999 15.3448 6.56099C15.3448 6.55199 15.3398 6.54449 15.3283 6.53799ZM14.4874 6.69149C14.0764 6.45249 13.7614 6.67099 13.7989 6.80599C13.8154 6.86599 13.8754 6.92599 13.9779 6.98598C14.3914 7.22598 14.7029 7.00498 14.6664 6.87149C14.6499 6.81149 14.5899 6.75149 14.4874 6.69149ZM14.4894 6.98798C14.3609 7.06198 14.1919 7.01098 14.0634 6.93648C13.9359 6.86199 13.8484 6.76399 13.9769 6.68999C14.1054 6.61599 14.2744 6.66699 14.4019 6.74099C14.4819 6.78749 14.5304 6.83249 14.5469 6.87599C14.5634 6.91898 14.5439 6.95598 14.4894 6.98798ZM15.9018 6.2075C15.8896 6.20068 15.8758 6.19723 15.8618 6.1975C15.8475 6.19705 15.8333 6.20051 15.8208 6.2075L15.7278 6.261L15.2003 5.954C15.1864 5.94681 15.171 5.94306 15.1553 5.94306C15.1397 5.94306 15.1243 5.94681 15.1103 5.954L15.0908 5.96551C15.0826 5.96992 15.0757 5.97649 15.0708 5.9845L15.0093 6.097C15.0013 6.111 15.0058 6.123 15.0233 6.1335C15.0353 6.14 15.0483 6.1435 15.0633 6.1435C15.0775 6.14381 15.0915 6.14036 15.1038 6.1335C15.1103 6.12942 15.1158 6.12395 15.1198 6.1175L15.1693 6.035L15.6423 6.31L15.5308 6.375C15.5193 6.381 15.5138 6.389 15.5143 6.398C15.5143 6.4065 15.5203 6.4145 15.5313 6.421C15.5434 6.42743 15.5569 6.43079 15.5706 6.43079C15.5843 6.43079 15.5978 6.42743 15.6098 6.421C15.8308 6.28 15.9698 6.2475 15.9018 6.2075ZM14.0679 7.21948L13.7404 7.40847C13.6804 7.31048 13.9179 7.07948 13.7214 6.96498C13.6049 6.89749 13.4334 6.91198 13.3159 6.97998C13.2554 7.01498 13.1084 7.12498 13.1689 7.15998C13.18 7.16585 13.1923 7.16891 13.2049 7.16891C13.2174 7.16891 13.2298 7.16585 13.2409 7.15998C13.2462 7.15702 13.2507 7.15271 13.2539 7.14748C13.287 7.10076 13.3305 7.06227 13.3809 7.03498C13.4334 7.00498 13.4809 6.98898 13.5259 6.98798C13.5678 6.98585 13.6094 6.99574 13.6459 7.01648C13.7729 7.09048 13.5824 7.26998 13.6249 7.40647C13.6374 7.44697 13.6849 7.48797 13.7349 7.48797C13.7534 7.48797 13.7699 7.48297 13.7844 7.47497L14.1469 7.26548C14.1584 7.25898 14.1639 7.25148 14.1644 7.24248C14.1654 7.21698 14.1064 7.19748 14.0679 7.21948Z" fill="#4C5C75"/>
</g>
</svg>
