<svg width="22" height="22" viewBox="0 0 22 22" fill="none" xmlns="http://www.w3.org/2000/svg">
<path d="M15.9959 20.8541C14.96 20.8541 13.8692 20.6066 12.7417 20.1299C11.6417 19.6624 10.5325 19.0208 9.45087 18.2416C8.37837 17.4533 7.34254 16.5733 6.36171 15.6108C5.39004 14.6299 4.51004 13.5941 3.73087 12.5308C2.94254 11.4308 2.31004 10.3308 1.86087 9.26742C1.38421 8.13075 1.14587 7.03075 1.14587 5.99492C1.14587 5.27992 1.27421 4.60159 1.52171 3.96908C1.77837 3.31825 2.19087 2.71325 2.75004 2.19075C3.45587 1.49409 4.26254 1.14575 5.12421 1.14575C5.48171 1.14575 5.84837 1.22825 6.16004 1.37492C6.51754 1.53992 6.82004 1.78742 7.04004 2.11742L9.16671 5.11492C9.35921 5.38075 9.50587 5.63742 9.60671 5.89408C9.72587 6.16909 9.79004 6.44409 9.79004 6.70992C9.79004 7.05825 9.68921 7.39742 9.49671 7.71825C9.35921 7.96575 9.14837 8.23159 8.88254 8.49742L8.25921 9.14825C8.26837 9.17575 8.27754 9.19409 8.28671 9.21242C8.39671 9.40492 8.61671 9.73492 9.03837 10.2299C9.48754 10.7433 9.90921 11.2108 10.3309 11.6416C10.8717 12.1733 11.3209 12.5949 11.7425 12.9433C12.265 13.3833 12.6042 13.6033 12.8059 13.7041L12.7875 13.7499L13.4567 13.0899C13.7409 12.8058 14.0159 12.5949 14.2817 12.4574C14.7859 12.1458 15.4275 12.0908 16.0692 12.3566C16.3075 12.4574 16.5642 12.5949 16.8392 12.7874L19.8825 14.9508C20.2217 15.1799 20.4692 15.4733 20.6159 15.8216C20.7534 16.1699 20.8175 16.4908 20.8175 16.8116C20.8175 17.2516 20.7167 17.6916 20.5242 18.1041C20.3317 18.5166 20.0934 18.8741 19.7909 19.2041C19.2684 19.7816 18.7 20.1941 18.04 20.4599C17.4075 20.7166 16.72 20.8541 15.9959 20.8541ZM5.12421 2.52075C4.62004 2.52075 4.15254 2.74075 3.70337 3.18075C3.28171 3.57492 2.98837 4.00575 2.80504 4.47325C2.61254 4.94992 2.52087 5.45408 2.52087 5.99492C2.52087 6.84742 2.72254 7.77325 3.12587 8.72659C3.53837 9.69825 4.11587 10.7066 4.84921 11.7149C5.58254 12.7233 6.41671 13.7041 7.33337 14.6299C8.25004 15.5374 9.24004 16.3808 10.2575 17.1233C11.2475 17.8474 12.265 18.4341 13.2734 18.8558C14.8409 19.5249 16.3075 19.6808 17.5175 19.1766C17.985 18.9841 18.3975 18.6908 18.7734 18.2691C18.9842 18.0399 19.1492 17.7924 19.2867 17.4991C19.3967 17.2699 19.4517 17.0316 19.4517 16.7933C19.4517 16.6466 19.4242 16.4999 19.3509 16.3349C19.3234 16.2799 19.2684 16.1791 19.0942 16.0599L16.0509 13.8966C15.8675 13.7683 15.7025 13.6766 15.5467 13.6124C15.345 13.5299 15.2625 13.4474 14.9509 13.6399C14.7675 13.7316 14.6025 13.8691 14.4192 14.0524L13.7225 14.7399C13.365 15.0883 12.815 15.1708 12.3934 15.0149L12.1459 14.9049C11.77 14.7033 11.33 14.3916 10.8442 13.9791C10.4042 13.6033 9.92754 13.1633 9.35004 12.5949C8.90087 12.1366 8.45171 11.6508 7.98421 11.1099C7.55337 10.6058 7.24171 10.1749 7.04921 9.81742L6.93921 9.54242C6.88421 9.33158 6.86587 9.21242 6.86587 9.08408C6.86587 8.75408 6.98504 8.46075 7.21421 8.23158L7.90171 7.51658C8.08504 7.33325 8.22254 7.15908 8.31421 7.00325C8.38754 6.88408 8.41504 6.78325 8.41504 6.69159C8.41504 6.61825 8.38754 6.50825 8.34171 6.39825C8.27754 6.25159 8.17671 6.08659 8.04837 5.91242L5.92171 2.90575C5.83004 2.77742 5.72004 2.68575 5.58254 2.62159C5.43587 2.55742 5.28004 2.52075 5.12421 2.52075ZM12.7875 13.7591L12.6409 14.3824L12.8884 13.7408C12.8425 13.7316 12.8059 13.7408 12.7875 13.7591Z" fill="#433578"/>
</svg>
