<svg width="16" height="16" viewBox="0 0 16 16" fill="none" xmlns="http://www.w3.org/2000/svg">
<path d="M6.66671 10.1665C6.39056 10.1665 6.16671 10.3904 6.16671 10.6665C6.16671 10.9426 6.39056 11.1665 6.66671 11.1665H7.66671C7.94285 11.1665 8.16671 10.9426 8.16671 10.6665C8.16671 10.3904 7.94285 10.1665 7.66671 10.1665H6.66671Z" fill="#1F8C61"/>
<path d="M9.16671 10.6665C9.16671 10.3904 9.39056 10.1665 9.66671 10.1665H12C12.2762 10.1665 12.5 10.3904 12.5 10.6665C12.5 10.9426 12.2762 11.1665 12 11.1665H9.66671C9.39056 11.1665 9.16671 10.9426 9.16671 10.6665Z" fill="#1F8C61"/>
<path fill-rule="evenodd" clip-rule="evenodd" d="M9.03173 2.1665H6.96835C5.74234 2.1665 4.77949 2.16649 4.02043 2.25224C3.24565 2.33976 2.61738 2.52225 2.09512 2.93469C1.93878 3.05817 1.79383 3.19454 1.66203 3.34237C1.21791 3.84051 1.01959 4.4443 0.925124 5.18507C0.833358 5.90469 0.833365 6.81534 0.833374 7.96468V8.03499C0.833365 9.18433 0.833358 10.095 0.925124 10.8146C1.01959 11.5554 1.21791 12.1592 1.66203 12.6573C1.79383 12.8051 1.93878 12.9415 2.09512 13.065C2.61738 13.4774 3.24565 13.6599 4.02043 13.7474C4.77949 13.8332 5.74234 13.8332 6.96834 13.8332H9.03174C10.2577 13.8332 11.2206 13.8332 11.9797 13.7474C12.7544 13.6599 13.3827 13.4774 13.905 13.065C14.0613 12.9415 14.2063 12.8051 14.3381 12.6573C14.7822 12.1592 14.9805 11.5554 15.075 10.8146C15.1667 10.095 15.1667 9.18434 15.1667 8.035V7.96467C15.1667 6.81533 15.1667 5.90469 15.075 5.18507C14.9805 4.4443 14.7822 3.84051 14.3381 3.34237C14.2063 3.19454 14.0613 3.05817 13.905 2.93469C13.3827 2.52225 12.7544 2.33976 11.9797 2.25224C11.2206 2.16649 10.2577 2.1665 9.03173 2.1665ZM2.7149 3.71948C3.0291 3.47134 3.44548 3.32354 4.13267 3.24592C4.82906 3.16725 5.73545 3.1665 7.00004 3.1665H9.00004C10.2646 3.1665 11.171 3.16725 11.8674 3.24592C12.5546 3.32354 12.971 3.47134 13.2852 3.71948C13.3964 3.80731 13.4989 3.90384 13.5916 4.00784C13.8494 4.29694 14.002 4.67636 14.083 5.31157C14.0908 5.37254 14.0978 5.43525 14.1042 5.49984H1.89587C1.90226 5.43525 1.90932 5.37254 1.91709 5.31157C1.99809 4.67636 2.1507 4.29694 2.40845 4.00784C2.50117 3.90384 2.60367 3.80731 2.7149 3.71948ZM1.84309 6.49984C1.8336 6.93058 1.83337 7.42507 1.83337 7.99984C1.83337 9.19221 1.83433 10.0391 1.91709 10.6881C1.99809 11.3233 2.1507 11.7027 2.40845 11.9918C2.50117 12.0958 2.60367 12.1924 2.7149 12.2802C3.0291 12.5283 3.44548 12.6761 4.13267 12.7538C4.82906 12.8324 5.73545 12.8332 7.00004 12.8332H9.00004C10.2646 12.8332 11.171 12.8324 11.8674 12.7538C12.5546 12.6761 12.971 12.5283 13.2852 12.2802C13.3964 12.1924 13.4989 12.0958 13.5916 11.9918C13.8494 11.7027 14.002 11.3233 14.083 10.6881C14.1658 10.0391 14.1667 9.19221 14.1667 7.99984C14.1667 7.42507 14.1665 6.93058 14.157 6.49984H1.84309Z" fill="#1F8C61"/>
</svg>
