<svg width="16" height="16" viewBox="0 0 16 16" fill="none" xmlns="http://www.w3.org/2000/svg">
<g id="Group">
<path id="Vector" d="M16.0001 7.49838C15.9037 5.93839 15.3529 4.44072 14.4156 3.18999C13.4783 1.93927 12.1954 0.990171 10.7252 0.459706C9.25505 -0.0707594 7.66176 -0.159402 6.1418 0.204706C4.62184 0.568814 3.24166 1.36976 2.1714 2.50879C1.10114 3.64782 0.38759 5.07515 0.118724 6.61481C-0.150142 8.15448 0.0374273 9.73917 0.658307 11.1735C1.27919 12.6079 2.30623 13.8292 3.61283 14.6869C4.91943 15.5446 6.44847 16.0012 8.01143 16.0004H12.6668C13.5505 15.9995 14.3979 15.648 15.0228 15.0231C15.6477 14.3982 15.9992 13.5508 16.0001 12.667V7.49838ZM14.6668 12.667C14.6668 13.1975 14.456 13.7062 14.081 14.0813C13.7059 14.4563 13.1972 14.667 12.6668 14.667H8.01143C7.07072 14.6666 6.14066 14.4679 5.28189 14.0839C4.42313 13.6999 3.65495 13.1392 3.02743 12.4384C2.39688 11.7379 1.92338 10.9107 1.63869 10.0122C1.354 9.11378 1.2647 8.16484 1.37676 7.22904C1.55372 5.753 2.21689 4.37783 3.26172 3.32033C4.30656 2.26282 5.67363 1.58312 7.14743 1.38838C7.43492 1.35234 7.72436 1.33409 8.0141 1.33371C9.56775 1.32947 11.0733 1.87231 12.2668 2.86704C12.9638 3.44634 13.5359 4.16114 13.9484 4.96813C14.361 5.77511 14.6054 6.65747 14.6668 7.56171V12.667Z" fill="#FEA972"/>
<path id="Vector_2" d="M5.33332 6.0013H7.99999C8.1768 6.0013 8.34637 5.93106 8.47139 5.80604C8.59642 5.68102 8.66666 5.51145 8.66666 5.33464C8.66666 5.15782 8.59642 4.98826 8.47139 4.86323C8.34637 4.73821 8.1768 4.66797 7.99999 4.66797H5.33332C5.15651 4.66797 4.98694 4.73821 4.86192 4.86323C4.73689 4.98826 4.66666 5.15782 4.66666 5.33464C4.66666 5.51145 4.73689 5.68102 4.86192 5.80604C4.98694 5.93106 5.15651 6.0013 5.33332 6.0013Z" fill="#FEA972"/>
<path id="Vector_3" d="M10.6667 7.33398H5.33332C5.15651 7.33398 4.98694 7.40422 4.86192 7.52925C4.73689 7.65427 4.66666 7.82384 4.66666 8.00065C4.66666 8.17746 4.73689 8.34703 4.86192 8.47206C4.98694 8.59708 5.15651 8.66732 5.33332 8.66732H10.6667C10.8435 8.66732 11.013 8.59708 11.1381 8.47206C11.2631 8.34703 11.3333 8.17746 11.3333 8.00065C11.3333 7.82384 11.2631 7.65427 11.1381 7.52925C11.013 7.40422 10.8435 7.33398 10.6667 7.33398Z" fill="#FEA972"/>
<path id="Vector_4" d="M10.6667 10H5.33332C5.15651 10 4.98694 10.0702 4.86192 10.1953C4.73689 10.3203 4.66666 10.4899 4.66666 10.6667C4.66666 10.8435 4.73689 11.013 4.86192 11.1381C4.98694 11.2631 5.15651 11.3333 5.33332 11.3333H10.6667C10.8435 11.3333 11.013 11.2631 11.1381 11.1381C11.2631 11.013 11.3333 10.8435 11.3333 10.6667C11.3333 10.4899 11.2631 10.3203 11.1381 10.1953C11.013 10.0702 10.8435 10 10.6667 10Z" fill="#FEA972"/>
</g>
</svg>
