<svg width="32" height="32" viewBox="0 0 32 32" fill="none" xmlns="http://www.w3.org/2000/svg">
<path d="M11.9994 17.333C11.1194 17.773 10.386 18.4263 9.83938 19.2397C9.53271 19.7063 9.53271 20.293 9.83938 20.7597C10.386 21.573 11.1194 22.2263 11.9994 22.6663" stroke="#292D32" stroke-width="2" stroke-linecap="round" stroke-linejoin="round"/>
<path d="M20.2812 17.333C21.1613 17.773 21.8946 18.4263 22.4412 19.2397C22.7479 19.7063 22.7479 20.293 22.4412 20.7597C21.8946 21.573 21.1613 22.2263 20.2812 22.6663" stroke="#292D32" stroke-width="2" stroke-linecap="round" stroke-linejoin="round"/>
<path d="M11.9993 29.3337H19.9993C26.666 29.3337 29.3327 26.667 29.3327 20.0003V12.0003C29.3327 5.33366 26.666 2.66699 19.9993 2.66699H11.9993C5.33268 2.66699 2.66602 5.33366 2.66602 12.0003V20.0003C2.66602 26.667 5.33268 29.3337 11.9993 29.3337Z" stroke="#292D32" stroke-width="2" stroke-linecap="round" stroke-linejoin="round"/>
<path d="M2.97461 10.6803L28.6013 10.667" stroke="#292D32" stroke-width="2" stroke-linecap="round" stroke-linejoin="round"/>
</svg>
