<svg width="22" height="22" viewBox="0 0 22 22" fill="none" xmlns="http://www.w3.org/2000/svg">
<path d="M13.1111 8.90084C13.2466 9.29228 13.6737 9.49979 14.0652 9.36434C14.4566 9.22889 14.6641 8.80176 14.5287 8.41032L13.1111 8.90084ZM12.1999 7.43336L12.2329 6.68408C12.2219 6.6836 12.2109 6.68336 12.1999 6.68336V7.43336ZM9.7999 11.1V11.85V11.1ZM12.1999 14.7667V15.5167V14.7667ZM9.7999 14.7667L9.76695 15.516C9.77793 15.5164 9.78891 15.5167 9.7999 15.5167V14.7667ZM8.88867 13.2992C8.75321 12.9078 8.32608 12.7002 7.93464 12.8357C7.5432 12.9712 7.33568 13.3983 7.47114 13.7897L8.88867 13.2992ZM11.7499 5.60002C11.7499 5.18581 11.4141 4.85002 10.9999 4.85002C10.5857 4.85002 10.2499 5.18581 10.2499 5.60002H11.7499ZM10.2499 7.43336C10.2499 7.84757 10.5857 8.18336 10.9999 8.18336C11.4141 8.18336 11.7499 7.84757 11.7499 7.43336H10.2499ZM11.7499 14.7667C11.7499 14.3525 11.4141 14.0167 10.9999 14.0167C10.5857 14.0167 10.2499 14.3525 10.2499 14.7667H11.7499ZM10.2499 16.6C10.2499 17.0142 10.5857 17.35 10.9999 17.35C11.4141 17.35 11.7499 17.0142 11.7499 16.6H10.2499ZM14.5287 8.41032C14.3611 7.92593 14.0542 7.50152 13.6454 7.19308L12.742 8.39051C12.9105 8.51771 13.0399 8.69496 13.1111 8.90084L14.5287 8.41032ZM13.6454 7.19308C13.2364 6.88451 12.7445 6.70658 12.2329 6.68408L12.1669 8.18263C12.3732 8.1917 12.5735 8.26344 12.742 8.39051L13.6454 7.19308ZM12.1999 6.68336H9.7999V8.18336H12.1999V6.68336ZM9.7999 6.68336C9.11911 6.68336 8.46905 6.95894 7.99194 7.44488L9.06228 8.49577C9.2603 8.29408 9.52591 8.18336 9.7999 8.18336V6.68336ZM7.99194 7.44488C7.51528 7.93037 7.2499 8.58594 7.2499 9.26669H8.7499C8.7499 8.97498 8.86381 8.69792 9.06228 8.49577L7.99194 7.44488ZM7.2499 9.26669C7.2499 9.94743 7.51528 10.603 7.99194 11.0885L9.06228 10.0376C8.86381 9.83546 8.7499 9.5584 8.7499 9.26669H7.2499ZM7.99194 11.0885C8.46905 11.5744 9.11911 11.85 9.7999 11.85V10.35C9.52591 10.35 9.2603 10.2393 9.06228 10.0376L7.99194 11.0885ZM9.7999 11.85H12.1999V10.35H9.7999V11.85ZM12.1999 11.85C12.4739 11.85 12.7395 11.9607 12.9375 12.1624L14.0079 11.1115C13.5308 10.6256 12.8807 10.35 12.1999 10.35V11.85ZM12.9375 12.1624C13.136 12.3646 13.2499 12.6416 13.2499 12.9334H14.7499C14.7499 12.2526 14.4845 11.597 14.0079 11.1115L12.9375 12.1624ZM13.2499 12.9334C13.2499 13.2251 13.136 13.5021 12.9375 13.7043L14.0079 14.7552C14.4845 14.2697 14.7499 13.6141 14.7499 12.9334H13.2499ZM12.9375 13.7043C12.7395 13.906 12.4739 14.0167 12.1999 14.0167V15.5167C12.8807 15.5167 13.5308 15.2411 14.0079 14.7552L12.9375 13.7043ZM12.1999 14.0167H9.7999V15.5167H12.1999V14.0167ZM9.83285 14.0174C9.62656 14.0083 9.42627 13.9366 9.25785 13.8095L8.35443 15.007C8.76343 15.3155 9.25533 15.4935 9.76695 15.516L9.83285 14.0174ZM9.25785 13.8095C9.08925 13.6823 8.95991 13.5051 8.88867 13.2992L7.47114 13.7897C7.63875 14.2741 7.94561 14.6985 8.35443 15.007L9.25785 13.8095ZM10.2499 5.60002V7.43336H11.7499V5.60002H10.2499ZM10.2499 14.7667V16.6H11.7499V14.7667H10.2499ZM19.8499 11C19.8499 15.8877 15.8876 19.85 10.9999 19.85V21.35C16.716 21.35 21.3499 16.7162 21.3499 11H19.8499ZM10.9999 19.85C6.11218 19.85 2.1499 15.8877 2.1499 11H0.649902C0.649902 16.7162 5.28375 21.35 10.9999 21.35V19.85ZM2.1499 11C2.1499 6.1123 6.11218 2.15002 10.9999 2.15002V0.650024C5.28375 0.650024 0.649902 5.28388 0.649902 11H2.1499ZM10.9999 2.15002C15.8876 2.15002 19.8499 6.1123 19.8499 11H21.3499C21.3499 5.28388 16.716 0.650024 10.9999 0.650024V2.15002Z" fill="#798F9B"/>
</svg>
