<svg width="20" height="20" viewBox="0 0 20 20" fill="none" xmlns="http://www.w3.org/2000/svg">
<g clip-path="url(#clip0_441_21020)">
<path d="M15.8333 0H4.16667C1.86917 0 0 1.86917 0 4.16667V16.6667C0 18.505 1.495 20 3.33333 20H7.5C9.33833 20 10.8333 18.505 10.8333 16.6667V7.66167C12.4967 10.545 15.0575 11.9983 16.8808 12.7033C15.4967 13.8667 13.785 15.7258 13.36 18.0617C13.2733 18.5342 13.4033 19.02 13.715 19.3942C14.0358 19.7783 14.5058 19.9992 15.0067 19.9992H16.6C18.5067 19.9992 20 18.535 20 16.6658V4.16667C20 1.86917 18.1308 0 15.8333 0ZM4.16667 1.66667H9.16667V10H1.66667V4.16667C1.66667 2.78833 2.78833 1.66667 4.16667 1.66667ZM7.5 18.3333H3.33333C2.41417 18.3333 1.66667 17.5858 1.66667 16.6667V11.6667H9.16667V16.6667C9.16667 17.5858 8.41917 18.3333 7.5 18.3333ZM10.8558 1.66667H12.5342C12.6967 4.22083 13.6083 6.30083 15.265 7.84833C15.425 7.99833 15.63 8.07333 15.8342 8.07333C16.0567 8.07333 16.2792 7.985 16.4425 7.80917C16.7567 7.47333 16.7383 6.94583 16.4025 6.63167C15.0908 5.40583 14.3533 3.7375 14.2 1.66667H15.8342C17.2125 1.66667 18.3342 2.78833 18.3342 4.16667V11.4658C16.2033 10.8733 11.22 8.7375 10.8558 1.66667ZM18.3333 16.6667C18.3333 17.6017 17.5717 18.3333 16.6 18.3333L14.9992 18.3617C15.3725 16.3142 17.1083 14.6333 18.3333 13.6742V16.6667ZM7.5 14.1667C7.5 14.6267 7.12667 15 6.66667 15H4.16667C3.70667 15 3.33333 14.6267 3.33333 14.1667C3.33333 13.7067 3.70667 13.3333 4.16667 13.3333H6.66667C7.12667 13.3333 7.5 13.7067 7.5 14.1667Z" fill="#666666"/>
</g>
<defs>
<clipPath id="clip0_441_21020">
<rect width="20" height="20" fill="white"/>
</clipPath>
</defs>
</svg>
