<svg width="14" height="15" viewBox="0 0 14 15" fill="none" xmlns="http://www.w3.org/2000/svg">
<path fill-rule="evenodd" clip-rule="evenodd" d="M7.00016 1.54102C9.5775 1.54102 11.6668 3.63035 11.6668 6.20768C11.6668 7.68142 10.9837 8.99561 9.91683 9.85083V12.5402C9.91683 12.9882 9.46935 13.2983 9.04988 13.141L7.00016 12.3723L4.95047 13.141C4.53098 13.2983 4.0835 12.9882 4.0835 12.5402V9.85083C3.01662 8.99561 2.3335 7.68142 2.3335 6.20768C2.3335 3.63035 4.42283 1.54102 7.00016 1.54102ZM8.75016 10.5351C8.20976 10.7539 7.61902 10.8743 7.00016 10.8743C6.3813 10.8743 5.79058 10.7539 5.25016 10.5351V11.7826L6.59055 11.2799C6.85462 11.1809 7.1457 11.1809 7.40978 11.2799L8.75016 11.7826V10.5351ZM7.00016 2.70768C5.06717 2.70768 3.50016 4.27468 3.50016 6.20768C3.50016 8.14067 5.06717 9.70768 7.00016 9.70768C8.93315 9.70768 10.5002 8.14067 10.5002 6.20768C10.5002 4.27468 8.93315 2.70768 7.00016 2.70768ZM7.00016 3.87435C8.2888 3.87435 9.3335 4.91902 9.3335 6.20768C9.3335 7.49632 8.2888 8.54102 7.00016 8.54102C5.7115 8.54102 4.66683 7.49632 4.66683 6.20768C4.66683 4.91902 5.7115 3.87435 7.00016 3.87435ZM7.00016 5.04102C6.35581 5.04102 5.8335 5.56335 5.8335 6.20768C5.8335 6.85203 6.35581 7.37435 7.00016 7.37435C7.64451 7.37435 8.16683 6.85203 8.16683 6.20768C8.16683 5.56335 7.64451 5.04102 7.00016 5.04102Z" fill="black"/>
</svg>
