<svg width="24" height="24" viewBox="0 0 24 24" fill="none" xmlns="http://www.w3.org/2000/svg">
<path fill-rule="evenodd" clip-rule="evenodd" d="M10.9451 2.24994H13.0549H13.0549C14.4225 2.24992 15.5248 2.2499 16.3917 2.36646C17.2918 2.48748 18.0497 2.74637 18.6516 3.34829C19.2536 3.9502 19.5125 4.70808 19.6335 5.60819C19.75 6.47516 19.75 7.57748 19.75 8.94507V15.0548C19.75 16.4223 19.75 17.5247 19.6335 18.3916C19.5125 19.2917 19.2536 20.0496 18.6516 20.6515C18.0497 21.2535 17.2918 21.5124 16.3917 21.6334C15.5248 21.7499 14.4224 21.7499 13.0549 21.7499H10.9451C9.57754 21.7499 8.47522 21.7499 7.60825 21.6334C6.70814 21.5124 5.95026 21.2535 5.34835 20.6515C4.74644 20.0496 4.48754 19.2917 4.36652 18.3916C4.24996 17.5248 4.24998 16.4225 4.25 15.055V15.0548V8.94507V8.94493C4.24998 7.5774 4.24996 6.47513 4.36652 5.60819C4.48754 4.70808 4.74643 3.95021 5.34835 3.34829C5.95027 2.74637 6.70814 2.48748 7.60825 2.36646C8.47522 2.2499 9.57753 2.24992 10.9451 2.24994H10.9451ZM7.80812 3.85309C7.07435 3.95174 6.68577 4.13219 6.40901 4.40895C6.13225 4.68571 5.9518 5.07429 5.85315 5.80806C5.75159 6.56341 5.75 7.56452 5.75 8.99994V14.9999C5.75 16.4353 5.75159 17.4364 5.85315 18.1918C5.9518 18.9255 6.13225 19.3141 6.40902 19.5909C6.68578 19.8676 7.07435 20.0481 7.80812 20.1468C8.56347 20.2483 9.56458 20.2499 11 20.2499H13C14.4354 20.2499 15.4365 20.2483 16.1918 20.1468C16.9256 20.0481 17.3142 19.8676 17.591 19.5909C17.8677 19.3141 18.0482 18.9255 18.1469 18.1917C18.2484 17.4364 18.25 16.4353 18.25 14.9999V8.99994C18.25 7.56452 18.2484 6.56341 18.1469 5.80806C18.0482 5.07429 17.8677 4.68572 17.591 4.40896C17.3142 4.13219 16.9256 3.95174 16.1919 3.85309C15.4365 3.75153 14.4354 3.74994 13 3.74994H11C9.56458 3.74994 8.56347 3.75153 7.80812 3.85309ZM11.9999 7.25775C11.3096 7.25775 10.75 7.81736 10.75 8.50769C10.75 9.19802 11.3097 9.75766 11.9999 9.75766C12.6903 9.75766 13.2499 9.19801 13.2499 8.50769C13.2499 7.81738 12.6903 7.25775 11.9999 7.25775ZM9.25 8.50769C9.25 6.98894 10.4812 5.75775 11.9999 5.75775C13.5187 5.75775 14.7499 6.98892 14.7499 8.50769C14.7499 10.0264 13.5187 11.2577 11.9999 11.2577C10.4812 11.2577 9.25 10.0264 9.25 8.50769ZM9.20723 16.3605C9.05555 16.2153 8.92085 16.0589 8.82026 15.9263C9.72508 14.6976 11.0555 14.2412 11.9983 14.2421C12.9353 14.2431 14.225 14.6928 15.1287 15.926C15.0281 16.0586 14.8933 16.2152 14.7416 16.3605C14.6195 16.4773 14.5037 16.5702 14.4049 16.6322C14.3162 16.688 14.274 16.6991 14.274 16.6991C13.6875 16.7604 12.1168 16.7712 12.0003 16.7719L11.9987 16.7719C11.8683 16.771 10.2595 16.7602 9.67483 16.6991C9.67483 16.6991 9.63253 16.688 9.54383 16.6323C9.44511 16.5702 9.32926 16.4773 9.20723 16.3605ZM11.9997 12.7421C10.5632 12.7406 8.62914 13.453 7.41495 15.3222C7.23603 15.5978 7.13233 16.031 7.36512 16.4438C7.53199 16.7397 7.83571 17.124 8.16992 17.444C8.34034 17.6071 8.53615 17.7705 8.74537 17.9021C8.94551 18.0279 9.21039 18.1581 9.51019 18.1901C10.1882 18.2621 11.926 18.2715 11.9944 18.2718L11.9961 18.2719L12.0059 18.2718C12.0683 18.2715 13.76 18.2622 14.4387 18.1901C14.7385 18.1581 15.0032 18.0279 15.2034 17.9021C15.4126 17.7705 15.6084 17.6072 15.7789 17.444C16.1131 17.124 16.4169 16.7395 16.5838 16.4435C16.8162 16.0311 16.7128 15.598 16.5339 15.3222C15.3233 13.4587 13.4428 12.7436 11.9997 12.7421ZM22 6.24994C22.4142 6.24994 22.75 6.58573 22.75 6.99994V16.9999C22.75 17.4141 22.4142 17.7499 22 17.7499C21.5858 17.7499 21.25 17.4141 21.25 16.9999V6.99994C21.25 6.58573 21.5858 6.24994 22 6.24994ZM2.75 6.99994C2.75 6.58573 2.41421 6.24994 2 6.24994C1.58579 6.24994 1.25 6.58573 1.25 6.99994V16.9999C1.25 17.4141 1.58579 17.7499 2 17.7499C2.41421 17.7499 2.75 17.4141 2.75 16.9999V6.99994Z" fill="#161616"/>
</svg>
