<svg width="20" height="24" viewBox="0 0 20 24" fill="none" xmlns="http://www.w3.org/2000/svg">
<g clip-path="url(#clip0_11497_10075)">
<path d="M10 12C10.6593 12 11.3038 11.8045 11.8519 11.4382C12.4001 11.072 12.8274 10.5514 13.0796 9.94228C13.3319 9.33319 13.3979 8.66297 13.2693 8.01637C13.1407 7.36976 12.8232 6.77582 12.3571 6.30964C11.8909 5.84347 11.297 5.526 10.6503 5.39738C10.0037 5.26877 9.33352 5.33478 8.72443 5.58707C8.11535 5.83936 7.59475 6.2666 7.22848 6.81477C6.86221 7.36293 6.66671 8.0074 6.66671 8.66667C6.66671 9.55072 7.0179 10.3986 7.64302 11.0237C8.26814 11.6488 9.11599 12 10 12ZM10 7C10.3297 7 10.6519 7.09775 10.926 7.28088C11.2001 7.46402 11.4137 7.72432 11.5398 8.02886C11.666 8.3334 11.699 8.66852 11.6347 8.99182C11.5704 9.31512 11.4116 9.61209 11.1786 9.84518C10.9455 10.0783 10.6485 10.237 10.3252 10.3013C10.0019 10.3656 9.66678 10.3326 9.36224 10.2065C9.0577 10.0803 8.7974 9.8667 8.61426 9.59262C8.43113 9.31853 8.33338 8.9963 8.33338 8.66667C8.33338 8.22464 8.50897 7.80072 8.82154 7.48816C9.1341 7.17559 9.55802 7 10 7ZM17.2167 9.63083L16.6175 9.43167C16.7254 8.49827 16.6347 7.55262 16.3514 6.65674C16.0681 5.76085 15.5986 4.93497 14.9738 4.23324C14.3489 3.53152 13.5828 2.9698 12.7257 2.58493C11.8685 2.20006 10.9397 2.00072 10 2C9.04818 2.00037 8.10744 2.20475 7.24123 2.59936C6.37501 2.99398 5.60343 3.56967 4.97848 4.28765C4.35353 5.00562 3.88972 5.8492 3.6183 6.76156C3.34689 7.67391 3.27417 8.63384 3.40505 9.57667C2.60757 9.72536 1.87015 10.1016 1.28171 10.66C0.874358 11.0473 0.550521 11.5138 0.330112 12.0309C0.109702 12.5479 -0.00262115 13.1046 4.64225e-05 13.6667V17.0625C0.00179775 17.9636 0.294873 18.84 0.835539 19.5609C1.3762 20.2818 2.13547 20.8085 3.00005 21.0625L5.39171 21.8125C5.79343 21.9375 6.21182 22.0007 6.63255 22C7.0142 21.9995 7.39404 21.9474 7.76171 21.845L12.5784 20.42C13.0075 20.3029 13.4601 20.3029 13.8892 20.42L15.8784 21.0867C16.3686 21.206 16.8796 21.2125 17.3727 21.1056C17.8658 20.9988 18.3282 20.7813 18.7251 20.4698C19.122 20.1582 19.4429 19.7606 19.6638 19.3069C19.8846 18.8533 19.9996 18.3554 20 17.8508V13.56C19.9982 12.6978 19.7297 11.8574 19.2314 11.1538C18.7331 10.4502 18.0294 9.91879 17.2167 9.63083ZM6.46505 5.135C6.92859 4.66957 7.47949 4.30027 8.08612 4.04828C8.69274 3.79628 9.34316 3.66657 10 3.66657C10.6569 3.66657 11.3073 3.79628 11.914 4.04828C12.5206 4.30027 13.0715 4.66957 13.535 5.135C14.4702 6.07595 14.9958 7.34818 14.9975 8.67478C14.9992 10.0014 14.4769 11.275 13.5442 12.2183L10.5834 15.0975C10.4288 15.249 10.2211 15.3339 10.0046 15.3339C9.78821 15.3339 9.58042 15.249 9.42588 15.0975L6.46505 12.2308C5.52794 11.2878 5.00197 10.0124 5.00197 8.68292C5.00197 7.35347 5.52794 6.07801 6.46505 5.135ZM18.3334 17.8508C18.3339 18.1032 18.2768 18.3524 18.1665 18.5794C18.0562 18.8064 17.8955 19.0053 17.6967 19.1608C17.5089 19.3118 17.2901 19.4196 17.0559 19.4765C16.8217 19.5334 16.5779 19.538 16.3417 19.49L14.3875 18.8333C13.6484 18.621 12.865 18.6164 12.1234 18.82L7.30338 20.2433C6.84028 20.3711 6.35017 20.3627 5.89171 20.2192L3.48005 19.4692C2.95809 19.3182 2.49918 19.002 2.17221 18.5681C1.84525 18.1341 1.66787 17.6058 1.66671 17.0625V13.6667C1.66484 13.3298 1.73189 12.9961 1.86373 12.6862C1.99558 12.3762 2.18943 12.0965 2.43338 11.8642C2.81526 11.5002 3.30173 11.2653 3.82421 11.1925C4.16013 12.0251 4.66036 12.7816 5.29505 13.4167L8.26755 16.2942C8.73214 16.7491 9.35648 17.0039 10.0067 17.0039C10.6569 17.0039 11.2813 16.7491 11.7459 16.2942L14.715 13.4083C15.3798 12.7409 15.8949 11.9395 16.2259 11.0575L16.6734 11.2058C17.1587 11.3797 17.5785 11.6991 17.8756 12.1204C18.1727 12.5418 18.3326 13.0445 18.3334 13.56V17.8508Z" fill="#44506A"/>
</g>
<defs>
<clipPath id="clip0_11497_10075">
<rect width="20" height="20" fill="white" transform="translate(0 2)"/>
</clipPath>
</defs>
</svg>
