<?xml version="1.0" standalone="no"?>
<!DOCTYPE svg PUBLIC "-//W3C//DTD SVG 20010904//EN"
 "http://www.w3.org/TR/2001/REC-SVG-20010904/DTD/svg10.dtd">
<svg version="1.0" xmlns="http://www.w3.org/2000/svg"
 width="512.000000pt" height="512.000000pt" viewBox="0 0 512.000000 512.000000"
 preserveAspectRatio="xMidYMid meet">

<g transform="translate(0.000000,512.000000) scale(0.100000,-0.100000)"
fill="#000000" stroke="none">
<path d="M1775 4475 c-780 -329 -815 -345 -815 -394 0 -33 40 -70 100 -92 l60
-22 0 -96 0 -96 -40 -23 c-88 -50 -120 -129 -120 -299 0 -113 0 -115 29 -144
l29 -29 187 0 186 0 25 25 c26 26 26 27 22 168 -3 122 -7 148 -25 183 -24 44
-79 98 -112 109 -19 6 -21 14 -21 76 0 38 3 69 7 69 14 0 348 -112 355 -119 5
-4 -22 -96 -58 -204 -70 -209 -73 -234 -31 -261 13 -9 231 -50 517 -98 l494
-82 476 78 c261 43 491 86 510 95 61 28 61 45 -14 267 -36 109 -63 201 -58
205 4 3 152 55 328 113 182 60 329 115 338 125 21 23 20 73 -1 100 -19 22
-1548 671 -1580 671 -10 0 -364 -146 -788 -325z m1427 -112 c351 -148 638
-270 638 -273 0 -3 -99 -38 -220 -78 l-219 -73 -58 39 c-174 118 -388 184
-653 201 -364 24 -687 -48 -914 -202 l-60 -40 -222 73 c-123 41 -221 76 -219
78 6 6 1269 540 1280 541 6 1 297 -119 647 -266z m-372 -359 c156 -27 283 -71
392 -137 l68 -42 61 -183 c34 -101 59 -185 56 -188 -3 -3 -194 -37 -426 -75
l-421 -71 -421 71 c-232 38 -423 72 -426 75 -3 3 22 87 56 188 68 205 59 192
201 263 219 110 562 149 860 99z m-1591 -389 c36 -18 41 -32 41 -111 l0 -64
-80 0 -80 0 0 68 c0 70 8 90 45 110 27 15 41 15 74 -3z"/>
<path d="M1025 3029 c-92 -35 -135 -105 -135 -222 l0 -76 -64 -31 c-71 -33
-121 -84 -158 -159 l-23 -46 0 -940 0 -940 26 -56 c33 -69 89 -127 155 -160
l49 -24 1685 0 1685 0 49 24 c66 33 122 91 155 160 l26 56 0 940 0 940 -25 50
c-33 67 -99 131 -164 160 l-54 24 -3 89 c-5 113 -30 156 -114 198 -56 27 -57
27 -208 20 -398 -17 -791 -92 -1152 -222 -88 -31 -176 -57 -195 -57 -19 0
-107 26 -195 57 -366 131 -771 209 -1155 221 -102 3 -165 1 -185 -6z m301
-159 c326 -26 627 -88 942 -192 l212 -71 0 -1019 c0 -812 -3 -1019 -12 -1015
-54 22 -305 101 -399 125 -269 70 -578 117 -841 129 -94 4 -155 11 -166 19
-16 12 -17 76 -17 1007 0 828 2 997 14 1010 16 20 78 22 267 7z m2732 -2 c9
-9 12 -248 12 -1015 0 -944 -1 -1003 -17 -1011 -10 -5 -81 -12 -158 -16 -364
-16 -754 -88 -1094 -202 -75 -25 -142 -48 -148 -51 -10 -4 -13 203 -13 1014
l0 1020 183 61 c207 69 318 100 497 136 290 58 707 95 738 64z m-3166 -1191
l3 -874 28 -40 c48 -70 89 -85 256 -94 284 -16 547 -53 771 -108 l115 -29
-568 -1 c-630 -1 -612 -3 -663 65 l-29 37 -3 891 c-1 490 0 906 3 924 6 31 58
102 76 102 5 0 10 -379 11 -873z m3386 838 c17 -19 34 -49 37 -67 3 -18 4
-434 3 -924 l-3 -891 -29 -37 c-51 -68 -33 -66 -663 -65 -624 1 -609 -1 -353
53 210 45 408 68 751 89 81 5 137 34 176 90 l28 40 3 874 c1 494 6 873 11 873
5 0 23 -16 39 -35z"/>
<path d="M1221 2651 c-31 -31 -32 -84 -1 -115 15 -16 47 -22 170 -34 148 -15
152 -15 178 5 20 15 28 30 30 60 5 71 -29 85 -244 99 -105 6 -112 6 -133 -15z"/>
<path d="M1220 2392 c-34 -34 -37 -50 -15 -92 18 -36 18 -36 220 -56 88 -8
182 -20 209 -25 90 -17 132 -12 155 17 35 44 26 95 -18 119 -26 13 -272 47
-438 60 -82 7 -83 7 -113 -23z"/>
<path d="M1219 1961 c-33 -33 -35 -50 -14 -91 17 -33 26 -37 125 -45 280 -24
526 -68 804 -145 71 -20 126 -30 141 -26 63 16 87 92 43 133 -60 56 -562 161
-918 193 -154 13 -148 14 -181 -19z"/>
<path d="M1228 1670 c-22 -17 -28 -30 -28 -60 0 -57 29 -76 132 -84 234 -19
523 -69 738 -127 198 -54 194 -53 226 -38 59 29 67 109 13 136 -40 20 -283 82
-464 118 -173 34 -352 59 -505 71 -78 6 -87 4 -112 -16z"/>
<path d="M1226 1359 c-23 -18 -27 -28 -24 -62 5 -62 29 -74 178 -87 234 -20
534 -76 757 -140 122 -35 142 -37 176 -10 33 26 41 63 22 99 -17 34 -32 39
-280 101 -194 48 -402 84 -606 105 -192 19 -191 19 -223 -6z"/>
<path d="M3696 1974 c-346 -34 -849 -146 -903 -200 -32 -32 -29 -69 7 -106 34
-34 29 -34 197 12 228 64 544 122 738 135 114 9 162 21 175 45 11 21 13 60 4
85 -6 15 -55 46 -71 44 -4 -1 -71 -7 -147 -15z"/>
<path d="M3740 1683 c-306 -30 -612 -89 -863 -165 -102 -30 -136 -90 -82 -143
31 -32 67 -32 177 0 224 65 535 123 782 145 145 13 166 24 166 92 0 28 -6 42
-26 57 -26 21 -59 24 -154 14z"/>
<path d="M3735 1369 c-346 -28 -877 -139 -934 -195 -34 -32 -33 -80 3 -111 36
-31 64 -29 209 12 220 62 631 134 767 135 62 0 118 17 130 40 26 49 0 115 -50
123 -14 3 -70 1 -125 -4z"/>
</g>
</svg>
