<svg width="35" height="34" viewBox="0 0 35 34" fill="none" xmlns="http://www.w3.org/2000/svg">
<g clip-path="url(#clip0_134_569)">
<path d="M4.75 24.5816V26.75C4.75 28.5426 9.11719 30 14.5 30C19.8828 30 24.25 28.5426 24.25 26.75V24.5816C22.1527 26.0594 18.3187 26.75 14.5 26.75C10.6813 26.75 6.84727 26.0594 4.75 24.5816ZM21 10.5C26.3828 10.5 30.75 9.04258 30.75 7.25C30.75 5.45742 26.3828 4 21 4C15.6172 4 11.25 5.45742 11.25 7.25C11.25 9.04258 15.6172 10.5 21 10.5ZM4.75 19.2547V21.875C4.75 23.6676 9.11719 25.125 14.5 25.125C19.8828 25.125 24.25 23.6676 24.25 21.875V19.2547C22.1527 20.9812 18.3137 21.875 14.5 21.875C10.6863 21.875 6.84727 20.9812 4.75 19.2547ZM25.875 19.8133C28.7848 19.2496 30.75 18.2035 30.75 17V14.8316C29.5719 15.6645 27.8402 16.2332 25.875 16.5836V19.8133ZM14.5 12.125C9.11719 12.125 4.75 13.943 4.75 16.1875C4.75 18.432 9.11719 20.25 14.5 20.25C19.8828 20.25 24.25 18.432 24.25 16.1875C24.25 13.943 19.8828 12.125 14.5 12.125ZM25.6363 14.984C28.6832 14.4355 30.75 13.359 30.75 12.125V9.95664C28.9473 11.2313 25.8496 11.9168 22.5895 12.0793C24.0875 12.8055 25.1895 13.7805 25.6363 14.984Z" fill="#C99383"/>
</g>
<defs>
<clipPath id="clip0_134_569">
<rect width="26" height="26" fill="white" transform="translate(4.75 4)"/>
</clipPath>
</defs>
</svg>
