<svg width="20" height="21" viewBox="0 0 20 21" fill="none" xmlns="http://www.w3.org/2000/svg">
<g clip-path="url(#clip0_303_6464)">
<path d="M10 8.345V9.66667C10 10.1275 10.3725 10.5 10.8333 10.5H12.155C13.045 10.5 13.8817 10.1533 14.5117 9.52333L19.2675 4.7675C20.2425 3.7925 20.2425 2.2075 19.2675 1.2325C18.2925 0.2575 16.7075 0.2575 15.7325 1.2325L10.9767 5.98833C10.3467 6.61833 10 7.455 10 8.345ZM11.6667 8.345C11.6667 7.9 11.84 7.48167 12.155 7.16667L16.9108 2.41083C17.2367 2.085 17.7633 2.085 18.0892 2.41083C18.415 2.73667 18.4142 3.26417 18.0892 3.58917L13.3333 8.345C13.0183 8.66 12.6 8.83333 12.155 8.83333H11.6667V8.345ZM17.5 14.6667H16.6667V12.1667C16.6667 11.7058 16.2942 11.3333 15.8333 11.3333C15.3725 11.3333 15 11.7058 15 12.1667V14.6667H10.8333C9.455 14.6667 8.33333 15.7883 8.33333 17.1667V17.5833C8.33333 18.2725 7.7725 18.8333 7.08333 18.8333C6.39417 18.8333 5.83333 18.2725 5.83333 17.5833V3.41667C5.83333 2.9675 5.7225 2.54667 5.54083 2.16667H11.6667C12.1275 2.16667 12.5 1.79417 12.5 1.33333C12.5 0.8725 12.1275 0.5 11.6667 0.5H2.91667C1.30833 0.5 0 1.80833 0 3.41667V3.83333C0 5.21167 1.12167 6.33333 2.5 6.33333H4.16667V17.5833C4.16667 19.1917 5.47417 20.4992 7.08167 20.5H17.0833C18.6917 20.5 20 19.1917 20 17.5833V17.1667C20 15.7883 18.8783 14.6667 17.5 14.6667ZM4.16667 4.66667H2.5C2.04 4.66667 1.66667 4.29333 1.66667 3.83333V3.41667C1.66667 2.7275 2.2275 2.16667 2.91667 2.16667C3.60583 2.16667 4.16667 2.7275 4.16667 3.41667V4.66667ZM18.3333 17.5833C18.3333 18.2725 17.7725 18.8333 17.0833 18.8333H9.71833C9.89917 18.4542 10 18.03 10 17.5833V17.1667C10 16.7067 10.3733 16.3333 10.8333 16.3333H17.5C17.96 16.3333 18.3333 16.7067 18.3333 17.1667V17.5833Z" fill="#B3B3B3"/>
</g>
<defs>
<clipPath id="clip0_303_6464">
<rect width="20" height="20" fill="white" transform="translate(0 0.5)"/>
</clipPath>
</defs>
</svg>
