<?xml version="1.0" encoding="UTF-8"?>
<!DOCTYPE svg PUBLIC "-//W3C//DTD SVG 1.1//EN" "http://www.w3.org/Graphics/SVG/1.1/DTD/svg11.dtd">
<svg xmlns="http://www.w3.org/2000/svg" version="1.1" width="96px" height="96px" style="shape-rendering:geometricPrecision; text-rendering:geometricPrecision; image-rendering:optimizeQuality; fill-rule:evenodd; clip-rule:evenodd" xmlns:xlink="http://www.w3.org/1999/xlink">
<g><path style="opacity:0.767" fill="#000000" d="M 73.5,-0.5 C 77.5,-0.5 81.5,-0.5 85.5,-0.5C 89.8333,1.83333 93.1667,5.16667 95.5,9.5C 95.5,13.1667 95.5,16.8333 95.5,20.5C 91.7911,28.2379 87.2911,35.5712 82,42.5C 81.5065,44.1341 81.3398,45.8008 81.5,47.5C 80.0222,47.762 78.6888,47.4287 77.5,46.5C 75.3803,40.2618 72.2136,34.5952 68,29.5C 62.9967,21.8021 62.3301,13.8021 66,5.5C 68.1141,2.87922 70.6141,0.879222 73.5,-0.5 Z M 75.5,4.5 C 86.3181,3.81695 91.1514,8.81695 90,19.5C 87.0945,25.5639 83.5945,31.2306 79.5,36.5C 75.4055,31.2306 71.9055,25.5639 69,19.5C 67.3657,12.7751 69.5324,7.77509 75.5,4.5 Z"/></g>
<g><path style="opacity:0.829" fill="#000000" d="M 76.5,11.5 C 83.1584,10.3445 85.1584,12.8445 82.5,19C 75.7496,20.4689 73.7496,17.9689 76.5,11.5 Z"/></g>
<g><path style="opacity:0.776" fill="#000000" d="M 29.5,95.5 C 26.8333,95.5 24.1667,95.5 21.5,95.5C 11.7088,86.0599 4.37544,75.0599 -0.5,62.5C -0.5,57.8333 -0.5,53.1667 -0.5,48.5C 6.05452,33.3954 17.3879,28.2287 33.5,33C 46.7001,40.5822 50.8667,51.7488 46,66.5C 42.155,75.5324 36.8217,83.5324 30,90.5C 29.5065,92.1341 29.3398,93.8008 29.5,95.5 Z M 17.5,36.5 C 37.4926,35.6578 45.326,44.9911 41,64.5C 36.8858,74.1015 31.0524,82.4348 23.5,89.5C 15.0993,81.7141 8.93261,72.3808 5,61.5C 2.82368,49.8522 6.99035,41.5189 17.5,36.5 Z M 20.5,48.5 C 29.8504,48.3654 32.517,52.532 28.5,61C 19.9562,64.3224 16.1229,61.4891 17,52.5C 17.6897,50.6498 18.8564,49.3164 20.5,48.5 Z"/></g>
<g><path style="opacity:0.78" fill="#000000" d="M 18.5,43.5 C 31.3202,42.1527 36.8202,47.8194 35,60.5C 31.3449,67.0702 25.8449,69.2368 18.5,67C 11.9298,63.3449 9.76315,57.8449 12,50.5C 13.6941,47.6424 15.8607,45.309 18.5,43.5 Z M 20.5,48.5 C 18.8564,49.3164 17.6897,50.6498 17,52.5C 16.1229,61.4891 19.9562,64.3224 28.5,61C 32.517,52.532 29.8504,48.3654 20.5,48.5 Z"/></g>
<g><path style="opacity:0.708" fill="#000000" d="M 75.5,51.5 C 80.1563,50.9718 81.323,52.6384 79,56.5C 75.9492,59.0936 72.4492,59.927 68.5,59C 67.269,57.8173 67.269,56.6507 68.5,55.5C 71.5229,55.1849 73.8562,53.8516 75.5,51.5 Z"/></g>
<g><path style="opacity:0.707" fill="#000000" d="M 59.5,56.5 C 63.1378,55.7366 64.6378,57.0699 64,60.5C 61.4866,61.848 59.6532,63.848 58.5,66.5C 56.4529,67.9039 54.7862,67.5706 53.5,65.5C 54.7663,61.9547 56.7663,58.9547 59.5,56.5 Z"/></g>
<g><path style="opacity:0.712" fill="#000000" d="M 52.5,70.5 C 55.9198,72.3952 56.4198,75.0619 54,78.5C 53.0534,81.9984 50.8867,83.4984 47.5,83C 47.0426,82.586 46.7093,82.086 46.5,81.5C 48.2784,77.6022 50.2784,73.9355 52.5,70.5 Z"/></g>
<g><path style="opacity:0.687" fill="#000000" d="M 41.5,85.5 C 45.1378,84.7366 46.6378,86.0699 46,89.5C 42.7133,92.5658 38.88,94.0658 34.5,94C 33.4829,92.9505 33.3162,91.7839 34,90.5C 36.8239,89.1819 39.3239,87.5152 41.5,85.5 Z"/></g>
</svg>
