<svg width="20" height="20" viewBox="0 0 20 20" fill="none" xmlns="http://www.w3.org/2000/svg">
<path d="M6.66667 18.9584L13.3333 18.9584C16.375 18.9584 18.125 17.2084 18.125 14.1667L18.125 5.83335C18.125 2.79169 16.375 1.04169 13.3333 1.04169L6.66667 1.04169C3.625 1.04169 1.875 2.79169 1.875 5.83335L1.875 14.1667C1.875 17.2084 3.625 18.9584 6.66667 18.9584ZM13.3333 2.29169C15.7167 2.29169 16.875 3.45002 16.875 5.83335L16.875 14.1667C16.875 16.55 15.7167 17.7084 13.3333 17.7084L6.66667 17.7084C4.28333 17.7084 3.125 16.55 3.125 14.1667L3.125 5.83335C3.125 3.45002 4.28333 2.29169 6.66667 2.29169L13.3333 2.29169Z" fill="#2899D5"/>
<path d="M4.58335 7.70833L6.25002 7.70833C7.51669 7.70833 8.54169 6.68333 8.54169 5.41667L8.54169 3.75C8.54169 3.40833 8.25835 3.125 7.91669 3.125C7.57502 3.125 7.29169 3.40833 7.29169 3.75L7.29169 5.41667C7.29169 5.99167 6.82502 6.45833 6.25002 6.45833L4.58335 6.45833C4.24169 6.45833 3.95835 6.74167 3.95835 7.08333C3.95835 7.425 4.24169 7.70833 4.58335 7.70833Z" fill="#2899D5"/>
<path d="M9.99998 11.4583L13.3333 11.4583C13.675 11.4583 13.9583 11.175 13.9583 10.8333C13.9583 10.4916 13.675 10.2083 13.3333 10.2083L9.99998 10.2083C9.65831 10.2083 9.37498 10.4916 9.37498 10.8333C9.37498 11.175 9.65831 11.4583 9.99998 11.4583Z" fill="#2899D5"/>
<path d="M6.66665 14.7917L13.3333 14.7917C13.675 14.7917 13.9583 14.5084 13.9583 14.1667C13.9583 13.825 13.675 13.5417 13.3333 13.5417L6.66665 13.5417C6.32498 13.5417 6.04165 13.825 6.04165 14.1667C6.04165 14.5084 6.32498 14.7917 6.66665 14.7917Z" fill="#2899D5"/>
</svg>
