<svg width="40" height="40" viewBox="0 0 40 40" fill="none" xmlns="http://www.w3.org/2000/svg">
<rect width="40" height="40" rx="20" fill="#2899D5" fill-opacity="0.1"/>
<path d="M15.9397 23.26C15.8497 23.26 15.7697 23.25 15.6797 23.21C14.8697 22.91 14.1897 22.32 13.7597 21.55C12.7597 19.75 13.3797 17.4 15.1297 16.31L17.4697 14.86C18.3297 14.33 19.3397 14.17 20.2997 14.42C21.2597 14.67 22.0697 15.3 22.5597 16.18C23.5597 17.98 22.9397 20.33 21.1897 21.42L20.9297 21.61C20.5897 21.85 20.1197 21.77 19.8797 21.44C19.6397 21.1 19.7197 20.63 20.0497 20.39L20.3597 20.17C21.4797 19.47 21.8597 18.02 21.2497 16.91C20.9597 16.39 20.4897 16.02 19.9297 15.87C19.3697 15.72 18.7797 15.82 18.2697 16.13L15.9297 17.58C14.8497 18.25 14.4697 19.7 15.0797 20.82C15.3297 21.27 15.7297 21.62 16.2097 21.8C16.5997 21.94 16.7997 22.37 16.6497 22.76C16.5397 23.07 16.2497 23.26 15.9397 23.26Z" fill="#2899D5"/>
<path d="M20.66 25.65C20.36 25.65 20.05 25.61 19.75 25.53C18.79 25.28 17.98 24.65 17.5 23.77C16.5 21.97 17.12 19.62 18.87 18.53L19.13 18.34C19.47 18.1 19.94 18.18 20.18 18.51C20.42 18.85 20.34 19.32 20.01 19.56L19.7 19.78C18.58 20.48 18.2 21.93 18.81 23.04C19.1 23.56 19.57 23.93 20.13 24.08C20.69 24.23 21.28 24.13 21.79 23.82L24.13 22.37C25.21 21.7 25.59 20.25 24.98 19.13C24.73 18.68 24.33 18.33 23.85 18.15C23.46 18.01 23.26 17.58 23.41 17.19C23.55 16.8 23.98 16.6 24.37 16.75C25.18 17.05 25.86 17.64 26.29 18.41C27.29 20.21 26.67 22.56 24.92 23.65L22.58 25.1C21.99 25.46 21.33 25.65 20.66 25.65Z" fill="#2899D5"/>
<path d="M20 30.75C14.07 30.75 9.25 25.93 9.25 20C9.25 14.07 14.07 9.25 20 9.25C25.93 9.25 30.75 14.07 30.75 20C30.75 25.93 25.93 30.75 20 30.75ZM20 10.75C14.9 10.75 10.75 14.9 10.75 20C10.75 25.1 14.9 29.25 20 29.25C25.1 29.25 29.25 25.1 29.25 20C29.25 14.9 25.1 10.75 20 10.75Z" fill="#2899D5"/>
</svg>
