<svg width="12" height="12" viewBox="0 0 12 12" fill="none" xmlns="http://www.w3.org/2000/svg">
<g clip-path="url(#clip0_303_6345)">
<path d="M8.99994 4.5321C9.00002 4.33098 8.96029 4.13183 8.88306 3.94613C8.80583 3.76043 8.69262 3.59185 8.54994 3.4501C8.258 3.17152 7.86997 3.0161 7.46644 3.0161C7.06291 3.0161 6.67489 3.17152 6.38294 3.4501L0.449943 9.3846C0.179153 9.67496 0.0316641 10.0591 0.0385615 10.4561C0.0454589 10.8531 0.206204 11.2319 0.486918 11.5126C0.767632 11.7934 1.14639 11.9542 1.54336 11.9612C1.94034 11.9682 2.32452 11.8208 2.61494 11.5501L8.54994 5.6156C8.69284 5.4737 8.80618 5.30488 8.88343 5.1189C8.96067 4.93292 9.00027 4.73348 8.99994 4.5321ZM1.90794 10.8441C1.80687 10.9404 1.67258 10.9942 1.53294 10.9942C1.3933 10.9942 1.25902 10.9404 1.15794 10.8441C1.05865 10.7446 1.00289 10.6097 1.00289 10.4691C1.00289 10.3285 1.05865 10.1936 1.15794 10.0941L5.04244 6.2091L5.79494 6.9616L1.90794 10.8441ZM7.84394 4.9081L6.49994 6.2526L5.74994 5.5001L7.09444 4.1561C7.14237 4.10135 7.20103 4.05702 7.26679 4.02586C7.33255 3.9947 7.40401 3.97738 7.47673 3.97497C7.54946 3.97255 7.62191 3.9851 7.68959 4.01183C7.75727 4.03855 7.81874 4.0789 7.87019 4.13035C7.92165 4.1818 7.96199 4.24327 7.98872 4.31095C8.01544 4.37863 8.02799 4.45108 8.02557 4.52381C8.02316 4.59654 8.00584 4.66799 7.97468 4.73375C7.94352 4.79951 7.8992 4.85817 7.84444 4.9061L7.84394 4.9081ZM2.43144 1.4276L3.20644 1.2066L3.42744 0.431598C3.46305 0.30724 3.53817 0.197856 3.64146 0.119988C3.74475 0.0421189 3.87059 0 3.99994 0C4.1293 0 4.25513 0.0421189 4.35842 0.119988C4.46171 0.197856 4.53684 0.30724 4.57244 0.431598L4.79344 1.2066L5.56844 1.4276C5.6928 1.4632 5.80219 1.53833 5.88005 1.64162C5.95792 1.74491 6.00004 1.87074 6.00004 2.0001C6.00004 2.12945 5.95792 2.25529 5.88005 2.35858C5.80219 2.46187 5.6928 2.537 5.56844 2.5726L4.79344 2.7936L4.57244 3.5686C4.53684 3.69296 4.46171 3.80234 4.35842 3.88021C4.25513 3.95808 4.1293 4.0002 3.99994 4.0002C3.87059 4.0002 3.74475 3.95808 3.64146 3.88021C3.53817 3.80234 3.46305 3.69296 3.42744 3.5686L3.20644 2.7936L2.43144 2.5726C2.30709 2.537 2.1977 2.46187 2.11983 2.35858C2.04196 2.25529 1.99985 2.12945 1.99985 2.0001C1.99985 1.87074 2.04196 1.74491 2.11983 1.64162C2.1977 1.53833 2.30709 1.4632 2.43144 1.4276ZM11.5684 8.5726L10.7934 8.7936L10.5724 9.5686C10.5368 9.69296 10.4617 9.80234 10.3584 9.88021C10.2551 9.95808 10.1293 10.0002 9.99994 10.0002C9.87059 10.0002 9.74475 9.95808 9.64146 9.88021C9.53817 9.80234 9.46305 9.69296 9.42744 9.5686L9.20644 8.7936L8.43145 8.5726C8.30709 8.537 8.1977 8.46187 8.11983 8.35858C8.04197 8.25529 7.99985 8.12945 7.99985 8.0001C7.99985 7.87074 8.04197 7.74491 8.11983 7.64162C8.1977 7.53833 8.30709 7.4632 8.43145 7.4276L9.20644 7.2066L9.42744 6.4316C9.46305 6.30724 9.53817 6.19786 9.64146 6.11999C9.74475 6.04212 9.87059 6 9.99994 6C10.1293 6 10.2551 6.04212 10.3584 6.11999C10.4617 6.19786 10.5368 6.30724 10.5724 6.4316L10.7934 7.2066L11.5684 7.4276C11.6928 7.4632 11.8022 7.53833 11.8801 7.64162C11.9579 7.74491 12 7.87074 12 8.0001C12 8.12945 11.9579 8.25529 11.8801 8.35858C11.8022 8.46187 11.6928 8.537 11.5684 8.5726ZM8.87744 1.2501L9.55544 1.0566L9.74994 0.377598C9.7816 0.269506 9.84743 0.174583 9.93757 0.107054C10.0277 0.0395245 10.1373 0.00302505 10.2499 0.00302505C10.3626 0.00302505 10.4722 0.0395245 10.5623 0.107054C10.6525 0.174583 10.7183 0.269506 10.7499 0.377598L10.9434 1.0556L11.6214 1.2491C11.7295 1.28075 11.8245 1.34658 11.892 1.43673C11.9595 1.52687 11.996 1.63647 11.996 1.7491C11.996 1.86173 11.9595 1.97133 11.892 2.06147C11.8245 2.15161 11.7295 2.21744 11.6214 2.2491L10.9434 2.4426L10.7499 3.1221C10.7183 3.23019 10.6525 3.32511 10.5623 3.39264C10.4722 3.46017 10.3626 3.49667 10.2499 3.49667C10.1373 3.49667 10.0277 3.46017 9.93757 3.39264C9.84743 3.32511 9.7816 3.23019 9.74994 3.1221L9.55645 2.4446L8.87744 2.2501C8.76935 2.21844 8.67443 2.15261 8.6069 2.06247C8.53937 1.97233 8.50287 1.86273 8.50287 1.7501C8.50287 1.63747 8.53937 1.52787 8.6069 1.43773C8.67443 1.34758 8.76935 1.28175 8.87744 1.2501Z" fill="#1279AC"/>
</g>
<defs>
<clipPath id="clip0_303_6345">
<rect width="12" height="12" fill="white"/>
</clipPath>
</defs>
</svg>
