<svg width="19" height="19" viewBox="0 0 19 19" fill="none" xmlns="http://www.w3.org/2000/svg">
<path d="M13.0354 1.01443C14.16 -0.11029 15.9556 -0.155278 17.134 0.879461L17.278 1.01443L17.9851 1.72153C19.1098 2.84624 19.1548 4.6418 18.1201 5.82018L17.9851 5.96417L6.77281 17.1765C6.61378 17.3355 6.42155 17.4562 6.21077 17.5305L6.04943 17.5774L1.59453 18.6055C0.91174 18.763 0.295933 18.1916 0.374454 17.5181L0.394077 17.4051L1.42213 12.9501C1.4727 12.7309 1.57173 12.5267 1.71109 12.352L1.82306 12.2268L13.0354 1.01443ZM12.3282 4.55002L3.33867 13.5396L2.70227 16.2973L5.45999 15.6609L14.4495 6.67134L12.3282 4.55002ZM15.8638 2.42864C15.5033 2.06816 14.9361 2.04043 14.5438 2.34545L14.4496 2.42864L13.7424 3.13581L15.8637 5.25713L16.5709 4.54996C16.9314 4.18948 16.9591 3.62224 16.6541 3.22995L16.5709 3.13575L15.8638 2.42864Z" fill="white"/>
</svg>
