<svg width="16" height="16" viewBox="0 0 16 16" fill="none" xmlns="http://www.w3.org/2000/svg">
<path d="M6.66653 7.16683C6.39039 7.16683 6.16653 6.94297 6.16653 6.66683C6.16653 6.39069 6.39039 6.16683 6.66653 6.16683H9.3332C9.60934 6.16683 9.8332 6.39069 9.8332 6.66683C9.8332 6.94297 9.60934 7.16683 9.3332 7.16683H6.66653Z" fill="#1F8C61"/>
<path d="M6.66653 4.50016C6.39039 4.50016 6.16653 4.27631 6.16653 4.00016C6.16653 3.72402 6.39039 3.50016 6.66653 3.50016H9.3332C9.60934 3.50016 9.8332 3.72402 9.8332 4.00016C9.8332 4.27631 9.60934 4.50016 9.3332 4.50016H6.66653Z" fill="#1F8C61"/>
<path fill-rule="evenodd" clip-rule="evenodd" d="M5.96519 0.833497H10.0345C10.6335 0.833478 11.133 0.833462 11.5295 0.886772C11.948 0.943042 12.3259 1.06682 12.6295 1.37047C12.9332 1.67412 13.057 2.05198 13.1132 2.47051C13.1666 2.86702 13.1665 3.36649 13.1665 3.96546V4.39909L13.7749 4.80465C14.0506 4.98844 14.2856 5.14511 14.4693 5.29405C14.6651 5.45285 14.8309 5.62462 14.9521 5.85192C15.0731 6.07891 15.1233 6.31163 15.146 6.56202C15.1673 6.79663 15.1664 7.07763 15.1652 7.40695L15.1652 7.42889C15.1624 8.26866 15.1545 9.12644 15.1329 9.9954L15.1319 10.0344C15.1072 11.0261 15.0872 11.8262 14.9737 12.4699C14.8545 13.1455 14.6256 13.6953 14.1562 14.1647C13.6859 14.6351 13.1317 14.8635 12.4503 14.9826C11.8 15.0962 10.99 15.1164 9.98426 15.1415L9.94545 15.1425C8.64473 15.175 7.35549 15.175 6.05477 15.1425L6.01596 15.1415C5.01022 15.1164 4.20018 15.0962 3.54993 14.9826C2.86855 14.8635 2.31436 14.6351 1.84398 14.1647C1.37458 13.6953 1.14571 13.1455 1.02655 12.4699C0.913016 11.8262 0.893059 11.0261 0.868321 10.0344L0.867349 9.9954C0.845659 9.12644 0.837846 8.26866 0.835025 7.42889L0.834951 7.40698C0.833834 7.07765 0.832881 6.79664 0.854166 6.56203C0.876884 6.31163 0.927123 6.07891 1.04811 5.85192C1.16927 5.62462 1.33513 5.45285 1.53094 5.29405C1.7146 5.14511 1.9496 4.98845 2.22533 4.80465L2.83319 4.39941V3.9655C2.83317 3.36651 2.83315 2.86703 2.88646 2.47051C2.94273 2.05198 3.06651 1.67412 3.37016 1.37047C3.6738 1.06682 4.05167 0.943042 4.4702 0.886772C4.86672 0.833462 5.36621 0.833478 5.96519 0.833497ZM13.1665 6.98378L13.1665 5.60094L13.2019 5.62455C13.5008 5.82381 13.6964 5.95478 13.8394 6.07075C13.9743 6.18014 14.0329 6.2535 14.0696 6.3223C14.0843 6.34977 14.0975 6.38044 14.1092 6.4182L13.1665 6.98378ZM12.1665 4.00017V7.58378L9.8006 9.00333C9.29067 9.30929 8.93961 9.51923 8.64787 9.65639C8.36637 9.78873 8.17753 9.83449 7.99987 9.83449C7.82221 9.83449 7.63336 9.78873 7.35187 9.65639C7.06012 9.51923 6.70907 9.30929 6.19913 9.00333L3.83319 7.58376V4.00016C3.83319 3.35749 3.83425 2.92578 3.87754 2.60376C3.91891 2.29612 3.99039 2.16445 4.07727 2.07758C4.16414 1.9907 4.29581 1.91922 4.60345 1.87786C4.92547 1.83456 5.35718 1.8335 5.99985 1.8335H9.99985C10.6425 1.8335 11.0742 1.83456 11.3963 1.87786C11.7039 1.91922 11.8356 1.9907 11.9224 2.07758C12.0093 2.16445 12.0808 2.29612 12.1222 2.60376C12.1655 2.92578 12.1665 3.35749 12.1665 4.00017ZM2.83319 5.60126L2.83319 6.98376L1.89096 6.41843C1.90262 6.38056 1.91591 6.34983 1.93058 6.3223C1.96725 6.2535 2.02593 6.18014 2.16082 6.07075C2.30382 5.95478 2.49937 5.82381 2.79825 5.62455L2.83319 5.60126ZM1.83548 7.55133C1.83864 8.34691 1.84667 9.1546 1.86704 9.97045C1.893 11.0104 1.91239 11.7351 2.01135 12.2962C2.10618 12.8339 2.26689 13.1734 2.5511 13.4576C2.83431 13.7408 3.17628 13.9021 3.72201 13.9975C4.29052 14.0968 5.02606 14.1164 6.07975 14.1428C7.36381 14.1749 8.63641 14.1749 9.92048 14.1428C10.9742 14.1164 11.7097 14.0968 12.2782 13.9975C12.8239 13.9021 13.1659 13.7408 13.4491 13.4576C13.7333 13.1734 13.894 12.8339 13.9889 12.2962C14.0878 11.7351 14.1072 11.0104 14.1332 9.97045C14.1535 9.15451 14.1616 8.34672 14.1647 7.55105L10.2932 9.87396C9.81047 10.1636 9.41623 10.4002 9.07332 10.5614C8.71498 10.7298 8.37617 10.8345 7.99987 10.8345C7.62356 10.8345 7.28475 10.7298 6.92641 10.5614C6.5835 10.4002 6.18927 10.1636 5.70652 9.87395L1.83548 7.55133Z" fill="#1F8C61"/>
</svg>
