<svg width="21" height="21" viewBox="0 0 21 21" fill="none" xmlns="http://www.w3.org/2000/svg">
<path d="M11.375 10.2815C11.2088 10.2815 11.0425 10.2202 10.9113 10.089C10.6575 9.83521 10.6575 9.41521 10.9113 9.16146L18.0863 1.98646C18.34 1.73271 18.76 1.73271 19.0138 1.98646C19.2675 2.24021 19.2675 2.66021 19.0138 2.91396L11.8388 10.089C11.7075 10.2202 11.5413 10.2815 11.375 10.2815Z" fill="#433578"/>
<path d="M19.2499 6.60625C18.8912 6.60625 18.5937 6.30875 18.5937 5.95V2.40625H15.0499C14.6912 2.40625 14.3937 2.10875 14.3937 1.75C14.3937 1.39125 14.6912 1.09375 15.0499 1.09375H19.2499C19.6087 1.09375 19.9062 1.39125 19.9062 1.75V5.95C19.9062 6.30875 19.6087 6.60625 19.2499 6.60625Z" fill="#433578"/>
<path d="M13.125 19.9063H7.875C3.12375 19.9063 1.09375 17.8763 1.09375 13.125V7.875C1.09375 3.12375 3.12375 1.09375 7.875 1.09375H9.625C9.98375 1.09375 10.2812 1.39125 10.2812 1.75C10.2812 2.10875 9.98375 2.40625 9.625 2.40625H7.875C3.84125 2.40625 2.40625 3.84125 2.40625 7.875V13.125C2.40625 17.1588 3.84125 18.5938 7.875 18.5938H13.125C17.1588 18.5938 18.5938 17.1588 18.5938 13.125V11.375C18.5938 11.0163 18.8913 10.7188 19.25 10.7188C19.6087 10.7188 19.9062 11.0163 19.9062 11.375V13.125C19.9062 17.8763 17.8762 19.9063 13.125 19.9063Z" fill="#433578"/>
</svg>
