<svg width="40" height="40" viewBox="0 0 40 40" fill="none" xmlns="http://www.w3.org/2000/svg">
<path d="M0.5 16C0.5 7.43959 7.43959 0.5 16 0.5H24C32.5604 0.5 39.5 7.43959 39.5 16V24C39.5 32.5604 32.5604 39.5 24 39.5H16C7.43959 39.5 0.5 32.5604 0.5 24V16Z" fill="white"/>
<path d="M0.5 16C0.5 7.43959 7.43959 0.5 16 0.5H24C32.5604 0.5 39.5 7.43959 39.5 16V24C39.5 32.5604 32.5604 39.5 24 39.5H16C7.43959 39.5 0.5 32.5604 0.5 24V16Z" stroke="url(#paint0_linear_11025_5414)"/>
<path d="M17.6251 21.2916C17.5466 21.2916 15.8998 21.2921 15.1403 21.2914C14.7493 21.2911 14.6098 21.1506 14.6098 20.7571C14.6093 19.7464 14.6091 18.7356 14.6098 17.7249C14.6101 17.3364 14.7576 17.1881 15.1436 17.1879C15.9031 17.1874 17.5408 17.1876 17.6251 17.1876C17.6251 17.1184 17.6248 15.6592 17.6251 14.9872C17.6256 13.9937 17.8028 13.0427 18.3076 12.1719C18.8243 11.2807 19.5763 10.6702 20.5401 10.3172C21.1573 10.0909 21.7981 10.0007 22.4531 10.0002C23.2726 9.99965 24.0921 10.0004 24.9118 10.0019C25.2641 10.0024 25.4203 10.1582 25.4211 10.5129C25.4226 11.4637 25.4226 12.4144 25.4211 13.3649C25.4206 13.7234 25.2708 13.8674 24.9106 13.8714C24.2388 13.8787 23.5666 13.8742 22.8956 13.9012C22.2178 13.9012 21.8613 14.2322 21.8613 14.9337C21.8451 15.6757 21.8546 16.4184 21.8546 17.1874C21.9181 17.1874 23.8468 17.1871 24.7483 17.1874C25.1578 17.1874 25.2978 17.3281 25.2978 17.7399C25.2978 18.7451 25.2976 19.7506 25.2968 20.7559C25.2966 21.1616 25.1651 21.2911 24.7531 21.2914C23.8516 21.2919 21.9303 21.2916 21.8463 21.2916V29.4279C21.8463 29.8616 21.7098 29.9999 21.2818 29.9999C20.2383 29.9999 19.1946 30.0001 18.1511 29.9999C17.7728 29.9999 17.6253 29.8529 17.6253 29.4746C17.6251 26.8249 17.6251 21.3846 17.6251 21.2916Z" fill="#0296DF"/>
<defs>
<linearGradient id="paint0_linear_11025_5414" x1="20" y1="0" x2="20" y2="40" gradientUnits="userSpaceOnUse">
<stop stop-color="#1C6585"/>
<stop offset="1" stop-color="#0296DF"/>
</linearGradient>
</defs>
</svg>
