<svg width="20" height="19" viewBox="0 0 20 19" fill="none" xmlns="http://www.w3.org/2000/svg">
<g id="Group">
<path id="Vector" d="M14.5833 0.597656C13.6449 0.612252 12.727 0.874201 11.9223 1.35705C11.1175 1.8399 10.4544 2.52655 9.99997 3.34766C9.5455 2.52655 8.88241 1.8399 8.07767 1.35705C7.27292 0.874201 6.35501 0.612252 5.41663 0.597656C3.92075 0.662649 2.51139 1.31703 1.49645 2.41785C0.481517 3.51867 -0.056491 4.97643 -3.22149e-05 6.47266C-3.22149e-05 10.2618 3.9883 14.4002 7.3333 17.206C8.08015 17.8336 9.02443 18.1777 9.99997 18.1777C10.9755 18.1777 11.9198 17.8336 12.6666 17.206C16.0116 14.4002 20 10.2618 20 6.47266C20.0564 4.97643 19.5184 3.51867 18.5035 2.41785C17.4885 1.31703 16.0792 0.662649 14.5833 0.597656ZM11.5958 15.931C11.1491 16.3071 10.5839 16.5134 9.99997 16.5134C9.41601 16.5134 8.85081 16.3071 8.40413 15.931C4.12247 12.3385 1.66663 8.89182 1.66663 6.47266C1.60967 5.41825 1.97194 4.3841 2.67444 3.59574C3.37693 2.80738 4.36266 2.32878 5.41663 2.26432C6.47061 2.32878 7.45633 2.80738 8.15883 3.59574C8.86133 4.3841 9.2236 5.41825 9.16663 6.47266C9.16663 6.69367 9.25443 6.90563 9.41071 7.06191C9.56699 7.21819 9.77895 7.30599 9.99997 7.30599C10.221 7.30599 10.4329 7.21819 10.5892 7.06191C10.7455 6.90563 10.8333 6.69367 10.8333 6.47266C10.7763 5.41825 11.1386 4.3841 11.8411 3.59574C12.5436 2.80738 13.5293 2.32878 14.5833 2.26432C15.6373 2.32878 16.623 2.80738 17.3255 3.59574C18.028 4.3841 18.3903 5.41825 18.3333 6.47266C18.3333 8.89182 15.8775 12.3385 11.5958 15.9277V15.931Z" fill="#BFC5D1"/>
</g>
</svg>
