<svg width="16" height="16" viewBox="0 0 16 16" fill="none" xmlns="http://www.w3.org/2000/svg">
<g clip-path="url(#clip0_389_16324)">
<path d="M7.99998 10.6666C9.47065 10.6666 10.6666 9.47056 10.6666 7.9999C10.6666 6.52923 9.47065 5.33323 7.99998 5.33323C6.52931 5.33323 5.33331 6.52923 5.33331 7.9999C5.33331 9.47056 6.52931 10.6666 7.99998 10.6666ZM7.99998 6.66656C8.73531 6.66656 9.33331 7.26456 9.33331 7.9999C9.33331 8.73523 8.73531 9.33323 7.99998 9.33323C7.26465 9.33323 6.66665 8.73523 6.66665 7.9999C6.66665 7.26456 7.26465 6.66656 7.99998 6.66656ZM12 15.3332C12 15.7019 11.7013 15.9999 11.3333 15.9999C10.9653 15.9999 10.6666 15.7019 10.6666 15.3332C10.6666 13.8626 9.47065 12.6666 7.99998 12.6666C6.52931 12.6666 5.33331 13.8626 5.33331 15.3332C5.33331 15.7019 5.03465 15.9999 4.66665 15.9999C4.29865 15.9999 3.99998 15.7019 3.99998 15.3332C3.99998 13.1272 5.79398 11.3332 7.99998 11.3332C10.206 11.3332 12 13.1272 12 15.3332ZM3.86731 6.3459C4.01131 6.73856 3.51865 7.10456 3.18398 6.85456L2.31131 6.24656L1.44131 6.85456C1.10931 7.1039 0.61998 6.7439 0.75998 6.35256L1.06998 5.3819L0.257313 4.8159C-0.100687 4.58323 0.0879801 3.97523 0.51598 3.98923H1.57931L1.82665 3.0419C1.93865 2.5499 2.68931 2.55056 2.80131 3.0419L3.04865 3.98923H4.10531C4.53198 3.97523 4.71998 4.57923 4.36331 4.8119L3.54931 5.38056L3.86665 6.34523L3.86731 6.3459ZM15.8053 4.81256L14.9913 5.38123L15.3086 6.3459C15.4526 6.73856 14.96 7.10456 14.6253 6.85456L13.7526 6.24656L12.8826 6.85456C12.5506 7.1039 12.062 6.74323 12.2013 6.35256L12.5113 5.3819L11.6986 4.8159C11.3406 4.58323 11.5293 3.97523 11.9573 3.98923H13.0206L13.268 3.0419C13.38 2.5499 14.1306 2.55056 14.2426 3.0419L14.49 3.98923H15.5466C15.9733 3.97523 16.1613 4.57923 15.8046 4.8119L15.8053 4.81256ZM5.76531 1.67656C5.80998 1.47123 5.99198 1.32323 6.20265 1.3239H7.26598L7.51331 0.376563C7.62531 -0.115437 8.37598 -0.114771 8.48798 0.376563L8.73531 1.3239H9.79198C10.2186 1.3099 10.4066 1.9139 10.05 2.14656L9.23598 2.71523L9.55331 3.6799C9.69731 4.07256 9.20398 4.43856 8.86998 4.18856L7.99731 3.58056L7.12731 4.18856C6.79531 4.4379 6.30598 4.0779 6.44598 3.68656L6.75598 2.7159L5.94331 2.1499C5.79131 2.0439 5.72131 1.8559 5.76531 1.67656Z" fill="#021017"/>
</g>
<defs>
<clipPath id="clip0_389_16324">
<rect width="16" height="16" fill="white"/>
</clipPath>
</defs>
</svg>
