<svg width="16" height="16" viewBox="0 0 16 16" fill="none" xmlns="http://www.w3.org/2000/svg">
<g id="Group">
<path id="Vector" d="M9.33171 16C9.18747 16 9.04711 15.9532 8.93171 15.8667L6.26505 13.8667C6.18225 13.8046 6.11505 13.724 6.06876 13.6315C6.02248 13.5389 5.99838 13.4368 5.99838 13.3333V9.58667L1.32105 4.32467C0.98886 3.94992 0.771966 3.48721 0.696433 2.99216C0.6209 2.4971 0.689943 1.99077 0.895262 1.53401C1.10058 1.07725 1.43344 0.689506 1.85383 0.417377C2.27423 0.145249 2.76426 0.000316279 3.26505 0L12.7317 0C13.2325 0.000587367 13.7224 0.14576 14.1426 0.418071C14.5628 0.690383 14.8955 1.07825 15.1006 1.53506C15.3057 1.99187 15.3745 2.49818 15.2988 2.99316C15.223 3.48815 15.006 3.95073 14.6737 4.32533L9.99838 9.58667V15.3333C9.99838 15.5101 9.92814 15.6797 9.80312 15.8047C9.67809 15.9298 9.50852 16 9.33171 16ZM7.33171 13L8.66505 14V9.33333C8.66518 9.1701 8.72519 9.0126 8.83371 8.89067L13.679 3.43933C13.8406 3.25672 13.946 3.03136 13.9827 2.7903C14.0193 2.54924 13.9856 2.30274 13.8856 2.08037C13.7855 1.85801 13.6235 1.66924 13.4188 1.53673C13.2141 1.40421 12.9755 1.33359 12.7317 1.33333H3.26505C3.02135 1.3337 2.78293 1.40436 2.57838 1.53684C2.37384 1.66932 2.21185 1.858 2.11185 2.08023C2.01185 2.30247 1.97808 2.54884 2.0146 2.78979C2.05111 3.03074 2.15636 3.25604 2.31771 3.43867L7.16371 8.89067C7.27199 9.0127 7.33176 9.17019 7.33171 9.33333V13Z" fill="#5E6D8C"/>
</g>
</svg>
