<svg width="20" height="11" viewBox="0 0 20 11" fill="none" xmlns="http://www.w3.org/2000/svg">
<mask id="path-1-inside-1_11469_3589" fill="white">
<path d="M19.2667 3.67182L16.0417 0.413491C15.9642 0.335384 15.872 0.273388 15.7705 0.231081C15.6689 0.188774 15.56 0.166992 15.45 0.166992C15.34 0.166992 15.2311 0.188774 15.1295 0.231081C15.028 0.273388 14.9358 0.335384 14.8583 0.413491C14.7031 0.569626 14.616 0.780836 14.616 1.00099C14.616 1.22115 14.7031 1.43236 14.8583 1.58849L17.825 4.58016H0.833333C0.61232 4.58016 0.400358 4.66796 0.244078 4.82424C0.0877974 4.98052 0 5.19248 0 5.41349C0 5.6345 0.0877974 5.84647 0.244078 6.00275C0.400358 6.15903 0.61232 6.24682 0.833333 6.24682H17.875L14.8583 9.25516C14.7802 9.33263 14.7182 9.42479 14.6759 9.52634C14.6336 9.62789 14.6118 9.73681 14.6118 9.84682C14.6118 9.95683 14.6336 10.0658 14.6759 10.1673C14.7182 10.2689 14.7802 10.361 14.8583 10.4385C14.9358 10.5166 15.028 10.5786 15.1295 10.6209C15.2311 10.6632 15.34 10.685 15.45 10.685C15.56 10.685 15.6689 10.6632 15.7705 10.6209C15.872 10.5786 15.9642 10.5166 16.0417 10.4385L19.2667 7.20516C19.7348 6.73641 19.9978 6.10099 19.9978 5.43849C19.9978 4.77599 19.7348 4.14058 19.2667 3.67182Z"/>
</mask>
<path d="M19.2667 3.67182L16.0417 0.413491C15.9642 0.335384 15.872 0.273388 15.7705 0.231081C15.6689 0.188774 15.56 0.166992 15.45 0.166992C15.34 0.166992 15.2311 0.188774 15.1295 0.231081C15.028 0.273388 14.9358 0.335384 14.8583 0.413491C14.7031 0.569626 14.616 0.780836 14.616 1.00099C14.616 1.22115 14.7031 1.43236 14.8583 1.58849L17.825 4.58016H0.833333C0.61232 4.58016 0.400358 4.66796 0.244078 4.82424C0.0877974 4.98052 0 5.19248 0 5.41349C0 5.6345 0.0877974 5.84647 0.244078 6.00275C0.400358 6.15903 0.61232 6.24682 0.833333 6.24682H17.875L14.8583 9.25516C14.7802 9.33263 14.7182 9.42479 14.6759 9.52634C14.6336 9.62789 14.6118 9.73681 14.6118 9.84682C14.6118 9.95683 14.6336 10.0658 14.6759 10.1673C14.7182 10.2689 14.7802 10.361 14.8583 10.4385C14.9358 10.5166 15.028 10.5786 15.1295 10.6209C15.2311 10.6632 15.34 10.685 15.45 10.685C15.56 10.685 15.6689 10.6632 15.7705 10.6209C15.872 10.5786 15.9642 10.5166 16.0417 10.4385L19.2667 7.20516C19.7348 6.73641 19.9978 6.10099 19.9978 5.43849C19.9978 4.77599 19.7348 4.14058 19.2667 3.67182Z" fill="white"/>
<path d="M19.2667 3.67182L4.10437 18.679L4.13828 18.7133L4.17234 18.7474L19.2667 3.67182ZM16.0417 0.413491L31.204 -14.5937L31.1962 -14.6016L31.1883 -14.6095L16.0417 0.413491ZM14.8583 0.413491L29.9881 15.4535L29.9966 15.445L30.005 15.4365L14.8583 0.413491ZM14.8583 1.58849L30.0064 -13.433L29.9973 -13.4423L29.9881 -13.4515L14.8583 1.58849ZM17.825 4.58016V25.9135H69.0242L32.9731 -10.4414L17.825 4.58016ZM0 5.41349L-21.3333 5.41349L0 5.41349ZM17.875 6.24682L32.9391 21.3526L69.4791 -15.0865L17.875 -15.0865V6.24682ZM14.8583 9.25516L29.8813 24.4018L29.9019 24.3814L29.9224 24.361L14.8583 9.25516ZM14.8583 10.4385L30.005 -4.58448L29.9434 -4.64658L29.8813 -4.70817L14.8583 10.4385ZM16.0417 10.4385L0.93727 -4.62698L0.916106 -4.60576L0.895001 -4.58448L16.0417 10.4385ZM19.2667 7.20516L4.17234 -7.8704L4.1673 -7.86536L4.16227 -7.86031L19.2667 7.20516ZM34.429 -11.3354L31.204 -14.5937L0.879367 15.4207L4.10437 18.679L34.429 -11.3354ZM31.1883 -14.6095C29.1276 -16.6871 26.676 -18.3362 23.9748 -19.4616L7.56618 19.9237C5.06809 18.883 2.80076 17.3579 0.895001 15.4365L31.1883 -14.6095ZM23.9748 -19.4616C21.2736 -20.5869 18.3763 -21.1663 15.45 -21.1663V21.5003C12.7437 21.5003 10.0643 20.9645 7.56618 19.9237L23.9748 -19.4616ZM15.45 -21.1663C12.5238 -21.1663 9.62646 -20.587 6.92522 -19.4616L23.3338 19.9237C20.8357 20.9645 18.1562 21.5003 15.45 21.5003V-21.1663ZM6.92522 -19.4616C4.22403 -18.3362 1.77237 -16.6871 -0.288333 -14.6095L30.005 15.4365C28.0992 17.3579 25.8319 18.883 23.3338 19.9237L6.92522 -19.4616ZM-0.271422 -14.6265C-4.39999 -10.4733 -6.71733 -4.85512 -6.71733 1.00099H35.9493C35.9493 6.41679 33.8062 11.6126 29.9881 15.4535L-0.271422 -14.6265ZM-6.71733 1.00099C-6.71733 6.8571 -4.39999 12.4753 -0.271422 16.6285L29.9881 -13.4515C33.8062 -9.61057 35.9493 -4.41481 35.9493 1.00099H-6.71733ZM-0.289773 16.61L2.67689 19.6017L32.9731 -10.4414L30.0064 -13.433L-0.289773 16.61ZM17.825 -16.7532H0.833333V25.9135H17.825V-16.7532ZM0.833333 -16.7532C-5.04564 -16.7532 -10.6838 -14.4178 -14.8409 -10.2607L15.329 19.9092C11.4845 23.7537 6.27028 25.9135 0.833333 25.9135V-16.7532ZM-14.8409 -10.2607C-18.9979 -6.10366 -21.3333 -0.46548 -21.3333 5.41349L21.3333 5.41349C21.3333 10.8504 19.1735 16.0647 15.329 19.9092L-14.8409 -10.2607ZM-21.3333 5.41349C-21.3333 11.2925 -18.9979 16.9306 -14.8409 21.0877L15.329 -9.0822C19.1735 -5.23771 21.3333 -0.0234523 21.3333 5.41349L-21.3333 5.41349ZM-14.8409 21.0877C-10.6838 25.2447 -5.04564 27.5802 0.833333 27.5802V-15.0865C6.27028 -15.0865 11.4845 -12.9267 15.329 -9.0822L-14.8409 21.0877ZM0.833333 27.5802H17.875V-15.0865H0.833333V27.5802ZM2.81094 -8.85897L-0.205732 -5.85064L29.9224 24.361L32.9391 21.3526L2.81094 -8.85897ZM-0.164636 -5.89151C-2.24225 -3.83086 -3.89134 -1.37921 -5.01673 1.32204L34.3686 17.7306C33.3278 20.2288 31.8027 22.4961 29.8813 24.4018L-0.164636 -5.89151ZM-5.01673 1.32204C-6.14213 4.02333 -6.7215 6.92064 -6.7215 9.84682H35.9452C35.9452 12.553 35.4094 15.2325 34.3686 17.7306L-5.01673 1.32204ZM-6.7215 9.84682C-6.7215 12.773 -6.14213 15.6703 -5.01673 18.3716L34.3686 1.963C35.4094 4.46119 35.9452 7.14066 35.9452 9.84682H-6.7215ZM-5.01673 18.3716C-3.89138 21.0728 -2.24233 23.5244 -0.164636 25.5852L29.8813 -4.70817C31.8028 -2.80238 33.3278 -0.535044 34.3686 1.963L-5.01673 18.3716ZM-0.288333 25.4615C1.7724 27.5392 4.22407 29.1882 6.92522 30.3136L23.3338 -9.07175C25.8319 -8.03102 28.0992 -6.50596 30.005 -4.58448L-0.288333 25.4615ZM6.92522 30.3136C9.62651 31.439 12.5238 32.0183 15.45 32.0183V-10.6483C18.1562 -10.6483 20.8356 -10.1125 23.3338 -9.07175L6.92522 30.3136ZM15.45 32.0183C18.3762 32.0183 21.2735 31.4389 23.9748 30.3136L7.56618 -9.07175C10.0643 -10.1125 12.7438 -10.6483 15.45 -10.6483V32.0183ZM23.9748 30.3136C26.6759 29.1882 29.1276 27.5392 31.1883 25.4615L0.895001 -4.58448C2.80079 -6.50596 5.06813 -8.03102 7.56618 -9.07175L23.9748 30.3136ZM31.1461 25.504L34.3711 22.2706L4.16227 -7.86031L0.93727 -4.62698L31.1461 25.504ZM34.361 22.2807C38.8242 17.8119 41.3311 11.7543 41.3311 5.43849H-1.33553C-1.33553 0.447653 0.645464 -4.33913 4.17234 -7.8704L34.361 22.2807ZM41.3311 5.43849C41.3311 -0.877351 38.8242 -6.93496 34.361 -11.4037L4.17234 18.7474C0.645464 15.2161 -1.33553 10.4293 -1.33553 5.43849H41.3311Z" fill="white" mask="url(#path-1-inside-1_11469_3589)"/>
</svg>
