<svg width="18" height="18" viewBox="0 0 18 18" fill="none" xmlns="http://www.w3.org/2000/svg">
<path d="M9.14546 17V5.42832M7.79129 4.73413C7.93535 4.76627 8.08716 4.72687 8.19087 4.62373C8.29459 4.52059 8.33415 4.36958 8.30189 4.22637C8.17259 3.70116 7.69631 1.94245 7.20725 1.45612C6.59795 0.850204 5.60629 0.847681 5 1.4506C4.39376 2.05347 4.39621 3.03962 5.00555 3.64558C5.50261 4.13988 7.26316 4.60556 7.79129 4.73413ZM9.27011 4.22633C9.23778 4.36959 9.2774 4.52055 9.38112 4.62369C9.48484 4.72683 9.6367 4.76617 9.7807 4.73409C10.3088 4.60551 12.0774 4.13188 12.5664 3.64554C13.1757 3.03963 13.1783 2.05347 12.572 1.45056C11.9657 0.847682 10.9741 0.85012 10.3647 1.45608C9.86768 1.95037 9.39939 3.70113 9.27011 4.22633ZM1.58182 9.47841H16.4182C16.7395 9.47841 17 9.21937 17 8.89982V6.0069C17 5.68736 16.7395 5.42832 16.4182 5.42832H1.58182C1.26049 5.42832 1 5.68736 1 6.0069V8.89982C1 9.21937 1.26049 9.47841 1.58182 9.47841ZM15.5455 9.47841V16.4214C15.5455 16.741 15.285 17 14.9636 17H3.03636C2.71503 17 2.45455 16.741 2.45455 16.4214V9.47841H15.5455Z" stroke="white" stroke-width="1.5" stroke-linecap="round" stroke-linejoin="round"/>
</svg>
