<svg width="22" height="22" viewBox="0 0 22 22" fill="none" xmlns="http://www.w3.org/2000/svg">
<path fill-rule="evenodd" clip-rule="evenodd" d="M11.4318 0.385576C11.1736 0.20482 10.8299 0.204807 10.5717 0.385542L0.569981 7.38554C0.327669 7.55513 0.207652 7.85129 0.263541 8.14172L2.76515 21.1417C2.83309 21.4948 3.14207 21.75 3.50164 21.75H18.5016C18.8612 21.75 19.1702 21.4948 19.2381 21.1416L21.7382 8.14164C21.7941 7.85125 21.6741 7.55515 21.4318 7.38558L11.4318 0.385576ZM4.12107 20.25L1.82839 8.33569L11.0017 1.91547L20.1734 8.33568L17.8821 20.25H14.7491V14.25L7.25285 14.25L7.2495 20.25H4.12107ZM8.7495 20.25H13.2491V15.75L8.75202 15.75L8.7495 20.25Z" fill="#1F8C61"/>
</svg>
