<svg width="22" height="22" viewBox="0 0 22 22" fill="none" xmlns="http://www.w3.org/2000/svg">
<path d="M10.8997 9.41981C11.1007 9.44683 11.3575 9.51631 11.5737 9.73247C11.7898 9.94861 11.8594 10.2054 11.8864 10.4065C11.9095 10.5781 11.9094 10.7815 11.9094 10.9695L11.9093 14.6677C11.9093 15.0474 11.6015 15.3552 11.2218 15.3552C10.8421 15.3552 10.5343 15.0474 10.5343 14.6677V11.0011C10.5343 10.9102 10.5343 10.8366 10.5333 10.773C10.4696 10.7719 10.396 10.7719 10.3052 10.7719C9.92548 10.7719 9.61768 10.4641 9.61768 10.0844C9.61768 9.70471 9.92548 9.39691 10.3052 9.39691L10.3367 9.3969C10.5248 9.39683 10.7281 9.39675 10.8997 9.41981Z" fill="#B56700"/>
<path d="M10.9927 6.41772C10.4864 6.41772 10.076 6.82813 10.076 7.33439C10.076 7.84065 10.4864 8.25106 10.9927 8.25106H11.0009C11.5072 8.25106 11.9176 7.84065 11.9176 7.33439C11.9176 6.82813 11.5072 6.41772 11.0009 6.41772H10.9927Z" fill="#B56700"/>
<path fill-rule="evenodd" clip-rule="evenodd" d="M11.0001 20.8553H10.8443C9.88181 20.7819 9.27681 20.0944 8.79097 19.5353L8.78099 19.5238C8.47304 19.1706 8.18264 18.8374 7.87431 18.7286C7.54902 18.6111 7.10796 18.6451 6.6389 18.6812L6.58696 18.6852C5.76722 18.7491 4.74764 18.8286 3.96931 18.0503C3.21214 17.2931 3.2793 16.2789 3.33404 15.4521L3.33681 15.4103L3.33836 15.3898C3.37448 14.9116 3.40847 14.4616 3.29097 14.1453C3.17181 13.8336 2.84181 13.5403 2.48431 13.2286C1.92514 12.7428 1.23764 12.1378 1.16431 11.1753C1.08181 10.0294 1.85181 9.3511 2.48431 8.81027L2.49617 8.79993C2.84929 8.4921 3.1823 8.20182 3.30014 7.8936C3.41763 7.57728 3.38365 7.12729 3.34753 6.64907L3.34598 6.6286C3.28181 5.79443 3.20847 4.75859 3.97847 3.98859C4.76681 3.20026 5.80265 3.28276 6.62765 3.35609L6.71463 3.36286C7.15971 3.3977 7.58221 3.43077 7.88348 3.31027C8.19514 3.1911 8.48848 2.8611 8.80014 2.5036C9.28598 1.94443 9.89097 1.25693 10.8535 1.18359H11.1651C12.126 1.25611 12.7283 1.93811 13.2113 2.48511L13.2276 2.5036L13.2376 2.51505C13.5456 2.86832 13.836 3.20144 14.1443 3.31027C14.4696 3.42773 14.9107 3.39377 15.3797 3.35766L15.4001 3.35609C16.2251 3.28276 17.261 3.20026 18.0493 3.98859C18.8376 4.78609 18.7551 5.81277 18.6818 6.63777L18.675 6.72463C18.6402 7.16976 18.6071 7.59231 18.7276 7.8936C18.8414 8.19122 19.1558 8.47212 19.4873 8.76823L19.5343 8.81027C20.0935 9.2961 20.781 9.90109 20.8543 10.8636C20.9368 12.0094 20.1576 12.6969 19.5343 13.2378C19.1951 13.5311 18.8835 13.8061 18.746 14.0995C18.5915 14.4265 18.6352 14.9067 18.6806 15.4061L18.6818 15.4195C18.7551 16.2445 18.8376 17.2711 18.0493 18.0595C17.2793 18.8295 16.2435 18.7561 15.4093 18.692L15.3887 18.6904C14.9105 18.6543 14.4606 18.6203 14.1443 18.7378C13.8326 18.8569 13.5393 19.187 13.2276 19.5445C12.7418 20.1036 12.1368 20.7911 11.1743 20.8645H11.0093L11.0001 20.8553ZM7.28764 17.262C7.64514 17.262 8.00264 17.2986 8.35098 17.427C8.96557 17.6552 9.39516 18.1358 9.77666 18.5626L9.82681 18.6186C10.276 19.1319 10.5693 19.4436 10.9451 19.4711H11.0643C11.4401 19.4436 11.7335 19.1319 12.1826 18.6186L12.1892 18.6111C12.5817 18.1639 13.0204 17.664 13.6585 17.427C14.2635 17.207 14.896 17.2528 15.5101 17.2986C16.2801 17.3536 16.7751 17.3719 17.0776 17.0694C17.3985 16.7486 17.3801 16.2628 17.316 15.5111L17.3151 15.5007C17.2603 14.8708 17.1985 14.16 17.4993 13.5036C17.7546 12.9474 18.2185 12.5454 18.6293 12.1894L18.636 12.1836C19.186 11.7069 19.5251 11.3861 19.4885 10.9461C19.461 10.5703 19.1493 10.2769 18.636 9.82775L18.6283 9.82101C18.1811 9.42856 17.6812 8.98994 17.4351 8.35193C17.2081 7.74345 17.26 7.09002 17.3055 6.51636L17.3068 6.50031C17.371 5.73947 17.3893 5.26279 17.0685 4.93279C16.7476 4.61195 16.2618 4.63028 15.501 4.69444L15.485 4.69571C14.9114 4.74126 14.2578 4.79316 13.6493 4.5661C13.0347 4.33782 12.6051 3.85727 12.2236 3.4305L12.1735 3.37444C11.7243 2.86111 11.431 2.54945 11.0551 2.52195H10.9268C10.5601 2.54945 10.2668 2.86111 9.81764 3.37444L9.8111 3.3819C9.4186 3.82918 8.97993 4.32908 8.34181 4.5661C7.73329 4.79316 7.07978 4.74126 6.50609 4.69571L6.49015 4.69444C5.72931 4.63028 5.25265 4.61195 4.92265 4.93279C4.62015 5.23529 4.63848 5.73031 4.69348 6.50031C4.73931 7.11447 4.78515 7.74693 4.56515 8.35193C4.32681 8.9936 3.81348 9.44275 3.36431 9.82775C2.79598 10.3228 2.48431 10.6161 2.51181 11.0561C2.53931 11.4319 2.85098 11.7253 3.36431 12.1745L3.3955 12.2018C3.83702 12.5891 4.33231 13.0234 4.56515 13.6503C4.78515 14.2553 4.73931 14.8878 4.69348 15.5019C4.63848 16.2719 4.62015 16.7669 4.92265 17.0694C5.24348 17.3903 5.72931 17.372 6.49015 17.3078C6.54291 17.3039 6.59651 17.2996 6.65086 17.2952C6.85127 17.279 7.06228 17.262 7.27848 17.262H7.28764Z" fill="#B56700"/>
</svg>
