<svg width="20" height="24" viewBox="0 0 20 24" fill="none" xmlns="http://www.w3.org/2000/svg">
<path d="M15.8334 9.02V7.83333C15.8334 6.28624 15.2188 4.80251 14.1248 3.70854C13.0308 2.61458 11.5471 2 10 2C8.45292 2 6.96919 2.61458 5.87523 3.70854C4.78127 4.80251 4.16669 6.28624 4.16669 7.83333V9.02C3.42449 9.34392 2.79276 9.8771 2.34877 10.5543C1.90477 11.2316 1.66775 12.0235 1.66669 12.8333V17.8333C1.66801 18.938 2.10742 19.997 2.88854 20.7782C3.66965 21.5593 4.72869 21.9987 5.83335 22H14.1667C15.2714 21.9987 16.3304 21.5593 17.1115 20.7782C17.8926 19.997 18.332 18.938 18.3334 17.8333V12.8333C18.3323 12.0235 18.0953 11.2316 17.6513 10.5543C17.2073 9.8771 16.5756 9.34392 15.8334 9.02ZM5.83335 7.83333C5.83335 6.72826 6.27234 5.66846 7.05374 4.88706C7.83514 4.10565 8.89495 3.66667 10 3.66667C11.1051 3.66667 12.1649 4.10565 12.9463 4.88706C13.7277 5.66846 14.1667 6.72826 14.1667 7.83333V8.66667H5.83335V7.83333ZM16.6667 17.8333C16.6667 18.4964 16.4033 19.1323 15.9345 19.6011C15.4656 20.0699 14.8297 20.3333 14.1667 20.3333H5.83335C5.17031 20.3333 4.53443 20.0699 4.06559 19.6011C3.59675 19.1323 3.33335 18.4964 3.33335 17.8333V12.8333C3.33335 12.1703 3.59675 11.5344 4.06559 11.0656C4.53443 10.5967 5.17031 10.3333 5.83335 10.3333H14.1667C14.8297 10.3333 15.4656 10.5967 15.9345 11.0656C16.4033 11.5344 16.6667 12.1703 16.6667 12.8333V17.8333Z" fill="#44506A"/>
<path d="M10 13.667C9.77901 13.667 9.56705 13.7548 9.41076 13.9111C9.25448 14.0674 9.16669 14.2793 9.16669 14.5003V16.167C9.16669 16.388 9.25448 16.6 9.41076 16.7562C9.56705 16.9125 9.77901 17.0003 10 17.0003C10.221 17.0003 10.433 16.9125 10.5893 16.7562C10.7456 16.6 10.8334 16.388 10.8334 16.167V14.5003C10.8334 14.2793 10.7456 14.0674 10.5893 13.9111C10.433 13.7548 10.221 13.667 10 13.667Z" fill="#44506A"/>
</svg>
