<svg id="sign-out-alt" xmlns="http://www.w3.org/2000/svg" width="19.953" height="20.168" viewBox="0 0 19.953 20.168">
  <path id="Path_752" data-name="Path 752" d="M9.644,12.6a.84.84,0,0,0-.84.84v2.521a2.521,2.521,0,0,1-2.521,2.521H4.2a2.521,2.521,0,0,1-2.521-2.521V4.2A2.521,2.521,0,0,1,4.2,1.681H6.282A2.521,2.521,0,0,1,8.8,4.2V6.723a.84.84,0,1,0,1.681,0V4.2A4.207,4.207,0,0,0,6.282,0H4.2A4.207,4.207,0,0,0,0,4.2V15.966a4.207,4.207,0,0,0,4.2,4.2H6.282a4.207,4.207,0,0,0,4.2-4.2V13.445A.84.84,0,0,0,9.644,12.6Z" fill="#ff4f65"/>
  <path id="Path_753" data-name="Path 753" d="M20.014,9.1,16.16,5.246a.84.84,0,1,0-1.188,1.188l3.582,3.582L5.84,10.042a.84.84,0,0,0,0,1.681h0L18.6,11.7,14.97,15.33a.84.84,0,1,0,1.188,1.188l3.854-3.854a2.521,2.521,0,0,0,0-3.565Z" transform="translate(-0.798 -0.798)" fill="#ff4f65"/>
</svg>
