<svg width="14" height="14" viewBox="0 0 14 14" fill="none" xmlns="http://www.w3.org/2000/svg">
<g clip-path="url(#clip0_690_42896)">
<path fill-rule="evenodd" clip-rule="evenodd" d="M4.97338 1.81053C5.15299 1.75066 5.34717 1.75066 5.52678 1.81053L8.75008 2.88496L11.8353 1.85656C12.3263 1.69288 12.8334 2.05838 12.8334 2.57598V10.2896C12.8334 10.6662 12.5924 11.0006 12.2351 11.1197L9.02676 12.1892C8.84715 12.2491 8.65302 12.2491 8.47341 12.1892L5.25008 11.1147L2.16489 12.1431C1.67385 12.3068 1.16675 11.9414 1.16675 11.4237V3.71007C1.16675 3.33345 1.40775 2.99907 1.76505 2.87997L4.97338 1.81053ZM4.66675 10.0794V3.14251L2.33341 3.92029V10.8572L4.66675 10.0794ZM5.83342 3.14251V10.0794L8.16675 10.8572V3.92029L5.83342 3.14251ZM9.33342 3.92029V10.8572L11.6667 10.0794V3.14251L9.33342 3.92029Z" fill="black"/>
</g>
<defs>
<clipPath id="clip0_690_42896">
<rect width="14" height="14" fill="white"/>
</clipPath>
</defs>
</svg>
