<svg width="35" height="34" viewBox="0 0 35 34" fill="none" xmlns="http://www.w3.org/2000/svg">
<g clip-path="url(#clip0_134_579)">
<path d="M28.8108 5.01725C28.4154 4.38025 27.7307 4 26.9811 4H23.7213C22.0595 4 20.5699 4.92517 19.8354 6.41583L17.8193 10.5033C17.7966 10.5033 17.7738 10.5 17.7511 10.5C17.7359 10.5 17.7218 10.5022 17.7067 10.5022L15.6906 6.41583C14.955 4.92517 13.4665 4 11.8047 4H8.54491C7.79525 4 7.11058 4.38025 6.71408 5.01725C6.31867 5.65425 6.28075 6.43642 6.61225 7.10917L10.1136 14.2083C8.79517 15.8712 8.00108 17.9685 8.00108 20.2511C8.00108 25.6266 12.3756 30.0011 17.7511 30.0011C23.1266 30.0011 27.5011 25.6266 27.5011 20.2511C27.5011 17.9772 26.7124 15.8885 25.4027 14.2278L28.9137 7.11025C29.2463 6.4375 29.2073 5.65533 28.8119 5.01833L28.8108 5.01725ZM11.8036 6.16667C12.6345 6.16667 13.3787 6.62925 13.746 7.37458L15.4306 10.7903C14.0612 11.1262 12.8046 11.748 11.7299 12.5952L8.54383 6.16667H11.8036ZM17.75 27.8333C13.5683 27.8333 10.1667 24.4317 10.1667 20.25C10.1667 16.285 13.2271 13.0263 17.1097 12.6992C17.1108 12.6992 17.1119 12.6992 17.1141 12.6992C17.3242 12.6818 17.5366 12.6667 17.7511 12.6667C21.9327 12.6667 25.3344 16.0683 25.3344 20.25C25.3344 24.4317 21.9327 27.8333 17.7511 27.8333H17.75ZM23.7842 12.6071C22.7117 11.7578 21.4572 11.1348 20.09 10.7958L21.7778 7.37458C22.1451 6.62925 22.8893 6.16667 23.7202 6.16667L26.9702 6.15042L23.7842 12.6071ZM22.2534 19.6108C22.2534 20.0019 21.9815 20.3313 21.6695 20.5046L20.0553 21.4016L20.7714 23.3548C20.9101 23.7329 20.7844 24.1576 20.4627 24.4002C20.1333 24.6483 19.6794 24.6451 19.3544 24.3927L17.7489 23.1512L16.1434 24.3927C15.8173 24.644 15.3634 24.6472 15.0352 24.4002C14.7134 24.1576 14.5877 23.734 14.7264 23.3548L15.4425 21.4016L13.8283 20.5046C13.5163 20.3313 13.2444 20.0019 13.2444 19.6108C13.2444 19.2793 13.5326 18.9132 13.9984 18.9132H16.3167L16.931 16.5569C17.0285 16.1832 17.3632 15.9232 17.7489 15.9167C18.1335 15.9243 18.4693 16.1832 18.5668 16.5569L19.1811 18.9132H21.4994C21.9652 18.9132 22.2534 19.2783 22.2534 19.6108Z" fill="#C99383"/>
</g>
<defs>
<clipPath id="clip0_134_579">
<rect width="26" height="26" fill="white" transform="translate(4.75 4)"/>
</clipPath>
</defs>
</svg>
