<svg width="20" height="25" viewBox="0 0 20 25" fill="none" xmlns="http://www.w3.org/2000/svg">
<path d="M1 11.5571C1.31471 13.65 2.39743 15.5633 4.05009 16.9468C5.70275 18.3304 7.81485 19.0919 10 19.0919M10 19.0919C12.1851 19.0919 14.2972 18.3304 15.9499 16.9468C17.6026 15.5633 18.6853 13.65 19 11.5571M10 19.0919V23.5M10.0013 1.5C8.96784 1.5 7.97671 1.89735 7.24594 2.60463C6.51517 3.31191 6.10463 4.27118 6.10463 5.27143V10.3C6.10463 11.3002 6.51517 12.2595 7.24594 12.9668C7.97671 13.6741 8.96784 14.0714 10.0013 14.0714C11.0348 14.0714 12.0259 13.6741 12.7567 12.9668C13.4874 12.2595 13.898 11.3002 13.898 10.3V5.27143C13.898 4.27118 13.4874 3.31191 12.7567 2.60463C12.0259 1.89735 11.0348 1.5 10.0013 1.5Z" stroke="#C99383" stroke-width="1.5" stroke-linecap="round" stroke-linejoin="round"/>
</svg>
