<svg width="24" height="24" viewBox="0 0 24 24" fill="none" xmlns="http://www.w3.org/2000/svg">
<path fill-rule="evenodd" clip-rule="evenodd" d="M19.4782 9.75H19.5218C19.736 9.74999 19.9329 9.74998 20.0982 9.76126C20.2759 9.77338 20.4712 9.80099 20.6697 9.88321C21.0985 10.0608 21.4392 10.4015 21.6168 10.8303C21.699 11.0288 21.7266 11.2242 21.7387 11.4018C21.75 11.5671 21.75 11.7639 21.75 11.9781V12.0218C21.75 12.236 21.75 12.4329 21.7387 12.5982C21.7266 12.7759 21.699 12.9712 21.6168 13.1697C21.4392 13.5985 21.0985 13.9392 20.6697 14.1168C20.4712 14.199 20.2759 14.2266 20.0982 14.2387C19.9329 14.25 19.736 14.25 19.5218 14.25H19.4782C19.264 14.25 19.0671 14.25 18.9018 14.2387C18.7241 14.2266 18.5288 14.199 18.3303 14.1168C17.9015 13.9392 17.5608 13.5985 17.3832 13.1697C17.301 12.9712 17.2734 12.7759 17.2613 12.5982C17.25 12.4329 17.25 12.236 17.25 12.0218V11.9782C17.25 11.764 17.25 11.5671 17.2613 11.4018C17.2734 11.2242 17.301 11.0288 17.3832 10.8303C17.5608 10.4015 17.9015 10.0608 18.3303 9.88321C18.5288 9.80099 18.7241 9.77338 18.9018 9.76126C19.0671 9.74998 19.264 9.74999 19.4782 9.75ZM18.9013 11.2703C18.8425 11.2956 18.7956 11.3425 18.7703 11.4013C18.7684 11.4087 18.7623 11.4371 18.7578 11.5039C18.7504 11.6119 18.75 11.7568 18.75 12C18.75 12.2432 18.7504 12.3881 18.7578 12.4961C18.7623 12.5629 18.7684 12.5913 18.7703 12.5987C18.7956 12.6575 18.8425 12.7044 18.9013 12.7297C18.9087 12.7316 18.9371 12.7377 19.0039 12.7422C19.1119 12.7496 19.2568 12.75 19.5 12.75C19.7432 12.75 19.8881 12.7496 19.9961 12.7422C20.0629 12.7377 20.0913 12.7316 20.0987 12.7297C20.1575 12.7044 20.2044 12.6575 20.2297 12.5987C20.2316 12.5913 20.2377 12.5629 20.2422 12.4961C20.2496 12.3881 20.25 12.2432 20.25 12C20.25 11.7568 20.2496 11.6119 20.2422 11.5039C20.2377 11.4371 20.2316 11.4087 20.2297 11.4013C20.2044 11.3425 20.1575 11.2956 20.0987 11.2703C20.0913 11.2684 20.0629 11.2623 19.9961 11.2578C19.8881 11.2504 19.7432 11.25 19.5 11.25C19.2568 11.25 19.1119 11.2504 19.0039 11.2578C18.9371 11.2623 18.9087 11.2684 18.9013 11.2703Z" fill="#B5B5B5"/>
<path fill-rule="evenodd" clip-rule="evenodd" d="M11.9782 9.75H12.0218C12.236 9.74999 12.4329 9.74998 12.5982 9.76126C12.7759 9.77338 12.9712 9.80099 13.1697 9.88321C13.5985 10.0608 13.9392 10.4015 14.1168 10.8303C14.199 11.0288 14.2266 11.2242 14.2387 11.4018C14.25 11.5671 14.25 11.7639 14.25 11.9782V12.0218C14.25 12.236 14.25 12.4329 14.2387 12.5982C14.2266 12.7759 14.199 12.9712 14.1168 13.1697C13.9392 13.5985 13.5985 13.9392 13.1697 14.1168C12.9712 14.199 12.7759 14.2266 12.5982 14.2387C12.4329 14.25 12.236 14.25 12.0218 14.25H11.9782C11.764 14.25 11.5671 14.25 11.4018 14.2387C11.2242 14.2266 11.0288 14.199 10.8303 14.1168C10.4015 13.9392 10.0608 13.5985 9.88321 13.1697C9.80099 12.9712 9.77338 12.7759 9.76126 12.5982C9.74998 12.4329 9.74999 12.236 9.75 12.0218V11.9782C9.74999 11.764 9.74998 11.5671 9.76126 11.4018C9.77338 11.2242 9.80099 11.0288 9.88321 10.8303C10.0608 10.4015 10.4015 10.0608 10.8303 9.88321C11.0288 9.80099 11.2242 9.77338 11.4018 9.76126C11.5671 9.74998 11.764 9.74999 11.9782 9.75ZM11.4013 11.2703C11.3425 11.2956 11.2956 11.3425 11.2703 11.4013C11.2684 11.4087 11.2623 11.4371 11.2578 11.5039C11.2504 11.6119 11.25 11.7568 11.25 12C11.25 12.2432 11.2504 12.3881 11.2578 12.4961C11.2623 12.5629 11.2684 12.5913 11.2703 12.5987C11.2956 12.6575 11.3425 12.7044 11.4013 12.7297C11.4087 12.7316 11.4371 12.7377 11.5039 12.7422C11.6119 12.7496 11.7568 12.75 12 12.75C12.2432 12.75 12.3881 12.7496 12.4961 12.7422C12.5629 12.7377 12.5913 12.7316 12.5987 12.7297C12.6575 12.7044 12.7044 12.6575 12.7297 12.5987C12.7316 12.5913 12.7377 12.5629 12.7422 12.4961C12.7496 12.3881 12.75 12.2432 12.75 12C12.75 11.7568 12.7496 11.6119 12.7422 11.5039C12.7377 11.4371 12.7316 11.4087 12.7297 11.4013C12.7044 11.3425 12.6575 11.2956 12.5987 11.2703C12.5913 11.2684 12.5629 11.2623 12.4961 11.2578C12.3881 11.2504 12.2432 11.25 12 11.25C11.7568 11.25 11.6119 11.2504 11.5039 11.2578C11.4371 11.2623 11.4087 11.2684 11.4013 11.2703Z" fill="#B5B5B5"/>
<path fill-rule="evenodd" clip-rule="evenodd" d="M4.47825 9.75C4.26398 9.74999 4.06711 9.74998 3.90179 9.76126C3.72415 9.77338 3.52881 9.80099 3.33031 9.88321C2.90151 10.0608 2.56083 10.4015 2.38321 10.8303C2.30099 11.0288 2.27338 11.2242 2.26126 11.4018C2.24998 11.5671 2.24999 11.7639 2.25 11.9782V12.0218C2.24999 12.236 2.24998 12.4329 2.26126 12.5982C2.27338 12.7759 2.30099 12.9712 2.38321 13.1697C2.56083 13.5985 2.90151 13.9392 3.33031 14.1168C3.52881 14.199 3.72415 14.2266 3.90179 14.2387C4.06712 14.25 4.26396 14.25 4.47824 14.25H4.52176C4.73604 14.25 4.93289 14.25 5.09821 14.2387C5.27585 14.2266 5.47119 14.199 5.6697 14.1168C6.0985 13.9392 6.43918 13.5985 6.61679 13.1697C6.69901 12.9712 6.72663 12.7759 6.73875 12.5982C6.75003 12.4329 6.75002 12.236 6.75 12.0218V11.9782C6.75002 11.764 6.75003 11.5671 6.73875 11.4018C6.72663 11.2242 6.69901 11.0288 6.61679 10.8303C6.43918 10.4015 6.0985 10.0608 5.6697 9.88321C5.47119 9.80099 5.27585 9.77338 5.09821 9.76126C4.9329 9.74998 4.73606 9.74999 4.5218 9.75H4.47825ZM3.77031 11.4013C3.79558 11.3425 3.84248 11.2956 3.90131 11.2703C3.90867 11.2684 3.93707 11.2623 4.0039 11.2578C4.11191 11.2504 4.25677 11.25 4.5 11.25C4.74323 11.25 4.8881 11.2504 4.9961 11.2578C5.06294 11.2623 5.09134 11.2684 5.09869 11.2703C5.15753 11.2956 5.20442 11.3425 5.2297 11.4013C5.23157 11.4087 5.23767 11.4371 5.24223 11.5039C5.2496 11.6119 5.25 11.7568 5.25 12C5.25 12.2432 5.2496 12.3881 5.24223 12.4961C5.23767 12.5629 5.23157 12.5913 5.2297 12.5987C5.20442 12.6575 5.15753 12.7044 5.09869 12.7297C5.09134 12.7316 5.06293 12.7377 4.9961 12.7422C4.8881 12.7496 4.74323 12.75 4.5 12.75C4.25677 12.75 4.11191 12.7496 4.0039 12.7422C3.93707 12.7377 3.90867 12.7316 3.90131 12.7297C3.84248 12.7044 3.79558 12.6575 3.77031 12.5987C3.76844 12.5913 3.76234 12.5629 3.75778 12.4961C3.75041 12.3881 3.75 12.2432 3.75 12C3.75 11.7568 3.75041 11.6119 3.75778 11.5039C3.76234 11.4371 3.76844 11.4087 3.77031 11.4013Z" fill="#B5B5B5"/>
</svg>
