<svg width="132" height="132" viewBox="0 0 132 132" fill="none" xmlns="http://www.w3.org/2000/svg">
<path d="M108.185 28.0943C106.406 26.316 104.519 24.65 102.534 23.1059V20.6077L114.33 20.6173H114.332C114.708 20.6173 115.076 20.5147 115.398 20.3207C115.719 20.1267 115.982 19.8485 116.157 19.5163C116.332 19.184 116.413 18.8102 116.391 18.4353C116.369 18.0604 116.246 17.6985 116.033 17.3887L112.869 12.7707L116.033 8.15229C116.246 7.8425 116.369 7.48064 116.391 7.10574C116.413 6.73083 116.332 6.35712 116.157 6.02489C115.982 5.69267 115.719 5.41455 115.398 5.22054C115.076 5.02652 114.708 4.92398 114.332 4.92396H102.534V4.45345C102.534 3.90644 102.317 3.38184 101.93 2.99505C101.543 2.60825 101.019 2.39095 100.472 2.39095C99.9246 2.39095 99.4 2.60825 99.0132 2.99505C98.6264 3.38184 98.4091 3.90644 98.4091 4.45345V20.1728C88.9239 14.0106 77.8694 10.6809 66.3003 10.6242L68.2192 7.82358C68.4315 7.51379 68.5552 7.15193 68.5769 6.77703C68.5986 6.40212 68.5175 6.0284 68.3425 5.69618C68.1674 5.36396 67.9049 5.08584 67.5834 4.89183C67.2619 4.69781 66.8935 4.59527 66.5179 4.59525H54.7199V4.125C54.7199 3.57799 54.5026 3.05339 54.1158 2.66659C53.729 2.2798 53.2044 2.0625 52.6574 2.0625C52.1104 2.0625 51.5858 2.2798 51.199 2.66659C50.8122 3.05339 50.5949 3.57799 50.5949 4.125V12.6356C38.3841 15.8975 27.357 23.0902 19.405 33.0214C10.9807 43.5422 6.3414 56.7739 6.3414 70.2792C6.3414 86.2146 12.5469 101.196 23.8149 112.464C35.0829 123.732 50.0649 129.938 66 129.938C81.9351 129.938 96.9166 123.732 108.185 112.464C119.453 101.196 125.658 86.2146 125.658 70.2792C125.658 54.3438 119.453 39.3623 108.185 28.0943ZM110.419 9.04922L108.667 11.6052C108.432 11.9485 108.306 12.3549 108.306 12.771C108.306 13.1871 108.432 13.5935 108.667 13.9368L110.416 16.4892L102.534 16.4827V9.04922H110.419ZM121.533 70.2792C121.533 82.1829 117.767 93.2229 111.366 102.273C109.138 104.228 105.709 104.561 104.401 103.802C104.148 103.655 104.05 103.577 104.162 103.126C105.522 97.6516 105.305 94.8389 105.094 92.119C105.006 90.9846 104.923 89.9129 104.95 88.62C105.084 82.2927 104.21 78.5011 102.116 76.3256C99.9536 74.0788 97.0084 74.0285 94.1603 73.9798C92.1391 73.945 90.0513 73.9094 87.9491 73.1863C83.6328 70.2957 83.6235 68.2814 83.6204 67.6126C83.6127 65.9443 84.7515 64.151 85.8526 62.4167C87.2863 60.1587 88.8974 57.6216 88.0375 54.9133C88.3985 54.2633 89.3227 53.2592 89.8425 53.0539C94.5236 54.4835 105.684 54.7516 107.827 54.1643C110.172 53.5214 112.196 49.6797 111.837 46.5524C111.494 43.5631 109.177 41.6958 105.638 41.5568C105.117 41.5375 104.161 41.6249 102.223 41.8102C100.122 42.0113 94.916 42.5099 92.9427 42.3271C92.3698 40.1945 91.9558 36.0589 93.7133 34.4523C94.8894 33.3769 96.6451 32.5277 98.4093 31.8365V37.5775C98.4093 38.1245 98.6266 38.6491 99.0134 39.0359C99.4002 39.4227 99.9248 39.64 100.472 39.64C101.019 39.64 101.543 39.4227 101.93 39.0359C102.317 38.6491 102.534 38.1245 102.534 37.5775V30.3917C103.094 30.2012 103.59 30.0246 104.026 29.847C114.796 39.9821 121.533 54.3577 121.533 70.2792ZM62.6046 8.72051L60.8535 11.2762C60.6184 11.6195 60.4925 12.0258 60.4925 12.4419C60.4925 12.858 60.6184 13.2643 60.8535 13.6076L62.6025 16.1602L54.7202 16.1538V8.72051H62.6046ZM50.5952 22.4599C44.1785 23.8051 43.9836 23.7386 40.2296 22.3957C39.7257 22.2146 39.221 22.0359 38.7154 21.8594C42.4709 19.757 46.4574 18.0971 50.5952 16.913V22.4599ZM34.1746 24.7026C36.1886 25.3311 37.6429 25.8514 38.8402 26.2796C43.2491 27.8569 44.1615 27.9889 50.5952 26.6712V37.2485C50.5952 37.7955 50.8125 38.3201 51.1993 38.7069C51.5861 39.0937 52.1107 39.311 52.6577 39.311C53.2047 39.311 53.7293 39.0937 54.1161 38.7069C54.5029 38.3201 54.7202 37.7955 54.7202 37.2485V25.8895C58.203 25.4492 59.2278 26.2889 60.6635 27.4658C62.1171 28.6577 63.9261 30.1406 67.7629 30.6872C68.6372 30.8117 70.6844 31.1033 71.1171 31.6318C71.3413 31.9058 71.5329 32.7605 71.173 35.2752C71.1235 35.6323 71.0784 35.99 71.0379 36.3482C70.7507 38.7907 70.4929 39.6995 69.6161 39.9357C68.6292 40.2012 67.5327 40.4284 66.3717 40.6689C63.6263 41.2379 60.7873 41.826 58.7882 43.0748C58.2313 43.4228 57.5938 43.7487 56.9188 44.0942C54.1646 45.5031 50.393 47.4323 49.3226 52.9142C49.046 54.3317 46.8486 54.7589 43.7745 55.2077C40.7993 55.6424 37.7229 56.0915 36.5488 58.6242C35.4461 61.0028 36.8514 63.7356 38.0044 65.5844L38.6113 66.5595C40.6813 69.8896 41.7205 71.561 43.2385 72.5067C44.9615 73.5797 46.6646 73.3812 49.485 73.0517C50.4921 72.9341 51.7437 72.7882 53.2519 72.6675C53.9362 72.6766 56.1709 73.1935 58.9292 74.0798V85.5203C58.9292 86.0673 59.1465 86.5919 59.5333 86.9787C59.9201 87.3655 60.4447 87.5828 60.9917 87.5828C61.5387 87.5828 62.0633 87.3655 62.4501 86.9787C62.8369 86.5919 63.0542 86.0673 63.0542 85.5203V75.5587C66.7299 77.0212 70.4679 78.9347 72.427 81.0519C73.244 81.9346 73.632 82.7287 73.5805 83.4119C73.1383 89.2335 70.413 92.449 67.5275 95.8531C64.778 99.0972 61.9348 102.452 61.2601 107.905C60.4617 114.36 58.1893 117.145 57.4197 117.165H57.4141C56.8739 117.165 54.5575 115.22 52.8394 105.586C50.7628 93.9443 47.1709 91.508 44.2847 89.5499C42.0108 88.0077 40.3678 86.8929 40.2747 78.5926C40.2087 72.7083 37.7873 70.4359 36.019 68.7769C35.749 68.524 35.4941 68.2845 35.2667 68.0501C34.6433 67.4077 33.7136 66.8691 32.4264 66.1235C28.181 63.6645 20.3476 59.1195 15.8402 46.3281C19.9651 37.6466 26.285 30.1923 34.1746 24.7026ZM66 125.812C35.3788 125.812 10.4667 100.9 10.4667 70.2792C10.4667 63.8184 11.5624 57.585 13.598 51.7752C18.7561 62.9661 26.4296 67.4167 30.3592 69.6924C31.1265 70.1369 32.0811 70.6896 32.306 70.9216C32.6009 71.2259 32.9038 71.51 33.1967 71.7848C34.7567 73.2486 36.104 74.5127 36.1505 78.6387C36.2593 88.3676 38.5249 90.627 41.969 92.9633C44.3306 94.5654 47.0075 96.3811 48.7784 106.311C50.5516 116.252 53.453 121.29 57.4048 121.29C57.4463 121.29 57.4883 121.29 57.5301 121.289C61.3277 121.187 64.399 116.132 65.3539 108.411C65.8773 104.18 68.1001 101.557 70.6741 98.5205C73.7096 94.9392 77.1501 90.8802 77.6933 83.7241C77.8459 81.7139 76.9697 79.7445 75.0887 77.8707C72.3133 75.1057 67.509 72.772 63.054 71.1307V68.5508L74.8502 68.5603H74.852C75.2275 68.5604 75.596 68.4579 75.9176 68.2639C76.2392 68.0699 76.5017 67.7918 76.6768 67.4595C76.8519 67.1273 76.9329 66.7535 76.9111 66.3786C76.8894 66.0036 76.7656 65.6418 76.5533 65.332L73.3889 60.7138L76.5533 56.0954C76.7655 55.7856 76.8892 55.4237 76.9109 55.0488C76.9326 54.6739 76.8516 54.3002 76.6765 53.968C76.5014 53.6357 76.239 53.3576 75.9174 53.1636C75.5959 52.9696 75.2275 52.867 74.852 52.867H63.054V52.3965C63.054 51.8495 62.8367 51.3249 62.4499 50.9381C62.0631 50.5513 61.5385 50.334 60.9915 50.334C60.4445 50.334 59.9198 50.5513 59.5331 50.9381C59.1463 51.3249 58.929 51.8495 58.929 52.3965V69.7664C56.0603 68.9257 53.7714 68.4882 52.9552 68.5529C51.3578 68.68 50.054 68.8321 49.0068 68.9545C46.8639 69.2046 45.8965 69.3026 45.4191 69.0048C44.7163 68.5673 43.6812 66.9021 42.1144 64.3815L41.5044 63.401C40.064 61.0915 40.2881 60.365 40.2912 60.3585C40.5268 59.8501 43.2204 59.4567 44.3708 59.2889C47.8069 58.7874 52.5128 58.1004 53.371 53.7044C54.0571 50.1912 56.2539 49.0674 58.7975 47.7662C59.5199 47.3965 60.2668 47.0144 60.9734 46.5731C62.3465 45.7153 64.8182 45.2033 67.2086 44.708C68.3765 44.466 69.5844 44.2156 70.688 43.9186C74.4191 42.9144 74.8497 39.2527 75.1343 36.8298C75.173 36.4998 75.2114 36.1739 75.2562 35.8597C75.6721 32.9564 75.67 30.6823 74.3095 29.0196C72.9694 27.3818 70.7234 26.9422 68.3445 26.6034C65.6496 26.2195 64.5508 25.319 63.2788 24.2759C61.1598 22.5385 59.1932 21.301 54.7204 21.747V20.2793L66.5166 20.2888H66.5184C66.894 20.2889 67.2625 20.1864 67.5841 19.9924C67.9056 19.7984 68.1682 19.5203 68.3433 19.188C68.5183 18.8558 68.5994 18.482 68.5776 18.1071C68.5559 17.7321 68.4321 17.3702 68.2197 17.0605L66.6394 14.7538C78.4815 14.8882 89.4442 18.7461 98.4096 25.2115V27.4361C95.8624 28.3369 92.9643 29.5476 90.9299 31.4077C86.7642 35.2162 88.6393 42.826 89.3694 44.6554C89.3929 44.7145 89.4192 44.7722 89.448 44.829C90.3994 46.6914 92.6132 46.8744 102.616 45.9167C103.812 45.8022 105.165 45.6679 105.477 45.6787C107.402 45.7542 107.612 46.4862 107.682 46.7267C108.027 47.9284 107.128 49.7493 106.616 50.208C104.741 50.5068 94.8116 50.3314 90.9302 49.0718C89.2694 48.5324 87.336 49.3293 85.6275 51.2585C84.6996 52.3058 83.2598 54.3146 84.0427 55.9997C84.4648 56.908 83.4474 58.5098 82.3708 60.2057C79.9806 63.9708 75.9797 70.2719 85.8897 76.7699C86.0215 76.856 86.1625 76.9269 86.3102 76.9813C89.1405 78.0195 91.7701 78.0643 94.0905 78.104C96.6962 78.1486 98.216 78.2208 99.1449 79.1861C100.365 80.4537 100.931 83.5983 100.827 88.5326C100.795 90.0289 100.89 91.2533 100.982 92.4374C101.184 95.049 101.359 97.3046 100.159 102.131C99.6185 104.308 100.43 106.266 102.331 107.369C103.436 108.011 104.802 108.316 106.253 108.316C106.311 108.316 106.369 108.312 106.427 108.311C96.2914 119.078 81.9184 125.812 66 125.812ZM69.1873 61.8796L70.9363 64.432L63.054 64.4255V56.992H70.9386L69.1873 59.548C68.9522 59.8913 68.8263 60.2977 68.8263 60.7138C68.8263 61.1299 68.9522 61.5363 69.1873 61.8796ZM33.1173 65.0059C33.6643 65.0059 34.1889 64.7886 34.5757 64.4018C34.9625 64.015 35.1798 63.4904 35.1798 62.9434V45.9739L46.9763 45.9834H46.9781C47.3536 45.9833 47.7219 45.8807 48.0434 45.6867C48.3649 45.4927 48.6273 45.2146 48.8023 44.8824C48.9774 44.5502 49.0585 44.1765 49.0368 43.8016C49.0151 43.4268 48.8915 43.0649 48.6794 42.7551L45.515 38.1367L48.6794 33.5187C48.8914 33.2089 49.0149 32.847 49.0365 32.4722C49.0581 32.0973 48.9771 31.7237 48.802 31.3915C48.627 31.0594 48.3646 30.7813 48.0432 30.5872C47.7218 30.3931 47.3535 30.2904 46.9781 30.2901H35.1798V29.8194C35.1798 29.2724 34.9625 28.7478 34.5757 28.361C34.1889 27.9742 33.6643 27.7569 33.1173 27.7569C32.5703 27.7569 32.0457 27.9742 31.6589 28.361C31.2721 28.7478 31.0548 29.2724 31.0548 29.8194V62.9429C31.0547 63.2138 31.108 63.482 31.2116 63.7323C31.3153 63.9826 31.4672 64.21 31.6587 64.4016C31.8502 64.5932 32.0776 64.7451 32.3279 64.8488C32.5782 64.9525 32.8464 65.0059 33.1173 65.0059ZM43.0645 34.4154L41.3131 36.9708C41.078 37.3141 40.9522 37.7205 40.9522 38.1367C40.9522 38.5528 41.078 38.9592 41.3131 39.3025L43.0624 41.8551L35.1798 41.8486V34.4154H43.0645Z" fill="black"/>
</svg>
