<svg width="23" height="20" viewBox="0 0 23 20" fill="none" xmlns="http://www.w3.org/2000/svg">
<path d="M14.25 6C14.25 6.41421 13.9142 6.75 13.5 6.75L5.5 6.75C5.08579 6.75 4.75 6.41421 4.75 6C4.75 5.58579 5.08579 5.25 5.5 5.25L13.5 5.25C13.9142 5.25 14.25 5.58579 14.25 6Z" fill="#B5B5B5"/>
<path d="M13.5 10.75C13.9142 10.75 14.25 10.4142 14.25 10C14.25 9.58579 13.9142 9.25 13.5 9.25H5.5C5.08579 9.25 4.75 9.58579 4.75 10C4.75 10.4142 5.08579 10.75 5.5 10.75H13.5Z" fill="#B5B5B5"/>
<path d="M10.25 14C10.25 14.4142 9.91421 14.75 9.5 14.75H5.5C5.08579 14.75 4.75 14.4142 4.75 14C4.75 13.5858 5.08579 13.25 5.5 13.25H9.5C9.91421 13.25 10.25 13.5858 10.25 14Z" fill="#B5B5B5"/>
<path fill-rule="evenodd" clip-rule="evenodd" d="M7.44513 0.250001H11.5549C12.9225 0.24998 14.0248 0.249964 14.8918 0.366525C15.7919 0.487541 16.5497 0.746435 17.1517 1.34835C17.7536 1.95027 18.0125 2.70814 18.1335 3.60825C18.1973 4.08322 18.2262 4.62883 18.2393 5.25L18.5494 5.25C19.2142 5.24997 19.7871 5.24993 20.2458 5.31161C20.7375 5.37771 21.2087 5.52677 21.591 5.90901C21.9732 6.29126 22.1223 6.76252 22.1884 7.25416C22.2501 7.7129 22.25 8.28575 22.25 8.9506L22.25 17C22.25 18.5188 21.0188 19.75 19.5 19.75C19.4989 19.75 19.4978 19.75 19.4967 19.75H7.44513C6.07754 19.75 4.97522 19.75 4.10825 19.6335C3.20814 19.5125 2.45027 19.2536 1.84835 18.6517C1.24643 18.0497 0.987541 17.2919 0.866525 16.3918C0.749964 15.5248 0.74998 14.4225 0.750001 13.0549V6.94513C0.74998 5.57754 0.749964 4.47521 0.866525 3.60825C0.987541 2.70814 1.24643 1.95027 1.84835 1.34835C2.45027 0.746435 3.20814 0.487541 4.10825 0.366525C4.97521 0.249964 6.07754 0.24998 7.44513 0.250001ZM19.4978 18.25C19.4985 18.25 19.4993 18.25 19.5 18.25C20.1904 18.25 20.75 17.6904 20.75 17V9C20.75 8.2717 20.7484 7.80091 20.7018 7.45403C20.658 7.12873 20.5874 7.02677 20.5303 6.96967C20.4732 6.91258 20.3713 6.84197 20.046 6.79823C19.6991 6.7516 19.2283 6.75 18.5 6.75H18.25V6.81344C18.25 6.85706 18.25 6.90096 18.25 6.94513V13C18.25 13.0006 18.25 13.0011 18.25 13.0017V17C18.25 17.6896 18.8085 18.2488 19.4978 18.25ZM16.75 17C16.75 17.4501 16.8581 17.875 17.0499 18.25H7.5C6.06459 18.25 5.06347 18.2484 4.30812 18.1469C3.57435 18.0482 3.18577 17.8678 2.90901 17.591C2.63225 17.3142 2.4518 16.9257 2.35315 16.1919C2.25159 15.4365 2.25 14.4354 2.25 13V7C2.25 5.56459 2.25159 4.56347 2.35315 3.80812C2.4518 3.07435 2.63225 2.68577 2.90901 2.40901C3.18577 2.13225 3.57435 1.9518 4.30812 1.85315C5.06347 1.75159 6.06459 1.75 7.5 1.75H11.5C12.9354 1.75 13.9365 1.75159 14.6919 1.85315C15.4257 1.9518 15.8142 2.13225 16.091 2.40901C16.3678 2.68577 16.5482 3.07435 16.6469 3.80812C16.7467 4.5505 16.7499 5.53028 16.75 6.92645C16.75 6.95084 16.75 6.97536 16.75 7L16.75 17Z" fill="#B5B5B5"/>
</svg>
