<svg width="18" height="10" viewBox="0 0 18 10" fill="none" xmlns="http://www.w3.org/2000/svg">
<path d="M0.0492301 1.31077C0.0172801 1.21295 0 1.10849 0 1C0 0.44772 0.44772 0 1 0C1.4597 0 1.84695 0.31019 1.96387 0.73268C4.04968 7.7186 13.9456 7.7202 16.0348 0.73735C16.1502 0.31248 16.5386 0 17 0C17.5523 0 18 0.44772 18 1C18 1.10681 17.9833 1.2097 17.9522 1.30621C17.5515 2.6482 16.9241 3.7876 16.1387 4.7244L17.4143 6C17.8048 6.3905 17.8048 7.0237 17.4143 7.4142C17.0238 7.8047 16.3906 7.8047 16.0001 7.4142L14.6887 6.1028C13.9745 6.6426 13.1912 7.0655 12.3686 7.3716L12.7264 8.7071C12.8694 9.2406 12.5528 9.7889 12.0193 9.9318C11.4858 10.0748 10.9375 9.7582 10.7946 9.2247L10.4311 7.8682C9.4836 8.0084 8.5164 8.0084 7.5689 7.8682L7.2054 9.2247C7.0625 9.7582 6.51416 10.0748 5.9807 9.9318C5.44723 9.7889 5.13065 9.2406 5.27359 8.7071L5.63144 7.3716C4.80891 7.0655 4.0256 6.6426 3.31146 6.1029L2.00017 7.4142C1.60964 7.8047 0.97648 7.8047 0.58596 7.4142C0.19543 7.0237 0.19543 6.3905 0.58596 6L1.86147 4.7245C1.07689 3.7887 0.45009 2.6508 0.0492301 1.31077Z" fill="black"/>
</svg>
