<svg width="22" height="22" viewBox="0 0 22 22" fill="none" xmlns="http://www.w3.org/2000/svg">
<path fill-rule="evenodd" clip-rule="evenodd" d="M11.0008 0.25C6.43309 0.25 2.72597 3.94128 2.72594 8.49994C2.72584 9.56028 2.65472 10.3606 2.1671 11.0799C2.0993 11.1785 2.00933 11.3019 1.91103 11.4368C1.7403 11.6711 1.54441 11.9399 1.39583 12.1727C1.13359 12.5836 0.877388 13.0791 0.789312 13.6565C0.501958 15.5402 1.82661 16.7598 3.14583 17.3063C4.12794 17.7132 5.18914 18.034 6.296 18.2689C6.87008 20.2894 8.76967 21.7499 10.9998 21.7499C13.2299 21.7499 15.1293 20.2896 15.7036 18.2693C16.8112 18.0344 17.8731 17.7134 18.8558 17.3063C20.175 16.7598 21.4997 15.5402 21.2123 13.6565C21.1242 13.0791 20.868 12.5836 20.6058 12.1727C20.4572 11.9399 20.2613 11.6711 20.0906 11.4368C19.9923 11.302 19.9024 11.1785 19.8346 11.08C19.3469 10.3606 19.2758 9.56041 19.2757 8.5C19.2757 3.94131 15.5686 0.25 11.0008 0.25ZM4.22594 8.5C4.22594 4.77442 7.25681 1.75 11.0008 1.75C14.7448 1.75 17.7757 4.77448 17.7757 8.50006C17.7758 9.58249 17.8292 10.7967 18.5947 11.9242L18.5971 11.9277C18.723 12.1108 18.8335 12.261 18.9376 12.4025C19.0763 12.5909 19.2038 12.7642 19.3414 12.9797C19.5546 13.3138 19.6869 13.6034 19.7295 13.8827C19.8674 14.7871 19.2906 15.5026 18.2817 15.9206C14.0028 17.6932 7.99887 17.6932 3.71991 15.9205C2.71101 15.5026 2.1342 14.7871 2.27216 13.8827C2.31477 13.6034 2.44703 13.3138 2.66027 12.9797C2.79782 12.7642 2.92528 12.591 3.064 12.4025C3.16799 12.2612 3.27887 12.1106 3.40452 11.9277L3.40692 11.9242C4.17246 10.7967 4.22585 9.58243 4.22594 8.5ZM13.9637 18.5634C12.0152 18.8123 9.9843 18.8122 8.03581 18.5631C8.60732 19.5618 9.71336 20.2499 10.9998 20.2499C12.2862 20.2499 13.3922 19.562 13.9637 18.5634Z" fill="#B5B5B5"/>
</svg>
