<svg width="18" height="20" viewBox="0 0 18 20" fill="none" xmlns="http://www.w3.org/2000/svg">
<g id="Group">
<path id="Vector" d="M8.74666 9.765L7.19499 11.2692C6.92999 11.5342 6.57832 11.6675 6.22582 11.6675C5.86999 11.6675 5.51249 11.5317 5.23999 11.26L4.67249 10.715C4.34082 10.3958 4.32999 9.86833 4.64916 9.53667C4.96832 9.205 5.49666 9.195 5.82749 9.51333L6.22166 9.8925L7.58666 8.56917C7.91666 8.25 8.44416 8.25667 8.76499 8.5875C9.08499 8.9175 9.07749 9.44417 8.74666 9.765ZM12.3333 14.1667H9.83332C9.37332 14.1667 8.99999 14.54 8.99999 15C8.99999 15.46 9.37332 15.8333 9.83332 15.8333H12.3333C12.7933 15.8333 13.1667 15.46 13.1667 15C13.1667 14.54 12.7933 14.1667 12.3333 14.1667ZM12.3333 4.16667H9.83332C9.37332 4.16667 8.99999 4.54 8.99999 5C8.99999 5.46 9.37332 5.83333 9.83332 5.83333H12.3333C12.7933 5.83333 13.1667 5.46 13.1667 5C13.1667 4.54 12.7933 4.16667 12.3333 4.16667ZM12.3333 9.16667H10.6667C10.2067 9.16667 9.83332 9.54 9.83332 10C9.83332 10.46 10.2067 10.8333 10.6667 10.8333H12.3333C12.7933 10.8333 13.1667 10.46 13.1667 10C13.1667 9.54 12.7933 9.16667 12.3333 9.16667ZM6.08332 13.75C5.39332 13.75 4.83332 14.31 4.83332 15C4.83332 15.69 5.39332 16.25 6.08332 16.25C6.77332 16.25 7.33332 15.69 7.33332 15C7.33332 14.31 6.77332 13.75 6.08332 13.75ZM6.08332 6.25C6.77332 6.25 7.33332 5.69 7.33332 5C7.33332 4.31 6.77332 3.75 6.08332 3.75C5.39332 3.75 4.83332 4.31 4.83332 5C4.83332 5.69 5.39332 6.25 6.08332 6.25ZM17.3333 4.16667V15.8333C17.3333 18.1308 15.4642 20 13.1667 20H4.83332C2.53582 20 0.666656 18.1308 0.666656 15.8333V4.16667C0.666656 1.86917 2.53582 0 4.83332 0H13.1667C15.4642 0 17.3333 1.86917 17.3333 4.16667ZM15.6667 4.16667C15.6667 2.78833 14.545 1.66667 13.1667 1.66667H4.83332C3.45499 1.66667 2.33332 2.78833 2.33332 4.16667V15.8333C2.33332 17.2117 3.45499 18.3333 4.83332 18.3333H13.1667C14.545 18.3333 15.6667 17.2117 15.6667 15.8333V4.16667Z" fill="#8B8B8B"/>
</g>
</svg>
