<svg width="24" height="24" viewBox="0 0 24 24" fill="none" xmlns="http://www.w3.org/2000/svg">
<path d="M12.1602 11.62C12.1302 11.62 12.1102 11.62 12.0802 11.62C12.0302 11.61 11.9602 11.61 11.9002 11.62C9.00016 11.53 6.81016 9.25 6.81016 6.44C6.80016 5.06 7.34016 3.76 8.32016 2.78C9.30016 1.8 10.6002 1.25 11.9902 1.25C14.8502 1.25 17.1802 3.58 17.1802 6.44C17.1802 9.25 14.9902 11.52 12.1902 11.62C12.1802 11.62 12.1702 11.62 12.1602 11.62ZM11.9902 2.75C11.0002 2.75 10.0802 3.14 9.38016 3.83C8.69016 4.53 8.31016 5.45 8.31016 6.43C8.31016 8.43 9.87016 10.05 11.8602 10.11C11.9202 10.1 12.0502 10.1 12.1802 10.11C14.1502 10.02 15.6802 8.41 15.6802 6.43C15.6802 4.41 14.0202 2.75 11.9902 2.75Z" fill="#292D32"/>
<path d="M6.83882 20.6349L6.8382 20.6344C5.55351 19.7749 4.91016 18.6466 4.91016 17.48C4.91016 16.3161 5.56079 15.1972 6.83751 14.346L6.83815 14.3456C8.23426 13.4117 10.0945 12.93 11.9802 12.93C13.8652 12.93 15.7249 13.4114 17.1208 14.3447C17.2407 14.4265 17.2649 14.588 17.196 14.6898L17.196 14.6898L17.1923 14.6954C17.116 14.8115 16.9604 14.8403 16.8503 14.7659L16.8475 14.764C15.5013 13.8665 13.7257 13.435 11.9802 13.435C10.2346 13.435 8.45899 13.8665 7.11281 14.764C6.06782 15.4606 5.41016 16.4068 5.41016 17.48C5.41016 18.5493 6.06349 19.5163 7.11241 20.2158C8.42099 21.0916 10.153 21.55 11.9802 21.55C12.114 21.55 12.2302 21.6661 12.2302 21.8C12.2302 21.9513 12.1069 22.06 11.9902 22.06C10.0311 22.06 8.20244 21.5502 6.83882 20.6349Z" fill="#292D32" stroke="#292D32"/>
<path d="M15.5 16C15.0055 16 14.5222 16.1466 14.1111 16.4213C13.7 16.696 13.3795 17.0865 13.1903 17.5433C13.0011 18.0001 12.9516 18.5028 13.048 18.9877C13.1445 19.4727 13.3826 19.9181 13.7322 20.2678C14.0819 20.6174 14.5273 20.8555 15.0123 20.952C15.4972 21.0484 15.9999 20.9989 16.4567 20.8097C16.9135 20.6205 17.304 20.3 17.5787 19.8889C17.8534 19.4778 18 18.9945 18 18.5C17.9992 17.8372 17.7356 17.2018 17.2669 16.7331C16.7982 16.2644 16.1628 16.0008 15.5 16ZM15.5 20.5455C15.0954 20.5455 14.7 20.4255 14.3636 20.2007C14.0272 19.976 13.7651 19.6565 13.6102 19.2828C13.4554 18.909 13.4149 18.4977 13.4938 18.101C13.5728 17.7042 13.7676 17.3397 14.0536 17.0536C14.3397 16.7676 14.7042 16.5728 15.101 16.4938C15.4977 16.4149 15.909 16.4554 16.2828 16.6102C16.6565 16.7651 16.976 17.0272 17.2007 17.3636C17.4255 17.7 17.5455 18.0954 17.5455 18.5C17.5448 19.0423 17.3291 19.5622 16.9456 19.9456C16.5622 20.3291 16.0423 20.5448 15.5 20.5455Z" fill="#292D32"/>
<path d="M15.7273 18.4059V17.1364C15.7273 17.0761 15.7033 17.0183 15.6607 16.9757C15.6181 16.933 15.5603 16.9091 15.5 16.9091C15.4397 16.9091 15.3819 16.933 15.3393 16.9757C15.2967 17.0183 15.2727 17.0761 15.2727 17.1364V18.5C15.2727 18.5603 15.2967 18.6181 15.3393 18.6607L16.0211 19.3425C16.064 19.3839 16.1214 19.4068 16.181 19.4063C16.2406 19.4058 16.2976 19.3819 16.3397 19.3397C16.3819 19.2976 16.4058 19.2406 16.4063 19.181C16.4068 19.1214 16.3839 19.064 16.3425 19.0211L15.7273 18.4059Z" fill="#292D32"/>
</svg>
