<svg width="32" height="48" viewBox="0 0 32 48" fill="none" xmlns="http://www.w3.org/2000/svg">
<g id="Group">
<path id="Vector" d="M4.36048 47.8496L0.900285 45.8385C0.497261 45.6045 0.248246 45.1065 0.246246 44.3984L3.70645 46.4106C5.87657 46.1775 4.80051 47.2506 4.36048 47.8496Z" fill="#4D5C75"/>
<path id="Vector_2" d="M21.9175 2.15715C21.5075 1.92713 20.9375 1.95714 20.3174 2.31716L13.383 18.5181C12.1429 19.2381 13.351 23.5754 13.351 25.0055L3.70646 46.4097L0.246255 44.3996L0.15625 12.5378C0.15625 11.1077 1.15631 9.37757 2.39638 8.65753L16.8572 0.307041C17.4773 -0.0529798 18.0473 -0.0829815 18.4573 0.147032L21.9175 2.15715Z" fill="#1D2943"/>
<path id="Vector_3" d="M20.3184 2.3168C21.5585 1.60076 22.5656 2.17579 22.5696 3.59987L22.6596 35.4667C22.6646 36.8918 21.6625 38.6259 20.4234 39.3419L5.9586 47.6914C4.71853 48.4075 3.71047 47.8334 3.70647 46.4094L3.61647 14.5425C3.61247 13.1174 4.61352 11.3823 5.8536 10.6673L20.3184 2.3168Z" fill="#4C5C75"/>
<path id="Vector_4" d="M20.3204 3.10028C21.1825 2.60325 21.8855 3.00327 21.8885 3.99433L21.9785 35.8602C21.9815 36.8502 21.2825 38.0613 20.4214 38.5583L5.95559 46.9098C5.09354 47.4078 4.3905 47.0068 4.3875 46.0168L4.29749 14.1499C4.29449 13.1599 4.99354 11.9498 5.85559 11.4518L20.3204 3.10028Z" fill="#1C2841"/>
<path id="Vector_5" d="M21.2145 6.36523L21.2905 33.0698L5.06255 42.4393L4.98654 15.7338L21.2145 6.36523Z" fill="white"/>
<path id="Vector_6" d="M15.0831 38.338V39.8281C15.0831 40.0981 14.8931 40.4382 14.6531 40.5782L11.6429 42.3183C11.3929 42.4583 11.2029 42.3483 11.2029 42.0683L11.1929 40.5782C11.1929 40.3082 11.3929 39.9681 11.6329 39.8281L14.6431 38.088C14.8831 37.948 15.0831 38.058 15.0831 38.338Z" fill="white"/>
<path id="Vector_7" d="M15.6592 7.23926C15.7282 7.33197 15.7629 7.44582 15.7572 7.56128C15.7572 7.75529 15.6902 7.9693 15.5802 8.16031C15.4701 8.35032 15.3181 8.51733 15.1491 8.61534L10.1588 11.4955C10.068 11.5534 9.96149 11.5821 9.85382 11.5775C9.96283 11.7095 10.1518 11.7285 10.3679 11.6045L15.3581 8.72434C15.5261 8.62634 15.6782 8.45933 15.7882 8.26832C15.8982 8.07831 15.9662 7.86329 15.9662 7.66928C15.9662 7.41027 15.8422 7.25526 15.6592 7.23926Z" fill="white"/>
<path id="Vector_8" d="M10.1588 11.497L15.1491 8.61682C15.3181 8.51781 15.4701 8.35181 15.5801 8.16079C15.6902 7.97078 15.7582 7.75577 15.7572 7.56176C15.7629 7.4463 15.7282 7.33245 15.6592 7.23974C15.5515 7.23512 15.445 7.26375 15.3541 7.32175L10.3638 10.2019C10.1938 10.2999 10.0428 10.4659 9.93282 10.6569C9.82281 10.8469 9.75481 11.063 9.75581 11.256C9.75581 11.396 9.79181 11.504 9.85382 11.578C9.96138 11.5828 10.0678 11.5546 10.1588 11.497Z" fill="white"/>
<path id="Vector_9" d="M2.09836 14.7801C1.86234 14.6431 1.64433 14.6251 1.48232 14.7131L0.947292 15.0231C1.1093 14.9361 0.75928 16.2272 0.995294 16.3642C1.47632 16.6422 2.04836 16.3342 2.04636 16.8872L1.98235 21.0194C1.98135 21.2995 2.31937 21.4135 2.16436 21.5015L2.69939 21.1905C2.8534 21.1024 2.95241 20.9084 2.95241 20.6274L2.96741 16.2802C2.96941 15.7281 2.57939 15.0571 2.09836 14.7801Z" fill="white"/>
<path id="Vector_10" d="M1.56434 15.0897C1.32732 14.9537 1.10931 14.9357 0.947301 15.0237C0.789292 15.1137 0.694286 15.3097 0.693286 15.5867L0.678286 19.934C0.677286 20.486 1.06231 21.159 1.54334 21.4361C1.78335 21.5761 2.00236 21.5891 2.16437 21.5011C2.31938 21.4131 2.41739 21.2191 2.41839 20.938L2.43339 16.5908C2.43439 16.0378 2.04536 15.3677 1.56334 15.0907L1.56434 15.0897Z" fill="#E9E7FC"/>
<path id="Vector_11" d="M2.07236 23.1851C1.83534 23.0481 1.61733 23.0351 1.45532 23.1231L0.92029 23.4331C1.0823 23.3451 0.684276 24.6652 0.92029 24.8022C1.40132 25.0802 1.84534 25.5123 1.84334 26.0653L1.66133 29.4055C1.66133 29.6825 2.29237 29.8185 2.13736 29.9105L2.67239 29.6005C2.8274 29.5075 2.92541 29.3135 2.92641 29.0375L2.94141 24.6902C2.94241 24.1372 2.55339 23.4631 2.07236 23.1851Z" fill="white"/>
<path id="Vector_12" d="M1.53834 23.4968C1.30133 23.3598 1.08231 23.3468 0.920306 23.4338C0.762296 23.5238 0.667291 23.7209 0.667291 23.9969L0.65229 28.3441C0.65029 28.8972 1.03631 29.5692 1.51734 29.8472C1.75735 29.9862 1.97537 29.9992 2.13738 29.9112C2.29238 29.8192 2.39039 29.6252 2.39139 29.3482L2.40639 25.0009C2.40839 24.4489 2.01837 23.7739 1.53734 23.4968H1.53834Z" fill="#E9E7FC"/>
<path id="Vector_13" d="M17.9903 1.71658C17.4262 1.39656 16.4952 1.39656 15.9302 1.71658C15.4281 2.00659 15.3671 2.44962 15.7481 2.76964C15.8034 2.71679 15.8649 2.67079 15.9312 2.63263C16.4952 2.31261 17.4262 2.31261 17.9913 2.63263L18.1733 2.76964C18.5393 2.44962 18.4793 2.00659 17.9903 1.71658Z" fill="white"/>
<path id="Vector_14" d="M15.9311 2.63259C15.8649 2.67075 15.8034 2.71675 15.7481 2.7696C15.8034 2.82245 15.8649 2.86845 15.9311 2.90661C16.5112 3.24263 17.4262 3.24263 17.9913 2.90661C18.0513 2.87661 18.1123 2.8306 18.1733 2.7846V2.7696L17.9903 2.63259C17.4262 2.31257 16.4962 2.31257 15.9311 2.63259Z" fill="#111D33"/>
<path id="Vector_15" d="M19.2643 26.8337L17.6743 25.9177L17.6573 24.2456V22.8955L19.2483 23.8116C19.9574 24.2766 19.7544 25.4437 19.2643 26.8337Z" fill="#EF526F"/>
<path id="Vector_16" d="M31.6581 5.29301C31.5291 5.21301 31.8831 7.55915 31.6581 7.68715L20.4944 16.0416C20.0604 16.2987 20.0104 17.9667 20.0104 18.4818L19.0013 23.2041C19.0013 23.3171 17.6253 24.0681 17.6573 24.1331V24.2451L16.2592 23.4251C16.1142 23.3451 16.0342 23.185 16.0342 22.927L16.0012 13.1375C16.0012 12.6394 16.3552 12.0284 16.7892 11.7874L29.5199 4.44197C29.73 4.31296 29.938 4.29696 30.083 4.37696L31.6581 5.29301Z" fill="#EF526F"/>
<path id="Vector_17" d="M31.101 5.35757C31.5371 5.10556 31.8931 5.30257 31.8941 5.8036L31.9221 15.5932C31.9241 16.0932 31.5701 16.7002 31.134 16.9532L21.8775 22.2966L19.2603 26.8358L19.2513 23.8126L18.4083 24.2997C17.9723 24.5517 17.6163 24.3547 17.6153 23.8536L17.5873 14.0641C17.5863 13.563 17.9393 12.956 18.3753 12.704L31.101 5.35757Z" fill="#E03261"/>
<path id="Vector_18" d="M23.175 15.0788C23.2948 15.2012 23.3573 15.3784 23.3583 15.6146C23.3613 16.7636 22.0835 17.7707 21.7329 16.9788C21.5277 16.5189 21.5097 15.8932 21.6146 15.4958C21.8268 14.6554 22.7231 14.6319 23.175 15.0788ZM27.1273 13.4814C28.066 13.8609 28.3906 15.5981 28.2313 16.5858C28.078 17.5181 27.5382 18.1388 26.577 18.2082C25.4535 18.2781 25.2657 19.0246 24.4613 19.6383C23.6723 20.242 23.3478 19.8145 23.3318 18.8293C23.3398 18.2451 23.541 17.0412 23.927 16.08C24.4888 14.6783 25.8525 12.9621 27.1273 13.4814ZM27.6201 9.78184C27.7969 10.2133 27.9317 11.168 27.6411 11.8012C27.4683 12.1742 27.2181 12.4503 26.9685 12.5941C26.4107 12.9162 25.9868 12.5127 26.1466 11.7452C26.2684 11.154 26.4761 10.5628 26.8027 9.98507C27.0124 9.61656 27.4349 9.34442 27.6201 9.78184ZM24.7819 11.3563C25.0467 11.6086 25.227 11.9367 25.2982 12.2955C25.3721 12.6485 25.2797 13.0505 25.0186 13.4769C24.4843 14.3458 23.5805 14.4202 23.6194 13.3916C23.6279 12.9541 23.6733 12.5022 23.7972 12.0174C23.96 11.3732 24.2955 10.8969 24.7824 11.3563H24.7819ZM29.8861 11.0711C29.9061 11.3133 29.8716 11.8511 29.7173 12.3644C29.5845 12.8048 29.3338 13.2023 28.9309 13.435C28.6143 13.6178 28.3711 13.5783 28.2148 13.3486C28.0321 13.0775 28.0331 12.6915 28.2398 12.2111C28.4596 11.6897 28.7788 11.216 29.1795 10.8165C29.5595 10.442 29.8467 10.4694 29.8861 11.0711Z" fill="white"/>
</g>
</svg>
