<svg width="20" height="20" viewBox="0 0 20 20" fill="none" xmlns="http://www.w3.org/2000/svg">
<g id="Icon / paw" clip-path="url(#clip0_11540_9652)">
<path id="Vector" d="M6.80329 6.66695C6.32057 6.6594 5.85547 6.48443 5.48746 6.17195C4.71984 5.46797 4.2548 4.49398 4.18996 3.45445C3.98746 1.37695 5.12079 0.151118 6.34496 0.0144514C6.63992 -0.0182515 6.93844 0.00871914 7.22276 0.093758C7.50708 0.178797 7.77139 0.320166 7.99996 0.509451C8.34094 0.816813 8.61778 1.18856 8.81457 1.6033C9.01136 2.01804 9.12421 2.4676 9.14662 2.92612C9.33329 4.86278 8.43996 6.66695 6.80329 6.66695ZM6.52996 1.66695C6.04912 1.72028 5.76246 2.40279 5.84912 3.28862C5.87327 3.88373 6.11874 4.44838 6.53746 4.87195C6.61678 4.94987 6.72219 4.9956 6.83329 5.00029C7.12579 4.96778 7.59662 4.21612 7.48579 3.08362C7.20079 1.52862 6.55079 1.66695 6.52996 1.67112V1.66695ZM2.63662 11.667C2.15391 11.6594 1.6888 11.4844 1.32079 11.172C0.553175 10.468 0.0881347 9.49398 0.0232907 8.45445C-0.179209 6.37695 0.954124 5.15112 2.17829 5.01445C2.47323 4.98213 2.77167 5.00928 3.05593 5.09431C3.3402 5.17933 3.60453 5.32049 3.83329 5.50945C4.17427 5.81681 4.45112 6.18856 4.64791 6.6033C4.84469 7.01804 4.95754 7.4676 4.97996 7.92612C5.16662 9.86278 4.23079 11.667 2.63662 11.667ZM2.36329 6.66695C1.88246 6.72028 1.59579 7.40278 1.68246 8.28862C1.7066 8.88373 1.95207 9.44838 2.37079 9.87195C2.4509 9.94871 2.55585 9.99424 2.66662 10.0003C2.95912 9.96778 3.42996 9.21612 3.31912 8.08362C3.09829 6.56028 2.38412 6.66695 2.36329 6.67112V6.66695ZM13.1966 6.66695C11.7733 6.67695 10.6683 4.86195 10.8575 2.92362C10.8799 2.4651 10.9927 2.01554 11.1895 1.6008C11.3863 1.18606 11.6631 0.814313 12.0041 0.506951C12.2325 0.318801 12.4962 0.178287 12.7797 0.0937011C13.0632 0.00911463 13.3608 -0.0178318 13.655 0.0144514C14.8791 0.151118 16.0125 1.37695 15.81 3.45445C15.7453 4.49428 15.2803 5.4686 14.5125 6.17279C14.1443 6.48496 13.6792 6.65963 13.1966 6.66695ZM12.5166 3.08362C12.4058 4.21279 12.8766 4.96445 13.1691 5.00029C13.2781 4.99599 13.3821 4.95318 13.4625 4.87945C13.8812 4.45588 14.1266 3.89123 14.1508 3.29612C14.3258 1.11195 12.6666 1.25445 12.5166 3.08362ZM17.3633 11.667C15.8116 11.667 14.835 9.86195 15.0241 7.92362C15.0465 7.4651 15.1594 7.01554 15.3562 6.6008C15.553 6.18606 15.8298 5.81431 16.1708 5.50695C16.3988 5.31812 16.6624 5.177 16.946 5.09197C17.2296 5.00694 17.5273 4.97973 17.8216 5.01195C19.0458 5.14862 20.1791 6.37445 19.9766 8.45195C19.912 9.49178 19.4469 10.4661 18.6791 11.1703C18.3113 11.4834 17.8462 11.6589 17.3633 11.667ZM16.6833 8.08362C16.5725 9.21278 17.0433 9.96445 17.3358 10.0003C17.4445 9.99455 17.5479 9.95193 17.6291 9.87945C18.0478 9.45588 18.2933 8.89123 18.3175 8.29612C18.4008 7.41028 18.1175 6.72778 17.6366 6.67445C17.6158 6.66695 16.7625 6.59278 16.6833 8.08362ZM13.3333 20.0003C12.621 20.0145 11.9175 19.8403 11.2941 19.4953C10.8951 19.2851 10.4509 19.1752 9.99996 19.1752C9.54898 19.1752 9.10479 19.2851 8.70579 19.4953C6.19496 20.9028 3.26829 19.3561 3.33329 15.8336C3.33329 11.9711 7.08912 8.33362 9.99996 8.33362C12.9108 8.33362 16.6666 11.9703 16.6666 15.8336C16.6666 18.287 15.2958 20.0003 13.3333 20.0003ZM9.99996 17.5003C10.7122 17.4863 11.4155 17.6602 12.0391 18.0045C13.9033 19.0195 15.0291 17.6436 15 15.8336C15 13.017 12.0658 10.0003 9.99996 10.0003C7.93412 10.0003 4.99996 13.017 4.99996 15.8336C4.97329 17.6411 6.08996 19.0195 7.96079 18.0045C8.58442 17.6602 9.28775 17.4863 9.99996 17.5003Z" fill="#8B8B8B"/>
</g>
<defs>
<clipPath id="clip0_11540_9652">
<rect width="20" height="20" fill="white"/>
</clipPath>
</defs>
</svg>
