<svg width="16" height="16" viewBox="0 0 16 16" fill="none" xmlns="http://www.w3.org/2000/svg">
<path fill-rule="evenodd" clip-rule="evenodd" d="M4.4101 1.52465C4.22317 1.1893 3.92231 0.935469 3.54452 0.857386C3.16278 0.778488 2.77908 0.894869 2.46373 1.1519C1.31948 2.0845 0.590928 3.57869 0.907125 5.14617C1.10149 6.10968 1.4253 7.06034 2.08471 8.21014C3.40809 10.5177 5.47948 12.5902 7.78971 13.9151C8.93952 14.5746 9.89017 14.8984 10.8537 15.0927C12.4212 15.4089 13.9154 14.6804 14.848 13.5361C15.105 13.2208 15.2214 12.8371 15.1425 12.4553C15.0644 12.0775 14.8106 11.7767 14.4752 11.5898L13.4069 10.9943C13.0135 10.775 12.6823 10.5904 12.3945 10.4698C12.0891 10.3419 11.788 10.266 11.4551 10.3007C11.1222 10.3354 10.8432 10.4719 10.5708 10.66C10.3141 10.8373 10.0282 11.0863 9.6884 11.3821L7.98238 12.8673C6.04974 11.6882 4.31045 9.94812 3.13256 8.01747L4.6178 6.31145C4.9136 5.9717 5.16253 5.68579 5.33987 5.429C5.52798 5.15661 5.66442 4.87765 5.69913 4.54474C5.73385 4.21184 5.65791 3.91073 5.53004 3.60539C5.40949 3.31754 5.22491 2.98642 5.00557 2.59295L4.4101 1.52465ZM11.0514 14.1125C10.3677 13.9745 9.69139 13.7654 8.9138 13.3823L10.3243 12.1543C10.6902 11.8357 10.934 11.6245 11.1391 11.4828C11.3338 11.3484 11.4529 11.3064 11.5588 11.2953C11.6647 11.2843 11.79 11.3008 12.0082 11.3922C12.2381 11.4885 12.5202 11.6449 12.944 11.8811L13.9883 12.4632C14.1156 12.5341 14.1537 12.6121 14.1632 12.6577C14.1718 12.6994 14.1712 12.7837 14.0728 12.9043C13.3236 13.8235 12.1821 14.3406 11.0514 14.1125ZM3.84557 5.67552L2.61758 7.08605C2.23443 6.30847 2.0253 5.63215 1.88738 4.94843C1.65929 3.81773 2.17632 2.67622 3.0955 1.92705C3.21619 1.82868 3.30044 1.82808 3.34211 1.83669C3.38772 1.84611 3.46571 1.88429 3.53663 2.01153L4.11875 3.05587C4.35496 3.47963 4.51137 3.76174 4.60765 3.99165C4.69904 4.2099 4.71557 4.33513 4.70453 4.44102C4.69349 4.54691 4.65147 4.66605 4.51702 4.86074C4.37537 5.06584 4.16412 5.30961 3.84557 5.67552Z" fill="#1F8C61"/>
<path d="M9.90795 0.852761C9.64263 0.776196 9.36548 0.92921 9.28892 1.19453C9.21236 1.45984 9.36537 1.73699 9.63068 1.81355C11.8238 2.44643 13.5533 4.17589 14.1862 6.36889C14.2628 6.63421 14.54 6.78721 14.8053 6.71063C15.0706 6.63406 15.2236 6.3569 15.147 6.09159C14.4188 3.56845 12.4311 1.5809 9.90795 0.852761Z" fill="#1F8C61"/>
<path d="M9.52873 4.09417C9.27456 3.98623 8.98101 4.10478 8.87308 4.35896C8.76514 4.61313 8.88369 4.90668 9.13787 5.01462C9.96747 5.36691 10.6329 6.03234 10.9852 6.86193C11.0931 7.1161 11.3867 7.23465 11.6409 7.12671C11.895 7.01877 12.0136 6.72523 11.9056 6.47105C11.4521 5.403 10.5968 4.54772 9.52873 4.09417Z" fill="#1F8C61"/>
</svg>
