<svg width="16" height="16" viewBox="0 0 16 16" fill="none" xmlns="http://www.w3.org/2000/svg">
<g id="Icon / shield-security-risk" clip-path="url(#clip0_11049_22381)">
<path id="Vector" d="M11.3333 6.66667C8.76 6.66667 6.66667 8.76067 6.66667 11.3333C6.66667 13.906 8.76 16 11.3333 16C13.9067 16 16 13.906 16 11.3333C16 8.76067 13.9067 6.66667 11.3333 6.66667ZM11.3333 14.6667C9.49533 14.6667 8 13.1713 8 11.3333C8 9.49533 9.49533 8 11.3333 8C13.1713 8 14.6667 9.49533 14.6667 11.3333C14.6667 13.1713 13.1713 14.6667 11.3333 14.6667ZM10.6667 10.6667V9.33333C10.6667 8.96467 10.9653 8.66667 11.3333 8.66667C11.7013 8.66667 12 8.96467 12 9.33333V10.6667C12 11.0353 11.7013 11.3333 11.3333 11.3333C10.9653 11.3333 10.6667 11.0353 10.6667 10.6667ZM12.3333 13C12.3333 13.552 11.8853 14 11.3333 14C10.7813 14 10.3333 13.552 10.3333 13C10.3333 12.448 10.7813 12 11.3333 12C11.8853 12 12.3333 12.448 12.3333 13ZM6.93 15.6313C6.81333 15.8653 6.578 16 6.33267 16C6.23267 16 6.13067 15.9773 6.03533 15.93C5.02733 15.426 0 12.682 0 8.12933V4.582C0 3.142 0.918 1.87067 2.284 1.41733L6.45667 0.034C6.59333 -0.0113333 6.74 -0.0113333 6.87667 0.034L11.0493 1.41733C12.4153 1.87067 13.3333 3.142 13.3333 4.58133V4.66667C13.3333 5.03533 13.0347 5.33333 12.6667 5.33333C12.2987 5.33333 12 5.03533 12 4.66667V4.58133C12 3.718 11.4493 2.95533 10.6293 2.68267L6.66667 1.36867L2.704 2.68267C1.884 2.95467 1.33333 3.718 1.33333 4.58133V8.12867C1.33333 11.8967 5.74667 14.2947 6.63133 14.7367C6.96067 14.9013 7.094 15.302 6.92933 15.6313H6.93Z" fill="#FEA972"/>
</g>
<defs>
<clipPath id="clip0_11049_22381">
<rect width="16" height="16" fill="white"/>
</clipPath>
</defs>
</svg>
