<svg width="16" height="16" viewBox="0 0 16 16" fill="none" xmlns="http://www.w3.org/2000/svg">
<path fill-rule="evenodd" clip-rule="evenodd" d="M5.66671 6.3335C5.66671 5.04483 6.71138 4.00016 8.00004 4.00016C9.2887 4.00016 10.3334 5.04483 10.3334 6.3335C10.3334 7.62216 9.2887 8.66683 8.00004 8.66683C6.71138 8.66683 5.66671 7.62216 5.66671 6.3335ZM8.00004 5.00016C7.26366 5.00016 6.66671 5.59712 6.66671 6.3335C6.66671 7.06988 7.26366 7.66683 8.00004 7.66683C8.73642 7.66683 9.33337 7.06988 9.33337 6.3335C9.33337 5.59712 8.73642 5.00016 8.00004 5.00016Z" fill="#1F8C61"/>
<path fill-rule="evenodd" clip-rule="evenodd" d="M0.833374 8.00016C0.833374 4.04212 4.042 0.833496 8.00004 0.833496C11.9581 0.833496 15.1667 4.04212 15.1667 8.00016C15.1667 11.9582 11.9581 15.1668 8.00004 15.1668C4.042 15.1668 0.833374 11.9582 0.833374 8.00016ZM8.00004 1.8335C4.59428 1.8335 1.83337 4.59441 1.83337 8.00016C1.83337 9.58113 2.42831 11.0231 3.40652 12.1145L3.60627 11.765C4.28877 10.5706 5.55892 9.8335 6.93453 9.8335H9.06572C10.4413 9.8335 11.7115 10.5706 12.394 11.765L12.5937 12.1144C13.5718 11.023 14.1667 9.58107 14.1667 8.00016C14.1667 4.59441 11.4058 1.8335 8.00004 1.8335ZM11.8457 12.8211L11.5257 12.2611C11.0213 11.3783 10.0825 10.8335 9.06572 10.8335H6.93453C5.91777 10.8335 4.97897 11.3783 4.47451 12.2611L4.15447 12.8212C5.20887 13.6634 6.54566 14.1668 8.00004 14.1668C9.45447 14.1668 10.7913 13.6633 11.8457 12.8211Z" fill="#1F8C61"/>
</svg>
