<svg width="35" height="34" viewBox="0 0 35 34" fill="none" xmlns="http://www.w3.org/2000/svg">
<path d="M16.1667 14.8333H18.3333C19.8652 14.8333 20.6311 14.8333 21.1067 15.31C21.5833 15.7856 21.5833 16.5515 21.5833 18.0833V24.5833C21.5833 23.0515 21.5833 22.2856 22.06 21.81C22.5345 21.3333 23.3004 21.3333 24.8333 21.3333C26.3652 21.3333 27.1311 21.3333 27.6067 21.81C28.0833 22.2856 28.0833 23.0515 28.0833 24.5833V27.8333H6.41667C6.41667 26.3015 6.41667 25.5356 6.89334 25.06C7.36784 24.5833 8.13376 24.5833 9.66667 24.5833C11.1985 24.5833 11.9644 24.5833 12.44 25.06C12.9167 25.5345 12.9167 26.3004 12.9167 27.8333V18.0833C12.9167 16.5515 12.9167 15.7856 13.3933 15.31C13.8678 14.8333 14.6338 14.8333 16.1667 14.8333ZM16.3248 7.27492C16.7365 6.53501 16.9423 6.16667 17.25 6.16667C17.5577 6.16667 17.7635 6.53501 18.1752 7.27492L18.2813 7.46559C18.3983 7.67576 18.4568 7.77976 18.5478 7.84909C18.6399 7.91842 18.7537 7.94442 18.9812 7.99534L19.187 8.04301C19.9865 8.22392 20.3863 8.31384 20.4816 8.61934C20.5769 8.92592 20.3039 9.24442 19.759 9.88142L19.6182 10.0461C19.4633 10.227 19.3853 10.3169 19.3506 10.4296C19.3159 10.5423 19.3278 10.6625 19.3506 10.9041L19.3723 11.124C19.4546 11.9744 19.4958 12.4002 19.2477 12.5887C18.9985 12.7783 18.6237 12.6049 17.8751 12.2604L17.6823 12.1716C17.4688 12.0741 17.3627 12.0243 17.25 12.0243C17.1373 12.0243 17.0312 12.0741 16.8178 12.1716L16.6249 12.2604C15.8763 12.6049 15.5015 12.7783 15.2523 12.5887C15.0032 12.4002 15.0454 11.9744 15.1278 11.124L15.1494 10.9041C15.1722 10.6625 15.1841 10.5423 15.1494 10.4296C15.1148 10.318 15.0368 10.227 14.8818 10.0461L14.741 9.88142C14.1961 9.24442 13.9231 8.92592 14.0184 8.61934C14.1138 8.31384 14.5135 8.22392 15.313 8.04301L15.5188 7.99534C15.7463 7.94442 15.8601 7.91951 15.9522 7.84909C16.0432 7.77976 16.1017 7.67576 16.2187 7.46559L16.3248 7.27492Z" fill="#C99383"/>
</svg>
