<svg width="24" height="24" viewBox="0 0 24 24" fill="none" xmlns="http://www.w3.org/2000/svg">
<path fill-rule="evenodd" clip-rule="evenodd" d="M10.0542 2.65831C11.1755 1.70277 12.8246 1.70276 13.9459 2.65831L14.0162 2.71823C14.4967 3.1277 15.0941 3.37516 15.7234 3.42538L15.8155 3.43273C17.2841 3.54992 18.4502 4.71605 18.5674 6.18458L18.5747 6.27668C18.625 6.90598 18.8724 7.5034 19.2819 7.98389L19.3418 8.05421C20.2974 9.17548 20.2974 10.8246 19.3418 11.9459L19.2819 12.0162C18.8724 12.4967 18.625 13.0941 18.5747 13.7234L18.5674 13.8155C18.4842 14.8576 17.8729 15.7475 17.0001 16.2182V21.156C17.0001 21.8259 16.3543 22.3063 15.7127 22.1138L12.0001 21.0001L8.28741 22.1138C7.6458 22.3063 7.00006 21.8259 7.00006 21.156V16.2182C6.12726 15.7475 5.51589 14.8576 5.43273 13.8155L5.42538 13.7234C5.37516 13.0941 5.1277 12.4967 4.71823 12.0162L4.65831 11.9459C3.70277 10.8246 3.70276 9.17548 4.65831 8.05421L4.71823 7.98389C5.1277 7.5034 5.37516 6.90598 5.42538 6.27668L5.43273 6.18458C5.54992 4.71605 6.71605 3.54992 8.18458 3.43273L8.27668 3.42538C8.90598 3.37516 9.5034 3.1277 9.98389 2.71823L10.0542 2.65831ZM12.6487 4.18054L12.719 4.24046C13.5198 4.92291 14.5155 5.33535 15.5643 5.41904L15.6564 5.42639C16.146 5.46546 16.5347 5.85417 16.5737 6.34368L16.5811 6.43577C16.6648 7.48461 17.0772 8.48031 17.7597 9.28112L17.8196 9.35144C18.1381 9.7252 18.1381 10.2749 17.8196 10.6487L17.7597 10.719C17.0772 11.5198 16.6648 12.5155 16.5811 13.5643L16.5737 13.6564C16.5347 14.146 16.146 14.5347 15.6564 14.5737L15.5644 14.5811C14.5155 14.6648 13.5198 15.0772 12.719 15.7597L12.6487 15.8196C12.2749 16.1381 11.7252 16.1381 11.3514 15.8196L11.2811 15.7597C10.4803 15.0772 9.48461 14.6648 8.43577 14.5811L8.34368 14.5737C7.85417 14.5347 7.46546 14.146 7.42639 13.6564L7.41904 13.5644C7.33535 12.5155 6.92292 11.5198 6.24046 10.719L6.18054 10.6487C5.86202 10.2749 5.86202 9.7252 6.18054 9.35144L6.24046 9.28113C6.92291 8.48031 7.33535 7.48461 7.41904 6.43578L7.42639 6.34368C7.46546 5.85417 7.85417 5.46546 8.34368 5.42639L8.43577 5.41904C9.48461 5.33535 10.4803 4.92292 11.2811 4.24046L11.3514 4.18054C11.7252 3.86202 12.2749 3.86202 12.6487 4.18054ZM9.00006 16.7237V19.812L11.4254 19.0844C11.8002 18.9719 12.1999 18.9719 12.5748 19.0844L15.0001 19.812V16.7237C14.6418 16.845 14.3075 17.0337 14.0162 17.2819L13.9459 17.3418C12.8246 18.2974 11.1755 18.2974 10.0542 17.3418L9.98389 17.2819C9.6926 17.0337 9.35834 16.845 9.00006 16.7237Z" fill="#535763"/>
<path fill-rule="evenodd" clip-rule="evenodd" d="M12 11C12.5523 11 13 10.5523 13 10C13 9.44772 12.5523 9 12 9C11.4477 9 11 9.44772 11 10C11 10.5523 11.4477 11 12 11ZM12 13C13.6569 13 15 11.6569 15 10C15 8.34315 13.6569 7 12 7C10.3431 7 9 8.34315 9 10C9 11.6569 10.3431 13 12 13Z" fill="#535763"/>
</svg>
