<svg width="18" height="18" viewBox="0 0 18 18" fill="none" xmlns="http://www.w3.org/2000/svg">
<path d="M7.64998 5.8499C8.05923 4.04631 9.67219 2.6999 11.5996 2.6999C13.8364 2.6999 15.6496 4.51315 15.6496 6.7499C15.6496 8.82179 14.0938 10.5303 12.0868 10.7709M4.94998 4.4999L6.74998 2.6999L4.94998 0.899902M1.34998 6.2999V5.0999C1.34998 3.77442 2.42449 2.6999 3.74998 2.6999H5.54998M13.05 13.4999L11.25 15.2999L13.05 17.0999M16.65 11.6999V12.8999C16.65 14.2254 15.5755 15.2999 14.25 15.2999H12.45M9.44998 12.1499C9.44998 14.3867 7.63673 16.1999 5.39998 16.1999C3.16322 16.1999 1.34998 14.3867 1.34998 12.1499C1.34998 9.91315 3.16322 8.0999 5.39998 8.0999C7.63673 8.0999 9.44998 9.91315 9.44998 12.1499Z" stroke="#535763" stroke-width="1.5" stroke-linecap="round" stroke-linejoin="round"/>
</svg>
