<svg width="28" height="28" viewBox="0 0 28 28" fill="none" xmlns="http://www.w3.org/2000/svg">
<g clip-path="url(#clip0_357_218)">
<path d="M5.8335 24.5V5.83333C5.8335 5.21449 6.07933 4.621 6.51691 4.18342C6.9545 3.74583 7.54799 3.5 8.16683 3.5H19.8335C20.4523 3.5 21.0458 3.74583 21.4834 4.18342C21.921 4.621 22.1668 5.21449 22.1668 5.83333V24.5L18.6668 22.1667L16.3335 24.5L14.0002 22.1667L11.6668 24.5L9.3335 22.1667L5.8335 24.5Z" stroke="#949494" stroke-width="1.5" stroke-linecap="round" stroke-linejoin="round"/>
<path d="M16.3332 9.33337H13.4165C12.9524 9.33337 12.5073 9.51775 12.1791 9.84594C11.8509 10.1741 11.6665 10.6192 11.6665 11.0834C11.6665 11.5475 11.8509 11.9926 12.1791 12.3208C12.5073 12.649 12.9524 12.8334 13.4165 12.8334H14.5832C15.0473 12.8334 15.4924 13.0177 15.8206 13.3459C16.1488 13.6741 16.3332 14.1192 16.3332 14.5834C16.3332 15.0475 16.1488 15.4926 15.8206 15.8208C15.4924 16.149 15.0473 16.3334 14.5832 16.3334H11.6665M13.9998 16.3334V18.0834M13.9998 7.58337V9.33337" stroke="#949494" stroke-width="1.5" stroke-linecap="round" stroke-linejoin="round"/>
</g>
<defs>
<clipPath id="clip0_357_218">
<rect width="28" height="28" fill="white"/>
</clipPath>
</defs>
</svg>
