<svg width="42" height="48" viewBox="0 0 42 48" fill="none" xmlns="http://www.w3.org/2000/svg">
<g id="Group">
<path id="Vector" d="M1.74889 11.8405C1.78317 11.8405 1.8171 11.8337 1.84876 11.8206C1.88041 11.8074 1.90915 11.7881 1.93333 11.7639C1.95751 11.7396 1.97666 11.7107 1.98967 11.679C2.00268 11.6473 2.0093 11.6134 2.00915 11.5791L2.00459 9.85203L3.50449 8.98679C3.5341 8.9697 3.56005 8.94695 3.58086 8.91983C3.60167 8.89271 3.61694 8.86176 3.62579 8.82874C3.63464 8.79573 3.6369 8.76129 3.63244 8.7274C3.62798 8.6935 3.61689 8.66082 3.5998 8.63122C3.58272 8.60161 3.55996 8.57566 3.53285 8.55485C3.50573 8.53404 3.47478 8.51877 3.44176 8.50992C3.40874 8.50107 3.3743 8.49881 3.34041 8.50327C3.30652 8.50773 3.27384 8.51882 3.24423 8.5359L1.6142 9.47648C1.57445 9.49956 1.5415 9.53272 1.51865 9.5726C1.49581 9.61248 1.48388 9.65768 1.48407 9.70364L1.48864 11.5814C1.48864 11.7241 1.60621 11.8405 1.74889 11.8405ZM11.1478 4.57383L12.3898 3.85698L12.3943 5.28383C12.3944 5.31801 12.4012 5.35183 12.4144 5.38338C12.4275 5.41493 12.4467 5.44358 12.471 5.46769C12.4952 5.49181 12.5239 5.51091 12.5555 5.52392C12.5871 5.53693 12.621 5.54359 12.6552 5.54352C12.6893 5.54344 12.7232 5.53663 12.7547 5.52349C12.7863 5.51034 12.8149 5.4911 12.839 5.46688C12.8631 5.44266 12.8822 5.41393 12.8953 5.38233C12.9083 5.35072 12.9149 5.31686 12.9148 5.28269L12.9103 3.40609C12.9105 3.36032 12.8987 3.31529 12.8759 3.27559C12.8531 3.23589 12.8202 3.20294 12.7805 3.18009C12.7408 3.15724 12.6958 3.14531 12.6501 3.14551C12.6043 3.14571 12.5594 3.15803 12.5199 3.18122L10.8876 4.12294C10.858 4.14003 10.832 4.16278 10.8112 4.1899C10.7904 4.21702 10.7751 4.24797 10.7663 4.28099C10.7574 4.31401 10.7552 4.34844 10.7596 4.38234C10.7641 4.41623 10.7752 4.44891 10.7923 4.47851C10.8094 4.50812 10.8321 4.53407 10.8592 4.55488C10.8863 4.57569 10.9173 4.59096 10.9503 4.59981C10.9833 4.60866 11.0178 4.61092 11.0517 4.60646C11.0856 4.60201 11.1182 4.59092 11.1478 4.57383ZM12.9365 12.7365C12.9364 12.6675 12.9088 12.6014 12.8599 12.5527C12.811 12.504 12.7447 12.4767 12.6757 12.4769C12.6067 12.477 12.5405 12.5046 12.4918 12.5535C12.4431 12.6024 12.4159 12.6687 12.416 12.7377L12.4206 14.4648L10.9184 15.3323C10.8867 15.3482 10.8586 15.3704 10.8358 15.3976C10.8131 15.4248 10.7961 15.4564 10.7859 15.4903C10.7758 15.5243 10.7727 15.56 10.7768 15.5952C10.781 15.6305 10.7923 15.6645 10.8101 15.6951C10.8278 15.7258 10.8517 15.7526 10.8801 15.7737C10.9086 15.7949 10.9411 15.81 10.9756 15.8181C11.0101 15.8262 11.0459 15.8272 11.0809 15.821C11.1158 15.8148 11.1491 15.8015 11.1787 15.782L12.811 14.8403C12.8506 14.8173 12.8834 14.7843 12.9062 14.7447C12.9291 14.705 12.9411 14.6601 12.9411 14.6143L12.9365 12.7365ZM3.27505 19.7441L2.03541 20.4609L2.03084 19.033C2.03077 18.9988 2.02396 18.9649 2.01081 18.9334C1.99766 18.9019 1.97843 18.8732 1.95421 18.8491C1.90529 18.8004 1.83904 18.7731 1.77001 18.7733C1.70099 18.7734 1.63485 18.801 1.58615 18.8499C1.53745 18.8988 1.51017 18.9651 1.51033 19.0341L1.51489 20.9118C1.51498 20.9575 1.52707 21.0023 1.54995 21.0418C1.57283 21.0813 1.6057 21.114 1.64524 21.1368C1.68479 21.1596 1.72964 21.1716 1.77528 21.1716C1.82092 21.1715 1.86575 21.1595 1.90528 21.1367L3.53531 20.195C3.56492 20.1779 3.59087 20.1551 3.61168 20.128C3.63249 20.1009 3.64776 20.07 3.65661 20.0369C3.66546 20.0039 3.66772 19.9695 3.66326 19.9356C3.6588 19.9017 3.64771 19.869 3.63062 19.8394C3.61354 19.8098 3.59078 19.7839 3.56366 19.763C3.53655 19.7422 3.5056 19.727 3.47258 19.7181C3.43956 19.7093 3.40512 19.707 3.37123 19.7115C3.33734 19.7159 3.30466 19.727 3.27505 19.7441Z" fill="#4C5C75"/>
<path id="Vector_2" d="M12.635 5.92116C12.8211 5.81272 12.9775 5.90176 12.9775 6.12092C12.9712 6.23896 12.9371 6.35385 12.878 6.45621C12.8189 6.55857 12.7364 6.6455 12.6373 6.70993L1.79326 12.8511C1.60377 12.9618 1.44739 12.8773 1.44739 12.6582C1.44739 12.439 1.60149 12.1719 1.79211 12.0623L12.635 5.92116Z" fill="#F45170"/>
<path id="Vector_3" d="M33.3244 8.9566L13.6761 1.60547L0.944052 8.9566L0.75 22.7114L33.3244 8.9566Z" fill="#57B3FE" fill-opacity="0.25"/>
<path id="Vector_4" d="M41.2919 35.7849C41.3033 36.8351 40.5613 38.1136 39.6367 38.6501L23.8387 47.7705C23.3706 48.0444 22.9483 48.0559 22.6401 47.8732L18.976 45.7729C18.6678 45.6017 18.4851 45.2364 18.4851 44.7113L18.3938 12.2248C18.3938 11.1632 19.1243 9.88477 20.0489 9.35969L35.8584 0.239262C36.315 -0.034693 36.7374 -0.068937 37.0342 0.1137L40.7097 2.22544C41.0179 2.39666 41.2006 2.76193 41.2006 3.29843L41.2919 35.7849Z" fill="#1D2943"/>
<path id="Vector_5" d="M40.7212 2.22872C40.4221 2.05065 40.002 2.07919 39.542 2.34059L23.7348 11.4667C22.8171 11.9998 22.0774 13.2817 22.0774 14.3398L22.171 46.8263C22.171 47.3411 22.3582 47.7156 22.6584 47.8845L18.9714 45.767C18.6723 45.5992 18.4851 45.234 18.4851 44.71L18.3915 12.2235C18.3915 11.1654 19.1301 9.88349 20.0467 9.35841L35.8562 0.233418C36.3139 -0.0371131 36.7351 -0.06565 37.0353 0.112421L40.7212 2.22872Z" fill="#1D2943"/>
<path id="Vector_6" d="M39.5386 2.34578C40.4586 1.81385 41.2017 2.23734 41.2051 3.29549L41.2964 35.7809C41.2999 36.831 40.5613 38.1175 39.6413 38.6483L23.8352 47.7744C22.922 48.3018 22.1721 47.8748 22.1687 46.8235L22.0773 14.3382C22.0739 13.2812 22.8193 11.9981 23.7325 11.4708L39.5386 2.34578Z" fill="#4C5C75"/>
<path id="Vector_7" d="M39.5397 3.10337C40.0968 2.78261 40.5397 3.04857 40.5419 3.67411L40.6333 35.7189C40.6355 36.3433 40.1949 37.1206 39.6402 37.4425L23.833 46.5652C23.2828 46.8837 22.833 46.62 22.8307 45.9945L22.7394 13.9497C22.7371 13.3253 23.1846 12.5457 23.7336 12.2272L27.3613 10.1326C27.5462 10.0264 27.7083 10.0778 27.7619 10.2456L27.9137 10.757C27.9674 10.9248 28.1306 10.975 28.3144 10.8689L35.2774 6.8497C35.4794 6.71618 35.6224 6.51025 35.677 6.2744L35.8299 5.58723C35.8848 5.35179 36.0277 5.14631 36.2294 5.01306L39.5397 3.10337Z" fill="white"/>
<path id="Vector_8" d="M34.3951 5.66944C34.6828 5.50393 34.9099 5.63406 34.911 5.9628C34.9018 6.14078 34.8505 6.31403 34.7614 6.46838C34.6723 6.62274 34.548 6.75381 34.3985 6.85087C34.1177 7.01296 33.8849 6.87941 33.8837 6.55637C33.8826 6.22649 34.1143 5.83153 34.3951 5.66944ZM33.3267 6.50615C33.5059 6.40341 33.6497 6.4856 33.6497 6.69107C33.6497 6.89653 33.5082 7.14424 33.329 7.24811C33.1497 7.35084 32.9991 7.27322 32.9979 7.06661C32.9979 6.86115 33.1463 6.61002 33.3267 6.50729V6.50615ZM32.6635 7.0746L32.6646 7.44559L28.464 9.87123L28.4628 9.50025L32.6635 7.0746Z" fill="white"/>
<path id="Vector_9" d="M37.832 2.30954C37.7629 2.39728 37.6762 2.4696 37.5775 2.52186C37.0102 2.84375 36.0867 2.83462 35.5274 2.51273C35.4214 2.45723 35.3287 2.37933 35.2557 2.28443C34.9761 1.97052 35.0525 1.58014 35.5011 1.31759C36.0605 0.995698 37.0022 0.995698 37.5695 1.31759C38.0261 1.58014 38.1117 1.98764 37.832 2.30954Z" fill="#EDEEF2"/>
<path id="Vector_10" d="M37.832 2.31036C37.7629 2.3981 37.6762 2.47042 37.5775 2.52268C37.0102 2.84457 36.0867 2.83544 35.5274 2.51355C35.4213 2.45805 35.3286 2.38015 35.2557 2.28525C35.3267 2.20761 35.4095 2.14173 35.5011 2.09006C36.0605 1.76816 37.0022 1.76816 37.5695 2.09006C37.6706 2.14555 37.7598 2.22041 37.832 2.31036Z" fill="#111D33"/>
<path id="Vector_11" d="M20.5789 17.0693L20.5709 20.1124C20.5709 20.2924 20.5109 20.4224 20.4049 20.4824L19.9959 20.7174C20.1019 20.6574 20.1699 20.5284 20.1699 20.3474L20.1769 17.3043C20.1769 16.9423 19.9209 16.4963 19.6029 16.3153C19.4679 16.2403 19.3539 16.2173 19.2559 16.2403L19.5959 16.0423C19.7029 15.9743 19.8459 15.9893 20.0049 16.0803C20.3219 16.2603 20.5859 16.7063 20.5789 17.0693Z" fill="#C9CEE2"/>
<path id="Vector_12" d="M19.6006 16.3142C19.9186 16.4982 20.1776 16.9422 20.1766 17.3072L20.1686 20.3483C20.1676 20.7143 19.9066 20.8633 19.5886 20.6793C19.2696 20.4963 19.0156 20.0493 19.0166 19.6833L19.0246 16.6432C19.0256 16.2772 19.2826 16.1312 19.6006 16.3142Z" fill="white"/>
<path id="Vector_13" d="M20.5629 23.6618L20.5559 26.6969C20.5559 26.8859 20.4959 27.0069 20.3899 27.0669L19.9809 27.3019C20.0869 27.2419 20.1549 27.1139 20.1549 26.9319L20.1619 23.8968C20.1619 23.5268 19.9049 23.0818 19.5879 22.8998C19.4219 22.8098 19.2779 22.8018 19.1729 22.8628L19.5819 22.6268C19.6879 22.5668 19.8309 22.5738 19.9899 22.6648C20.3069 22.8458 20.5699 23.2918 20.5629 23.6618Z" fill="#C9CEE2"/>
<path id="Vector_14" d="M19.584 22.9011C19.903 23.0851 20.162 23.5291 20.161 23.8952L20.152 26.9352C20.152 27.3012 19.89 27.4502 19.572 27.2662C19.254 27.0832 18.999 26.6362 19 26.2702L19.009 23.2301C19.009 22.8641 19.266 22.7181 19.584 22.9011Z" fill="white"/>
<path id="Vector_15" d="M39.4655 30.1461C39.4769 32.0866 38.1186 34.4381 36.4292 35.4083L28.5872 39.94C27.674 40.4651 26.8636 40.4765 26.3042 40.077C26.3385 40.1112 26.3727 40.134 26.407 40.1569L25.4025 39.5747C24.8546 39.2551 24.5121 38.5702 24.5121 37.6114C24.5121 35.6709 25.8705 33.3308 27.5485 32.3606L35.4018 27.8289C36.2465 27.3381 37.0227 27.281 37.5706 27.6006L38.5866 28.1942C38.5481 28.1684 38.5057 28.1491 38.461 28.1371C39.0774 28.4225 39.4655 29.1188 39.4655 30.1461Z" fill="#DF3260"/>
<path id="Vector_16" d="M38.5854 28.1954C38.0261 27.8758 37.2544 27.9169 36.404 28.4089L28.5655 32.952C26.8761 33.9222 25.5189 36.2634 25.5189 38.2062C25.5326 39.1639 25.8648 39.842 26.4104 40.1616L25.4059 39.5703C24.8591 39.2507 24.5132 38.5726 24.5132 37.6149C24.5132 35.6733 25.8705 33.3321 27.5462 32.3607L35.3984 27.8313C36.2499 27.3382 37.0216 27.2857 37.5672 27.6041L38.5854 28.1954Z" fill="#DF3260"/>
<path id="Vector_17" d="M36.4076 28.4148C38.097 27.4388 39.4611 28.215 39.4668 30.1475C39.4725 32.0892 38.1175 34.4361 36.427 35.412L28.5839 39.9437C26.9014 40.914 25.5304 40.1412 25.5247 38.1995C25.519 36.267 26.882 33.9167 28.5634 32.9453L36.4076 28.4148Z" fill="#F45170"/>
<path id="Vector_18" d="M28.6443 38.061C28.4845 38.2311 28.3018 38.3761 28.0964 38.4948C27.7539 38.6923 27.4298 38.8053 27.1295 38.8293C27.0496 38.8384 27.0028 38.7711 27.0028 38.6923C27.0028 38.5496 27.1261 38.3544 27.2711 38.343C27.5142 38.327 27.7802 38.2368 28.0587 38.0759C28.8509 37.617 28.8155 37.0668 28.6603 36.9972C28.2916 36.8317 27.028 37.7072 27.028 36.7095C27.0291 36.5151 27.0707 36.3231 27.1501 36.1456C27.4503 35.4242 28.2733 34.9037 28.8966 34.8101C28.981 34.7964 29.0221 34.8398 29.0221 34.9425C29.0221 35.0784 28.9217 35.2621 28.7733 35.2838C28.214 35.3809 27.4298 35.8888 27.4298 36.4436C27.4298 36.5509 27.4583 36.6171 27.5188 36.6468C27.8475 36.8168 28.6009 36.2404 29.0016 36.5326C29.2025 36.681 29.2835 37.3647 28.6443 38.061ZM31.8678 36.0292C31.4695 36.5109 30.8074 37.1022 30.2058 37.0748C29.6785 37.0451 29.5027 36.5223 29.5027 35.995C29.5027 35.2895 29.7721 34.6241 30.1978 34.1115C30.578 33.6481 31.2046 33.1904 31.8598 33.2372C31.9854 33.2406 31.974 33.4198 31.9078 33.5385C31.8507 33.6458 31.7514 33.6995 31.6989 33.6995C31.1761 33.6915 30.6818 34.0339 30.3862 34.4049C30.0609 34.8078 29.9068 35.3021 29.9068 35.761C29.909 36.1411 30.0129 36.5258 30.3908 36.5646C30.8336 36.6034 31.3975 36.116 31.7046 35.7507C31.756 35.6959 31.8496 35.6297 31.9146 35.6662C32.0151 35.7233 31.9454 35.931 31.8678 36.0292ZM34.9133 34.2051L33.8768 32.0055C33.8289 31.9119 33.741 31.8799 33.6257 31.9484L33.5858 31.9713C33.5236 32.0082 33.4709 32.059 33.4317 32.1196C33.3905 32.1817 33.3586 32.2494 33.3369 32.3205L32.3153 35.7062C32.2879 35.7884 32.2742 35.9071 32.3495 35.9505C32.4294 35.9995 32.5481 35.9071 32.6052 35.8295C32.6397 35.7852 32.6663 35.7354 32.684 35.6822L32.9374 34.8215L34.2878 34.0419L34.5469 34.6069C34.5811 34.6663 34.6416 34.6903 34.7364 34.6389C34.8791 34.5556 34.9841 34.3375 34.9133 34.2051ZM33.0949 34.3044L33.6063 32.5717L34.128 33.7063L33.0949 34.3044ZM37.9873 32.4393C37.9818 32.5367 37.9533 32.6315 37.9041 32.7159C37.8549 32.8002 37.7864 32.8717 37.7042 32.9244L37.6551 32.9529C37.5798 32.9952 37.4896 33.0123 37.4268 32.9506L35.8893 31.2955L35.8973 33.7383C35.8934 33.8082 35.8728 33.8762 35.8373 33.9366C35.8017 33.997 35.7522 34.048 35.6929 34.0853C35.5788 34.1503 35.4943 34.1001 35.4943 33.9711L35.4863 31.2019C35.4863 31.1129 35.5126 31.0204 35.5662 30.9245C35.6644 30.7533 35.9064 30.565 36.0536 30.6939L37.5832 32.3422L37.5775 29.9029C37.5798 29.8332 37.5989 29.7651 37.6331 29.7043C37.6672 29.6435 37.7155 29.5918 37.7738 29.5536C37.88 29.4897 37.9793 29.5319 37.9793 29.6689L37.9873 32.4393Z" fill="white"/>
<path id="Vector_19" d="M26.737 17.867L26.7473 21.2458C26.7484 21.4867 27.0098 21.6339 27.2153 21.5152L30.1557 19.8178C30.2033 19.7903 30.2427 19.7506 30.2699 19.7029C30.2972 19.6552 30.3114 19.6011 30.311 19.5462L30.3018 16.1685C30.3015 16.1139 30.2868 16.0603 30.2593 16.0132C30.2318 15.966 30.1924 15.9268 30.1451 15.8996C30.0978 15.8723 30.0441 15.858 29.9895 15.8579C29.9349 15.8578 29.8812 15.872 29.8338 15.8991L26.8934 17.5954C26.8456 17.6228 26.806 17.6624 26.7785 17.7101C26.7511 17.7578 26.7367 17.812 26.737 17.867ZM29.6786 16.7096L29.6854 19.3669L27.3705 20.7025L27.3625 18.0463L29.6786 16.7096ZM33.1407 17.9138C33.1881 17.9412 33.2418 17.9556 33.2965 17.9556C33.3512 17.9556 33.405 17.9412 33.4523 17.9138L36.3916 16.2165C36.4392 16.1891 36.4787 16.1497 36.5062 16.1022C36.5337 16.0547 36.5481 16.0008 36.548 15.9459L36.5389 12.5672C36.5386 12.5124 36.524 12.4586 36.4964 12.4113C36.4689 12.3639 36.4294 12.3247 36.3819 12.2974C36.3344 12.2701 36.2805 12.2558 36.2258 12.2559C36.171 12.2559 36.1172 12.2704 36.0697 12.2978L33.1304 13.9951C33.0828 14.0227 33.0432 14.0623 33.0157 14.11C32.9883 14.1577 32.9739 14.2118 32.9741 14.2668L32.9843 17.6445C32.9843 17.7552 33.0437 17.8579 33.1407 17.9138ZM35.9145 13.1082L35.9225 15.7667L33.6076 17.1023L33.5996 14.446L35.9145 13.1082Z" fill="#4C5C75"/>
<path id="Vector_20" d="M34.3745 16.0414L35.242 15.5438C35.2554 15.5344 35.2662 15.5219 35.2735 15.5074C35.2809 15.4928 35.2846 15.4767 35.2843 15.4604V14.4731C35.2841 14.457 35.2794 14.4413 35.2707 14.4278C35.262 14.4142 35.2497 14.4034 35.2352 14.3966C35.2221 14.3864 35.2061 14.3809 35.1895 14.3809C35.173 14.3809 35.1569 14.3864 35.1439 14.3966L34.2832 14.8931C34.2686 14.9 34.2563 14.9108 34.2477 14.9243C34.239 14.9378 34.2343 14.9535 34.2341 14.9696L34.2409 15.9638C34.2409 16.0289 34.3026 16.0768 34.3745 16.0414ZM28.0484 19.5207C28.0621 19.5275 28.0827 19.5344 28.0975 19.5344C28.1123 19.5344 28.1249 19.5275 28.1397 19.5207L29.0073 19.0241C29.0208 19.0147 29.0317 19.002 29.0391 18.9872C29.0464 18.9725 29.05 18.9561 29.0495 18.9397V17.9523C29.0493 17.9362 29.0446 17.9205 29.0359 17.907C29.0273 17.8935 29.0149 17.8827 29.0004 17.8758C28.9874 17.8656 28.9713 17.8601 28.9547 17.8601C28.9382 17.8601 28.9221 17.8656 28.9091 17.8758L28.0484 18.3723C28.0337 18.3793 28.0213 18.3903 28.0126 18.404C28.0039 18.4178 27.9993 18.4337 27.9993 18.45L28.0062 19.4431C28.0062 19.4716 28.0199 19.507 28.0484 19.5207ZM28.9867 24.4131L28.126 24.9096C28.1115 24.9165 28.0992 24.9273 28.0905 24.9408C28.0818 24.9543 28.0771 24.97 28.077 24.9861L28.0838 25.9803C28.0838 26.042 28.142 26.0945 28.2174 26.0579L29.0849 25.5602C29.0982 25.5509 29.109 25.5384 29.1164 25.5239C29.1238 25.5093 29.1274 25.4932 29.1271 25.4769V24.4895C29.1271 24.4279 29.0461 24.3685 28.9867 24.4131ZM35.1621 20.7558L34.3014 21.2523C34.2867 21.2592 34.2743 21.2702 34.2656 21.284C34.2569 21.2977 34.2523 21.3137 34.2524 21.3299L34.2592 22.323C34.2592 22.3858 34.3163 22.4372 34.3916 22.4006L35.2591 21.9029C35.2725 21.8936 35.2833 21.8811 35.2907 21.8666C35.298 21.852 35.3017 21.8359 35.3014 21.8196V20.8311C35.3014 20.7695 35.2215 20.7101 35.1621 20.7546V20.7558Z" fill="#4C5C75"/>
<path id="Vector_21" d="M30.1625 22.3402C30.1151 22.313 30.0614 22.2986 30.0067 22.2986C29.9521 22.2986 29.8983 22.313 29.8509 22.3402L26.9116 24.0376C26.8639 24.065 26.8242 24.1046 26.7968 24.1523C26.7693 24.2001 26.755 24.2542 26.7552 24.3093L26.7655 27.6858C26.7666 27.9278 27.028 28.0739 27.2335 27.9563L30.174 26.2589C30.2215 26.2313 30.2609 26.1917 30.2882 26.144C30.3154 26.0963 30.3296 26.0422 30.3292 25.9872L30.3201 22.6096C30.3197 22.5548 30.305 22.5011 30.2773 22.4539C30.2497 22.4066 30.2101 22.3674 30.1625 22.3402ZM27.3888 27.1447L27.3808 24.4885L29.6968 23.1518L29.7037 25.808L27.3888 27.1447ZM36.5663 22.387L36.5571 19.0082C36.5569 18.9535 36.5422 18.8997 36.5147 18.8524C36.4871 18.805 36.4476 18.7658 36.4001 18.7385C36.3526 18.7112 36.2988 18.6969 36.244 18.6969C36.1892 18.697 36.1354 18.7115 36.088 18.7388L33.1487 20.4362C33.1009 20.4637 33.0613 20.5032 33.0338 20.551C33.0064 20.5987 32.992 20.6528 32.9923 20.7079L33.0026 24.0855C33.0026 24.3275 33.2651 24.4736 33.4706 24.3549L36.4099 22.6575C36.4574 22.6302 36.497 22.5908 36.5244 22.5433C36.5519 22.4958 36.5663 22.4419 36.5663 22.387ZM33.6258 23.5433L33.6178 20.8871L35.9339 19.5516L35.9407 22.2078L33.6258 23.5433ZM25.0932 19.7445C25.176 19.7442 25.2553 19.7111 25.3137 19.6525C25.3721 19.5939 25.4049 19.5145 25.4049 19.4317L25.4003 17.3577L27.2004 16.3189C27.236 16.2984 27.2672 16.271 27.2923 16.2384C27.3173 16.2058 27.3356 16.1686 27.3463 16.1289C27.357 16.0892 27.3597 16.0478 27.3543 16.0071C27.349 15.9663 27.3357 15.927 27.3151 15.8914C27.2946 15.8558 27.2672 15.8246 27.2346 15.7996C27.202 15.7745 27.1648 15.7562 27.1251 15.7455C27.0855 15.7349 27.044 15.7321 27.0033 15.7375C26.9625 15.7428 26.9232 15.7562 26.8876 15.7767L24.93 16.9068C24.8823 16.9343 24.8428 16.9739 24.8153 17.0216C24.7879 17.0693 24.7735 17.1234 24.7736 17.1784L24.7805 19.4329C24.7805 19.6052 24.9209 19.7445 25.0932 19.7445ZM36.3756 11.0213L37.8675 10.1595L37.8732 11.874C37.8736 11.9569 37.9068 12.0364 37.9657 12.0948C38.0245 12.1532 38.1042 12.1859 38.1872 12.1856C38.2701 12.1853 38.3495 12.1521 38.408 12.0932C38.4664 12.0343 38.4991 11.9547 38.4988 11.8717L38.4919 9.61842C38.4918 9.56371 38.4772 9.51001 38.4498 9.46267C38.4224 9.41533 38.3831 9.376 38.3357 9.34863C38.2883 9.32125 38.2346 9.30677 38.1799 9.30664C38.1252 9.30651 38.0714 9.32073 38.0239 9.34789L36.064 10.4791C36.0284 10.4996 35.9972 10.5268 35.9721 10.5594C35.9471 10.5919 35.9286 10.629 35.9179 10.6687C35.9072 10.7083 35.9044 10.7497 35.9097 10.7904C35.915 10.8311 35.9283 10.8704 35.9487 10.906C35.9692 10.9416 35.9964 10.9728 36.029 10.9979C36.0615 11.023 36.0986 11.0414 36.1383 11.0521C36.1779 11.0628 36.2193 11.0656 36.26 11.0603C36.3007 11.055 36.34 11.0418 36.3756 11.0213ZM38.5239 20.8198C38.5236 20.7368 38.4903 20.6574 38.4315 20.5989C38.3726 20.5405 38.2929 20.5078 38.21 20.5081C38.127 20.5084 38.0476 20.5417 37.9892 20.6006C37.9307 20.6594 37.8981 20.7391 37.8984 20.822L37.9041 22.8961L36.1005 23.936C36.065 23.9566 36.0339 23.984 36.0089 24.0167C35.984 24.0493 35.9658 24.0865 35.9552 24.1262C35.9447 24.1659 35.942 24.2073 35.9475 24.248C35.9529 24.2887 35.9663 24.328 35.987 24.3635C36.0076 24.399 36.035 24.4301 36.0676 24.4551C36.1002 24.48 36.1375 24.4983 36.1772 24.5088C36.2169 24.5194 36.2583 24.522 36.299 24.5165C36.3397 24.5111 36.3789 24.4977 36.4144 24.4771L38.3732 23.347C38.4211 23.3194 38.4607 23.2796 38.4882 23.2317C38.5157 23.1838 38.5299 23.1294 38.5296 23.0742L38.5239 20.8198ZM26.9253 29.2336L25.4357 30.0943L25.4311 28.3798C25.4308 28.2968 25.3976 28.2174 25.3387 28.159C25.2798 28.1005 25.2002 28.0679 25.1172 28.0682C25.0343 28.0685 24.9548 28.1017 24.8964 28.1606C24.8379 28.2194 24.8053 28.2991 24.8056 28.3821L24.8124 30.6353C24.8123 30.6902 24.8266 30.7441 24.8539 30.7916C24.8812 30.8392 24.9206 30.8787 24.9681 30.9061C25.0156 30.9336 25.0695 30.948 25.1243 30.948C25.1791 30.9479 25.233 30.9334 25.2804 30.9059L27.2381 29.7758C27.2737 29.7553 27.3049 29.7279 27.3299 29.6953C27.355 29.6627 27.3733 29.6255 27.384 29.5858C27.3946 29.5461 27.3974 29.5047 27.392 29.464C27.3867 29.4232 27.3733 29.3839 27.3528 29.3483C27.3323 29.3127 27.3049 29.2815 27.2723 29.2565C27.2397 29.2315 27.2025 29.2131 27.1628 29.2024C27.1231 29.1918 27.0817 29.189 27.041 29.1944C27.0002 29.1997 26.9609 29.2131 26.9253 29.2336ZM32.1795 14.9697C32.1385 14.9698 32.0978 14.9781 32.0599 14.9939C32.0221 15.0098 31.9877 15.0329 31.9587 15.0621C31.9298 15.0912 31.9069 15.1258 31.8913 15.1638C31.8757 15.2018 31.8678 15.2425 31.8679 15.2836L31.8725 17.3382L31.2139 17.7184C31.1661 17.7458 31.1265 17.7854 31.099 17.8331C31.0715 17.8808 31.0572 17.935 31.0575 17.99L31.0643 20.2136L29.1706 21.3072C29.1351 21.3277 29.1039 21.355 29.079 21.3876C29.054 21.4202 29.0357 21.4573 29.0251 21.497C29.0145 21.5366 29.0118 21.578 29.0172 21.6187C29.0226 21.6593 29.0359 21.6986 29.0565 21.7341C29.077 21.7696 29.1043 21.8007 29.1369 21.8257C29.1695 21.8507 29.2066 21.869 29.2463 21.8796C29.2859 21.8902 29.3273 21.8929 29.3679 21.8875C29.4086 21.8821 29.4478 21.8688 29.4834 21.8482L31.5335 20.6645C31.5812 20.6371 31.6208 20.5975 31.6483 20.5498C31.6758 20.5021 31.6901 20.4479 31.6899 20.3928L31.6841 18.1692L32.3428 17.7891C32.3905 17.7617 32.4301 17.7221 32.4576 17.6744C32.4851 17.6267 32.4994 17.5725 32.4992 17.5175L32.4923 15.2802C32.4917 15.1976 32.4585 15.1186 32.3999 15.0605C32.3413 15.0023 32.2621 14.9697 32.1795 14.9697ZM34.3404 18.8667C34.3759 18.8462 34.407 18.8188 34.432 18.7863C34.457 18.7537 34.4753 18.7165 34.4859 18.6769C34.4965 18.6372 34.4991 18.5959 34.4938 18.5552C34.4884 18.5145 34.475 18.4753 34.4545 18.4398C34.434 18.4042 34.4066 18.3731 34.3741 18.3482C34.3415 18.3232 34.3043 18.3049 34.2647 18.2943C34.2251 18.2837 34.1837 18.281 34.143 18.2864C34.1024 18.2918 34.0631 18.3051 34.0276 18.3256L32.6989 19.0927C32.6634 19.1132 32.6323 19.1406 32.6073 19.1731C32.5823 19.2057 32.564 19.2429 32.5534 19.2825C32.5428 19.3222 32.5401 19.3635 32.5455 19.4042C32.5509 19.4449 32.5642 19.4841 32.5848 19.5196C32.6053 19.5551 32.6326 19.5863 32.6652 19.6112C32.6978 19.6362 32.7349 19.6545 32.7746 19.6651C32.8142 19.6757 32.8556 19.6784 32.8963 19.673C32.9369 19.6676 32.9762 19.6543 33.0117 19.6338L34.3404 18.8667ZM32.1145 21.8699C32.0317 21.8702 31.9513 21.9033 31.8929 21.9619C31.8345 22.0206 31.8017 22.0999 31.8017 22.1827L31.8063 23.5787L31.0289 24.0273C30.9812 24.0548 30.9416 24.0943 30.9141 24.1421C30.8866 24.1898 30.8723 24.2439 30.8726 24.299L30.876 25.2384C30.876 25.4108 31.0164 25.5501 31.1876 25.5501C31.352 25.5626 31.5015 25.4097 31.5004 25.2361L31.4981 24.4782L32.2743 24.0296C32.3222 24.0023 32.3621 23.9628 32.3898 23.9151C32.4174 23.8673 32.432 23.8131 32.4318 23.7579L32.4261 22.1804C32.4258 22.0979 32.3929 22.0188 32.3345 21.9604C32.2761 21.902 32.197 21.8691 32.1145 21.8688V21.8699ZM27.4687 22.29L26.907 22.6142C26.8714 22.6347 26.8402 22.6621 26.8152 22.6946C26.7902 22.7272 26.7718 22.7645 26.7612 22.8042C26.7505 22.8438 26.7478 22.8853 26.7531 22.926C26.7585 22.9668 26.7718 23.0061 26.7923 23.0417C26.8129 23.0773 26.8402 23.1085 26.8728 23.1335C26.9054 23.1585 26.9426 23.1769 26.9823 23.1875C27.022 23.1982 27.0634 23.2009 27.1042 23.1956C27.1449 23.1902 27.1842 23.1769 27.2198 23.1564L27.7814 22.8322C27.817 22.8117 27.8482 22.7843 27.8733 22.7517C27.8983 22.7191 27.9167 22.6819 27.9273 22.6422C27.938 22.6025 27.9407 22.5611 27.9354 22.5204C27.93 22.4796 27.9167 22.4403 27.8961 22.4047C27.8756 22.3691 27.8483 22.3379 27.8157 22.3129C27.7831 22.2878 27.7459 22.2695 27.7062 22.2588C27.6665 22.2482 27.6251 22.2454 27.5843 22.2508C27.5436 22.2561 27.5043 22.2695 27.4687 22.29ZM36.0823 17.3166L35.5229 17.6396C35.4855 17.6591 35.4525 17.686 35.4257 17.7187C35.399 17.7513 35.3791 17.7891 35.3674 17.8296C35.3556 17.8701 35.3521 17.9126 35.3572 17.9545C35.3623 17.9964 35.3758 18.0368 35.3969 18.0734C35.4181 18.1099 35.4463 18.1418 35.4801 18.1671C35.5139 18.1924 35.5524 18.2106 35.5934 18.2207C35.6344 18.2307 35.677 18.2323 35.7187 18.2254C35.7603 18.2186 35.8001 18.2033 35.8357 18.1807L36.395 17.8576C36.4306 17.8371 36.4617 17.8098 36.4867 17.7772C36.5116 17.7446 36.5299 17.7074 36.5405 17.6678C36.5511 17.6282 36.5538 17.5868 36.5484 17.5461C36.5431 17.5055 36.5297 17.4662 36.5092 17.4307C36.4886 17.3952 36.4613 17.364 36.4287 17.3391C36.3962 17.3141 36.359 17.2958 36.3194 17.2852C36.2797 17.2746 36.2384 17.2719 36.1977 17.2773C36.157 17.2827 36.1178 17.296 36.0823 17.3166Z" fill="#4C5C75"/>
<path id="Vector_22" d="M38.162 12.6388C38.3857 12.5098 38.5729 12.616 38.5729 12.8785C38.5729 13.141 38.3891 13.4572 38.1642 13.5862L25.1468 20.9602C24.9185 21.0915 24.7313 20.991 24.7302 20.7285C24.7302 20.4659 24.9151 20.144 25.1445 20.0116L38.162 12.6388Z" fill="#57B3FE"/>
</g>
</svg>
