<svg width="20" height="20" viewBox="0 0 20 20" fill="none" xmlns="http://www.w3.org/2000/svg">
<g id="Group">
<path id="Vector" d="M19.7339 18.3802L15.7344 14.4034C16.8082 12.9841 17.3801 11.0585 17.4246 8.64912C17.3291 3.10761 14.2361 0.0363676 8.7073 0C3.11215 0.0354584 0 3.28399 0 8.64821C0 14.2806 3.11488 17.2964 8.71821 17.3291C11.1085 17.3146 13.0269 16.76 14.4488 15.6881L18.452 19.6694C18.923 20.1167 19.4803 19.934 19.7376 19.6658C20.0858 19.3039 20.0904 18.7338 19.7339 18.3802ZM1.81838 8.66457C1.90657 4.08681 4.16318 1.84656 8.70639 1.81838C13.206 1.84747 15.528 4.1559 15.6062 8.64821C15.5208 13.3033 13.3287 15.4835 8.71821 15.5108C4.10226 15.4835 1.9093 13.3087 1.81838 8.66457Z" fill="#7E8AA3"/>
</g>
</svg>
