<svg width="51" height="50" viewBox="0 0 51 50" fill="none" xmlns="http://www.w3.org/2000/svg">
<rect x="0.833374" y="0.5" width="49" height="49" rx="24.5" stroke="white"/>
<path d="M25.3334 26.6666C26.7167 26.6666 27.8334 25.55 27.8334 24.1666V19.1666C27.8334 17.7833 26.7167 16.6666 25.3334 16.6666C23.95 16.6666 22.8334 17.7833 22.8334 19.1666V24.1666C22.8334 25.55 23.95 26.6666 25.3334 26.6666Z" fill="white"/>
<path d="M29.5 24.1666C29.5 26.4666 27.6333 28.3333 25.3333 28.3333C23.0333 28.3333 21.1667 26.4666 21.1667 24.1666H19.5C19.5 27.1083 21.675 29.525 24.5 29.9333V32.5H26.1667V29.9333C28.9917 29.525 31.1667 27.1083 31.1667 24.1666H29.5Z" fill="white"/>
</svg>
