<svg width="21" height="20" viewBox="0 0 21 20" fill="none" xmlns="http://www.w3.org/2000/svg">
<g id="Icon" clip-path="url(#clip0_11260_19124)">
<path id="Vector" d="M9.66652 1.66667C9.66652 0.745833 10.4124 0 11.3332 0C12.254 0 12.9999 0.745833 12.9999 1.66667C12.9999 2.5875 12.254 3.33333 11.3332 3.33333C10.4124 3.33333 9.66652 2.5875 9.66652 1.66667ZM10.4515 4.16667C10.994 4.69667 11.3332 5.43333 11.3332 6.25V6.66667H13.339C13.6474 6.66667 13.8932 6.38 13.8207 6.08C13.5565 4.9825 12.5682 4.16667 11.3899 4.16667H10.4515ZM7.16652 4.16667C8.08736 4.16667 8.83319 3.42083 8.83319 2.5C8.83319 1.57917 8.08736 0.833333 7.16652 0.833333C6.24569 0.833333 5.49986 1.57917 5.49986 2.5C5.49986 3.42083 6.24569 4.16667 7.16652 4.16667ZM0.994023 6.66667H2.99986V6.25C2.99986 5.43333 3.33902 4.69667 3.88152 4.16667H2.94319C1.76486 4.16667 0.776523 4.9825 0.512357 6.08C0.439857 6.38 0.68569 6.66667 0.994023 6.66667ZM19.8624 10.8458L14.1924 17.21C12.6124 18.9833 10.3449 20 7.96986 20H3.83236C1.99402 20 0.499023 18.505 0.499023 16.6667V12.5C0.499023 10.6617 1.99402 9.16667 3.83236 9.16667H11.2132C12.1624 9.16667 12.9957 9.67417 13.454 10.4325L16.1349 7.4875C16.5849 6.99167 17.2024 6.70083 17.8724 6.67C18.549 6.6375 19.184 6.87 19.6799 7.32167C20.6915 8.24417 20.7732 9.82583 19.8615 10.8467L19.8624 10.8458ZM18.5582 8.5525C18.3924 8.40167 18.1782 8.32833 17.9515 8.33417C17.7265 8.345 17.519 8.44167 17.369 8.60833L13.6799 12.6625C13.3582 13.5542 12.564 14.2375 11.5849 14.3775L7.28402 14.9917C6.82736 15.0533 6.40569 14.74 6.34069 14.285C6.27569 13.8292 6.59236 13.4075 7.04819 13.3425L11.349 12.7283C11.8149 12.6617 12.1657 12.2567 12.1657 11.7858C12.1657 11.2608 11.7382 10.8342 11.2132 10.8342H3.83319C2.91402 10.8342 2.16652 11.5817 2.16652 12.5008V16.6675C2.16652 17.5867 2.91402 18.3342 3.83319 18.3342H7.97069C9.86986 18.3342 11.684 17.5208 12.9482 16.1025L18.619 9.7375C18.9257 9.39417 18.8982 8.86333 18.559 8.55333L18.5582 8.5525ZM5.17236 7.5H9.16069C9.47652 7.5 9.72736 7.21333 9.65319 6.91333C9.38319 5.81583 8.37236 5 7.16652 5C5.96069 5 4.94986 5.81583 4.67986 6.91333C4.60569 7.21333 4.85736 7.5 5.17236 7.5ZM2.99986 3.33333C3.92069 3.33333 4.66652 2.5875 4.66652 1.66667C4.66652 0.745833 3.92069 0 2.99986 0C2.07902 0 1.33319 0.745833 1.33319 1.66667C1.33319 2.5875 2.07902 3.33333 2.99986 3.33333Z" fill="#111827"/>
</g>
<defs>
<clipPath id="clip0_11260_19124">
<rect width="20" height="20" fill="white" transform="translate(0.5)"/>
</clipPath>
</defs>
</svg>
