<svg width="20" height="16" viewBox="0 0 20 16" fill="none" xmlns="http://www.w3.org/2000/svg">
<g id="Group">
<path id="Vector" d="M18.75 6.75H1.25C0.559648 6.75 0 7.30965 0 8C0 8.69035 0.559648 9.25 1.25 9.25H18.75C19.4404 9.25 20 8.69035 20 8C20 7.30965 19.4404 6.75 18.75 6.75Z" fill="#8B8B8B"/>
<path id="Vector_2" d="M1.25 3.41699H18.75C19.4404 3.41699 20 2.85734 20 2.16699C20 1.47664 19.4404 0.916992 18.75 0.916992H1.25C0.559648 0.916992 0 1.47664 0 2.16699C0 2.85734 0.559648 3.41699 1.25 3.41699Z" fill="#8B8B8B"/>
<path id="Vector_3" d="M18.75 12.584H1.25C0.559648 12.584 0 13.1436 0 13.834C0 14.5243 0.559648 15.084 1.25 15.084H18.75C19.4404 15.084 20 14.5243 20 13.834C20 13.1436 19.4404 12.584 18.75 12.584Z" fill="#8B8B8B"/>
</g>
</svg>
