<svg width="16" height="16" viewBox="0 0 16 16" fill="none" xmlns="http://www.w3.org/2000/svg">
<g id="Group">
<path id="Vector" d="M4.66667 0H2.66667C1.95942 0 1.28115 0.280952 0.781049 0.781049C0.280952 1.28115 0 1.95942 0 2.66667L0 4.66667C0 5.37391 0.280952 6.05219 0.781049 6.55229C1.28115 7.05238 1.95942 7.33333 2.66667 7.33333H4.66667C5.37391 7.33333 6.05219 7.05238 6.55229 6.55229C7.05238 6.05219 7.33333 5.37391 7.33333 4.66667V2.66667C7.33333 1.95942 7.05238 1.28115 6.55229 0.781049C6.05219 0.280952 5.37391 0 4.66667 0ZM6 4.66667C6 5.02029 5.85952 5.35943 5.60948 5.60948C5.35943 5.85952 5.02029 6 4.66667 6H2.66667C2.31304 6 1.97391 5.85952 1.72386 5.60948C1.47381 5.35943 1.33333 5.02029 1.33333 4.66667V2.66667C1.33333 2.31304 1.47381 1.97391 1.72386 1.72386C1.97391 1.47381 2.31304 1.33333 2.66667 1.33333H4.66667C5.02029 1.33333 5.35943 1.47381 5.60948 1.72386C5.85952 1.97391 6 2.31304 6 2.66667V4.66667Z" fill="#5E6D8C"/>
<path id="Vector_2" d="M4.66667 8.66699H2.66667C1.95942 8.66699 1.28115 8.94794 0.781049 9.44804C0.280952 9.94814 0 10.6264 0 11.3337L0 13.3337C0 14.0409 0.280952 14.7192 0.781049 15.2193C1.28115 15.7194 1.95942 16.0003 2.66667 16.0003H4.66667C5.37391 16.0003 6.05219 15.7194 6.55229 15.2193C7.05238 14.7192 7.33333 14.0409 7.33333 13.3337V11.3337C7.33333 10.6264 7.05238 9.94814 6.55229 9.44804C6.05219 8.94794 5.37391 8.66699 4.66667 8.66699ZM6 13.3337C6 13.6873 5.85952 14.0264 5.60948 14.2765C5.35943 14.5265 5.02029 14.667 4.66667 14.667H2.66667C2.31304 14.667 1.97391 14.5265 1.72386 14.2765C1.47381 14.0264 1.33333 13.6873 1.33333 13.3337V11.3337C1.33333 10.98 1.47381 10.6409 1.72386 10.3908C1.97391 10.1408 2.31304 10.0003 2.66667 10.0003H4.66667C5.02029 10.0003 5.35943 10.1408 5.60948 10.3908C5.85952 10.6409 6 10.98 6 11.3337V13.3337Z" fill="#5E6D8C"/>
<path id="Vector_3" d="M14.8621 12.6988L13.3334 14.2255V1.75482L14.8621 3.28149C14.924 3.34339 14.9975 3.39248 15.0784 3.42596C15.1593 3.45944 15.2461 3.47666 15.3336 3.47662C15.4212 3.47659 15.5079 3.45932 15.5888 3.42578C15.6697 3.39224 15.7432 3.3431 15.8051 3.28116C15.8669 3.21922 15.916 3.14569 15.9495 3.06478C15.983 2.98387 16.0002 2.89715 16.0002 2.80959C16.0002 2.72202 15.9829 2.63532 15.9493 2.55443C15.9158 2.47354 15.8667 2.40005 15.8047 2.33816L14.0801 0.616157C13.7051 0.241622 13.1967 0.03125 12.6667 0.03125C12.1367 0.03125 11.6284 0.241622 11.2534 0.616157L9.52872 2.33816C9.46678 2.40005 9.41764 2.47354 9.3841 2.55443C9.35056 2.63532 9.33328 2.72202 9.33325 2.80959C9.33322 2.89715 9.35044 2.98387 9.38392 3.06478C9.4174 3.14569 9.46649 3.21922 9.52839 3.28116C9.59028 3.3431 9.66377 3.39224 9.74466 3.42578C9.82555 3.45932 9.91225 3.47659 9.99982 3.47662C10.0874 3.47666 10.1741 3.45944 10.255 3.42596C10.3359 3.39248 10.4094 3.34339 10.4714 3.28149L12.0001 1.75482V14.2255L10.4714 12.6988C10.4094 12.6369 10.3359 12.5878 10.255 12.5544C10.1741 12.5209 10.0874 12.5037 9.99982 12.5037C9.91225 12.5037 9.82555 12.521 9.74466 12.5545C9.66377 12.5881 9.59028 12.6372 9.52839 12.6992C9.46649 12.7611 9.4174 12.8346 9.38392 12.9155C9.35044 12.9964 9.33322 13.0832 9.33325 13.1707C9.33328 13.2583 9.35056 13.345 9.3841 13.4259C9.41764 13.5068 9.46678 13.5803 9.52872 13.6422L11.2534 15.3642C11.6284 15.7387 12.1367 15.9491 12.6667 15.9491C13.1967 15.9491 13.7051 15.7387 14.0801 15.3642L15.8047 13.6422C15.8667 13.5803 15.9158 13.5068 15.9493 13.4259C15.9829 13.345 16.0002 13.2583 16.0002 13.1707C16.0002 13.0832 15.983 12.9964 15.9495 12.9155C15.916 12.8346 15.8669 12.7611 15.8051 12.6992C15.7432 12.6372 15.6697 12.5881 15.5888 12.5545C15.5079 12.521 15.4212 12.5037 15.3336 12.5037C15.2461 12.5037 15.1593 12.5209 15.0784 12.5544C14.9975 12.5878 14.924 12.6369 14.8621 12.6988Z" fill="#5E6D8C"/>
</g>
</svg>
