<svg width="23" height="22" viewBox="0 0 23 22" fill="none" xmlns="http://www.w3.org/2000/svg">
<path d="M11.2622 1.65881C11.3371 1.42848 11.6629 1.42849 11.7378 1.65881L13.5931 7.36905C13.8274 8.09009 14.4993 8.57827 15.2575 8.57827H21.2616C21.5038 8.57827 21.6045 8.88818 21.4085 9.03053L16.5511 12.5596C15.9378 13.0053 15.6811 13.7952 15.9154 14.5162L17.7708 20.2264C17.8456 20.4568 17.582 20.6483 17.386 20.506L12.5286 16.9768C11.9153 16.5312 11.0847 16.5312 10.4714 16.9768L5.61396 20.506C5.41803 20.6483 5.15441 20.4568 5.22925 20.2264L7.08462 14.5162C7.3189 13.7952 7.06224 13.0053 6.44889 12.5596L1.59148 9.03053C1.39554 8.88817 1.49624 8.57827 1.73842 8.57827H7.74252C8.50066 8.57827 9.17259 8.09009 9.40687 7.36905L11.2622 1.65881Z" stroke="#535763" stroke-width="1.5"/>
</svg>
