<svg width="22" height="22" viewBox="0 0 22 22" fill="none" xmlns="http://www.w3.org/2000/svg">
<path d="M16.75 11.1162V1.11621L14.0374 2.32183C13.4259 2.5936 13.1201 2.72949 12.8107 2.76348C12.4714 2.80076 12.1282 2.75058 11.8138 2.6177C11.527 2.49654 11.273 2.27879 10.7649 1.84331C10.0903 1.26502 9.75294 0.975874 9.3796 0.852051C8.97082 0.716472 8.52918 0.716472 8.1204 0.852051C7.74706 0.975874 7.40972 1.26502 6.73505 1.84331C6.22699 2.27879 5.97295 2.49654 5.68623 2.6177C5.3718 2.75058 5.0286 2.80076 4.68929 2.76348C4.37988 2.72949 4.07414 2.5936 3.46265 2.32183L0.75 1.11621V14.7162C0.75 16.9564 0.75 18.0765 1.18597 18.9322C1.56947 19.6848 2.18139 20.2967 2.93404 20.6802C3.78968 21.1162 4.90979 21.1162 7.15 21.1162H18.75M16.75 11.1162H17.55C18.6701 11.1162 19.2302 11.1162 19.658 11.3342C20.0343 11.5259 20.3403 11.8319 20.532 12.2082C20.75 12.6361 20.75 13.1961 20.75 14.3162V19.1162C20.75 20.2208 19.8546 21.1162 18.75 21.1162M16.75 11.1162V19.1162C16.75 20.2208 17.6454 21.1162 18.75 21.1162M9.25 16.1162H12.25M5.25 8.11621H9.75M9.25 12.1162H12.25M6.25 12.1162C6.25 12.3924 6.02614 12.6162 5.75 12.6162C5.47386 12.6162 5.25 12.3924 5.25 12.1162M6.25 12.1162C6.25 11.8401 6.02614 11.6162 5.75 11.6162C5.47386 11.6162 5.25 11.8401 5.25 12.1162M6.25 12.1162H5.25M6.25 16.1162C6.25 16.3924 6.02614 16.6162 5.75 16.6162C5.47386 16.6162 5.25 16.3924 5.25 16.1162M6.25 16.1162C6.25 15.8401 6.02614 15.6162 5.75 15.6162C5.47386 15.6162 5.25 15.8401 5.25 16.1162M6.25 16.1162H5.25" stroke="#88878B" stroke-width="1.5" stroke-linecap="round" stroke-linejoin="round"/>
</svg>
