<svg width="23" height="23" viewBox="0 0 23 23" fill="none" xmlns="http://www.w3.org/2000/svg">
<path d="M16.723 21.8024C15.6401 21.8024 14.4997 21.5437 13.3209 21.0453C12.1709 20.5566 11.0113 19.8857 9.8805 19.0712C8.75925 18.247 7.67633 17.327 6.65091 16.3207C5.63508 15.2953 4.71508 14.2124 3.9005 13.1007C3.07633 11.9507 2.41508 10.8007 1.9455 9.68908C1.44716 8.50074 1.198 7.35074 1.198 6.26783C1.198 5.52033 1.33216 4.81116 1.59091 4.14991C1.85925 3.46949 2.2905 2.83699 2.87508 2.29074C3.613 1.56241 4.45633 1.19824 5.35716 1.19824C5.73091 1.19824 6.11425 1.28449 6.44008 1.43783C6.81383 1.61033 7.13008 1.86908 7.36008 2.21408L9.58341 5.34783C9.78466 5.62574 9.938 5.89408 10.0434 6.16241C10.168 6.44991 10.2351 6.73741 10.2351 7.01533C10.2351 7.37949 10.1297 7.73408 9.92841 8.06949C9.78466 8.32824 9.56425 8.60616 9.28633 8.88408L8.63467 9.56449C8.64425 9.59324 8.65383 9.61241 8.66341 9.63158C8.77841 9.83283 9.00841 10.1778 9.44925 10.6953C9.91883 11.232 10.3597 11.7207 10.8005 12.1712C11.3659 12.727 11.8355 13.1678 12.2763 13.532C12.8226 13.992 13.1772 14.222 13.388 14.3274L13.3688 14.3753L14.0684 13.6853C14.3655 13.3882 14.653 13.1678 14.9309 13.0241C15.458 12.6982 16.1288 12.6407 16.7997 12.9187C17.0488 13.0241 17.3172 13.1678 17.6047 13.3691L20.7863 15.6307C21.1409 15.8703 21.3997 16.177 21.553 16.5412C21.6967 16.9053 21.7638 17.2407 21.7638 17.5762C21.7638 18.0362 21.6584 18.4962 21.4572 18.9274C21.2559 19.3587 21.0067 19.7324 20.6905 20.0774C20.1442 20.6812 19.5501 21.1124 18.8601 21.3903C18.1988 21.6587 17.4801 21.8024 16.723 21.8024ZM5.35716 2.63574C4.83008 2.63574 4.34133 2.86574 3.87175 3.32574C3.43091 3.73783 3.12425 4.18824 2.93258 4.67699C2.73133 5.17533 2.6355 5.70241 2.6355 6.26783C2.6355 7.15908 2.84633 8.12699 3.268 9.12366C3.69925 10.1395 4.303 11.1937 5.06966 12.2478C5.83633 13.302 6.70841 14.3274 7.66675 15.2953C8.62508 16.2441 9.66008 17.1257 10.7238 17.902C11.7588 18.6591 12.8226 19.2724 13.8767 19.7132C15.5155 20.4128 17.0488 20.5757 18.3138 20.0487C18.8026 19.8474 19.2338 19.5407 19.6267 19.0999C19.8472 18.8603 20.0197 18.6016 20.1634 18.2949C20.2784 18.0553 20.3359 17.8062 20.3359 17.557C20.3359 17.4037 20.3072 17.2503 20.2305 17.0778C20.2017 17.0203 20.1442 16.9149 19.9622 16.7903L16.7805 14.5287C16.5888 14.3945 16.4163 14.2987 16.2534 14.2316C16.0426 14.1453 15.9563 14.0591 15.6305 14.2603C15.4388 14.3562 15.2663 14.4999 15.0747 14.6916L14.3463 15.4103C13.9726 15.7745 13.3976 15.8607 12.9567 15.6978L12.698 15.5828C12.3051 15.372 11.8451 15.0462 11.3372 14.6149C10.8772 14.222 10.3788 13.762 9.77508 13.1678C9.3055 12.6887 8.83591 12.1807 8.34716 11.6153C7.89675 11.0882 7.57091 10.6378 7.36966 10.2641L7.25466 9.97658C7.19716 9.75616 7.178 9.63158 7.178 9.49741C7.178 9.15241 7.30258 8.84574 7.54216 8.60616L8.26091 7.85866C8.45258 7.66699 8.59633 7.48491 8.69216 7.32199C8.76883 7.19741 8.79758 7.09199 8.79758 6.99616C8.79758 6.91949 8.76883 6.80449 8.72091 6.68949C8.65383 6.53616 8.54841 6.36366 8.41425 6.18158L6.19091 3.03824C6.09508 2.90408 5.98008 2.80824 5.83633 2.74116C5.683 2.67408 5.52008 2.63574 5.35716 2.63574ZM13.3688 14.3849L13.2155 15.0366L13.4742 14.3657C13.4263 14.3562 13.388 14.3657 13.3688 14.3849Z" fill="#433578"/>
<path d="M17.7292 9.34342C17.3362 9.34342 17.0104 9.01759 17.0104 8.62467C17.0104 8.27967 16.6654 7.56092 16.0904 6.94759C15.525 6.34384 14.9021 5.98926 14.375 5.98926C13.9821 5.98926 13.6562 5.66342 13.6562 5.27051C13.6562 4.87759 13.9821 4.55176 14.375 4.55176C15.3046 4.55176 16.2821 5.05009 17.135 5.96051C17.9304 6.81342 18.4479 7.85801 18.4479 8.62467C18.4479 9.01759 18.1221 9.34342 17.7292 9.34342Z" fill="#433578"/>
<path d="M21.0833 9.34408C20.6904 9.34408 20.3646 9.01824 20.3646 8.62533C20.3646 5.31908 17.6813 2.63574 14.375 2.63574C13.9821 2.63574 13.6562 2.30991 13.6562 1.91699C13.6562 1.52408 13.9821 1.19824 14.375 1.19824C18.4671 1.19824 21.8021 4.53324 21.8021 8.62533C21.8021 9.01824 21.4763 9.34408 21.0833 9.34408Z" fill="#433578"/>
</svg>
