<svg width="12" height="13" viewBox="0 0 12 13" fill="none" xmlns="http://www.w3.org/2000/svg">
<g clip-path="url(#clip0_723_2463)">
<path d="M3.85363 5.12789C4.04913 5.32339 4.04913 5.63989 3.85363 5.8349C3.65813 6.0304 3.34163 6.0304 3.14663 5.8349C2.95113 5.6394 2.95113 5.3229 3.14663 5.12789C3.34213 4.93239 3.65863 4.93239 3.85363 5.12789ZM10.7796 8.17039L10.4971 8.4529C10.4836 9.0694 10.2446 9.6814 9.77963 10.1524L8.19613 11.7564C7.72463 12.2339 7.09563 12.4979 6.42463 12.4999H6.41613C5.74863 12.4999 5.12113 12.2399 4.64913 11.7679L0.941128 8.09139C0.616128 7.76689 0.459128 7.32039 0.509128 6.86489L0.891628 3.4069C0.917128 3.1789 1.09363 2.9974 1.32063 2.9664L4.76513 2.49539C5.23113 2.43339 5.70013 2.5919 6.02913 2.9209L9.76663 6.62689C9.96013 6.82039 10.1151 7.03839 10.2321 7.2709C10.6381 6.68789 10.5811 5.87339 10.0611 5.35339L6.26563 1.65089C6.15113 1.53639 5.99313 1.48339 5.84013 1.50489L2.39563 1.97589C2.12113 2.01289 1.86963 1.82139 1.83213 1.54839C1.79513 1.27489 1.98663 1.0229 2.25963 0.985395L5.70463 0.513895C6.16513 0.448395 6.63913 0.609395 6.96863 0.939895L10.7631 4.6424C11.7361 5.61489 11.7416 7.1959 10.7791 8.1709L10.7796 8.17039ZM9.06063 7.33539L5.32313 3.6294C5.21163 3.51789 5.05513 3.4664 4.89963 3.4859L1.84213 3.9044L1.50263 6.9744C1.48613 7.1259 1.53813 7.2749 1.64613 7.3824L5.35413 11.0589C5.63863 11.3439 6.01513 11.4994 6.41563 11.4994H6.42063C6.82363 11.4984 7.20113 11.3399 7.48363 11.0529L9.06713 9.4489C9.64463 8.8639 9.64163 7.91539 9.06013 7.33439L9.06063 7.33539Z" fill="#021017"/>
</g>
<defs>
<clipPath id="clip0_723_2463">
<rect width="12" height="12" fill="white" transform="translate(0 0.5)"/>
</clipPath>
</defs>
</svg>
