<svg width="16" height="16" viewBox="0 0 16 16" fill="none" xmlns="http://www.w3.org/2000/svg">
<g clip-path="url(#clip0_721_2243)">
<path d="M10.6667 0H10.58C10.2816 0.00283454 9.99267 0.104675 9.75846 0.289533C9.52425 0.47439 9.35807 0.731795 9.286 1.02133C9.20882 1.30323 9.04115 1.55195 8.80879 1.72924C8.57644 1.90652 8.29227 2.00256 8 2.00256C7.70773 2.00256 7.42356 1.90652 7.19121 1.72924C6.95885 1.55195 6.79118 1.30323 6.714 1.02133C6.64193 0.731795 6.47575 0.47439 6.24154 0.289533C6.00733 0.104675 5.71836 0.00283454 5.42 0L5.33333 0C4.4496 0.00105857 3.60237 0.352588 2.97748 0.97748C2.35259 1.60237 2.00106 2.4496 2 3.33333V14C2 14.5304 2.21071 15.0391 2.58579 15.4142C2.96086 15.7893 3.46957 16 4 16H5.42C5.71836 15.9972 6.00733 15.8953 6.24154 15.7105C6.47575 15.5256 6.64193 15.2682 6.714 14.9787C6.79118 14.6968 6.95885 14.4481 7.19121 14.2708C7.42356 14.0935 7.70773 13.9974 8 13.9974C8.29227 13.9974 8.57644 14.0935 8.80879 14.2708C9.04115 14.4481 9.20882 14.6968 9.286 14.9787C9.35807 15.2682 9.52425 15.5256 9.75846 15.7105C9.99267 15.8953 10.2816 15.9972 10.58 16H12C12.5304 16 13.0391 15.7893 13.4142 15.4142C13.7893 15.0391 14 14.5304 14 14V3.33333C13.9989 2.4496 13.6474 1.60237 13.0225 0.97748C12.3976 0.352588 11.5504 0.00105857 10.6667 0ZM12 14.6667L10.5713 14.6247C10.4148 14.0589 10.0759 13.5607 9.60728 13.2072C9.13868 12.8537 8.56653 12.6647 7.97955 12.6694C7.39258 12.6742 6.82359 12.8725 6.36081 13.2337C5.89804 13.5948 5.56734 14.0985 5.42 14.6667H4C3.82319 14.6667 3.65362 14.5964 3.5286 14.4714C3.40357 14.3464 3.33333 14.1768 3.33333 14V11.3333H4.66667C4.84348 11.3333 5.01305 11.2631 5.13807 11.1381C5.2631 11.013 5.33333 10.8435 5.33333 10.6667C5.33333 10.4899 5.2631 10.3203 5.13807 10.1953C5.01305 10.0702 4.84348 10 4.66667 10H3.33333V3.33333C3.33333 2.8029 3.54405 2.29419 3.91912 1.91912C4.29419 1.54405 4.8029 1.33333 5.33333 1.33333L5.42867 1.37533C5.58482 1.93762 5.92066 2.43336 6.38494 2.7869C6.84923 3.14044 7.41644 3.33235 8 3.33333C8.59144 3.3283 9.16504 3.1302 9.63353 2.76918C10.102 2.40815 10.4398 1.90396 10.5953 1.33333H10.6667C11.1971 1.33333 11.7058 1.54405 12.0809 1.91912C12.456 2.29419 12.6667 2.8029 12.6667 3.33333V10H11.3333C11.1565 10 10.987 10.0702 10.8619 10.1953C10.7369 10.3203 10.6667 10.4899 10.6667 10.6667C10.6667 10.8435 10.7369 11.013 10.8619 11.1381C10.987 11.2631 11.1565 11.3333 11.3333 11.3333H12.6667V14C12.6667 14.1768 12.5964 14.3464 12.4714 14.4714C12.3464 14.5964 12.1768 14.6667 12 14.6667Z" fill="#021017"/>
<path d="M8.66663 10H7.33329C7.15648 10 6.98691 10.0702 6.86189 10.1953C6.73686 10.3203 6.66663 10.4899 6.66663 10.6667C6.66663 10.8435 6.73686 11.013 6.86189 11.1381C6.98691 11.2631 7.15648 11.3333 7.33329 11.3333H8.66663C8.84344 11.3333 9.01301 11.2631 9.13803 11.1381C9.26305 11.013 9.33329 10.8435 9.33329 10.6667C9.33329 10.4899 9.26305 10.3203 9.13803 10.1953C9.01301 10.0702 8.84344 10 8.66663 10Z" fill="#021017"/>
</g>
<defs>
<clipPath id="clip0_721_2243">
<rect width="16" height="16" fill="white"/>
</clipPath>
</defs>
</svg>
