<svg width="32" height="32" viewBox="0 0 32 32" fill="none" xmlns="http://www.w3.org/2000/svg">
<g clip-path="url(#clip0_141_975)">
<path d="M4 16H5.33333M16 4V5.33333M26.6667 16H28M7.46667 7.46667L8.4 8.4M24.5333 7.46667L23.6 8.4" stroke="#949494" stroke-width="1.5" stroke-linecap="round" stroke-linejoin="round"/>
<path d="M12.0002 21.3334C10.8808 20.4938 10.0539 19.3234 9.63674 17.9878C9.21954 16.6523 9.23314 15.2193 9.67561 13.8919C10.1181 12.5644 10.967 11.4099 12.1021 10.5918C13.2372 9.77362 14.6009 9.33337 16.0002 9.33337C17.3994 9.33337 18.7631 9.77362 19.8982 10.5918C21.0333 11.4099 21.8822 12.5644 22.3247 13.8919C22.7672 15.2193 22.7808 16.6523 22.3636 17.9878C21.9464 19.3234 21.1195 20.4938 20.0002 21.3334C19.4796 21.8487 19.0876 22.4793 18.856 23.1742C18.6244 23.8691 18.5596 24.6088 18.6668 25.3334C18.6668 26.0406 18.3859 26.7189 17.8858 27.219C17.3857 27.7191 16.7074 28 16.0002 28C15.2929 28 14.6146 27.7191 14.1145 27.219C13.6144 26.7189 13.3335 26.0406 13.3335 25.3334C13.4408 24.6088 13.376 23.8691 13.1443 23.1742C12.9127 22.4793 12.5207 21.8487 12.0002 21.3334Z" stroke="#949494" stroke-width="1.5" stroke-linecap="round" stroke-linejoin="round"/>
<path d="M12.9331 22.6666H19.0664" stroke="#949494" stroke-width="1.5" stroke-linecap="round" stroke-linejoin="round"/>
</g>
<defs>
<clipPath id="clip0_141_975">
<rect width="32" height="32" fill="white"/>
</clipPath>
</defs>
</svg>
