<svg width="48" height="42" viewBox="0 0 48 42" fill="none" xmlns="http://www.w3.org/2000/svg">
<g id="Group">
<path id="Vector" d="M28.4322 16.2095C28.4322 16.6785 28.2682 17.0095 28.0022 17.1654L26.9272 17.7864C27.1942 17.6344 27.3572 17.3024 27.3612 16.8345C27.3612 15.8895 26.7022 14.7425 25.8793 14.2655C25.4643 14.0295 25.0903 14.0065 24.8193 14.1625L25.8943 13.5375C26.1643 13.3815 26.5383 13.4045 26.9542 13.6445C27.7742 14.1175 28.4362 15.2645 28.4322 16.2095Z" fill="#1D2943"/>
<path id="Vector_2" d="M25.8803 14.2672C26.7033 14.7422 27.3652 15.8892 27.3632 16.8342C27.3602 17.7792 26.6933 18.1582 25.8713 17.6842C25.0513 17.2102 24.3873 16.0622 24.3893 15.1172C24.3923 14.1722 25.0613 13.7942 25.8813 14.2672H25.8803Z" fill="#4C5C75"/>
<path id="Vector_3" d="M26.9523 16.5995C26.9523 17.2845 26.4683 17.5595 25.8743 17.2145C25.2803 16.8705 24.7963 16.0385 24.7963 15.3545C24.8013 14.6695 25.2843 14.3945 25.8783 14.7345C26.4773 15.0835 26.9563 15.9115 26.9523 16.5995Z" fill="white"/>
<path id="Vector_4" d="M25.8743 16.634C25.9473 16.676 26.0043 16.775 26.0043 16.859C26.0043 16.944 25.9473 16.976 25.8743 16.934C25.8367 16.9095 25.8055 16.8764 25.7833 16.8374C25.761 16.7985 25.7484 16.7548 25.7463 16.71C25.7463 16.626 25.8033 16.593 25.8743 16.634ZM26.3883 15.513C26.4213 15.533 26.4553 15.567 26.4803 15.61C26.5323 15.7 26.5323 15.794 26.4803 15.82C26.4543 15.836 26.4213 15.832 26.3883 15.813C26.3498 15.7887 26.3181 15.755 26.2963 15.715C26.2463 15.629 26.2443 15.535 26.2963 15.505C26.3233 15.49 26.3563 15.495 26.3883 15.513ZM25.3643 16.096C25.3983 16.116 25.4313 16.15 25.4563 16.193C25.5083 16.283 25.5083 16.377 25.4563 16.407C25.4313 16.421 25.3983 16.417 25.3653 16.397C25.3268 16.3732 25.2948 16.3402 25.2723 16.301C25.2223 16.212 25.2203 16.118 25.2723 16.088C25.2993 16.073 25.3323 16.078 25.3643 16.096ZM25.1573 15.391C25.2303 15.434 25.2853 15.531 25.2853 15.613C25.2853 15.697 25.2293 15.731 25.1563 15.689C25.1179 15.6647 25.086 15.6314 25.0634 15.5921C25.0407 15.5527 25.028 15.5084 25.0263 15.463C25.0263 15.383 25.0813 15.348 25.1573 15.391ZM25.3703 14.925C25.4082 14.9485 25.4393 14.9816 25.4603 15.021C25.5123 15.111 25.5113 15.205 25.4593 15.231C25.4343 15.247 25.4013 15.243 25.3693 15.224C25.3304 15.1998 25.2984 15.1661 25.2763 15.126C25.2233 15.038 25.2243 14.946 25.2763 14.916C25.3023 14.901 25.3363 14.906 25.3693 14.925H25.3703ZM26.3863 16.686C26.4244 16.7097 26.4555 16.7432 26.4763 16.783C26.5293 16.873 26.5283 16.966 26.4763 16.996C26.4513 17.01 26.4183 17.006 26.3863 16.986C26.3478 16.9622 26.3158 16.9292 26.2933 16.89C26.2413 16.8 26.2413 16.707 26.2933 16.677C26.3193 16.662 26.3533 16.666 26.3863 16.686ZM25.8773 15.53C25.99 15.603 26.0838 15.7017 26.1509 15.818C26.218 15.9343 26.2565 16.0649 26.2633 16.199C26.2633 16.442 26.0893 16.541 25.8753 16.417C25.7636 16.3443 25.6706 16.2463 25.6038 16.131C25.5371 16.0156 25.4985 15.8861 25.4913 15.753C25.4923 15.507 25.6653 15.408 25.8773 15.53ZM25.8793 14.977C25.9523 15.019 26.0093 15.119 26.0093 15.203C26.0093 15.287 25.9513 15.317 25.8783 15.275C25.8407 15.251 25.8095 15.2183 25.7872 15.1796C25.7649 15.141 25.7523 15.0976 25.7503 15.053C25.7503 14.969 25.8083 14.936 25.8793 14.977ZM26.5993 16.224C26.6723 16.266 26.7293 16.365 26.7293 16.447C26.7293 16.531 26.6713 16.564 26.5983 16.521C26.5603 16.4965 26.5287 16.4634 26.506 16.4242C26.4834 16.3851 26.4705 16.3411 26.4683 16.296C26.4683 16.214 26.5253 16.181 26.5983 16.224H26.5993Z" fill="#4C5C75"/>
<path id="Vector_5" d="M38.7931 22.1743C38.7931 22.6423 38.6291 22.9743 38.3631 23.1303L37.2881 23.7513C37.5541 23.5993 37.7181 23.2673 37.7221 22.7993C37.7221 21.8543 37.0622 20.7063 36.2402 20.2303C35.8242 19.9943 35.4502 19.9703 35.1802 20.1273L36.2552 19.5023C36.5252 19.3463 36.8992 19.3693 37.3151 19.6093C38.1341 20.0813 38.7971 21.2293 38.7931 22.1743Z" fill="#1D2943"/>
<path id="Vector_6" d="M36.2412 20.2325C37.0642 20.7075 37.7262 21.8535 37.7232 22.7985C37.7202 23.7435 37.0542 24.1234 36.2322 23.6485C35.4122 23.1755 34.7472 22.0275 34.7502 21.0825C34.7522 20.1375 35.4212 19.7585 36.2412 20.2325Z" fill="#4C5C75"/>
<path id="Vector_7" d="M37.3121 22.5653C37.3121 23.2483 36.8291 23.5233 36.2352 23.1793C35.6402 22.8353 35.1572 22.0033 35.1572 21.3193C35.1612 20.6343 35.6452 20.3593 36.2391 20.6993C36.8371 21.0483 37.3171 21.8763 37.3121 22.5643V22.5653Z" fill="white"/>
<path id="Vector_8" d="M36.2351 22.5978C36.3081 22.6408 36.3651 22.7398 36.3651 22.8238C36.3651 22.9088 36.3071 22.9408 36.2341 22.8988C36.1966 22.8743 36.1654 22.8412 36.1431 22.8023C36.1209 22.7633 36.1082 22.7196 36.1061 22.6748C36.1061 22.5908 36.1641 22.5578 36.2351 22.5978ZM36.7491 21.4778C36.7821 21.4978 36.8151 21.5308 36.8401 21.5748C36.8921 21.6648 36.8921 21.7588 36.8401 21.7848C36.8151 21.8008 36.7821 21.7968 36.7491 21.7778C36.7106 21.7535 36.679 21.7198 36.6571 21.6798C36.6071 21.5938 36.6051 21.4998 36.6571 21.4698C36.6831 21.4538 36.7161 21.4598 36.7491 21.4778ZM35.7251 22.0608C35.7581 22.0808 35.7921 22.1148 35.8171 22.1578C35.8691 22.2478 35.8681 22.3418 35.8161 22.3718C35.7911 22.3858 35.7581 22.3818 35.7261 22.3618C35.6876 22.3381 35.6557 22.3051 35.6331 22.2658C35.5831 22.1768 35.5811 22.0828 35.6331 22.0528C35.6591 22.0378 35.6931 22.0428 35.7251 22.0608ZM35.5171 21.3558C35.5911 21.3988 35.6451 21.4958 35.6451 21.5778C35.6451 21.6618 35.5901 21.6958 35.5171 21.6538C35.4788 21.6295 35.4469 21.5963 35.4242 21.5569C35.4016 21.5175 35.3889 21.4732 35.3871 21.4278C35.3871 21.3468 35.4421 21.3118 35.5171 21.3558ZM35.7301 20.8899C35.7681 20.9134 35.7991 20.9465 35.8201 20.9859C35.8721 21.0759 35.8721 21.1688 35.8201 21.1958C35.7941 21.2118 35.7621 21.2078 35.7291 21.1888C35.6903 21.1647 35.6583 21.1309 35.6361 21.0909C35.5841 21.0029 35.5841 20.9109 35.6361 20.8809C35.6621 20.8659 35.6961 20.8709 35.7301 20.8899ZM36.7471 22.6508C36.7851 22.6743 36.8162 22.7074 36.8371 22.7468C36.8891 22.8368 36.8891 22.9308 36.8371 22.9608C36.8111 22.9748 36.7791 22.9708 36.7461 22.9508C36.7076 22.9271 36.6757 22.8941 36.6531 22.8548C36.6011 22.7648 36.6011 22.6718 36.6531 22.6418C36.6791 22.6268 36.7131 22.6318 36.7471 22.6518V22.6508ZM36.2381 21.4948C36.3508 21.5678 36.4446 21.6665 36.5117 21.7828C36.5788 21.8992 36.6174 22.0297 36.6241 22.1638C36.6241 22.4068 36.4501 22.5058 36.2351 22.3818C36.1236 22.3091 36.0308 22.211 35.9642 22.0956C35.8977 21.9803 35.8593 21.8508 35.8521 21.7178C35.8521 21.4718 36.0261 21.3728 36.2381 21.4948ZM36.2401 20.9419C36.3131 20.9839 36.3701 21.0839 36.3701 21.1678C36.3701 21.2518 36.3121 21.2818 36.2391 21.2398C36.2016 21.2158 36.1703 21.1831 36.148 21.1445C36.1258 21.1058 36.1131 21.0624 36.1111 21.0179C36.1111 20.9339 36.1691 20.9009 36.2391 20.9419H36.2401ZM36.9601 22.1888C37.0321 22.2308 37.0901 22.3298 37.0901 22.4108C37.0901 22.4958 37.0321 22.5288 36.9581 22.4858C36.92 22.4613 36.8883 22.428 36.8657 22.3886C36.843 22.3493 36.8302 22.3051 36.8281 22.2598C36.8281 22.1798 36.8871 22.1458 36.9601 22.1888Z" fill="#4C5C75"/>
<path id="Vector_9" d="M46.363 14.6898L38.3161 19.3737L38.2621 19.4037L38.1421 19.1577L37.6321 18.1007L36.4072 15.5968L44.5071 10.8818L46.363 14.6898Z" fill="#E9E7FC"/>
<path id="Vector_10" d="M38.0102 17.9175L36.9562 15.7626L42.1061 12.7706L44.3281 11.4736L45.8141 14.5226L38.4432 18.8135L38.0102 17.9175Z" fill="#423D9B"/>
<path id="Vector_11" d="M45.817 14.5217L43.949 15.6086L42.959 16.1846L42.3391 16.5446L41.5771 16.9896L40.9051 17.3796L38.9531 18.5206L38.4431 18.8146L38.0101 17.9206L36.9531 15.7646L38.9531 14.6047L40.9051 13.4707L41.5771 13.0807L42.1061 12.7737L42.3401 12.6357L42.958 12.2757L43.949 11.6927L44.328 11.4707L45.817 14.5217Z" fill="#423D9B"/>
<path id="Vector_12" d="M44.51 10.883L36.4041 15.5929L33.7972 14.0859L41.8971 9.37598H41.9031L44.51 10.883Z" fill="#F3F1FC"/>
<path id="Vector_13" d="M34.9942 14.0853L41.9011 10.0693L43.3131 10.8853L36.4032 14.8993L34.9942 14.0853Z" fill="#E9E7FC"/>
<path id="Vector_14" d="M47.72 16.2427L47.71 19.1727L39.6001 23.8826V23.8726L38.2602 23.1027L37.7202 22.7927V22.7827C37.7202 21.8427 37.0502 20.7027 36.2402 20.2427C35.4202 19.7627 34.7502 20.1327 34.7502 21.0727L34.3802 20.8527L33.7802 20.5127L33.7902 14.0928L36.4102 15.5928L37.6302 18.1027L38.1402 19.1527L38.2602 19.4027L38.3202 19.3727L46.36 14.6928L47.72 16.2427Z" fill="#CACCEF"/>
<path id="Vector_15" d="M47.718 16.2432L47.708 19.1731L39.6021 23.8781L39.6121 20.9531L47.718 16.2432Z" fill="#CACCEF"/>
<path id="Vector_16" d="M47.718 16.2434L39.6121 20.9533L38.2641 19.4013L38.3181 19.3713L46.365 14.6914L47.718 16.2434Z" fill="#F3F1FC"/>
<path id="Vector_17" d="M39.6131 20.9518L39.6011 23.8768L38.2621 23.1018L37.7161 22.7898V22.7838C37.7161 21.8408 37.0491 20.7058 36.2381 20.2378C35.4221 19.7628 34.7552 20.1358 34.7492 21.0718L34.3772 20.8558L33.7822 20.5138L33.7942 14.0879L36.4071 15.5959L37.6321 18.0998L38.1421 19.1568L38.2621 19.4028L39.6131 20.9518Z" fill="#DEDFFB"/>
<path id="Vector_18" d="M37.3311 18.8559L34.3892 17.1629L34.3952 15.127L35.9501 16.0219L37.0911 18.3639L37.3311 18.8559Z" fill="#423D9B"/>
<path id="Vector_19" d="M37.3311 18.8559L36.6411 18.4599L36.2871 18.2559L35.8971 18.0339L34.9952 17.5109L34.3892 17.1629L34.3952 15.127L34.5992 15.241L35.4991 15.7639L35.8901 15.9859L35.9501 16.0219L36.3591 16.8569L37.0911 18.3639L37.3311 18.8559Z" fill="#423D9B"/>
<path id="Vector_20" d="M27.3633 16.8156V16.8096C27.3633 15.8596 26.6963 14.7376 25.8853 14.2626C25.0693 13.7886 24.4023 14.1606 24.3903 15.0976L23.9643 14.8516C23.9643 13.6206 24.8403 13.1276 25.9093 13.7466C26.9843 14.3646 27.8493 15.8606 27.8493 17.0966L27.3633 16.8156Z" fill="#FEBC1F"/>
<path id="Vector_21" d="M38.2621 23.0599V23.1019L37.7162 22.7899V22.784C37.7162 21.841 37.0492 20.706 36.2382 20.238C35.4222 19.763 34.7552 20.136 34.7492 21.072L34.3772 20.856V20.82C34.3832 19.583 35.2542 19.09 36.3292 19.71C37.4032 20.328 38.2691 21.83 38.2621 23.0599Z" fill="#CACCEF"/>
<path id="Vector_22" d="M34.8782 17.9105C34.8613 17.9104 34.8448 17.906 34.8302 17.8975L34.3732 17.6355C34.3528 17.6219 34.3384 17.601 34.3328 17.5771C34.3272 17.5533 34.3309 17.5282 34.343 17.5069C34.3552 17.4856 34.375 17.4697 34.3984 17.4624C34.4218 17.4551 34.4471 17.4569 34.4692 17.4675L34.9262 17.7305C34.9442 17.7414 34.9581 17.7578 34.966 17.7773C34.9738 17.7968 34.9752 17.8183 34.9697 17.8385C34.9643 17.8588 34.9525 17.8768 34.936 17.8898C34.9195 17.9028 34.8992 17.9101 34.8782 17.9105Z" fill="#4C5C75"/>
<path id="Vector_23" d="M41.0701 20.735C41.2781 20.616 41.4501 20.709 41.4501 20.957C41.4511 21.2 41.2801 21.49 41.0731 21.61C40.8621 21.732 40.6941 21.637 40.6931 21.394C40.6931 21.146 40.8591 20.858 41.0711 20.736L41.0701 20.735Z" fill="#FFD06C"/>
<path id="Vector_24" d="M40.3461 21.042L41.7901 20.208L41.7941 21.306L40.3501 22.14L40.3461 21.042ZM41.0731 21.61C41.1831 21.5387 41.2746 21.4423 41.3402 21.3288C41.4057 21.2153 41.4434 21.0879 41.4501 20.957C41.4501 20.709 41.2781 20.617 41.0701 20.736C40.9593 20.8075 40.8673 20.9046 40.8019 21.0191C40.7364 21.1337 40.6995 21.2622 40.6941 21.394C40.6941 21.637 40.8611 21.732 41.0731 21.61Z" fill="#F45170"/>
<path id="Vector_25" d="M46.599 17.5458C46.806 17.4258 46.974 17.5208 46.974 17.7688C46.968 17.899 46.931 18.0259 46.8661 18.1389C46.8012 18.2519 46.7104 18.3479 46.601 18.4188C46.39 18.5408 46.218 18.4488 46.218 18.2048C46.217 17.9578 46.388 17.6668 46.598 17.5448L46.599 17.5458Z" fill="#FFD06C"/>
<path id="Vector_26" d="M45.8751 17.8506L47.319 17.0166L47.322 18.1156L45.8781 18.9496L45.8751 17.8506ZM46.6011 18.4186C46.7104 18.3477 46.8013 18.2517 46.8661 18.1387C46.931 18.0257 46.968 17.8988 46.974 17.7686C46.974 17.5206 46.806 17.4246 46.5991 17.5446C46.4876 17.6163 46.3948 17.7136 46.3285 17.8284C46.2623 17.9432 46.2244 18.0722 46.2181 18.2046C46.2181 18.4476 46.3901 18.5406 46.6011 18.4186Z" fill="#F45170"/>
<path id="Vector_27" d="M45.6471 18.0332V18.3182L42.0191 20.4132V20.1282L45.6471 18.0332ZM45.6491 18.6552V18.9402L42.0211 21.0352V20.7502L45.6491 18.6552Z" fill="white"/>
<path id="Vector_28" d="M39.9281 23.6869L39.8281 23.6229L39.3081 23.4809L39.9251 23.0459L39.9281 23.6869Z" fill="#111D33"/>
<path id="Vector_29" d="M48 18.3827V19.0226L39.9301 23.6926L39.6001 23.8726L38.6101 23.3226L38.6201 22.6826L38.8901 22.5226L39.6001 22.9126L47.72 18.2227L48 18.3827Z" fill="#111D33"/>
<path id="Vector_30" d="M48 18.3866L39.8821 23.0726L39.6011 23.2356L38.6171 22.6856L38.8921 22.5226L39.6011 22.9096L47.718 18.2236L48 18.3866Z" fill="#4C5C75"/>
<path id="Vector_31" d="M48 18.3867V19.0237L39.9281 23.6876L39.6011 23.8776V23.2357L39.9281 23.0457L48 18.3867Z" fill="#1D2943"/>
<path id="Vector_32" d="M38.6171 22.6855L38.6141 23.3265L39.6011 23.8745L39.6031 23.2345L38.6171 22.6855Z" fill="#111D33"/>
<g id="Group_2" opacity="0.3">
<path id="Vector_33" d="M40.9051 13.4704V17.3803L38.9531 18.5203V14.6053L40.9051 13.4704ZM42.3401 12.6354V16.5453L41.5771 16.9893V13.0794L42.1061 12.7734L42.3401 12.6354ZM43.9501 11.6924V15.6083L42.9581 16.1843V12.2744L43.9501 11.6924Z" fill="white"/>
</g>
<g id="Group_3" opacity="0.3">
<path id="Vector_34" d="M35.8962 18.0342L34.9962 17.5112L34.5992 15.2412L35.4992 15.7642L35.8962 18.0342ZM36.6402 18.4602L36.2872 18.2562L35.8902 15.9862L35.9502 16.0222L36.3592 16.8572L36.6402 18.4602Z" fill="white"/>
</g>
<path id="Vector_35" d="M41.9101 6.57242L41.9001 9.37238L33.8002 14.0823L33.7902 14.0923L33.7802 20.5122L27.8503 17.0923L27.3603 16.8123C27.3603 15.8623 26.7003 14.7323 25.8803 14.2623C25.0703 13.7923 24.4003 14.1623 24.3903 15.0923L23.9603 14.8523L23.3803 14.5123L23.4003 5.27244H23.4103L31.5102 0.5625L35.8202 3.05247L41.9101 6.57242Z" fill="#FEBC1F"/>
<path id="Vector_36" d="M41.8981 9.37528L33.7972 14.0852L33.8072 11.2803L41.9071 6.57031L41.8981 9.37528Z" fill="#FEBC1F"/>
<path id="Vector_37" d="M41.9101 6.56937L33.8052 11.2793L23.4043 5.27439L31.5092 0.564453L41.9101 6.56937Z" fill="#FFD06C"/>
<path id="Vector_38" d="M24.6023 5.27274L31.5102 1.25879L40.7111 6.57172L33.8042 10.5857L24.6023 5.27274Z" fill="#FEBC1F"/>
<path id="Vector_39" d="M33.8062 11.2784L33.7942 14.0883L33.7822 20.5143L27.8493 17.0973L27.3633 16.8153V16.8093C27.3633 15.8593 26.6963 14.7373 25.8853 14.2623C25.0693 13.7883 24.4023 14.1603 24.3903 15.0973L23.9643 14.8513L23.3813 14.5153L23.4053 5.27246L33.8062 11.2784Z" fill="#F9A83D"/>
<path id="Vector_40" d="M37.5962 4.07967L29.4913 8.78961L27.7173 7.76462L35.8222 3.05469L37.5962 4.07967Z" fill="#F3F1FC"/>
<path id="Vector_41" d="M29.5022 8.79568L29.4922 12.0396L28.5513 10.5477L27.7053 11.0077L27.7153 7.7627L29.5022 8.79568Z" fill="#DEDFFB"/>
<path id="Vector_42" d="M0.330636 23.9625C0.120639 23.7825 0.0106407 23.5825 0.000640869 23.3725V23.3125C0.000640869 23.5425 0.110639 23.7625 0.330636 23.9625Z" fill="#4C5C75"/>
<g id="Group_4">
<path id="Vector_43" d="M0.00464712 23.3275C0.00464712 23.3425 -0.000352832 23.3575 0.00164714 23.3725V23.3125L0.00464712 23.3275Z" fill="#4C5C75"/>
<path id="Vector_44" d="M41.6301 28.6725V31.9325C41.6301 32.2225 41.4401 32.5324 41.0301 32.7724L26.7703 41.0023C25.9703 41.4623 24.6803 41.4623 23.8903 41.0023L0.600633 27.4025C0.210638 27.1725 0.0106407 26.8725 0.0106407 26.5725L0.000640869 23.3726C0.0106407 23.5826 0.120639 23.7826 0.330636 23.9626C0.116639 23.7676 0.0106407 23.5526 0.00464076 23.3276C-0.00335913 23.0146 0.190638 22.7116 0.601633 22.4726L14.8614 14.2327C15.6714 13.7727 16.9514 13.7727 17.7514 14.2327L41.0411 27.8425C41.4411 28.0725 41.6301 28.3725 41.6301 28.6725Z" fill="#4C5C75"/>
<path id="Vector_45" d="M0.330636 23.9625C0.120639 23.7825 0.0106407 23.5825 0.000640869 23.3725V23.3125C0.000640869 23.5425 0.110639 23.7625 0.330636 23.9625Z" fill="#4C5C75"/>
</g>
<path id="Vector_46" d="M41.6351 31.9284C41.6351 32.2274 41.4381 32.5324 41.0311 32.7704L26.7743 41.0013C25.9723 41.4633 24.6813 41.4633 23.8933 41.0013L0.600647 27.4015C0.206652 27.1705 0.00965491 26.8715 0.00965491 26.5715L0.00265503 23.3115C0.00265503 23.6115 0.199652 23.9105 0.593647 24.1415L23.8793 37.7413C24.6743 38.2043 25.9653 38.2043 26.7603 37.7413L41.0241 29.5114C41.4241 29.2734 41.6291 28.9674 41.6291 28.6685L41.6351 31.9284Z" fill="#1D2943"/>
<path id="Vector_47" d="M0.602634 22.4694C-0.195355 22.9303 -0.203355 23.6743 0.593634 24.1383L23.8813 37.7421C24.6753 38.2021 25.9633 38.2021 26.7613 37.7421L41.0231 29.5083C41.8261 29.0453 41.8301 28.2983 41.0371 27.8383L17.7484 14.2325C16.9514 13.7695 15.6664 13.7725 14.8644 14.2355L0.602634 22.4694Z" fill="#4C5C75"/>
<path id="Vector_48" d="M2.15562 23.2011C1.89062 23.3541 1.88962 23.6041 2.15262 23.7571L23.7633 36.3869C24.0263 36.5389 24.4593 36.5389 24.7233 36.3869L38.9851 28.153C39.2541 27.998 39.2551 27.747 38.9921 27.594L17.3814 14.9652C17.1184 14.8132 16.6854 14.8132 16.4164 14.9682L2.15562 23.2011Z" fill="white"/>
<path id="Vector_49" d="M32.1432 32.674C31.7962 32.874 31.7902 33.197 32.1392 33.4C32.4792 33.598 33.0462 33.6 33.3932 33.4C33.7362 33.202 33.7332 32.874 33.3932 32.676C33.0432 32.473 32.4862 32.476 32.1432 32.674ZM7.05654 19.3641C6.94854 19.4261 6.94754 19.5321 7.05554 19.5941C7.16354 19.6571 7.34553 19.6571 7.45353 19.5941L9.9615 18.1462C10.0695 18.0842 10.0655 17.9812 9.9585 17.9182C9.89759 17.8869 9.83019 17.8705 9.76174 17.8701C9.69329 17.8698 9.62572 17.8855 9.5645 17.9162L7.05654 19.3641Z" fill="#4C5C75"/>
<path id="Vector_50" d="M1.98061 25.8371C1.57662 25.6041 1.24562 25.7881 1.24362 26.2571C1.24362 26.72 1.57162 27.286 1.97561 27.519C2.37861 27.752 2.7096 27.567 2.7106 27.103C2.7126 26.635 2.38361 26.0701 1.98061 25.8371ZM4.16658 27.115C3.76359 26.883 3.43259 27.067 3.43159 27.535C3.42959 27.999 3.75859 28.565 4.16158 28.797C4.56558 29.031 4.89657 28.846 4.89857 28.382C4.89857 27.914 4.57058 27.348 4.16658 27.115Z" fill="#E3E7F0"/>
<path id="Vector_51" d="M27.6653 38.349C27.9643 38.176 28.2073 38.309 28.2083 38.646C28.2083 38.99 27.9683 39.408 27.6683 39.58C27.3693 39.753 27.1323 39.612 27.1313 39.268C27.1303 38.931 27.3663 38.522 27.6653 38.349ZM29.5973 37.233C29.8973 37.061 30.1392 37.193 30.1402 37.531C30.1412 37.874 29.9003 38.292 29.6003 38.465C29.3023 38.637 29.0643 38.495 29.0633 38.152C29.0623 37.815 29.2983 37.406 29.5973 37.233ZM31.5302 36.117C31.8282 35.945 32.0712 36.077 32.0722 36.415C32.0732 36.758 31.8322 37.176 31.5332 37.349C31.2342 37.522 30.9962 37.38 30.9952 37.037C30.9952 36.699 31.2312 36.29 31.5302 36.117ZM36.1482 33.445C36.4472 33.272 36.6902 33.405 36.6912 33.742C36.6912 34.086 36.4512 34.504 36.1512 34.676C35.8532 34.849 35.6152 34.708 35.6142 34.364C35.6132 34.027 35.8492 33.617 36.1482 33.444V33.445ZM38.0801 32.3291C38.3801 32.1571 38.6221 32.2891 38.6231 32.627C38.6241 32.97 38.3831 33.388 38.0841 33.561C37.7851 33.733 37.5471 33.591 37.5461 33.248C37.5461 32.911 37.7811 32.5021 38.0801 32.3291ZM40.0131 31.2131C40.3121 31.0411 40.5551 31.1731 40.5561 31.5111C40.5561 31.8541 40.3161 32.2721 40.0161 32.4451C39.7181 32.6181 39.4801 32.4761 39.4791 32.1331C39.4781 31.7951 39.7141 31.3861 40.0131 31.2131ZM34.9902 34.002L34.6302 35.782L33.0602 36.692L32.7002 35.322L33.2702 34.992L34.9902 34.002Z" fill="#1D2943"/>
<path id="Vector_52" d="M33.2742 34.9893L32.6992 35.3213L33.0602 36.6912L34.6342 35.7832L33.2742 34.9893Z" fill="#111D33"/>
<path id="Vector_53" d="M34.6352 35.782L34.9871 34L33.2742 34.989L34.6342 35.783L34.6352 35.782Z" fill="#1D2943"/>
<path id="Vector_54" d="M31.0602 23.4756L26.7793 21.9966L22.5043 18.5367L19.2044 17.3987L19.2124 17.3767L19.2174 17.3617V17.3587C19.2574 17.2057 19.2814 17.0657 19.2824 16.9447C19.2824 16.2787 18.9604 15.5197 18.4894 14.9467C18.2842 14.6866 18.0343 14.4651 17.7514 14.2927C17.3214 14.0427 16.9314 14.0227 16.6514 14.1827L16.3214 14.3777L16.1114 14.4997H16.1154C15.9697 14.5858 15.8544 14.7151 15.7854 14.8697C15.6987 15.0622 15.6564 15.2717 15.6614 15.4827C15.6614 15.9117 15.9384 16.8977 16.2574 17.8887L16.3314 18.1137L5.75757 24.2596L5.85857 24.9036L10.0855 26.3626L14.3605 29.8225L18.6404 31.3025L22.8653 34.7224L35.2822 27.5065L35.3872 26.9815L31.0602 23.4756ZM17.0034 16.1007C16.9224 15.9007 16.8634 15.6977 16.8654 15.5067C16.8668 15.4098 16.8858 15.3139 16.9214 15.2237C17.0058 15.2383 17.0875 15.266 17.1634 15.3057C17.1764 15.3127 17.1884 15.3157 17.2014 15.3227C17.4084 15.4417 17.5894 15.6397 17.7394 15.8617C17.9424 16.1647 18.0794 16.5187 18.0794 16.8357C18.0794 16.8677 18.0664 16.8857 18.0634 16.9157C18.0534 16.9857 18.0424 17.0557 18.0214 17.1127C18.0114 17.1127 18.0024 17.1087 17.9934 17.1077C17.9114 17.0887 17.8304 17.0727 17.7414 17.0217C17.6714 16.9817 17.6084 16.9167 17.5434 16.8617C17.3064 16.6537 17.1215 16.3931 17.0034 16.1007Z" fill="#C8CCED"/>
<path id="Vector_55" d="M10.0875 25.7519L22.5043 18.5359L18.1744 17.043L5.75757 24.2589L10.0875 25.7519Z" fill="#F3F1FC"/>
<path id="Vector_56" d="M14.3624 29.212L26.7793 21.9961L22.5043 18.5361L10.0875 25.752L14.3624 29.212Z" fill="#DEDFFB"/>
<path id="Vector_57" d="M18.6424 30.691L31.0602 23.4751L26.7803 21.9961L14.3635 29.212L18.6424 30.691Z" fill="#E9E7FC"/>
<path id="Vector_58" d="M22.9703 34.1974L35.3872 26.9815L31.0592 23.4756L18.6424 30.6915L22.9703 34.1974Z" fill="#F3F1FC"/>
<path id="Vector_59" d="M22.8653 34.7223L35.2822 27.5064L35.3872 26.9814L22.9703 34.1973L22.8653 34.7223Z" fill="#E9E7FC"/>
<path id="Vector_60" d="M10.0875 25.7518L5.75757 24.2588L5.85857 24.9028L10.0855 26.3628L14.3605 29.8227L18.6404 31.3007L22.8653 34.7216L22.9703 34.1967L18.6424 30.6907L14.3625 29.2117L10.0875 25.7518Z" fill="#C8CCED"/>
<path id="Vector_61" d="M21.9454 18.8601L18.2264 17.5781L6.92755 24.145L10.6475 25.428L21.9454 18.8601Z" fill="#57B3FE"/>
<path id="Vector_62" d="M26.3153 22.2653L21.9453 18.8604L10.6465 25.4273L14.8034 28.9552L26.3153 22.2653Z" fill="#5094FF"/>
<path id="Vector_63" d="M30.5203 23.7886L26.3153 22.2666L14.8035 28.9555L19.2204 30.3555L30.5203 23.7886Z" fill="#57B3FE"/>
<path id="Vector_64" d="M34.5272 26.915L30.5202 23.7881L19.2204 30.355L23.0163 33.604L34.5272 26.915Z" fill="#5094FF"/>
<path id="Vector_65" d="M27.6263 28.334L27.6183 28.344L27.5033 28.297L27.5203 28.287L27.6263 28.334ZM30.1772 26.91L30.2112 26.945L30.1652 26.977C30.1438 26.9751 30.123 26.9686 30.1042 26.958C30.0803 26.9433 30.0615 26.9217 30.0502 26.896L30.1512 26.9L30.1772 26.91ZM29.2352 26.141L29.3372 26.205L29.4572 26.274L29.4012 26.247L29.3842 26.277L29.3072 26.232L29.2522 26.161L29.2352 26.141ZM27.5533 25.111C27.6173 25.148 27.6303 25.199 27.6433 25.246L27.5493 25.241C27.4946 25.2536 27.4376 25.2511 27.3843 25.234L27.2603 25.187C27.2494 25.1822 27.2387 25.1768 27.2283 25.171C27.1803 25.143 27.1843 25.122 27.2303 25.091L27.2773 25.079L27.3953 25.084L27.5533 25.111ZM27.0903 25.045L27.1503 25.094L27.1163 25.187C27.0578 25.145 27.0011 25.1007 26.9463 25.054L26.9363 25.015L27.0903 25.045ZM30.3422 26.78L30.3552 26.792L30.4312 26.842L30.4522 26.854L30.5342 26.925L30.4272 26.908L30.3932 26.898L30.3332 26.888L30.2532 26.851C30.1982 26.814 30.1082 26.782 30.1292 26.711C30.2062 26.736 30.2742 26.761 30.3422 26.78ZM30.5302 26.952L30.5722 26.996L30.6532 27.043L30.6832 27.05L30.7472 27.117C30.6419 27.1471 30.5304 27.1489 30.4242 27.122V27.156L30.3062 27.136L30.2672 27.095L30.2872 27.028L30.2972 27.014L30.2872 26.94L30.2622 26.905C30.3552 26.92 30.4452 26.932 30.5302 26.952ZM25.0573 24.233L25.0653 24.253H25.0313L24.9513 24.231L24.8863 24.165L25.0573 24.233ZM25.3833 24.361C25.3953 24.3678 25.407 24.3752 25.4183 24.383L25.4483 24.43L25.4143 24.46L25.2913 24.437C25.2835 24.4333 25.2758 24.4293 25.2683 24.425C25.2253 24.4 25.1913 24.37 25.1513 24.346C25.1043 24.315 25.0993 24.312 25.1373 24.27C25.2273 24.293 25.3153 24.322 25.3833 24.361ZM25.1243 24.422C25.1493 24.437 25.1643 24.459 25.1643 24.487C25.1043 24.457 25.0623 24.433 25.0113 24.407C25.0496 24.3989 25.0895 24.4042 25.1243 24.422Z" fill="#E3E7F0"/>
<path id="Vector_66" d="M24.7813 29.5768C24.8363 29.5548 24.8153 29.5328 24.7983 29.5088L24.7763 29.4718L24.7973 29.4448C24.84 29.4118 24.8915 29.392 24.9453 29.3878L24.9713 29.3538C24.9663 29.3018 24.9713 29.2498 24.9233 29.2038V29.1538C24.9273 29.1128 24.9953 29.0978 25.0463 29.0688L25.1433 29.0268C25.1983 29.0188 25.2623 29.0168 25.2873 28.9768L25.3253 28.9698L25.3803 28.9478C25.3973 28.8988 25.4523 28.8578 25.4173 28.8028L25.4293 28.6778C25.3743 28.5478 25.4243 28.4288 25.5293 28.3138L25.5803 28.2798C25.6273 28.3208 25.6573 28.3628 25.7083 28.4018C25.7303 28.4198 25.7483 28.4418 25.7733 28.4568C25.8056 28.4737 25.8427 28.4787 25.8783 28.4708L25.9253 28.4438L26.1543 28.4538L26.2343 28.4468L26.3363 28.4318L26.4763 28.3948L26.5913 28.3678L26.6543 28.3608L26.7143 28.3458C26.8033 28.3288 26.9043 28.3138 26.9983 28.2988H26.8783L26.9123 28.2498L26.8743 28.2718L26.7343 28.2748L26.5863 28.2918L26.4593 28.3158L26.3653 28.3358C26.2813 28.3258 26.2093 28.3528 26.1323 28.3578C26.0693 28.3658 26.0093 28.3948 25.9543 28.4178C25.9203 28.4308 25.8933 28.4328 25.8743 28.4218C25.8647 28.4162 25.857 28.4079 25.8523 28.3978L25.7753 28.2988L25.6853 28.1838L25.6683 28.1138L25.6173 28.0159V27.9638H25.8033V27.8499C25.8633 27.8639 25.8983 27.8619 25.9513 27.8269V27.8619C25.9473 27.8959 25.9473 27.9329 25.9973 27.9619L26.0873 27.9648L26.1253 27.9428L26.1223 27.9848L26.1773 27.9768L26.2613 27.9568C26.3157 27.9624 26.3704 27.9512 26.4183 27.9249L26.3333 27.8759C26.2649 27.8916 26.194 27.8926 26.1253 27.8789L25.9983 27.8249L25.9173 27.8029L25.8623 27.8049C25.8403 27.7979 25.8233 27.7869 25.8033 27.7789V26.8159H26.0903V26.7829H27.4153V26.1989L27.4403 26.1879L27.5413 26.1579L27.6943 26.1079L27.7023 26.0839L27.7113 26.0639L27.8003 26.0469L27.8603 26.0719L27.8903 26.1239L27.8603 26.1949L27.7883 26.2659L27.7423 26.2929L27.6063 26.2789L27.5983 26.3179L27.7253 26.3379C27.8153 26.35 27.9029 26.3756 27.9853 26.4139L28.0153 26.4509L27.9463 26.4559L27.9423 26.5069C27.9813 26.5009 28.0063 26.5049 28.0243 26.5149C28.0389 26.5243 28.0504 26.5379 28.0573 26.5539L28.1043 26.5859L28.1303 26.6099L28.1723 26.6499L28.2023 26.6079L28.2363 26.6329C28.2663 26.6839 28.3043 26.7309 28.3393 26.7849L28.3303 26.8149L28.3693 26.8659L28.4373 26.8709L28.4323 26.8289C28.4723 26.8139 28.5173 26.8239 28.5593 26.8479L28.5223 26.8959L28.4843 26.9079L28.4333 26.9479C28.4733 26.9559 28.4933 26.9609 28.5073 26.9689C28.5223 26.9779 28.5273 26.9909 28.5393 27.0189L28.5443 27.0449L28.5143 27.0729L28.4723 27.0769L28.5323 27.1119L28.5993 27.1319L28.6293 27.1589L28.5533 27.1889L28.6302 27.2029L28.7102 27.1949L28.8542 27.1709L28.8882 27.1659L28.8382 27.1409L28.6842 27.0919L28.5993 27.0329L28.5943 26.9819L28.6962 26.9619C28.7942 26.9839 28.9042 26.9939 28.9932 27.0359L29.1042 27.0659L29.1472 27.0749L29.2402 27.0999L29.2272 27.0679C29.2872 27.0829 29.3622 27.0939 29.4112 27.1229C29.4236 27.1297 29.4347 27.1384 29.4442 27.1489L29.4992 27.1809L29.5122 27.1979C29.5002 27.2499 29.5632 27.2769 29.6022 27.3179C29.6752 27.3989 29.6752 27.4879 29.6762 27.5769C29.6672 27.6549 29.6462 27.7369 29.6432 27.8119L29.6902 27.9228L29.6742 27.9918C29.6272 28.0138 29.5762 28.0338 29.5302 28.0608C29.508 28.0715 29.4836 28.0768 29.4589 28.0763C29.4342 28.0758 29.41 28.0695 29.3882 28.0578C29.3672 28.0459 29.3532 28.0288 29.3512 28.0118L29.3382 27.9399C29.2362 27.9599 29.1382 27.9819 29.0412 28.0038H29.0002L28.9792 27.9768L28.9742 27.9449L28.9612 27.8989L29.0112 27.8439L29.0292 27.7999L29.0492 27.7389L29.1092 27.7339L29.2192 27.6939L29.2272 27.6109C29.2232 27.5739 29.1762 27.5319 29.2472 27.5009C29.2662 27.4729 29.2532 27.4369 29.2142 27.4139C29.1918 27.4016 29.1668 27.3947 29.1412 27.3939L29.1032 27.4219L29.1252 27.5519L29.0612 27.6029L29.0152 27.6309L28.9432 27.6429H28.9092L28.8492 27.6279L28.7772 27.5619C28.7622 27.5459 28.7482 27.5309 28.7292 27.5199C28.7023 27.5054 28.6716 27.4994 28.6413 27.5029L28.7013 27.5759L28.7992 27.6429L28.7602 27.6749L28.7102 27.6649L28.6723 27.7169L28.7692 27.7339C28.7862 27.7679 28.7822 27.7809 28.7272 27.8079C28.6892 27.8249 28.6553 27.8389 28.6973 27.8689L28.7322 27.9129L28.8302 27.9698L28.8602 28.0209L28.9112 28.0458L28.9912 28.0828L29.1072 28.1049L29.1572 28.0458L29.2372 27.9988L29.2552 28.0489L29.2342 28.1049L29.1152 28.1488L29.0992 28.1838L29.1712 28.2348L29.1932 28.3068L29.1842 28.3608C29.1892 28.3878 29.2272 28.4098 29.1842 28.4388C29.2122 28.4698 29.2172 28.4938 29.2452 28.5098C29.2599 28.5176 29.2758 28.5227 29.2922 28.5248L29.2412 28.5498L29.3472 28.6108L29.2712 28.6258C29.1612 28.5918 29.0512 28.6108 28.9952 28.6778L29.0002 28.7148C29.0602 28.7488 29.1282 28.7878 29.2042 28.8178L29.2552 28.8818C29.1922 28.8951 29.1357 28.9297 29.0952 28.9798L29.0562 29.0018L28.9592 29.0338L28.9292 29.0168L28.8272 28.9868L28.7892 28.9748L28.7213 28.9058C28.6763 28.8808 28.6913 28.8478 28.6863 28.8178L28.7122 28.7828C28.7622 28.7588 28.7752 28.7168 28.7453 28.6848L28.7362 28.6308L28.7612 28.5868L28.7113 28.5518C28.6987 28.5487 28.6866 28.544 28.6752 28.5378C28.6402 28.5178 28.6353 28.4878 28.6213 28.4608L28.5693 28.4268L28.4973 28.4288L28.4383 28.4388L28.2343 28.4088C28.1453 28.3968 28.1073 28.4048 28.0563 28.4438L28.0433 28.4068L28.0773 28.3828L28.1073 28.3698L28.0943 28.3528L28.0393 28.3408L28.1193 28.3378L28.2723 28.3578L28.3273 28.3608L28.4423 28.3578L28.5223 28.3208L28.4423 28.3038L28.3783 28.2868H28.2423L28.1193 28.2648L28.0683 28.2748C28.0303 28.3108 27.9663 28.3048 27.9113 28.3108L27.8433 28.3158L27.7673 28.3458L27.7123 28.3238L27.7503 28.2768L27.7203 28.2698L27.8903 28.2348L27.8003 28.2028L27.8473 28.1958C27.8365 28.1807 27.823 28.1678 27.8073 28.1578C27.7893 28.1478 27.7683 28.1448 27.7373 28.1468L27.6853 28.0728L27.7783 28.0578L27.8503 27.9679L27.8533 27.8909L27.8363 27.8609L27.7173 27.8319L27.7303 27.8639L27.6583 27.8709L27.6283 27.8589L27.5863 27.7899L27.6883 27.8149C27.662 27.756 27.617 27.7075 27.5603 27.6769L27.5813 27.7139L27.5513 27.7799C27.4713 27.7679 27.3813 27.7599 27.3013 27.7489L27.2123 27.7609L27.2293 27.8149C27.2854 27.8598 27.3536 27.8873 27.4253 27.8939C27.453 27.8987 27.4797 27.9082 27.5043 27.9219C27.534 27.9386 27.5583 27.9636 27.5743 27.9939L27.6253 28.0388L27.6513 28.0828L27.6683 28.1028L27.7023 28.1618L27.6433 28.1958L27.5633 28.2078L27.4053 28.1708L27.3373 28.1218L27.2523 28.0678L27.2053 28.0408L27.1583 28.0478L27.0913 28.1078L27.0533 28.1588C27.0223 28.1938 27.0233 28.2198 27.0533 28.2378C27.0745 28.2487 27.0976 28.2555 27.1213 28.2578L27.2023 28.3038L27.2623 28.3478L27.3683 28.3848L27.5213 28.4288L27.6113 28.4758L27.5863 28.5258L27.5983 28.5718L27.7343 28.6118L27.7733 28.6138L27.9093 28.6378L28.0623 28.6778L28.1043 28.6578L28.1383 28.6238L28.1933 28.5968L28.2313 28.5988L28.2613 28.6108L28.3673 28.6778L28.3893 28.7048L28.4093 28.7218C28.4937 28.7585 28.564 28.8217 28.6093 28.9018C28.6202 28.9178 28.6353 28.9308 28.6523 28.9408C28.6823 28.9578 28.7182 28.9678 28.7552 28.9808L28.7852 29.0168L28.7812 29.1068C28.8032 29.1448 28.7812 29.1908 28.7313 29.2108L28.6852 29.2728L28.7232 29.3428L28.7283 29.3708C28.7113 29.4048 28.7362 29.4498 28.6863 29.4788L28.6363 29.5918L28.6023 29.6118L28.4793 29.6538C28.4243 29.6858 28.3773 29.7178 28.3783 29.7618L28.2803 29.7888L28.1833 29.8008L28.0933 29.7988L27.9233 29.8228L27.8733 29.8178L27.6823 29.8008C27.6509 29.8008 27.6201 29.7932 27.5923 29.7788C27.579 29.7713 27.5674 29.7611 27.5583 29.7488L27.4483 29.6708L27.3453 29.5968C27.3079 29.5548 27.2667 29.5163 27.2223 29.4818L27.1373 29.4668C27.0713 29.4698 27.0523 29.4738 27.0283 29.4598C27.0155 29.4516 27.0034 29.4422 26.9923 29.4318H26.8313C26.7973 29.4618 26.7713 29.4918 26.7423 29.5228L26.7083 29.5328L26.6193 29.5448C26.5279 29.5408 26.4365 29.5509 26.3483 29.5748L26.2723 29.6048L26.2003 29.6308L26.1073 29.7048C26.0943 29.7518 26.0573 29.7938 25.9893 29.8278C25.9213 29.8628 25.8153 29.8648 25.7303 29.8848L25.6243 29.9168C25.5563 29.9408 25.4803 29.9758 25.4043 29.9898C25.3283 30.0098 25.2473 30.0118 25.1623 30.0268L25.1073 30.0488L25.0313 30.0838L24.9213 30.0538C24.8913 30.0218 24.8693 29.9848 24.8273 29.9608C24.7303 29.9058 24.6913 29.8568 24.6983 29.7938L24.7103 29.6738L24.7813 29.5768Z" fill="#E3E7F0"/>
<path id="Vector_67" d="M27.0573 27.584C26.9813 27.618 26.8873 27.604 26.8073 27.616L26.7443 27.697L26.6973 27.699L26.6373 27.685L26.5143 27.623L26.5653 27.583L26.6713 27.552L26.7133 27.542L26.6493 27.49L26.7553 27.483L26.7603 27.525L26.7943 27.505L26.8363 27.495C26.8873 27.52 26.9383 27.49 26.9933 27.493L26.9553 27.466C26.9853 27.448 26.9793 27.438 26.9633 27.428L26.9253 27.409L26.9753 27.375L27.0013 27.37L27.0913 27.422L27.1463 27.522L27.0863 27.576L27.0573 27.584ZM24.3463 27.67L24.3593 27.682L24.2533 27.739L24.1893 27.741L24.1933 27.694C24.2406 27.6703 24.2941 27.6619 24.3463 27.67ZM28.2873 25.966C28.3223 26.006 28.3513 26.043 28.3983 26.075C28.478 26.1324 28.5439 26.2069 28.5913 26.293L28.5823 26.318L28.5653 26.358L28.5833 26.416L28.5403 26.411L28.5503 26.471L28.5373 26.497L28.5243 26.529L28.4823 26.559L28.3593 26.537C28.3033 26.529 28.2563 26.492 28.2093 26.47L28.2183 26.46L28.3033 26.465L28.4133 26.416L28.4253 26.306L28.4293 26.274C28.4082 26.2064 28.37 26.1454 28.3183 26.097C28.2839 26.0633 28.2512 26.0279 28.2203 25.991L28.1983 25.949L28.2873 25.966ZM24.7103 28.885L24.6883 28.935L24.7023 29.037C24.7363 29.081 24.7193 29.11 24.6473 29.127L24.5673 29.194L24.5033 29.25L24.4483 29.268L24.3343 29.265L24.2993 29.196C24.3423 29.147 24.3883 29.101 24.4303 29.051C24.4723 29.012 24.5063 28.973 24.5483 28.928L24.5313 28.924L24.5273 28.916L24.6803 28.872L24.7103 28.885ZM21.9043 20.9871C21.9813 21.0311 21.9113 21.1271 21.8723 21.2231C21.8243 21.3301 21.7423 21.4731 21.7833 21.5441C21.8533 21.6611 22.0163 21.7301 22.1413 21.8131L22.2463 21.8071C22.4043 21.7791 22.5573 21.7811 22.6633 21.8411C22.6893 21.8571 22.7133 21.8751 22.7323 21.8981C22.7583 21.9241 22.7883 21.9491 22.8143 21.9711C22.8153 22.0121 22.8093 22.0561 22.8043 22.1081C22.7479 22.484 22.6409 22.8507 22.4863 23.198L22.4083 23.306L22.3593 23.344C22.1493 23.494 21.9443 23.663 21.9233 23.87L21.9133 23.922C21.8533 24.216 21.6133 24.421 21.3154 24.607C21.1894 24.69 21.0364 24.756 20.8874 24.834L20.8634 24.794L21.2254 24.526L21.1854 24.495C21.0354 24.584 20.8824 24.67 20.7404 24.764C20.6544 24.8292 20.5542 24.8732 20.4481 24.8923C20.3419 24.9114 20.2327 24.9052 20.1294 24.874C20.0564 24.858 19.9854 24.835 19.9174 24.814C19.7314 24.758 19.5434 24.726 19.3194 24.797C19.2494 24.821 19.1874 24.82 19.1394 24.792C19.1157 24.7781 19.0955 24.759 19.0804 24.736C19.0671 24.7142 19.049 24.6957 19.0274 24.682C18.9714 24.65 18.9074 24.68 18.8524 24.769C18.8064 24.8383 18.7719 24.9147 18.7504 24.995C18.7004 25.155 18.5754 25.265 18.3604 25.302C18.1514 25.335 17.9304 25.397 17.7324 25.392C17.3444 25.387 17.0404 25.54 16.7504 25.745C16.5634 25.882 16.3704 26.012 16.1804 26.143C16.0084 26.262 15.7804 26.31 15.5864 26.398C15.3534 26.505 15.0524 26.513 14.7824 26.548C14.7174 26.558 14.6544 26.51 14.5884 26.49L14.5984 26.438C14.7634 26.438 14.9044 26.41 15.0374 26.351C15.1434 26.311 15.2374 26.251 15.3274 26.172C15.4904 26.036 15.7074 25.928 15.6094 25.722C15.5984 25.693 15.6704 25.625 15.7204 25.556C15.6304 25.471 15.6904 25.349 15.8104 25.239C15.9594 25.091 15.9944 24.955 15.9614 24.789C15.9414 24.709 16.0024 24.598 16.0544 24.507C16.1244 24.377 16.2404 24.253 16.3044 24.119C16.3944 23.959 16.4644 23.912 16.6564 23.957C16.8214 23.997 16.9784 24.059 17.1344 24.109C17.2801 24.1537 17.4368 24.1459 17.5774 24.087C17.6574 24.054 17.7554 24.062 17.8454 24.07C17.9774 24.081 18.1054 24.104 18.2384 24.122C18.3184 24.128 18.3924 24.127 18.4704 24.139C18.5924 24.156 18.6924 24.189 18.7754 24.237C18.9024 24.311 18.9884 24.418 19.0424 24.553C19.0604 24.593 19.1004 24.629 19.1494 24.657C19.1861 24.678 19.2255 24.6942 19.2664 24.705C19.2914 24.712 19.4004 24.603 19.4734 24.55L19.5244 24.522C19.5874 24.547 19.6584 24.573 19.7214 24.599C19.7884 24.509 19.8384 24.439 19.9144 24.327C19.9484 24.402 19.9574 24.439 19.9814 24.471C20.0314 24.54 20.0874 24.598 20.1444 24.664C20.2314 24.587 20.3314 24.513 20.4104 24.431C20.4464 24.386 20.4714 24.313 20.4524 24.276C20.3843 24.1411 20.3007 24.0146 20.2034 23.899C20.1877 23.8817 20.1695 23.8669 20.1494 23.855C20.0744 23.812 19.9824 23.823 19.8904 23.926L19.7854 23.982L19.7474 23.964C19.7774 23.92 19.8144 23.871 19.8444 23.819C19.8984 23.723 19.9804 23.624 20.0064 23.526C20.0444 23.376 20.0514 23.223 20.0594 23.074C20.0714 22.881 20.1254 22.669 19.9114 22.545C19.899 22.5378 19.8863 22.5311 19.8734 22.525C19.8374 22.505 19.8314 22.449 19.8254 22.421C19.9524 22.36 20.0654 22.304 20.1804 22.251C20.1534 22.234 20.1254 22.221 20.1024 22.209L20.0494 22.181C20.0273 22.17 20.0078 22.1543 19.9924 22.1351C19.9564 22.0851 19.9584 22.0091 19.9494 21.9451L19.9124 21.9571C19.8894 22.0241 19.8644 22.0861 19.8394 22.17C19.7694 22.1371 19.7134 22.112 19.6364 22.0711C19.9414 21.8791 20.2144 21.7011 20.5224 21.5061C20.5244 21.5661 20.5244 21.5881 20.5284 21.6111L20.5654 21.6951C20.6394 21.6571 20.6984 21.6251 20.7624 21.6001C20.8374 21.5701 20.9154 21.5731 20.9594 21.5981C20.9854 21.6141 20.9994 21.6381 20.9934 21.6681C20.9614 21.7631 20.9274 21.8681 20.8484 21.9421C20.6724 22.114 20.7474 22.271 20.7284 22.442C20.8384 22.269 20.9934 22.271 21.1714 22.289C21.3433 22.309 21.4263 22.258 21.4413 22.109C21.4513 21.9511 21.4283 21.7881 21.4203 21.6121C21.3294 21.6871 21.2854 21.7141 21.2404 21.6871C21.2018 21.6582 21.1693 21.6222 21.1444 21.5811L21.3774 21.5361C21.3744 21.4431 21.3684 21.3521 21.3653 21.2591C21.3663 21.2091 21.4063 21.1371 21.3733 21.1101C21.3273 21.0821 21.2294 21.0901 21.1864 21.1161C21.1292 21.1511 21.0874 21.2065 21.0694 21.2711C21.0464 21.3311 21.0694 21.3871 21.0794 21.4581C20.9494 21.4541 20.7894 21.4851 20.7134 21.4411C20.5414 21.3341 20.8264 21.2801 20.8494 21.1651C20.7924 21.1761 20.7574 21.1721 20.7374 21.1611C20.7064 21.1431 20.7124 21.1051 20.7274 21.0731C20.8574 21.0051 20.9474 20.9441 21.0504 20.9091C21.1504 20.8721 21.2684 20.8741 21.3793 20.8441C21.4943 20.8141 21.5943 20.8081 21.6693 20.8521C21.6903 20.8641 21.7103 20.8811 21.7273 20.9021C21.8023 20.9971 21.7363 21.0931 21.6323 21.1901C21.5743 21.2451 21.5343 21.3091 21.4813 21.3621L21.5293 21.3901C21.6193 21.3301 21.7353 21.2751 21.7973 21.2051C21.8573 21.1351 21.8613 21.0421 21.8823 20.9771C21.89 20.9797 21.8973 20.9831 21.9043 20.9871ZM17.6524 22.239C17.6105 22.2393 17.569 22.2478 17.5304 22.264L17.5004 22.278L17.5274 22.262C17.5664 22.2437 17.6094 22.2358 17.6524 22.239Z" fill="#E3E7F0"/>
<path id="Vector_68" d="M18.3224 23.0207C18.1524 23.2327 17.8464 23.4207 17.3344 23.3577C17.2136 23.3468 17.0958 23.3132 16.9874 23.2587C16.9376 23.2308 16.8948 23.1918 16.8624 23.1447C16.8234 23.0828 16.7748 23.0274 16.7184 22.9807C16.6922 22.9553 16.663 22.9331 16.6314 22.9147C16.5094 22.8447 16.3654 22.8477 16.1794 22.9117C16.1007 22.9393 16.0178 22.9528 15.9344 22.9517C15.7314 22.9447 15.5714 22.9817 15.4594 23.0817C15.3114 23.2117 15.0944 23.2747 14.8385 23.3147L14.3205 23.4017C14.1705 23.4257 14.0555 23.4177 13.9795 23.3737C13.9303 23.3453 13.8943 23.2985 13.8795 23.2437C13.8215 23.0567 13.9075 22.8827 14.0645 22.7177C14.1389 22.639 14.1998 22.5484 14.2445 22.4497C14.2865 22.3447 14.3605 22.2657 14.5425 22.2337C14.7735 22.1887 14.8895 22.0917 14.9195 21.9607C14.9355 21.8947 14.9275 21.8287 14.9645 21.7687C15.0155 21.6797 15.0824 21.5947 15.1614 21.5137C15.1984 21.4707 15.2444 21.4677 15.2824 21.4897C15.2974 21.4987 15.3104 21.5097 15.3224 21.5257C15.3504 21.5637 15.3604 21.6037 15.4024 21.6337C15.4484 21.6607 15.5144 21.6707 15.5684 21.6887L15.6054 21.6647C15.4114 21.5047 15.3864 21.3287 15.4604 21.1497C15.4764 21.1077 15.5624 21.0477 15.6304 21.0397C15.7005 21.0387 15.7697 21.0545 15.8324 21.0857C15.8434 21.0927 15.8524 21.0997 15.8564 21.1057C15.8734 21.1347 15.8964 21.1557 15.9214 21.1697C16.0184 21.2257 16.1684 21.2057 16.2934 21.2197C16.3104 21.2227 16.3354 21.1977 16.3734 21.1727C16.2102 21.1772 16.0489 21.1364 15.9074 21.0547C15.869 21.0324 15.8317 21.0084 15.7954 20.9827C15.7515 20.9502 15.7057 20.9202 15.6584 20.8927C15.4284 20.7587 15.1494 20.6897 14.7745 20.7427C14.6095 20.7717 14.4175 20.7557 14.2385 20.7597C14.2635 20.7017 14.3095 20.6747 14.3425 20.6417C14.4375 20.5317 14.5375 20.4227 14.6155 20.3117C14.6295 20.2867 14.5845 20.2327 14.5315 20.2017C14.5203 20.1956 14.5086 20.1906 14.4965 20.1867C14.3943 20.1544 14.2877 20.1382 14.1805 20.1387C15.0025 19.8137 15.9724 19.6137 17.0054 19.5768C17.6824 19.5527 18.36 19.5959 19.0284 19.7057C19.0064 19.7677 18.9664 19.8257 18.8574 19.8647C18.9014 19.9197 18.9414 19.9747 18.9884 20.0347L19.1524 20.0517L19.1644 20.0797C19.0474 20.1227 18.9354 20.1607 18.8214 20.1997C18.8844 20.2337 18.9554 20.2737 19.0014 20.3017C18.9854 20.3237 18.9554 20.3447 18.9694 20.3557C19.0424 20.4297 18.9994 20.5437 19.1074 20.6057C19.1441 20.6254 19.1841 20.6379 19.2254 20.6427C19.2004 20.6657 19.1604 20.6887 19.1304 20.7147L19.1424 20.7407C19.2088 20.7193 19.2789 20.712 19.3483 20.7193C19.4177 20.7265 19.4848 20.7481 19.5454 20.7827C19.5826 20.8047 19.618 20.8294 19.6514 20.8567C19.7474 20.9337 19.8294 21.0187 19.9014 21.0987C19.9254 21.1287 19.9144 21.1757 19.8984 21.2067C19.8564 21.2687 19.7914 21.3257 19.7524 21.3837C19.7124 21.4417 19.7044 21.5037 19.6574 21.5577C19.5744 21.6477 19.4524 21.6637 19.2964 21.6057C19.0144 21.7637 19.1184 21.9557 19.1474 22.1527C19.0874 22.1557 19.0284 22.1517 18.9724 22.1597C18.9124 22.1677 18.8604 22.1837 18.8024 22.1957C18.8284 22.2297 18.8454 22.2637 18.8804 22.2917C19.0164 22.3887 19.0204 22.4137 18.8554 22.4907C18.7884 22.5207 18.6924 22.5307 18.6084 22.5527L18.5104 22.5877C18.4834 22.7067 18.2904 22.7997 18.3474 22.9297C18.3594 22.9577 18.3374 22.9927 18.3224 23.0207ZM18.4984 22.5027C18.5054 22.4662 18.5114 22.4295 18.5164 22.3927C18.5264 22.3487 18.5324 22.3037 18.5414 22.2627L18.5554 22.1447L18.5594 22.1227L18.5644 22.0927C18.5684 22.0527 18.5644 22.0147 18.5374 21.9867L18.5074 21.9637C18.4549 21.939 18.3974 21.927 18.3394 21.9287C18.2294 21.9267 18.1224 21.8947 17.9934 21.8747C17.9964 21.9217 17.9914 21.9517 17.9894 21.9847C17.9802 21.9809 17.9711 21.9766 17.9624 21.9717C17.9294 21.9527 17.9144 21.9317 17.9144 21.9097L17.9254 21.8757L17.9674 21.8427L18.0004 21.8327L18.0124 21.8307L18.0474 21.8247L18.0874 21.8227H18.1574C18.2274 21.8287 18.2984 21.8347 18.3854 21.8387C18.2174 21.7767 18.1074 21.7617 17.7504 21.7767L17.6314 21.7807V21.7757C17.6564 21.7527 17.6844 21.7307 17.7084 21.7097C17.7354 21.6847 17.7614 21.6597 17.7964 21.6307L17.7914 21.6287L17.7474 21.6267L17.7124 21.6287H17.6374L17.5624 21.6337L17.4954 21.6297H17.4814L17.4464 21.6197L17.4344 21.6157C17.4163 21.6105 17.3988 21.6031 17.3824 21.5937C17.3587 21.5799 17.3369 21.5631 17.3174 21.5437L17.2874 21.5117C17.2769 21.5037 17.2659 21.4963 17.2544 21.4897C17.2321 21.4769 17.2071 21.4694 17.1814 21.4677C17.1488 21.4651 17.1161 21.471 17.0864 21.4847L17.0654 21.4977C17.0114 21.5197 16.9854 21.5477 16.9844 21.5797C16.9844 21.6067 17.0044 21.6347 17.0384 21.6597C17.0704 21.6807 17.1014 21.7017 17.1364 21.7217C17.2064 21.7617 17.2794 21.7987 17.3544 21.8337C17.3764 21.8447 17.4014 21.8537 17.4214 21.8647C17.4298 21.8694 17.4372 21.8755 17.4434 21.8827C17.4594 21.8977 17.4614 21.9177 17.4314 21.9427L17.4174 21.9807L17.4784 22.0007L17.6044 22.0457C17.7054 22.0857 17.8084 22.1197 17.8844 22.1077C18.0074 22.0887 18.0714 22.0967 18.1214 22.1247C18.1451 22.1394 18.1663 22.1576 18.1844 22.1787C18.2544 22.2517 18.3064 22.3327 18.3744 22.4067C18.3984 22.4367 18.4374 22.4597 18.4984 22.5027ZM19.0604 21.1757L18.9504 21.0907C18.9504 21.1367 18.9364 21.1507 18.9484 21.1617C19.0324 21.2457 18.9914 21.3247 18.9144 21.4067C18.8574 21.4617 18.8624 21.5167 18.9454 21.5647C18.971 21.5788 18.9977 21.5905 19.0254 21.5997C19.0294 21.4597 19.1354 21.3677 19.3254 21.2957C19.4084 21.2657 19.4594 21.2097 19.5204 21.1577C19.5274 21.1457 19.4944 21.1137 19.4754 21.0917C19.4424 21.1017 19.4074 21.1117 19.3854 21.1257C19.3634 21.1407 19.3614 21.1637 19.3404 21.1787C19.2894 21.2057 19.2304 21.2307 19.1734 21.2537C19.1334 21.2287 19.0984 21.2027 19.0604 21.1757ZM15.6614 21.6567C15.9284 21.7427 16.4764 21.7227 16.6854 21.6207C16.5567 21.6086 16.4277 21.6012 16.2984 21.5987L16.1724 21.6017L16.0464 21.6037L15.9184 21.6157C15.8311 21.6242 15.7443 21.6375 15.6584 21.6557L15.6614 21.6567ZM19.3574 20.8887L19.1004 20.7487C19.0634 20.8087 19.0584 20.8467 19.0954 20.8687C19.1334 20.8907 19.2174 20.8947 19.3574 20.8887Z" fill="#E3E7F0"/>
<path id="Vector_69" d="M17.3934 22.3867C17.3964 22.4207 17.4214 22.4597 17.4674 22.4897C17.5074 22.5197 17.5474 22.5457 17.5934 22.5727C17.5464 22.5457 17.5074 22.5197 17.4634 22.4907C17.4214 22.4597 17.3934 22.4217 17.3934 22.3867ZM18.4584 22.4537C18.4124 22.4907 18.3784 22.5247 18.3424 22.5567C18.3754 22.5227 18.4124 22.4907 18.4484 22.4527L18.4514 22.4507L18.4584 22.4537ZM17.9624 22.7577C17.9687 22.7613 17.9747 22.7653 17.9804 22.7697C17.9755 22.7672 17.9708 22.7642 17.9664 22.7607C17.9404 22.7467 17.9074 22.7347 17.8784 22.7207C17.9084 22.7327 17.9384 22.7437 17.9624 22.7577ZM15.9954 22.4347C15.8824 22.4467 15.7724 22.4647 15.6594 22.4877L15.6564 22.4857C15.7694 22.4627 15.8794 22.4457 15.9954 22.4347Z" fill="#E3E7F0"/>
<path id="Vector_70" d="M17.7504 14.2927C17.3204 14.0427 16.9304 14.0227 16.6504 14.1827L16.1104 14.5027C15.8404 14.6627 15.6604 15.0027 15.6604 15.4827C15.6604 16.4527 17.0804 20.2726 17.1904 20.5626L17.7304 20.2526C17.8104 20.1426 19.2804 17.9227 19.2804 16.9427C19.2804 15.9727 18.6004 14.7827 17.7504 14.2927ZM18.0204 17.1127C17.9214 17.1044 17.8257 17.0736 17.7404 17.0227C17.2604 16.7427 16.8604 16.0627 16.8604 15.5027C16.8604 15.3927 16.8904 15.3027 16.9204 15.2227C17.0104 15.2427 17.1004 15.2627 17.2004 15.3227C17.6904 15.6027 18.0804 16.2827 18.0804 16.8327C18.0804 16.9427 18.0504 17.0327 18.0204 17.1127Z" fill="#E93565"/>
<path id="Vector_71" d="M16.3234 15.8223C16.3194 16.3753 16.7154 17.0593 17.1994 17.3363C17.4414 17.4743 17.6644 17.4903 17.8224 17.3973L18.3634 17.0823C18.2064 17.1743 17.9834 17.1593 17.7414 17.0213C17.2574 16.7443 16.8614 16.0603 16.8654 15.5063C16.8654 15.2343 16.9654 15.0383 17.1224 14.9463L16.5804 15.2603C16.4234 15.3533 16.3234 15.5453 16.3234 15.8223Z" fill="#E93565"/>
<path id="Vector_72" d="M18.7404 17.259C18.7364 18.235 17.2644 20.453 17.1874 20.569L17.7294 20.253C17.8064 20.138 19.2794 17.92 19.2824 16.943C19.2824 15.9681 18.5984 14.7801 17.7494 14.2921C17.3224 14.0461 16.9344 14.0221 16.6534 14.1841L16.1114 14.4991C16.3914 14.3391 16.7804 14.3611 17.2074 14.6071C18.0564 15.0951 18.7404 16.283 18.7404 17.259Z" fill="#DF3260"/>
<path id="Vector_73" d="M18.7394 17.2591C18.7364 18.2341 17.2664 20.452 17.1894 20.569C17.1124 20.364 15.6614 16.4591 15.6644 15.4841C15.6674 14.5081 16.3594 14.1171 17.2054 14.6061C18.0554 15.0961 18.7424 16.2831 18.7394 17.2591ZM17.1984 17.3351C17.6814 17.6141 18.0784 17.3911 18.0784 16.8351C18.0804 16.2831 17.6874 15.5981 17.2034 15.3191C16.7234 15.0411 16.3234 15.2691 16.3224 15.8211C16.3204 16.3771 16.7174 17.0571 17.1984 17.3351Z" fill="#F45170"/>
<path id="Vector_74" d="M24.5653 23.8005C24.6253 23.8355 24.5713 23.9125 24.5393 23.9905C24.5023 24.0745 24.4383 24.1865 24.4733 24.2415C24.5273 24.3335 24.6553 24.3865 24.7503 24.4535L24.8343 24.4465C24.9583 24.4235 25.0763 24.4255 25.1593 24.4735C25.1793 24.4845 25.1973 24.4985 25.2123 24.5165C25.2323 24.5365 25.2573 24.5565 25.2773 24.5735C25.2773 24.6055 25.2733 24.6405 25.2693 24.6815C25.2266 24.9793 25.1439 25.2699 25.0233 25.5455L24.9643 25.6285L24.9263 25.6585C24.7623 25.7795 24.6023 25.9145 24.5883 26.0765L24.5783 26.1195C24.5343 26.3495 24.3483 26.5125 24.1173 26.6595C24.0173 26.7295 23.8983 26.7815 23.7843 26.8415L23.7653 26.8115L24.0453 26.5985L24.0153 26.5725C23.8993 26.6435 23.7793 26.7125 23.6683 26.7895C23.602 26.8408 23.5244 26.8755 23.442 26.8908C23.3595 26.9061 23.2746 26.9016 23.1943 26.8775C23.1381 26.865 23.0824 26.8503 23.0273 26.8335C22.8785 26.7774 22.7151 26.7728 22.5633 26.8205C22.5073 26.8405 22.4583 26.8405 22.4203 26.8185C22.4022 26.8078 22.3868 26.7931 22.3753 26.7755C22.3649 26.7581 22.3505 26.7433 22.3333 26.7325C22.2903 26.7075 22.2413 26.7315 22.1983 26.8025C22.1627 26.8577 22.1357 26.918 22.1183 26.9815C22.0813 27.1085 21.9853 27.1945 21.8183 27.2235C21.6533 27.2535 21.4824 27.3005 21.3294 27.2985C21.0264 27.2965 20.7904 27.4185 20.5654 27.5814C20.4204 27.6904 20.2694 27.7954 20.1214 27.9004C19.9874 27.9954 19.8104 28.0334 19.6594 28.1044C19.4784 28.1894 19.2434 28.1984 19.0334 28.2264C18.9834 28.2344 18.9354 28.1954 18.8824 28.1824L18.8924 28.1394C19.0095 28.1415 19.1256 28.1176 19.2324 28.0694C19.316 28.0359 19.3926 27.9871 19.4584 27.9254C19.5834 27.8194 19.7544 27.7314 19.6744 27.5705C19.6684 27.5465 19.7224 27.4944 19.7634 27.4374C19.6934 27.3715 19.7374 27.2765 19.8314 27.1875C19.9454 27.0715 19.9744 26.9615 19.9484 26.8315C19.9304 26.7695 19.9784 26.6815 20.0184 26.6105C20.0724 26.5065 20.1624 26.4085 20.2144 26.3005C20.2814 26.1765 20.3364 26.1385 20.4874 26.1705C20.6164 26.2025 20.7374 26.2505 20.8604 26.2885C20.9737 26.3235 21.0958 26.3164 21.2044 26.2685C21.2713 26.2472 21.3424 26.2431 21.4114 26.2565C21.5163 26.2625 21.6143 26.2815 21.7193 26.2935C21.7793 26.2995 21.8393 26.2965 21.9003 26.3055C21.9943 26.3195 22.0723 26.3455 22.1373 26.3825C22.2373 26.4395 22.3033 26.5245 22.3453 26.6325C22.3603 26.6625 22.3933 26.6905 22.4313 26.7125C22.4593 26.7285 22.4903 26.7415 22.5203 26.7495C22.5413 26.7535 22.6233 26.6695 22.6803 26.6265L22.7203 26.6045C22.7713 26.6225 22.8243 26.6445 22.8753 26.6625C22.9253 26.5925 22.9653 26.5365 23.0253 26.4465C23.0503 26.5065 23.0593 26.5355 23.0773 26.5605C23.1173 26.6145 23.1603 26.6605 23.2053 26.7115C23.2713 26.6515 23.3483 26.5935 23.4103 26.5285C23.4403 26.4905 23.4573 26.4345 23.4423 26.4055C23.3886 26.2996 23.3239 26.1997 23.2493 26.1075C23.2375 26.0951 23.224 26.0843 23.2093 26.0755C23.1493 26.0405 23.0763 26.0485 23.0053 26.1305L22.9243 26.1755L22.8923 26.1635C22.9163 26.1275 22.9443 26.0895 22.9673 26.0485C23.0093 25.9715 23.0743 25.8915 23.0953 25.8145C23.1233 25.6955 23.1293 25.5745 23.1323 25.4595C23.1433 25.3045 23.1843 25.1375 23.0153 25.0395C23.0065 25.0345 22.9975 25.0298 22.9883 25.0255C22.9583 25.0085 22.9553 24.9655 22.9483 24.9455L23.2273 24.8065C23.2073 24.7955 23.1853 24.7865 23.1653 24.7745L23.1183 24.7505C23.1029 24.7427 23.0898 24.7309 23.0803 24.7165C23.0513 24.6765 23.0533 24.6175 23.0433 24.5685L23.0153 24.5785C22.9993 24.6295 22.9783 24.6805 22.9593 24.7475C22.9053 24.7195 22.8623 24.6995 22.8033 24.6675C23.0393 24.5145 23.2523 24.3725 23.4883 24.2195L23.4953 24.3005C23.5061 24.3221 23.5161 24.3441 23.5253 24.3665C23.5823 24.3365 23.6253 24.3125 23.6753 24.2925C23.7353 24.2675 23.7973 24.2685 23.8313 24.2885C23.8513 24.3005 23.8633 24.3185 23.8583 24.3435C23.8333 24.4185 23.8083 24.5015 23.7453 24.5605C23.6093 24.6965 23.6683 24.8205 23.6533 24.9555C23.7393 24.8185 23.8583 24.8205 23.9983 24.8325C24.1303 24.8485 24.1973 24.8065 24.2083 24.6895C24.2153 24.5645 24.1973 24.4355 24.1883 24.2985C24.1183 24.3585 24.0843 24.3785 24.0483 24.3585C24.0188 24.3355 23.9938 24.3074 23.9743 24.2755L24.1543 24.2385L24.1473 24.0185C24.1453 23.9805 24.1773 23.9235 24.1503 23.9025C24.1133 23.8795 24.0383 23.8875 24.0073 23.9065C23.962 23.9353 23.9289 23.9798 23.9143 24.0315C23.8983 24.0765 23.9143 24.1225 23.9223 24.1795C23.8203 24.1765 23.6953 24.2005 23.6353 24.1665C23.5033 24.0835 23.7263 24.0375 23.7453 23.9465C23.6993 23.9565 23.6723 23.9535 23.6573 23.9445C23.6323 23.9305 23.6373 23.9005 23.6473 23.8765C23.7493 23.8205 23.8193 23.7725 23.9003 23.7445C23.9783 23.7145 24.0703 23.7155 24.1543 23.6925C24.2443 23.6665 24.3243 23.6625 24.3823 23.6955C24.3997 23.7059 24.415 23.7194 24.4273 23.7355C24.4873 23.8095 24.4333 23.8875 24.3523 23.9655C24.3093 24.0055 24.2783 24.0575 24.2353 24.1015L24.2753 24.1215C24.3453 24.0725 24.4353 24.0295 24.4813 23.9755C24.5273 23.9195 24.5313 23.8455 24.5483 23.7935C24.5542 23.7953 24.5599 23.7976 24.5653 23.8005Z" fill="#E3E7F0"/>
<path id="Vector_75" d="M26.7903 22.9127C26.3603 22.6727 25.9703 22.6427 25.6903 22.8127L25.1603 23.1227C24.8803 23.2827 24.7103 23.6227 24.7003 24.1127C24.7003 25.0827 26.1503 28.9726 26.2303 29.1926L26.7703 28.8726C26.8503 28.7626 28.3203 26.5426 28.3203 25.5727C28.3203 24.5927 27.6403 23.4027 26.7903 22.9127ZM27.0603 25.7427C26.9619 25.7258 26.8671 25.6919 26.7803 25.6427C26.3003 25.3727 25.9003 24.6827 25.9103 24.1327C25.9103 24.0227 25.9303 23.9327 25.9603 23.8427C26.0503 23.8627 26.1403 23.8827 26.2403 23.9427C26.7303 24.2227 27.1203 24.9027 27.1203 25.4627C27.1203 25.5727 27.0903 25.6627 27.0603 25.7427Z" fill="#BF7D5A"/>
<path id="Vector_76" d="M25.3643 24.4453C25.3603 24.9993 25.7563 25.6833 26.2403 25.9603C26.4823 26.0983 26.7053 26.1143 26.8633 26.0213L27.4053 25.7063C27.2473 25.7983 27.0253 25.7833 26.7823 25.6453C26.2983 25.3683 25.9023 24.6843 25.9063 24.1303C25.9063 23.8583 26.0063 23.6613 26.1633 23.5703L25.6213 23.8843C25.4643 23.9773 25.3643 24.1683 25.3643 24.4453Z" fill="#BF7D5A"/>
<path id="Vector_77" d="M27.7812 25.8831C27.7772 26.859 26.3053 29.077 26.2293 29.192L26.7713 28.877C26.8473 28.762 28.3192 26.544 28.3232 25.5671C28.3232 24.5921 27.6393 23.4041 26.7903 22.9161C26.3633 22.6701 25.9753 22.6461 25.6943 22.8081L25.1523 23.1231C25.4333 22.9621 25.8223 22.9851 26.2483 23.2311C27.0983 23.7191 27.7812 24.9071 27.7812 25.8831Z" fill="#AA6256"/>
<path id="Vector_78" d="M27.7803 25.8835C27.7773 26.8584 26.3073 29.0764 26.2303 29.1934C26.1533 28.9884 24.7033 25.0835 24.7053 24.1085C24.7083 23.1325 25.4003 22.7415 26.2463 23.2295C27.0963 23.7195 27.7833 24.9075 27.7803 25.8835ZM26.2393 25.9595C26.7223 26.2385 27.1193 26.0155 27.1203 25.4595C27.1223 24.9075 26.7283 24.2225 26.2443 23.9435C25.7643 23.6655 25.3643 23.8935 25.3643 24.4455C25.3623 25.0015 25.7583 25.6815 26.2393 25.9595Z" fill="#DBA660"/>
</g>
</svg>
