<svg width="20" height="20" viewBox="0 0 20 20" fill="none" xmlns="http://www.w3.org/2000/svg">
<path d="M10.0486 10.28C13.3313 10.2609 15.0986 8.48818 15.1595 5.12454C15.1031 1.88818 13.2404 0.0209091 10.0377 0C6.80039 0.02 4.92676 1.97273 4.92676 5.12454C4.92676 8.37091 6.8013 10.2618 10.0486 10.2809V10.28ZM10.0377 1.81727C12.2531 1.83182 13.3022 2.89273 13.3413 5.12273C13.2986 7.44909 12.3113 8.44727 10.0486 8.46091C7.78039 8.44727 6.79221 7.45363 6.74494 5.13909C6.79039 2.85636 7.80948 1.83091 10.0377 1.81727Z" fill="#FF7F00"/>
<path d="M10.0374 11.5088C5.19379 11.5397 2.58742 14.1552 2.50015 19.0742C2.49106 19.5761 2.89106 19.9906 3.39288 19.9997C3.86197 19.9824 4.30833 19.6088 4.31833 19.107C4.38742 15.1879 6.20924 13.3515 10.0374 13.3279C13.8265 13.3524 15.7011 15.2424 15.7683 19.1061C15.7774 19.6024 16.1829 19.9997 16.6774 19.9997H16.6938C17.1956 19.9906 17.5956 19.577 17.5874 19.0751C17.5038 14.227 14.8274 11.5406 10.0383 11.5097L10.0374 11.5088Z" fill="#FF7F00"/>
</svg>
