<svg width="32" height="32" viewBox="0 0 32 32" fill="none" xmlns="http://www.w3.org/2000/svg">
<path d="M16 16.0001C19.6819 16.0001 22.6666 13.0153 22.6666 9.33341C22.6666 5.65152 19.6819 2.66675 16 2.66675C12.3181 2.66675 9.33331 5.65152 9.33331 9.33341C9.33331 13.0153 12.3181 16.0001 16 16.0001Z" stroke="#1F8C61" stroke-width="1.5" stroke-linecap="round" stroke-linejoin="round"/>
<path d="M4.54663 29.3333C4.54663 24.1733 9.68 20 16 20C17.28 20 18.52 20.1733 19.68 20.4933" stroke="#1F8C61" stroke-width="1.5" stroke-linecap="round" stroke-linejoin="round"/>
<path d="M29.3334 24.0001C29.3334 24.4267 29.28 24.8401 29.1734 25.2401C29.0534 25.7734 28.84 26.2934 28.56 26.7467C27.64 28.2934 25.9467 29.3334 24 29.3334C22.6267 29.3334 21.3867 28.8134 20.4534 27.96C20.0534 27.6134 19.7067 27.2001 19.44 26.7467C18.9467 25.9467 18.6667 25.0001 18.6667 24.0001C18.6667 22.5601 19.24 21.2401 20.1734 20.2801C21.1467 19.2801 22.5067 18.6667 24 18.6667C25.5734 18.6667 27 19.3468 27.96 20.4401C28.8133 21.3868 29.3334 22.6401 29.3334 24.0001Z" stroke="#1F8C61" stroke-width="1.5" stroke-miterlimit="10" stroke-linecap="round" stroke-linejoin="round"/>
<path d="M25.9867 23.9734H22.0134" stroke="#1F8C61" stroke-width="1.5" stroke-miterlimit="10" stroke-linecap="round" stroke-linejoin="round"/>
</svg>
