<svg width="20" height="22" viewBox="0 0 20 22" fill="none" xmlns="http://www.w3.org/2000/svg">
<path d="M5.61328 18.2955C6.27188 19.7773 7.99168 20.75 9.61328 20.75C11.2349 20.75 12.9547 19.7773 13.6133 18.2955M15.6133 9.94024V6.75C15.6133 3.43629 12.927 0.75 9.61328 0.75C6.29957 0.75 3.61328 3.43629 3.61328 6.75V9.94024C3.61328 10.7739 3.25943 11.5685 2.63975 12.1262L1.53182 13.1233C0.20932 14.3136 0.63125 16.4838 2.30337 17.0919L2.51437 17.1686C7.10009 18.8361 12.1265 18.8361 16.7122 17.1686L16.9232 17.0919C18.5953 16.4838 19.0172 14.3136 17.6947 13.1233L16.5868 12.1262C15.9671 11.5685 15.6133 10.7739 15.6133 9.94024Z" stroke="#666568" stroke-width="1.5" stroke-linecap="round" stroke-linejoin="round"/>
</svg>
