<svg width="32" height="32" viewBox="0 0 32 32" fill="none" xmlns="http://www.w3.org/2000/svg">
<g id="Group">
<path id="Vector" d="M26.1351 16.3986C26.1351 17.3253 25.4885 18.4453 24.6884 18.9053L9.26171 27.812L3.98168 30.8653C3.55501 31.112 3.17501 31.1187 2.90834 30.9387L1.34167 30.032C1.08167 29.8787 0.921667 29.5587 0.915 29.0986L0.908333 24.6853L0.875 14.6652C0.875 13.7386 1.52167 12.6186 2.32834 12.1586L23.0351 0.198511C23.4351 -0.0348232 23.8018 -0.0548233 24.0618 0.0985107L25.6085 0.998515C25.6285 1.01185 25.6485 1.01852 25.6618 1.03185C25.9285 1.17852 26.0885 1.50518 26.0885 1.96519L26.1218 11.9919L26.1351 16.3986Z" fill="#497BFE"/>
<path id="Vector_2" d="M2.51092 25.62L0.90625 24.6867L24.515 11.0566L26.1197 11.9886L2.51092 25.62Z" fill="#E3E7F0"/>
<path id="Vector_3" d="M26.135 16.3989C26.135 17.3255 25.4883 18.4456 24.6883 18.9056L3.98155 30.8656C3.55488 31.1123 3.17488 31.1189 2.90821 30.9389L1.34154 30.0323C1.08154 29.8789 0.921537 29.5589 0.91487 29.0989L0.908203 24.6856L2.50821 25.6189L26.1217 11.9922L26.135 16.3989Z" fill="#E9E7FC"/>
<path id="Vector_4" d="M2.94662 30.9635L1.34261 30.0315C1.08194 29.8802 0.91994 29.5582 0.91794 29.0989L0.905273 24.6875L2.51061 25.6202L2.52261 30.0322C2.52395 30.4902 2.68595 30.8122 2.94662 30.9635Z" fill="#E9E7FC"/>
<path id="Vector_5" d="M26.1195 11.9883L26.1329 16.401C26.1349 17.323 25.4915 18.443 24.6889 18.9063L3.98075 30.8624C3.17808 31.3257 2.52541 30.9537 2.52274 30.0317L2.51074 25.619L26.1195 11.9883Z" fill="#F3F1FC"/>
<path id="Vector_6" d="M25.6677 1.03036C25.4044 0.87703 25.0411 0.898364 24.6384 1.13037L3.93097 13.0878C3.1283 13.5511 2.48097 14.6744 2.48297 15.5958L2.51097 25.6198L0.905625 24.6865L0.876958 14.6624C0.874958 13.7398 1.52363 12.6178 2.3263 12.1544L23.0344 0.198361C23.4364 -0.0336406 23.8011 -0.0549741 24.0637 0.0970266L25.6677 1.03036Z" fill="#497BFE"/>
<path id="Vector_7" d="M24.6392 1.13195C25.4412 0.669278 26.0892 1.04395 26.0919 1.96528L26.1199 11.9893L2.5111 25.6207L2.48243 15.5967C2.47976 14.6753 3.12843 13.552 3.93044 13.0887L24.6392 1.13195Z" fill="#57B3FE"/>
<path id="Vector_8" d="M9.25948 10.0137V27.8104L5.39746 30.0404V12.243L9.25948 10.0137Z" fill="#F45170"/>
<path id="Vector_9" d="M7.09348 19.9662C7.09348 19.9662 5.4508 20.8682 3.32812 18.9528C3.32812 18.9528 3.49479 15.7968 7.32948 14.6861C7.32948 14.6861 9.00949 13.5875 11.3382 15.9382C11.3382 15.9382 9.82482 18.9528 8.50815 19.2468L7.09348 19.9662Z" fill="#CC104A"/>
<path id="Vector_10" d="M4.4707 15.2651C4.4707 15.2651 8.69339 13.5531 9.37539 12.5371C9.37539 12.5371 11.4941 12.5664 10.5074 15.2651L8.43206 18.3631L6.40071 19.5311L4.4707 15.2651Z" fill="#E93565"/>
<path id="Vector_11" d="M6.40092 19.5297C6.40092 19.5297 3.16424 16.1923 4.47091 15.2637C4.47091 15.2637 6.34292 15.3503 6.40092 19.5304V19.5297Z" fill="#DF3260"/>
<path id="Vector_12" d="M7.08258 19.6461C7.08258 19.6461 4.42723 20.7061 4.2959 22.2001C4.2959 22.2001 4.40657 24.0541 5.57324 23.9848L9.51992 21.7214C9.51992 21.7214 10.6813 21.1414 10.8839 20.4441C10.8839 20.4441 9.40392 18.9641 8.01058 19.3267L7.08258 19.6461Z" fill="#CC104A"/>
<path id="Vector_13" d="M5.84473 25.5066C6.7974 25.2133 7.79474 24.5179 8.81341 23.6226C10.4267 23.4173 11.0828 22.7693 10.2467 21.4313L8.81341 19.5312L6.56073 20.7606L5.84473 25.5066Z" fill="#E93565"/>
<path id="Vector_14" d="M6.56045 20.7598C6.56045 20.7598 3.66577 24.9718 5.55978 25.4731C7.45379 25.9745 6.56045 20.7598 6.56045 20.7598Z" fill="#DF3260"/>
<path id="Vector_15" d="M9.20867 18.9028L9.21867 18.9428C9.26956 19.1358 9.25145 19.3404 9.16745 19.5214C9.08346 19.7025 8.93887 19.8484 8.75866 19.9341L7.06532 20.7362C6.8622 20.8287 6.63097 20.8382 6.42092 20.7627C6.21088 20.6872 6.03863 20.5326 5.9409 20.3319C5.84318 20.1313 5.8277 19.9004 5.89776 19.6884C5.96783 19.4765 6.1179 19.3003 6.31599 19.1975L7.99799 18.3561C8.11177 18.2992 8.23682 18.2683 8.36403 18.2658C8.49124 18.2633 8.61741 18.2891 8.73338 18.3415C8.84934 18.3938 8.95217 18.4714 9.03439 18.5685C9.1166 18.6656 9.17614 18.7798 9.20867 18.9028Z" fill="#F45170"/>
<path id="Vector_16" d="M18.0021 9.77017C18.0021 9.83284 17.9821 9.89884 17.9434 9.96151C17.9109 10.021 17.863 10.0707 17.8048 10.1055C17.7501 10.1368 17.7034 10.1428 17.6661 10.1215C17.6314 10.1002 17.6101 10.0588 17.6101 9.99684L17.6021 7.22549C17.6021 7.16283 17.6221 7.09883 17.6588 7.03416C17.6897 6.97367 17.7368 6.92292 17.7948 6.88749C17.8494 6.85683 17.8968 6.85083 17.9334 6.87216C17.9728 6.89549 17.9934 6.93883 17.9934 6.99883L18.0021 9.77017ZM16.9368 10.0802C16.9368 10.1468 16.9214 10.2148 16.8941 10.2835C16.8648 10.3515 16.8274 10.4142 16.7788 10.4688C16.4881 10.8042 16.1841 11.0655 15.8781 11.2422C15.6068 11.3988 15.3648 11.4688 15.1548 11.4515C15.0548 11.4462 14.9576 11.4166 14.8716 11.3652C14.7857 11.3139 14.7135 11.2424 14.6614 11.1568C14.5441 10.9775 14.4854 10.7282 14.4854 10.4162C14.4834 10.0962 14.5441 9.77417 14.6628 9.45617C14.7841 9.13817 14.9494 8.84817 15.1581 8.59017C15.3668 8.33483 15.6008 8.13017 15.8568 7.9835C16.0614 7.86483 16.2428 7.79083 16.3968 7.7595C16.5488 7.72816 16.6988 7.72283 16.8414 7.74216C16.8628 7.74216 16.8821 7.7555 16.9001 7.7775C16.9186 7.805 16.928 7.83768 16.9268 7.87083C16.9261 7.9318 16.9096 7.99154 16.8788 8.04417C16.8475 8.10097 16.8015 8.14821 16.7454 8.18083C16.7185 8.1975 16.6877 8.20692 16.6561 8.20817C16.5341 8.19446 16.4107 8.20236 16.2914 8.2315C16.1708 8.25883 16.0381 8.3135 15.8981 8.3955C15.7028 8.50883 15.5268 8.65883 15.3714 8.84217C15.2138 9.027 15.0901 9.23826 15.0061 9.46617C14.9188 9.69617 14.8734 9.93951 14.8734 10.1895C14.8754 10.4195 14.9188 10.6028 15.0021 10.7362C15.0404 10.799 15.0932 10.8518 15.1561 10.89C15.2189 10.9283 15.29 10.951 15.3634 10.9562C15.5214 10.9675 15.7101 10.9115 15.9234 10.7882C16.1775 10.6376 16.4032 10.4435 16.5901 10.2148L16.5881 9.43284L15.9601 9.79551C15.9114 9.82484 15.8681 9.82884 15.8354 9.80751C15.8001 9.78751 15.7821 9.74884 15.7821 9.69417C15.7841 9.63233 15.8018 9.57202 15.8334 9.51884C15.8634 9.46501 15.9062 9.41943 15.9581 9.38617L16.7281 8.9415C16.7848 8.91017 16.8334 8.90617 16.8748 8.92817C16.9134 8.9495 16.9328 8.99617 16.9328 9.06017L16.9368 10.0802ZM20.6155 5.49549C20.6141 5.55978 20.5952 5.62248 20.5608 5.67682C20.5303 5.73228 20.4851 5.7782 20.4301 5.80949L19.1074 6.57416L19.1094 7.5275L20.2975 6.84283C20.3481 6.81216 20.3928 6.80816 20.4281 6.82749C20.4628 6.84883 20.4828 6.89016 20.4828 6.94816C20.4814 7.01184 20.463 7.07399 20.4294 7.12816C20.3974 7.18371 20.352 7.23044 20.2975 7.26416L19.1114 7.94883L19.1134 9.12884C19.1136 9.19614 19.0939 9.262 19.0568 9.31817C19.0243 9.37823 18.9764 9.42861 18.9181 9.46417C18.8641 9.49551 18.8188 9.49951 18.7821 9.47751C18.7428 9.45617 18.7254 9.4155 18.7254 9.35284L18.7174 6.60482C18.7186 6.53673 18.7375 6.47012 18.7721 6.41149C18.8045 6.35254 18.8516 6.30294 18.9088 6.26749L20.4301 5.39015C20.4808 5.36082 20.5254 5.35482 20.5608 5.37682C20.5974 5.39615 20.6155 5.43482 20.6155 5.49549ZM23.0761 4.07348C23.0761 4.13728 23.0578 4.19974 23.0235 4.25348C22.9919 4.30899 22.947 4.35574 22.8928 4.38948L22.1168 4.83615L22.1248 7.39083C22.1248 7.4515 22.1048 7.5175 22.0661 7.58216C22.033 7.64125 21.9853 7.69084 21.9275 7.72616C21.8728 7.7575 21.8261 7.7635 21.7895 7.74216C21.7541 7.71883 21.7348 7.6775 21.7348 7.6155L21.7268 5.06215L20.9468 5.51282C20.8961 5.54215 20.8508 5.54615 20.8161 5.52882C20.7808 5.50882 20.7628 5.46815 20.7628 5.40949C20.7628 5.34949 20.7808 5.29082 20.8161 5.22815C20.8457 5.17171 20.8902 5.12445 20.9448 5.09148L22.8915 3.96815C22.9415 3.93881 22.9868 3.93348 23.0235 3.95281C23.0588 3.97415 23.0761 4.01281 23.0761 4.07348ZM24.5388 8.56683C24.4907 8.4798 24.4228 8.4053 24.3405 8.34937C24.2583 8.29343 24.1641 8.25762 24.0655 8.24483C23.8561 8.2135 23.5988 8.28417 23.3008 8.4555L22.5141 8.91017C22.456 8.94601 22.4084 8.99662 22.3761 9.05684C22.3425 9.11564 22.3237 9.18178 22.3215 9.2495L22.3295 11.9742C22.3295 12.0362 22.3495 12.0795 22.3841 12.1009C22.4228 12.1222 22.4681 12.1162 22.5228 12.0849L23.3081 11.6308C23.605 11.4609 23.865 11.2333 24.0728 10.9615C24.2815 10.6868 24.4395 10.3942 24.5448 10.0922C24.6501 9.79217 24.7008 9.50284 24.7008 9.2375C24.6988 8.97417 24.6461 8.74617 24.5388 8.56683ZM24.1855 10.1448C24.1001 10.3668 23.9755 10.5775 23.8175 10.7668C23.6595 10.9575 23.4741 11.1135 23.2641 11.2368L22.7195 11.5502L22.7115 9.21817L23.2581 8.90484C23.4681 8.7815 23.6535 8.72484 23.8115 8.73284C23.8846 8.73292 23.9566 8.75089 24.0212 8.78517C24.0858 8.81944 24.1411 8.86899 24.1821 8.9295C24.2701 9.05217 24.3128 9.23217 24.3148 9.46217C24.3148 9.69017 24.2715 9.92017 24.1855 10.1448ZM18.9868 13.8302L17.9801 11.7029C17.9716 11.6828 17.9592 11.6646 17.9435 11.6495C17.9278 11.6343 17.9092 11.6226 17.8888 11.6149C17.8474 11.6015 17.7968 11.6108 17.7388 11.6462L17.6994 11.6675C17.6395 11.7034 17.5883 11.7521 17.5494 11.8102C17.5095 11.8703 17.4785 11.9359 17.4574 12.0049L16.4688 15.2835C16.4567 15.3188 16.4495 15.3556 16.4474 15.3929C16.4474 15.4549 16.4674 15.4982 16.5021 15.5195C16.5374 15.5429 16.5861 15.5369 16.6408 15.5035C16.6841 15.4783 16.7212 15.4437 16.7494 15.4022C16.7825 15.3593 16.8084 15.3114 16.8261 15.2602L17.0734 14.4255L18.3781 13.6722L18.6301 14.2189C18.6376 14.2334 18.6484 14.246 18.6616 14.2557C18.6748 14.2654 18.69 14.272 18.7061 14.2749C18.7436 14.2797 18.7815 14.2707 18.8128 14.2495C18.8726 14.2152 18.9214 14.1646 18.9534 14.1035C18.9872 14.047 19.006 13.9827 19.0081 13.9169C19.0072 13.8868 18.9999 13.8573 18.9868 13.8302ZM17.2234 13.9262L17.7208 12.2489L18.2261 13.3469L17.2234 13.9262ZM16.0808 15.2442C16.1141 15.2622 16.1294 15.2989 16.1314 15.3515C16.1314 15.4355 16.0981 15.5195 16.0361 15.5935C15.9065 15.7538 15.7662 15.905 15.6161 16.0462C15.4761 16.1749 15.3141 16.2915 15.1368 16.3949C14.8754 16.5455 14.6354 16.6175 14.4268 16.6055C14.3273 16.6027 14.23 16.5757 14.1433 16.5268C14.0567 16.4779 13.9833 16.4086 13.9294 16.3249C13.8094 16.1475 13.7481 15.8902 13.7481 15.5622C13.7463 15.231 13.806 14.9023 13.9241 14.5929C14.0428 14.2769 14.2108 13.9902 14.4194 13.7369C14.6281 13.4875 14.8661 13.2822 15.1274 13.1302C15.3068 13.0269 15.4688 12.9589 15.6074 12.9255C15.7474 12.8922 15.8894 12.8809 16.0281 12.8922C16.0908 12.8942 16.1234 12.9389 16.1234 13.0255C16.1216 13.0826 16.1048 13.1383 16.0748 13.1869C16.0464 13.2408 16.0031 13.2855 15.9501 13.3155C15.9269 13.331 15.8999 13.3397 15.8721 13.3409C15.7588 13.3369 15.6454 13.3509 15.5388 13.3782C15.4314 13.4035 15.3068 13.4582 15.1641 13.5402C14.9441 13.6669 14.7548 13.8302 14.6008 14.0215C14.45 14.2103 14.3326 14.4233 14.2534 14.6515C14.176 14.8715 14.137 15.1031 14.1381 15.3362C14.1381 15.5662 14.1794 15.7515 14.2554 15.8882C14.3354 16.0209 14.4521 16.0989 14.6088 16.1122C14.7608 16.1282 14.9514 16.0715 15.1701 15.9449C15.3101 15.8629 15.4394 15.7715 15.5448 15.6755C15.663 15.5661 15.7744 15.4495 15.8781 15.3262C15.8998 15.3001 15.9263 15.2784 15.9561 15.2622C16.0068 15.2329 16.0494 15.2269 16.0808 15.2442ZM21.2515 11.3848C21.3948 11.2385 21.5102 11.0672 21.5921 10.8795C21.6821 10.6768 21.7248 10.4822 21.7248 10.3008C21.7248 10.0215 21.6335 9.84751 21.4501 9.78017C21.2701 9.71551 20.9995 9.78551 20.6421 9.99018L19.7314 10.5168C19.673 10.5517 19.6258 10.6026 19.5954 10.6635C19.5602 10.722 19.5407 10.7886 19.5388 10.8568L19.5461 13.6042C19.5461 13.6642 19.5661 13.7075 19.6028 13.7289C19.6401 13.7509 19.6868 13.7449 19.7394 13.7135C19.7986 13.6791 19.847 13.6291 19.8794 13.5689C19.9153 13.5124 19.9349 13.4471 19.9361 13.3802L19.9348 12.3582L20.7261 11.8995C20.8995 11.8002 21.0328 11.7729 21.1161 11.8195C21.2021 11.8662 21.2588 11.9449 21.2801 12.0555C21.3035 12.1669 21.3175 12.2975 21.3175 12.4475V12.5822C21.3175 12.6469 21.3348 12.6895 21.3721 12.7109C21.4068 12.7309 21.4555 12.7242 21.5141 12.6895C21.5717 12.6554 21.6189 12.6063 21.6508 12.5475C21.6862 12.4898 21.7057 12.4238 21.7075 12.3562V12.1495C21.708 11.9553 21.6716 11.7628 21.6001 11.5822C21.5355 11.4222 21.4188 11.3555 21.2508 11.3848H21.2515ZM21.1455 11.0808C21.0188 11.2542 20.8435 11.4062 20.6228 11.5328L19.9328 11.9309L19.9288 10.8288L20.5995 10.4428C20.8688 10.2868 21.0615 10.2228 21.1708 10.2535C21.2801 10.2808 21.3348 10.3822 21.3348 10.5562C21.3368 10.7375 21.2748 10.9068 21.1455 11.0808Z" fill="white"/>
<path id="Vector_17" d="M18.0976 20.5851C18.0996 20.9205 17.9809 21.2511 17.7529 21.5698C17.518 21.8908 17.217 22.1576 16.8703 22.3525C16.5256 22.5525 16.1929 22.6711 15.8876 22.7038C15.8456 22.7085 15.8136 22.6991 15.7903 22.6758C15.7669 22.6505 15.7529 22.6132 15.7529 22.5572C15.7553 22.4837 15.7752 22.412 15.8109 22.3478C15.8439 22.2821 15.8947 22.2271 15.9576 22.1891C15.9874 22.1708 16.0208 22.1589 16.0556 22.1545C16.2763 22.1311 16.5236 22.0405 16.7889 21.8865C17.0289 21.7465 17.2336 21.5865 17.3943 21.4025C17.5543 21.2205 17.6316 21.0345 17.6316 20.8271C17.6296 20.3938 17.2896 20.3738 16.6183 20.7598L16.5449 20.8018C16.4863 20.8365 16.4349 20.8418 16.3929 20.8151C16.3489 20.7925 16.3256 20.7458 16.3256 20.6785C16.3256 20.6105 16.3489 20.5411 16.3909 20.4665C16.4256 20.4 16.478 20.3444 16.5423 20.3058L16.5703 20.2898C16.8769 20.1125 17.1123 19.9218 17.2729 19.7231C17.4336 19.5231 17.5103 19.3278 17.5103 19.1205C17.5083 18.9551 17.4503 18.8625 17.3316 18.8365C17.2103 18.8085 17.0289 18.8625 16.7916 18.9998C16.5238 19.1566 16.2824 19.3545 16.0763 19.5865C16.0506 19.617 16.0199 19.6429 15.9856 19.6631C15.9323 19.6931 15.8876 19.7005 15.8503 19.6798C15.8109 19.6611 15.7923 19.6191 15.7923 19.5531C15.7928 19.4559 15.8294 19.3623 15.8949 19.2905C16.1949 18.9345 16.5069 18.6598 16.8283 18.4758C17.1869 18.2691 17.4709 18.1891 17.6709 18.2451C17.8709 18.3011 17.9736 18.4898 17.9736 18.8018C17.9763 19.0551 17.9203 19.2858 17.8109 19.4951C17.716 19.6759 17.5979 19.8436 17.4596 19.9938C17.5999 19.9547 17.7497 19.968 17.8809 20.0311C18.0229 20.1011 18.0976 20.2871 18.0976 20.5851ZM19.8843 16.7118C19.4676 16.9518 19.1456 17.3158 18.9283 17.7938C18.7103 18.2685 18.6016 18.8105 18.6036 19.4011C18.6049 19.9945 18.7169 20.4071 18.9363 20.6311C19.1556 20.8565 19.4789 20.8478 19.8949 20.6078C20.3063 20.3698 20.627 20.0071 20.8483 19.5278C21.065 19.0511 21.175 18.5098 21.1736 17.9171C21.1723 17.3265 21.059 16.9125 20.8396 16.6905C20.617 16.4658 20.2963 16.4738 19.8843 16.7118ZM19.2856 20.0798C19.1436 19.9051 19.0703 19.5865 19.0689 19.1331C19.0676 18.6818 19.1396 18.2825 19.2796 17.9451C19.4189 17.6118 19.6223 17.3651 19.885 17.2138C20.147 17.0625 20.351 17.0738 20.4916 17.2451C20.633 17.4198 20.707 17.7351 20.7083 18.1858C20.7096 18.6405 20.6376 19.0425 20.4976 19.3805C20.3583 19.7138 20.155 19.9598 19.8936 20.1105C19.6303 20.2625 19.4269 20.2518 19.2856 20.0798ZM23.7696 14.9984C23.547 14.7744 23.2256 14.7824 22.8136 15.0198C22.3976 15.2598 22.0756 15.6238 21.8576 16.1025C21.6403 16.5765 21.5316 17.1185 21.5336 17.7091C21.535 18.3025 21.647 18.7158 21.8656 18.9391C22.0856 19.1651 22.4083 19.1565 22.825 18.9158C23.2363 18.6785 23.557 18.3158 23.7776 17.8358C23.995 17.3591 24.105 16.8185 24.1036 16.2258C24.1016 15.6344 23.989 15.2204 23.7696 14.9984ZM22.2163 18.3885C22.0736 18.2138 21.9996 17.8951 21.999 17.4411C21.9976 16.9898 22.069 16.5911 22.2096 16.2531C22.349 15.9198 22.5523 15.6738 22.815 15.5218C23.077 15.3711 23.281 15.3818 23.4216 15.5538C23.563 15.7285 23.637 16.0431 23.6383 16.4938C23.6396 16.9485 23.5676 17.3511 23.427 17.6891C23.2883 18.0225 23.085 18.2678 22.8236 18.4191C22.5603 18.5711 22.357 18.5605 22.2163 18.3885Z" fill="#4C5C75"/>
<path id="Vector_18" d="M17.475 27.9849C17.4817 27.8649 17.4883 27.7449 17.4883 27.6915V26.6515C17.4883 26.5382 17.475 26.4249 17.4483 26.3182C17.4217 26.2315 17.3883 26.1449 17.3483 26.0582C17.2283 25.8049 17.0216 25.5582 16.7416 25.3382C16.635 25.2582 16.515 25.1782 16.3816 25.0982C16.2483 25.0248 16.1083 24.9515 15.955 24.8915C15.9483 24.8848 15.9416 24.8848 15.935 24.8848C15.7283 24.7982 15.5216 24.7248 15.3016 24.6648C15.2816 24.6582 15.255 24.6582 15.2283 24.6515C15.1683 24.6382 15.1016 24.6248 15.0416 24.6048C14.8283 24.5582 14.6216 24.5248 14.4016 24.5048C14.3616 24.4982 14.3216 24.4915 14.275 24.4848C14.115 24.4715 13.9483 24.4648 13.7883 24.4648H13.755C13.6616 24.4648 13.5616 24.4715 13.4683 24.4715C13.3683 24.4782 13.275 24.4782 13.175 24.4848C12.915 24.5048 12.6616 24.5515 12.415 24.6048C12.3483 24.6182 12.2816 24.6315 12.2216 24.6515C12.2016 24.6582 12.1883 24.6582 12.175 24.6648C11.995 24.7048 11.835 24.7715 11.6683 24.8315C11.615 24.8515 11.5483 24.8648 11.495 24.8915C11.4416 24.9115 11.3883 24.9448 11.335 24.9648C11.2483 25.0115 11.1616 25.0515 11.075 25.0982C10.955 25.1715 10.8483 25.2448 10.7416 25.3248C10.735 25.3315 10.7283 25.3382 10.715 25.3382V25.3448C10.695 25.3582 10.675 25.3782 10.655 25.3982C10.3216 25.6782 10.1083 25.9915 10.0283 26.3115C10.0083 26.3849 10.0083 26.4515 10.0016 26.5249C9.99495 26.5649 9.98828 26.6115 9.98828 26.6515V27.9182C9.98828 27.9982 10.0016 28.0782 10.0216 28.1582C10.0149 28.1915 10.0083 28.2249 10.0083 28.2649V29.5249C10.0083 29.6382 10.0216 29.7449 10.0549 29.8582C10.1416 30.2049 10.3749 30.5382 10.755 30.8315C10.8616 30.9182 10.9816 30.9982 11.115 31.0715C11.2483 31.1515 11.3883 31.2182 11.535 31.2849C12.0416 31.4982 12.6216 31.6315 13.2216 31.6849C13.5883 31.7182 13.955 31.7182 14.3216 31.6849C14.9216 31.6382 15.495 31.4982 16.0016 31.2849C16.1483 31.2182 16.2883 31.1515 16.415 31.0715C16.5483 30.9982 16.6683 30.9182 16.775 30.8315C17.155 30.5382 17.3817 30.2049 17.4683 29.8582C17.495 29.7515 17.5083 29.3982 17.5083 29.2982V28.2582C17.5083 28.1715 17.495 28.0782 17.475 27.9849ZM17.4817 28.4782V28.4315C17.4883 28.4249 17.4883 28.4115 17.4883 28.4049C17.4817 28.4315 17.4817 28.4582 17.4817 28.4782Z" fill="#F9A83D"/>
<path id="Vector_19" d="M17.5075 28.254L17.5102 29.298C17.5102 29.4013 17.4942 29.756 17.4695 29.8593C17.1215 31.2813 14.7875 31.8267 13.2215 31.6873C12.0081 31.582 10.3575 31.0287 10.0535 29.8573C10.0244 29.75 10.0094 29.6393 10.0088 29.528L10.0108 28.25C10.0108 28.3533 10.0261 28.4587 10.0535 28.562C10.2275 29.234 10.9021 29.7187 11.5368 29.986C12.8735 30.5633 14.7141 30.55 15.9988 29.986C16.6315 29.726 17.3075 29.2233 17.4695 28.562C17.4942 28.46 17.5075 28.3573 17.5075 28.254Z" fill="#FFD06C"/>
<path id="Vector_20" d="M17.4657 27.9233C17.5204 28.1353 17.5217 28.35 17.469 28.5614C17.3064 29.226 16.6344 29.7207 15.9997 29.986C14.6804 30.5594 12.847 30.5527 11.537 29.986C10.8983 29.716 10.229 29.2327 10.0523 28.56C9.9972 28.3513 9.9956 28.1321 10.0477 27.9227C10.329 26.7873 11.933 26.2007 13.1963 26.0933C13.5624 26.0626 13.9303 26.0626 14.2964 26.0933C15.545 26.2013 17.1697 26.78 17.4657 27.9233Z" fill="#F9A83D"/>
<path id="Vector_21" d="M17.468 28.5629C17.3126 29.2209 16.6213 29.7296 15.9993 29.9883C15.7805 30.0823 15.5547 30.159 15.324 30.2176C14.8206 30.351 14.2706 30.4163 13.7806 30.4163C12.9219 30.4163 12.1913 30.2576 11.5373 29.9883C10.8926 29.7083 10.2346 29.2383 10.0506 28.5629C9.99485 28.3539 9.99485 28.134 10.0506 27.9249C10.2499 27.0649 11.3393 26.4729 12.1946 26.2703C12.5166 26.1769 12.8513 26.1216 13.1979 26.0903C13.3899 26.0783 13.5886 26.0723 13.7806 26.0723C13.9479 26.0723 14.1273 26.0783 14.2953 26.0969C14.3259 26.0969 14.3506 26.1029 14.3819 26.1089C14.7039 26.1343 15.02 26.1896 15.324 26.2763C16.184 26.4856 17.2373 27.0623 17.468 27.9249C17.5236 28.134 17.5236 28.3539 17.468 28.5629Z" fill="#F9A83D"/>
<path id="Vector_22" d="M13.7804 30.1055C12.9671 30.1055 12.2804 29.9582 11.6551 29.7015C11.1064 29.4615 10.5044 29.0535 10.3484 28.4815C10.3066 28.3249 10.3071 28.16 10.3497 28.0035C10.521 27.2655 11.5277 26.7455 12.2657 26.5715C12.5793 26.4827 12.9009 26.4247 13.2257 26.3982C13.4037 26.3869 13.5951 26.3809 13.7804 26.3809C13.9364 26.3809 14.1044 26.3869 14.2611 26.4042L14.3577 26.4175C14.6611 26.4409 14.9577 26.4935 15.2377 26.5735C15.9851 26.7569 16.9697 27.2629 17.1684 28.0042C17.2104 28.1629 17.2104 28.3242 17.1684 28.4829C17.0364 29.0395 16.4097 29.4809 15.8797 29.7015C15.6931 29.7842 15.4871 29.8535 15.2451 29.9169C14.7667 30.0409 14.2746 30.1042 13.7804 30.1055Z" fill="#FFD475"/>
<path id="Vector_23" d="M15.354 28.5795C15.383 28.5354 15.402 28.4856 15.4099 28.4335C15.4177 28.3813 15.4141 28.3281 15.3993 28.2775C15.3653 28.1801 15.286 28.0948 15.166 28.0261C15.019 27.9371 14.8528 27.8845 14.6813 27.8728C14.5187 27.8661 14.3559 27.8795 14.1967 27.9128C14.06 27.9461 13.906 27.9928 13.7293 28.0548L13.0566 27.6675C13.2106 27.5875 13.376 27.5248 13.5467 27.4795L13.6267 27.4508C13.684 27.4168 13.7067 27.3768 13.7007 27.3368C13.6953 27.2968 13.6727 27.2628 13.6273 27.2341C13.5336 27.1869 13.4256 27.1767 13.3247 27.2055C13.1051 27.2637 12.8927 27.346 12.6913 27.4508L12.5153 27.3481C12.4676 27.3243 12.4147 27.3126 12.3613 27.3141C12.3099 27.3126 12.2589 27.3243 12.2133 27.3481C12.1733 27.3708 12.1506 27.4048 12.1506 27.4335C12.1506 27.4681 12.1733 27.4961 12.2186 27.5248L12.3953 27.6275C12.27 27.7188 12.1846 27.8101 12.1446 27.9068C12.1209 27.9522 12.1071 28.0021 12.1041 28.0533C12.1011 28.1044 12.109 28.1556 12.1273 28.2035C12.1733 28.3001 12.2586 28.3801 12.3726 28.4481C12.5153 28.5281 12.6633 28.5735 12.8346 28.5848C12.988 28.5968 13.154 28.5848 13.308 28.5448C13.4387 28.5221 13.598 28.4768 13.7633 28.4195L14.4133 28.7962C14.2307 28.8815 14.0313 28.9562 13.8147 29.0015C13.7807 29.0103 13.7482 29.0238 13.718 29.0415C13.6667 29.0695 13.6327 29.1095 13.638 29.1495C13.638 29.1895 13.6667 29.2235 13.718 29.2522C13.758 29.2748 13.8033 29.2922 13.8607 29.2975L14.014 29.2862C14.2873 29.2235 14.55 29.1328 14.7893 29.0182L14.966 29.1208C15.012 29.1435 15.0687 29.1608 15.12 29.1608C15.1718 29.1579 15.2224 29.1442 15.2687 29.1208C15.3087 29.0982 15.3313 29.0642 15.3313 29.0355C15.3313 29.0015 15.308 28.9728 15.2687 28.9502L15.086 28.8415C15.1951 28.777 15.2871 28.6871 15.354 28.5795ZM12.7486 28.2088C12.6686 28.1575 12.6286 28.1061 12.6466 28.0381C12.658 27.9755 12.7033 27.9121 12.7773 27.8495L13.3587 28.1861C13.228 28.2261 13.108 28.2488 13.0166 28.2601C12.9242 28.2709 12.8306 28.253 12.7486 28.2088ZM14.704 28.6248L14.14 28.2941C14.282 28.2488 14.4133 28.2141 14.51 28.2035C14.6127 28.1861 14.6867 28.1975 14.75 28.2368C14.8693 28.3055 14.9893 28.4195 14.704 28.6248Z" fill="#F9A83D"/>
<path id="Vector_24" d="M17.486 26.6446L17.488 27.6893C17.488 27.7926 17.4727 28.1466 17.448 28.25C17.286 28.91 16.6013 29.4186 15.9773 29.6746C14.2773 30.4113 11.9146 30.1546 10.734 29.2226C10.3546 28.932 10.1206 28.5946 10.0313 28.248C10.0025 28.1408 9.98772 28.0303 9.9873 27.9193L9.9893 26.6406C9.9893 26.744 10.0046 26.8493 10.0313 26.9526C10.3273 28.0913 11.9513 28.6773 13.1993 28.7813C13.5662 28.8139 13.9352 28.8139 14.302 28.7813C15.5047 28.6806 17.164 28.1133 17.4473 26.9526C17.4727 26.8513 17.486 26.748 17.486 26.6446Z" fill="#FFD06C"/>
<path id="Vector_25" d="M16.3802 25.0996C16.8535 25.3729 17.3069 25.7869 17.4442 26.3163C17.4989 26.5283 17.5002 26.7429 17.4482 26.9543C17.1622 28.1196 15.4929 28.6823 14.3015 28.7829C13.9351 28.8143 13.5666 28.8143 13.2002 28.7829C11.9615 28.6769 10.3322 28.1009 10.0308 26.9529C9.97572 26.7443 9.97411 26.5251 10.0262 26.3156C10.3135 25.1563 11.9495 24.5903 13.1749 24.4856C13.5409 24.4551 13.9089 24.4553 14.2749 24.4863C14.9995 24.5489 15.7622 24.7436 16.3802 25.0996Z" fill="#F9A83D"/>
<path id="Vector_26" d="M17.4455 26.9542C17.2368 27.8376 16.1762 28.3789 15.3015 28.6089C14.9982 28.6889 14.6815 28.7449 14.3595 28.7756C14.3408 28.7756 14.3222 28.7822 14.3042 28.7822C14.1242 28.7949 13.9442 28.8069 13.7588 28.8069C13.5722 28.8069 13.3868 28.8009 13.2008 28.7822C12.853 28.7546 12.5086 28.6943 12.1721 28.6022C11.3081 28.3922 10.2628 27.8162 10.0281 26.9542C9.97239 26.7452 9.97239 26.5252 10.0281 26.3162C10.2281 25.4562 11.3108 24.8656 12.1721 24.6616C12.4941 24.5682 12.8288 24.5129 13.1761 24.4816C13.3681 24.4696 13.5662 24.4629 13.7588 24.4629C13.9255 24.4629 14.1055 24.4696 14.2728 24.4876C14.3042 24.4876 14.3288 24.4942 14.3595 24.5002C14.6822 24.5249 14.9982 24.5802 15.3015 24.6676C15.6048 24.7409 16.0415 24.9009 16.3802 25.1009C16.8535 25.3716 17.3042 25.7876 17.4455 26.3162C17.5011 26.5253 17.5011 26.7452 17.4455 26.9542Z" fill="#F9A83D"/>
<path id="Vector_27" d="M13.7592 28.4981C13.5832 28.4981 13.4071 28.4921 13.2318 28.4748C12.9023 28.4491 12.5759 28.3921 12.2571 28.3048C11.5145 28.1248 10.5305 27.6181 10.3271 26.8734C10.2853 26.7171 10.2855 26.5524 10.3278 26.3961C10.4998 25.6541 11.5038 25.1388 12.2438 24.9634C12.5574 24.8749 12.879 24.817 13.2038 24.7908C13.3818 24.7794 13.5738 24.7734 13.7592 24.7734C13.9152 24.7734 14.0832 24.7794 14.2392 24.7961L14.3358 24.8094C14.6392 24.8328 14.9358 24.8854 15.2165 24.9661C15.4578 25.0254 15.6765 25.1101 15.8412 25.1774C16.3778 25.4008 16.9965 25.8348 17.1465 26.3968C17.1885 26.5548 17.1885 26.7168 17.1465 26.8754C16.9705 27.6208 15.9798 28.1115 15.2232 28.3088C14.9303 28.3864 14.6315 28.44 14.3298 28.4688C14.1098 28.4855 13.9378 28.4981 13.7592 28.4981Z" fill="#FFD475"/>
<path id="Vector_28" d="M15.3317 26.9721C15.3609 26.928 15.3801 26.8781 15.3881 26.8258C15.396 26.7735 15.3925 26.7202 15.3777 26.6694C15.343 26.5727 15.2637 26.4874 15.1444 26.4187C14.9972 26.3295 14.8307 26.277 14.659 26.2654C14.4967 26.2587 14.3341 26.2721 14.175 26.3054C14.0377 26.3387 13.8837 26.3847 13.7077 26.4474L13.0344 26.0601C13.189 25.9801 13.3544 25.9174 13.525 25.8714L13.605 25.8434C13.6617 25.8087 13.685 25.7687 13.6784 25.7294C13.673 25.6894 13.6504 25.6547 13.605 25.6267C13.5113 25.5795 13.4033 25.5693 13.3024 25.5981C13.0831 25.6563 12.8709 25.7386 12.6697 25.8434L12.493 25.7407C12.4455 25.7167 12.3929 25.7048 12.3397 25.7061C12.288 25.7046 12.2368 25.7165 12.191 25.7407C12.151 25.7634 12.1283 25.7974 12.1283 25.8261C12.1283 25.8601 12.151 25.8887 12.197 25.9174L12.3737 26.0201C12.2483 26.1107 12.1623 26.2021 12.123 26.2994C12.0994 26.3447 12.0856 26.3945 12.0827 26.4455C12.0797 26.4966 12.0875 26.5476 12.1057 26.5954C12.151 26.6927 12.237 26.7721 12.351 26.8407C12.493 26.9207 12.6417 26.9661 12.8124 26.9774C12.9657 26.9887 13.1317 26.9774 13.2857 26.9374C13.4164 26.9147 13.5764 26.8694 13.7417 26.8121L14.391 27.1881C14.209 27.2741 14.0097 27.3481 13.793 27.3934C13.7589 27.4022 13.7261 27.4156 13.6957 27.4334C13.6444 27.4621 13.6104 27.5021 13.6157 27.5421C13.6157 27.5821 13.6444 27.6154 13.6957 27.6441C13.7357 27.6674 13.7817 27.6841 13.8384 27.6901L13.9924 27.6787C14.2657 27.6161 14.5284 27.5247 14.7677 27.4107L14.9444 27.5134C14.9897 27.5361 15.047 27.5534 15.0977 27.5534C15.1495 27.5504 15.2001 27.5368 15.2464 27.5134C15.2864 27.4907 15.309 27.4561 15.309 27.4281C15.309 27.3934 15.2864 27.3647 15.2464 27.3421L15.0637 27.2341C15.1728 27.1696 15.2648 27.0797 15.3317 26.9721ZM12.727 26.6014C12.647 26.5501 12.607 26.4987 12.6243 26.4301C12.6357 26.3674 12.681 26.3047 12.7557 26.2421L13.337 26.5787C13.2057 26.6187 13.0864 26.6414 12.995 26.6521C12.9026 26.663 12.809 26.6454 12.727 26.6014ZM14.6824 27.0174L14.1177 26.6867C14.2604 26.6414 14.391 26.6067 14.4884 26.5954C14.591 26.5787 14.665 26.5901 14.7277 26.6301C14.8477 26.6981 14.9677 26.8121 14.6824 27.0167V27.0174Z" fill="#F9A83D"/>
<g id="Group_2" opacity="0.3">
<path id="Vector_29" d="M13.7595 24.4629V28.8069C13.5729 28.8069 13.3875 28.8009 13.2015 28.7822C12.8538 28.7546 12.5094 28.6943 12.1729 28.6022V24.6616C12.4949 24.5682 12.8295 24.5129 13.1769 24.4816C13.3689 24.4696 13.5669 24.4629 13.7595 24.4629ZM15.3022 24.6676V28.6089C14.9989 28.6889 14.6822 28.7449 14.3602 28.7756V24.5002C14.6829 24.5249 14.9989 24.5802 15.3022 24.6676Z" fill="white"/>
</g>
<path id="Vector_30" d="M31.0942 23.9088L27.0129 21.5234L23.6948 23.4754L23.6935 23.4748L22.7568 24.0254L22.7582 24.0268L19.4541 25.9701L19.4521 26.8488L19.7355 27.0148L19.7275 29.7768L21.0068 30.5155L21.9262 31.0468L23.5782 32.0002L26.8735 30.0735V30.0755L27.7935 29.5381V29.5368L30.9082 27.7155L30.9169 24.8901L31.0915 24.7875L31.0942 23.9088Z" fill="#E9E7FC"/>
<path id="Vector_31" d="M30.9195 24.0488L30.9082 27.7155L23.5781 31.9995L23.5895 28.3328L30.9195 24.0488Z" fill="#F3F1FC"/>
<path id="Vector_32" d="M23.5896 28.3327L23.5782 31.9994L19.7275 29.7761L19.7382 26.1094L23.5896 28.3327Z" fill="#E9E7FC"/>
<path id="Vector_33" d="M31.0936 23.9082L31.0909 24.7869L23.5322 29.2336L23.5349 28.3549L31.0936 23.9082Z" fill="#E9E7FC"/>
<path id="Vector_34" d="M23.5355 28.356L23.5328 29.2347L19.4521 26.8494L19.4541 25.9707L23.5355 28.356Z" fill="#DEDFFB"/>
<path id="Vector_35" d="M31.0942 23.9088L23.5355 28.3555L19.4541 25.9701L27.0128 21.5234L31.0942 23.9088Z" fill="#F3F1FC"/>
<path id="Vector_36" d="M20.2119 25.9701L27.0133 21.9688L30.336 23.9108L23.5346 27.9114L20.2119 25.9701Z" fill="#E9E7FC"/>
<path id="Vector_37" d="M21.5982 27.4644H21.2662V27.3984H21.0162L21.0068 30.5158L21.9262 31.0471L21.9362 28.0098H21.5988L21.5982 27.4644Z" fill="#E93565"/>
<path id="Vector_38" d="M21.9373 27.4227L21.934 28.3007L21.0146 27.7634L21.0213 26.8867L21.9373 27.4227Z" fill="#DF3260"/>
<path id="Vector_39" d="M29.5282 23.0018L21.9388 27.4225L21.0215 26.8865L28.5889 22.4531L29.5282 23.0018Z" fill="#F45170"/>
<path id="Vector_40" d="M27.2006 26.4364H27.5326V26.3711H27.7826L27.7926 29.5371L26.8726 30.0744L26.8633 26.9818H27.2006V26.4364Z" fill="#E93565"/>
<path id="Vector_41" d="M26.8604 26.3954L26.8644 27.2727L27.7837 26.7354L27.777 25.8594L26.8604 26.3954Z" fill="#DF3260"/>
<path id="Vector_42" d="M22.7568 24.0253L26.8609 26.396L27.7775 25.86L23.6935 23.4746L22.7568 24.0253Z" fill="#F45170"/>
<path id="Vector_43" d="M28.1975 22.435L28.3335 22.351L28.3241 21.6557L27.0781 20.9543L26.3275 20.5316L25.0634 19.8203L24.5634 20.125C24.5231 20.1119 24.4798 20.1107 24.4388 20.1216C24.4271 20.1255 24.416 20.1307 24.4054 20.137L24.1648 20.2823C24.1753 20.2757 24.1864 20.2704 24.1981 20.2663C24.1354 20.287 24.0994 20.3456 24.0828 20.4183L23.8254 20.5757L23.7001 20.6523L21.8848 21.7603L21.8941 22.4557L22.1208 22.5837L22.1548 25.1077L23.1774 25.6763L23.9121 26.0843L25.2321 26.8183L26.4335 26.0937L27.1541 25.659L28.2315 25.009L28.1975 22.435Z" fill="#FEBC1F"/>
<path id="Vector_44" d="M28.1885 21.7695L28.2318 25.0095L25.2318 26.8189L25.1885 23.5789L28.1885 21.7695Z" fill="#FFD06C"/>
<path id="Vector_45" d="M25.188 23.5791L25.232 26.8192L22.1547 25.1092L22.1113 21.8691L25.188 23.5791Z" fill="#FEBC1F"/>
<path id="Vector_46" d="M28.3242 21.6562L28.3335 22.3516L25.1548 24.2916L25.1455 23.5963L28.3242 21.6562Z" fill="#FEBC1F"/>
<path id="Vector_47" d="M25.1454 23.5971L25.1548 24.2931L21.8941 22.4571L21.8848 21.7617L25.1454 23.5971Z" fill="#F9A83D"/>
<path id="Vector_48" d="M28.3241 21.6557L25.1454 23.5957L21.8848 21.7603L25.0634 19.8203L28.3241 21.6557Z" fill="#FFD06C"/>
<path id="Vector_49" d="M22.4844 21.7499L25.0697 20.1719L27.7244 21.6665L25.1397 23.2446L22.4844 21.7499Z" fill="#FEBC1F"/>
<path id="Vector_50" d="M23.601 22.9165L23.3383 22.9211L23.3376 22.8691L23.1396 22.8725L23.1776 25.6778L23.9123 26.0865L23.875 23.3438L23.6083 23.3485L23.601 22.9165Z" fill="#DF3260"/>
<path id="Vector_51" d="M23.8701 22.8788L23.8781 23.5735L23.1434 23.1601L23.1367 22.4668L23.8701 22.8788Z" fill="#E93565"/>
<path id="Vector_52" d="M27.0781 20.9559L23.8701 22.8792L23.1367 22.4665L26.3274 20.5332L27.0781 20.9559Z" fill="#F45170"/>
<path id="Vector_53" d="M26.6409 22.8757L26.9035 22.8717V22.8197L27.1009 22.8164L27.1549 25.6591L26.4342 26.0938L26.3809 23.3117L26.6475 23.3077L26.6409 22.8757Z" fill="#E93565"/>
<path id="Vector_54" d="M26.3711 22.8481L26.3844 23.5428L27.1058 23.1054L27.0898 22.4121L26.3711 22.8481Z" fill="#DF3260"/>
<path id="Vector_55" d="M23.0918 21.0242L26.3705 22.8475L27.0898 22.4115L23.8258 20.5762L23.0918 21.0242Z" fill="#E93565"/>
<path id="Vector_56" d="M26.1751 21.6378C26.1617 21.6244 26.1417 21.6178 26.1284 21.6111C26.1151 21.6044 26.0951 21.6044 26.0684 21.5978C26.0751 21.5911 26.0817 21.5911 26.0884 21.5844C26.2017 21.4778 26.1684 21.2178 26.0151 20.9978C25.962 20.9165 25.8913 20.8482 25.8084 20.7978C25.7217 20.7511 25.6351 20.7444 25.5684 20.7778C25.5417 20.5711 25.3951 20.3511 25.2217 20.2511C25.1284 20.1978 25.0417 20.1978 24.9817 20.2311L24.8284 20.3244C24.7823 20.2555 24.7206 20.1984 24.6484 20.1578C24.575 20.1178 24.5017 20.1044 24.4417 20.1244C24.4284 20.1244 24.4151 20.1311 24.4084 20.1378L24.2017 20.2644C24.095 20.2978 24.0617 20.4178 24.0817 20.5644C24.0684 20.5711 24.0617 20.5711 24.055 20.5711L23.8217 20.7178C23.7684 20.7444 23.7284 20.8044 23.7217 20.8911C23.7017 21.0911 23.835 21.3644 24.0217 21.4978C24.035 21.4978 24.0417 21.5044 24.055 21.5111C24.275 21.6378 24.9351 21.7711 24.9951 21.7844L25.0084 21.7911C25.0751 21.8511 25.7351 22.4511 25.9551 22.5711C25.9684 22.5778 25.9817 22.5844 25.9884 22.5844C26.0751 22.6244 26.1417 22.6111 26.1951 22.5711C26.1951 22.5778 26.1884 22.5844 26.1884 22.5844L26.4284 22.4378C26.5017 22.3978 26.5351 22.2978 26.5217 22.1644C26.4951 21.9578 26.3417 21.7311 26.1751 21.6378ZM24.295 21.2644C24.2884 21.2578 24.2817 21.2578 24.275 21.2511C24.1484 21.1578 24.055 20.9844 24.055 20.8444H24.0617C24.0684 20.8511 24.0817 20.8578 24.0884 20.8644C24.1617 20.9111 24.3484 21.1244 24.5484 21.3578C24.4417 21.3244 24.3484 21.2911 24.295 21.2644ZM24.4551 20.6111C24.4246 20.5488 24.4086 20.4804 24.4084 20.4111C24.4817 20.4511 24.5617 20.5311 24.6084 20.6311C24.6417 20.6844 24.6751 20.8178 24.7151 20.9711C24.5884 20.8111 24.4884 20.6778 24.4551 20.6111ZM25.1617 21.2178C25.0684 20.9044 24.9817 20.5978 24.9751 20.5044H24.9884C25.1217 20.5844 25.2351 20.7711 25.2417 20.9311C25.2417 20.9844 25.2084 21.0911 25.1617 21.2178ZM25.5417 21.0444C25.5484 21.0511 25.5551 21.0444 25.5684 21.0511C25.6217 21.0844 25.6751 21.1311 25.7217 21.1978C25.8017 21.3111 25.8351 21.4444 25.8151 21.5378C25.6884 21.5644 25.5284 21.5844 25.3817 21.5911C25.4284 21.3978 25.4884 21.1844 25.5417 21.0444ZM26.1884 22.3111C26.0817 22.2511 25.8417 22.0511 25.6017 21.8511C25.7351 21.8444 25.8484 21.8511 25.9017 21.8711C25.9151 21.8778 25.9217 21.8778 25.9351 21.8844C26.0617 21.9578 26.1684 22.1244 26.1884 22.2778V22.3111Z" fill="#E93565"/>
<path id="Vector_57" d="M25.0124 21.4822L24.7724 21.6276C24.5024 21.5649 24.1791 21.4776 24.0571 21.4102C24.0495 21.4059 24.0422 21.4013 24.0351 21.3962C23.8971 21.2996 23.7978 21.1022 23.8131 20.9562C23.8198 20.8949 23.8451 20.8529 23.8818 20.8302L24.1218 20.6855C24.0851 20.7075 24.0598 20.7502 24.0538 20.8109C24.0378 20.9575 24.1378 21.1549 24.2751 21.2509C24.2822 21.2559 24.2896 21.2605 24.2971 21.2649C24.4184 21.3322 24.7424 21.4202 25.0124 21.4822Z" fill="#CC104A"/>
<path id="Vector_58" d="M25.0991 21.4353L24.8591 21.5807C24.5931 21.2673 24.2791 20.882 24.2177 20.7593C24.1384 20.6013 24.1471 20.446 24.2331 20.3947L24.4731 20.25C24.3871 20.3013 24.3791 20.4567 24.4584 20.614C24.5197 20.7367 24.8331 21.1227 25.0991 21.4353Z" fill="#CC104A"/>
<path id="Vector_59" d="M24.1641 20.2829L24.4047 20.1376C24.4154 20.1312 24.4269 20.1261 24.4387 20.1223C24.5007 20.1023 24.5747 20.1163 24.6487 20.1576C24.7354 20.2056 24.8207 20.2896 24.8874 20.3976L24.6474 20.5423C24.5807 20.435 24.4941 20.3503 24.4081 20.3023C24.3347 20.2609 24.2607 20.247 24.1987 20.267C24.1868 20.271 24.1748 20.2763 24.1641 20.2829Z" fill="#E93565"/>
<path id="Vector_60" d="M26.3598 22.3283L26.1198 22.4736C26.0824 22.4963 26.0318 22.4976 25.9744 22.4743C25.9669 22.4711 25.9596 22.4675 25.9524 22.4636C25.8311 22.3956 25.5044 22.1223 25.2324 21.8836L25.4724 21.7383C25.7444 21.9776 26.0711 22.251 26.1924 22.3183C26.1996 22.3224 26.2069 22.3262 26.2144 22.3296C26.2718 22.353 26.3224 22.351 26.3598 22.3283Z" fill="#F45170"/>
<path id="Vector_61" d="M24.8083 20.4923L25.0483 20.3477C25.0043 20.3743 24.977 20.4297 24.9783 20.5077C24.9797 20.621 25.117 21.0783 25.2403 21.4603L25.0003 21.605C24.8763 21.223 24.7397 20.765 24.7383 20.653C24.737 20.5743 24.7637 20.519 24.8083 20.4923Z" fill="#CC104A"/>
<path id="Vector_62" d="M25.6302 20.8926C25.6231 20.8968 25.6164 20.9017 25.6102 20.9072C25.5502 20.9632 25.4536 21.3019 25.3836 21.5926L25.1436 21.7379C25.2136 21.4466 25.3102 21.1079 25.3702 21.0526C25.3763 21.0468 25.383 21.0416 25.3902 21.0372L25.6302 20.8926Z" fill="#CC104A"/>
<path id="Vector_63" d="M25.9978 21.4895L25.7578 21.6342C25.6745 21.6842 25.3878 21.7209 25.1425 21.7395L25.3825 21.5949C25.6285 21.5762 25.9145 21.5395 25.9978 21.4895ZM24.7405 20.3809L24.9805 20.2355C25.0425 20.1982 25.1285 20.2022 25.2245 20.2555C25.3965 20.3515 25.5418 20.5749 25.5698 20.7775L25.3298 20.9222C25.3011 20.7195 25.1565 20.4962 24.9838 20.4002C24.8885 20.3469 24.8018 20.3442 24.7405 20.3809ZM26.4278 22.4409L26.1878 22.5862C26.2585 22.5435 26.2958 22.4462 26.2798 22.3142C26.2551 22.1035 26.1051 21.8762 25.9338 21.7809C25.9017 21.7616 25.8661 21.7486 25.8291 21.7429L26.0691 21.5989C26.1063 21.6048 26.1421 21.6177 26.1745 21.6369C26.3451 21.7315 26.4951 21.9589 26.5205 22.1689C26.5358 22.3022 26.4985 22.3989 26.4271 22.4415L26.4278 22.4409ZM24.1625 20.7495C24.1571 20.7589 24.1451 20.7555 24.1425 20.7469C24.1231 20.7029 24.1331 20.6415 24.1391 20.5949C24.1411 20.5815 24.1418 20.5649 24.1458 20.5495C24.1137 20.5491 24.0822 20.5574 24.0545 20.5735L23.8145 20.7189C23.8765 20.6809 23.9631 20.6855 24.0571 20.7382C24.0955 20.7597 24.1309 20.7862 24.1625 20.8169L24.1698 20.8122L24.1685 20.7329C24.1667 20.7386 24.1652 20.7442 24.1625 20.7495Z" fill="#F45170"/>
<path id="Vector_64" d="M26.2794 22.3128C26.3068 22.5415 26.1761 22.6635 25.9874 22.5862C25.9769 22.5816 25.9667 22.5765 25.9568 22.5708C25.7368 22.4488 25.0728 21.8515 25.0074 21.7928L24.9968 21.7868C24.9321 21.7735 24.2741 21.6355 24.0548 21.5135C24.0442 21.5078 24.034 21.5016 24.0241 21.4948C23.8348 21.3622 23.6981 21.0908 23.7201 20.8895C23.7394 20.7041 23.8861 20.6415 24.0568 20.7361C24.0952 20.7581 24.1306 20.785 24.1621 20.8161C24.1558 20.8052 24.1498 20.7941 24.1441 20.7828C24.0254 20.5468 24.0501 20.3161 24.1988 20.2668C24.2608 20.2468 24.3348 20.2608 24.4081 20.3021C24.4948 20.3501 24.5814 20.4348 24.6474 20.5421C24.6701 20.3675 24.8114 20.3028 24.9834 20.3988C25.1568 20.4948 25.3008 20.7188 25.3288 20.9208C25.3934 20.8861 25.4788 20.8968 25.5648 20.9448C25.6381 20.9861 25.7134 21.0541 25.7768 21.1448C25.9294 21.3608 25.9601 21.6228 25.8461 21.7295C25.8408 21.7345 25.8349 21.7389 25.8288 21.7428C25.8657 21.7485 25.9012 21.7612 25.9334 21.7802C26.1048 21.8748 26.2541 22.1022 26.2794 22.3128ZM24.2174 20.7595C24.2794 20.8821 24.5928 21.2675 24.8588 21.5802C24.7788 21.2061 24.6721 20.7535 24.6101 20.6308C24.5664 20.539 24.4969 20.4619 24.4101 20.4088C24.3561 20.3795 24.3021 20.3688 24.2568 20.3835C24.1488 20.4188 24.1314 20.5875 24.2174 20.7595ZM25.3688 21.0528C25.3094 21.1082 25.2128 21.4468 25.1421 21.7382C25.4041 21.7182 25.7121 21.6782 25.7708 21.6228C25.8541 21.5455 25.8314 21.3542 25.7208 21.1968C25.6808 21.1378 25.6282 21.0884 25.5668 21.0521C25.4914 21.0101 25.4174 21.0075 25.3688 21.0521V21.0528ZM25.9741 22.4735C26.1114 22.5302 26.2068 22.4402 26.1874 22.2748C26.1757 22.1957 26.147 22.1201 26.1032 22.0531C26.0595 21.9861 26.0018 21.9294 25.9341 21.8868C25.924 21.8811 25.9135 21.876 25.9028 21.8715C25.8048 21.8315 25.4894 21.8515 25.2321 21.8822C25.5041 22.1215 25.8308 22.3955 25.9521 22.4622C25.9592 22.4664 25.9666 22.4701 25.9741 22.4735ZM24.0568 21.4088C24.1781 21.4768 24.5021 21.5642 24.7721 21.6268C24.5101 21.3068 24.1894 20.9335 24.0908 20.8641C24.0805 20.8569 24.0698 20.8503 24.0588 20.8441C23.9341 20.7748 23.8274 20.8201 23.8128 20.9548C23.7974 21.1015 23.8968 21.2988 24.0348 21.3948C24.0414 21.4002 24.0481 21.4042 24.0568 21.4088ZM25.0001 21.6042C25.1148 21.3548 25.2414 21.0441 25.2401 20.9308C25.234 20.8448 25.2078 20.7615 25.1634 20.6876C25.119 20.6136 25.0578 20.5513 24.9848 20.5055C24.8468 20.4288 24.7361 20.4948 24.7381 20.6521C24.7394 20.7648 24.8761 21.2222 25.0001 21.6042Z" fill="#DF3260"/>
<path id="Vector_65" d="M25.3291 20.9209L25.5691 20.7762C25.6338 20.7415 25.7191 20.7522 25.8058 20.8002C25.8791 20.8415 25.9538 20.9095 26.0171 20.9995C26.1704 21.2155 26.2011 21.4775 26.0864 21.5849C26.0811 21.5896 26.0753 21.5939 26.0691 21.5975L25.8291 21.7422C25.8353 21.7385 25.8411 21.7343 25.8464 21.7296C25.9604 21.6229 25.9298 21.3609 25.7771 21.1442C25.7221 21.0629 25.6497 20.9948 25.5651 20.9449C25.4784 20.8969 25.3938 20.8862 25.3291 20.9209Z" fill="#E93565"/>
</g>
</svg>
