<svg width="16" height="16" viewBox="0 0 16 16" fill="none" xmlns="http://www.w3.org/2000/svg">
<path d="M12.9997 8.33268C12.9997 7.41268 13.7463 6.66602 14.6663 6.66602V5.99935C14.6663 3.33268 13.9997 2.66602 11.333 2.66602H4.66634C1.99967 2.66602 1.33301 3.33268 1.33301 5.99935V6.33268C2.25301 6.33268 2.99967 7.07935 2.99967 7.99935C2.99967 8.91935 2.25301 9.66602 1.33301 9.66602V9.99935C1.33301 12.666 1.99967 13.3327 4.66634 13.3327H11.333C13.9997 13.3327 14.6663 12.666 14.6663 9.99935C13.7463 9.99935 12.9997 9.25268 12.9997 8.33268Z" stroke="#9CA3AF" stroke-linecap="round" stroke-linejoin="round"/>
<path d="M6 9.83398L10 5.83398" stroke="#9CA3AF" stroke-linecap="round" stroke-linejoin="round"/>
<path d="M9.99666 9.83333H10.0027" stroke="#9CA3AF" stroke-linecap="round" stroke-linejoin="round"/>
<path d="M5.99666 6.16732H6.00265" stroke="#9CA3AF" stroke-linecap="round" stroke-linejoin="round"/>
</svg>
