<svg width="16" height="16" viewBox="0 0 16 16" fill="none" xmlns="http://www.w3.org/2000/svg">
<g clip-path="url(#clip0_389_16301)">
<path d="M14 4.00016H3.33333C2.76067 4.00016 2.21867 3.75216 1.84333 3.33416C2.21 2.92483 2.74267 2.66683 3.33333 2.66683H15.3333C15.702 2.66683 16 2.36816 16 2.00016C16 1.63216 15.702 1.3335 15.3333 1.3335H3.33333C1.49267 1.3335 0 2.82616 0 4.66683V11.3335C0 13.1742 1.49267 14.6668 3.33333 14.6668H14C15.1047 14.6668 16 13.7715 16 12.6668V6.00016C16 4.8955 15.1047 4.00016 14 4.00016ZM14.6667 12.6668C14.6667 13.0342 14.368 13.3335 14 13.3335H3.33333C2.23067 13.3335 1.33333 12.4362 1.33333 11.3335V4.6655C1.90267 5.0915 2.60267 5.3335 3.33333 5.3335H14C14.368 5.3335 14.6667 5.63283 14.6667 6.00016V12.6668ZM13.3333 9.3335C13.3333 9.7015 13.0347 10.0002 12.6667 10.0002C12.2987 10.0002 12 9.7015 12 9.3335C12 8.9655 12.2987 8.66683 12.6667 8.66683C13.0347 8.66683 13.3333 8.9655 13.3333 9.3335Z" fill="#021017"/>
</g>
<defs>
<clipPath id="clip0_389_16301">
<rect width="16" height="16" fill="white"/>
</clipPath>
</defs>
</svg>
